<?xml version="1.0" standalone="no"?>
<!DOCTYPE svg PUBLIC "-//W3C//DTD SVG 1.1//EN" "http://www.w3.org/Graphics/SVG/1.1/DTD/svg11.dtd" >
<svg>
<metadata>
Created by FontForge 20120731 at Mon Dec 22 10:29:27 2014
 By Orthosie Webhosting
(c) 2014 Sergiy S. Tkachenko / 4th february
(c) 2014 GetVoIP.com
http://creativecommons.org/licenses/by-nd/3.0
http://creativecommons.org/licenses/by-nd/3.0/deed.ru
</metadata>
<defs>
<font id="GetVoIPGrotesque-Italic" horiz-adv-x="722" >
  <font-face 
    font-family="GetVoIP Grotesque"
    font-weight="700"
    font-style="italic"
    font-stretch="normal"
    units-per-em="1000"
    panose-1="2 11 10 5 4 8 2 2 2 4"
    ascent="750"
    descent="-250"
    x-height="500"
    cap-height="670"
    bbox="-125 -270 1315.77 940"
    underline-thickness="50"
    underline-position="-50"
    unicode-range="U+0020-FB03"
  />
<missing-glyph horiz-adv-x="260" 
 />
    <glyph glyph-name="ff" unicode="ff" horiz-adv-x="824" 
d="M270 360l-85 -610h-160l112 799q7 48 25.5 85t51.5 62.5t81.5 39t116.5 13.5q28 0 53.5 -2.5t45.5 -7.5l-21 -146q-19 6 -43 8.5t-47 2.5q-34 0 -54 -5t-30.5 -15t-14.5 -23.5t-7 -31.5l-4 -29h227l7 49q7 48 25.5 85t51.5 62.5t81.5 39t116.5 13.5q28 0 53.5 -2.5
t45.5 -7.5l-21 -146q-19 6 -43 8.5t-47 2.5q-34 0 -54 -5t-30.5 -15t-14.5 -23.5t-7 -31.5l-4 -29h154l-19 -140h-155l-85 -610h-160l85 610h-227z" />
    <glyph glyph-name="fi" unicode="fi" horiz-adv-x="695" 
d="M290 500l4 29q3 18 6.5 31.5t13.5 23.5t28 15t48 5q20 0 41.5 -2.5t38.5 -8.5l21 146q-17 5 -40.5 7.5t-48.5 2.5q-65 0 -112 -13.5t-78.5 -39t-49.5 -62.5t-25 -85l-113 -799h160l86 610h235l-50 -360h160l60 430l-110 70h-275zM540 675q5 31 25.5 53t70.5 22h8
q50 0 65.5 -22t10.5 -53l-2 -12q-5 -31 -25.5 -53t-70.5 -22h-8q-50 0 -65.5 22t-10.5 53z" />
    <glyph glyph-name="ffi" unicode="ffi" horiz-adv-x="1082" 
d="M497 360l-86 -610h160l86 610h235l-50 -360h160l60 430l-110 70h-275l4 29q3 18 6.5 31.5t13.5 23.5t28 15t48 5q20 0 41.5 -2.5t38.5 -8.5l21 146q-17 5 -40.5 7.5t-48.5 2.5q-65 0 -112 -13.5t-78.5 -39t-49.5 -62.5t-25 -85l-7 -49h-227l4 29q3 18 6.5 31.5t13.5 23.5
t28 15t48 5q20 0 41.5 -2.5t38.5 -8.5l21 146q-17 5 -40.5 7.5t-48.5 2.5q-65 0 -112 -13.5t-78.5 -39t-49.5 -62.5t-25 -85l-113 -799h160l86 610h227zM927 675q5 31 25.5 53t70.5 22h8q50 0 65.5 -22t10.5 -53l-2 -12q-5 -31 -25.5 -53t-70.5 -22h-8q-50 0 -65.5 22
t-10.5 53z" />
    <glyph glyph-name=".notdef" horiz-adv-x="260" 
 />
    <glyph glyph-name="space" unicode=" " horiz-adv-x="260" 
 />
    <glyph glyph-name="exclam" unicode="!" horiz-adv-x="320" 
d="M354 670l-100 -430h-120l20 430h200zM71 87q3 17 9.5 32.5t19 27t32 18.5t47.5 7h8q28 0 46 -7t27.5 -18.5t11.5 -27t-1 -32.5l-2 -12q-3 -17 -9.5 -32.5t-19 -27t-31.5 -18.5t-47 -7h-8q-56 0 -73.5 25t-11.5 60z" />
    <glyph glyph-name="quotedbl" unicode="&#x22;" horiz-adv-x="450" 
d="M310 750l-79 -336h-96l15 336h160zM510 750l-79 -336h-96l15 336h160z" />
    <glyph glyph-name="numbersign" unicode="#" horiz-adv-x="720" 
d="M252 280l29 100h-142l12 90h156l56 190h90l-56 -190h100l56 190h90l-56 -190h114l-12 -90h-128l-29 -100h143l-13 -90h-156l-56 -190h-90l56 190h-100l-56 -190h-90l56 190h-114l13 90h127zM342 280h100l29 100h-100z" />
    <glyph glyph-name="dollar" unicode="$" horiz-adv-x="785" 
d="M347 0q-75 1 -146 9.5t-137 22.5l24 168q68 -16 140 -26.5t141 -12.5l13 95q-28 1 -59 5t-61.5 11.5t-58 21t-46.5 34.5t-28 51t-3 71l2 13q6 39 24.5 74.5t55 63t93.5 46t140 22.5l11 81h90l-11 -80q66 -1 127.5 -9.5t118.5 -23.5l-22 -155q-62 11 -123 17.5t-124 8.5
l-13 -94q26 -1 57.5 -4.5t62.5 -11.5t59 -21.5t48 -34.5t29.5 -51.5t3.5 -71.5l-2 -13q-6 -39 -25 -74.5t-55.5 -63.5t-94 -46t-141.5 -22l-12 -80h-90zM574 213q0 22 -24 30t-78 10l-13 -92q37 2 60 7t35 12t16 15.5t4 17.5zM307 458q0 -22 23.5 -30.5t74.5 -11.5l13 92
q-37 -2 -59 -7.5t-33.5 -12t-15 -14.5t-3.5 -16z" />
    <glyph glyph-name="percent" unicode="%" horiz-adv-x="671" 
d="M141 0h90l394 670h-90zM128 558q4 25 12.5 47.5t24.5 39t40.5 26t60.5 9.5h14q36 0 58 -9.5t33.5 -26t14 -39t-1.5 -47.5l-3 -20q-4 -26 -12.5 -48t-24.5 -38.5t-40.5 -26t-60.5 -9.5h-14q-36 0 -58 9.5t-33.5 26t-14 39t1.5 47.5zM383 131q4 25 12.5 47.5t24.5 39
t40.5 26t60.5 9.5h14q36 0 58 -9.5t33.5 -26t14 -39t-1.5 -47.5l-3 -20q-4 -26 -12.5 -48t-24.5 -38.5t-40.5 -26t-60.5 -9.5h-14q-36 0 -58 9.5t-33.5 26t-14 39t1.5 47.5z" />
    <glyph glyph-name="ampersand" unicode="&#x26;" horiz-adv-x="944" 
d="M860 401q-10 -69 -40.5 -129.5t-75.5 -110.5q54 -18 98 -18q15 0 31 2t42 7l-23 -162q-25 -7 -46.5 -8.5t-51.5 -1.5q-5 0 -23 1.5t-45.5 7t-63.5 17t-77 31.5q-53 -28 -108 -42.5t-106 -14.5h-26q-86 0 -141.5 15t-86.5 41t-40.5 59.5t-3.5 71.5l2 13q4 29 19 57
t38.5 53.5t55 47t68.5 36.5q-11 32 -12.5 54.5t0.5 30.5l2 13q6 43 24.5 82.5t53.5 69.5t89 47.5t131 17.5h36q59 0 112.5 -8.5t104.5 -24.5l-23 -165q-61 17 -121.5 27t-111.5 10q-38 0 -60.5 -5.5t-34.5 -13t-15.5 -17t-3.5 -16.5q0 -15 6.5 -37t21.5 -48t39 -56t60 -61
q26 -23 55 -43q26 32 44.5 74t26.5 96h180zM418 149q-36 32 -62.5 61.5t-46.5 57.5q-35 -29 -44.5 -50t-9.5 -40q0 -9 3.5 -19t15 -18.5t32 -14t54.5 -5.5q40 0 81 9q-6 5 -12 9.5t-11 9.5z" />
    <glyph glyph-name="quotesingle" unicode="'" horiz-adv-x="250" 
d="M310 750l-79 -336h-96l15 336h160z" />
    <glyph glyph-name="parenleft" unicode="(" horiz-adv-x="440" 
d="M355 -250h-18q-95 0 -151.5 36.5t-84 100t-30.5 150t11 187.5l7 52q13 100 40.5 187t73 150.5t113 100t162.5 36.5h18l-20 -141q-68 0 -115 -32.5t-77 -97t-43.5 -159.5t-13.5 -221q0 -42 6.5 -79.5t23.5 -66.5t45.5 -46t72.5 -17z" />
    <glyph glyph-name="parenright" unicode=")" horiz-adv-x="440" 
d="M35 -110q67 0 114.5 32.5t77 97t43 159.5t13.5 221q0 42 -6.5 79.5t-23 66.5t-45 46t-72.5 17l20 141h18q94 0 151 -36.5t84.5 -100t30 -150.5t-10.5 -187l-7 -52q-14 -101 -41 -187.5t-72.5 -150t-113.5 -100t-162 -36.5h-18z" />
    <glyph glyph-name="asterisk" unicode="*" horiz-adv-x="521" 
d="M396 334l-73 125l-113 -121l-64 59l109 115l-132 46l36 88l139 -47l21 152h92l-21 -152l152 47l12 -88l-149 -47l74 -120z" />
    <glyph glyph-name="plus" unicode="+" horiz-adv-x="720" 
d="M445 290v-260h-90v260h-261v90h261v261h90v-261h260v-90h-260z" />
    <glyph glyph-name="comma" unicode="," horiz-adv-x="360" 
d="M82 -86q53 0 80 21t40 53q-21 -8 -43 -8q-50 0 -67.5 28t-10.5 67l2 12q3 19 10.5 36.5t21 30.5t35 20.5t52.5 7.5h8q31 0 50.5 -7.5t30 -20.5t13 -30.5t-0.5 -36.5l-2 -12q-7 -46 -19 -88.5t-36.5 -75t-66 -52t-107.5 -19.5l10 74v0z" />
    <glyph glyph-name="hyphen" unicode="-" horiz-adv-x="471" 
d="M451 360v-140h-351v140h351z" />
    <glyph glyph-name="period" unicode="." horiz-adv-x="360" 
d="M82 87q5 39 31 67t88 28h8q31 0 50.5 -7.5t30 -20.5t13 -30.5t-0.5 -36.5l-2 -12q-5 -39 -31 -67t-88 -28h-8q-31 0 -50.5 7.5t-30 20.5t-13 30t0.5 37z" />
    <glyph glyph-name="slash" unicode="/" horiz-adv-x="351" 
d="M367 750h90l-492 -1000h-90z" />
    <glyph glyph-name="zero" unicode="0" horiz-adv-x="720" 
d="M91 361q9 68 31.5 128t63.5 104.5t102.5 70.5t150.5 26h36q88 0 143 -26t83 -70.5t33.5 -104.5t-3.5 -128l-7 -52q-9 -68 -31.5 -128t-63.5 -104.5t-103.5 -70.5t-150.5 -26h-36q-89 0 -143 26t-82 70.5t-33.5 104.5t3.5 128zM259 264q0 -25 5 -47.5t18.5 -39.5t37 -27
t60.5 -10q52 0 86 17t54 51t27.5 83.5t7.5 114.5q0 25 -5 47t-18.5 39t-37 27t-60.5 10q-53 0 -86.5 -17t-53.5 -51t-27.5 -83.5t-7.5 -113.5z" />
    <glyph glyph-name="one" unicode="1" horiz-adv-x="720" 
d="M80 0l22 160h230l40 278l-228 -123l24 170l379 205h40l-75 -530h171l-22 -160h-581z" />
    <glyph glyph-name="two" unicode="2" horiz-adv-x="720" 
d="M684 160l-22 -160h-605l29 209q7 49 27.5 83.5t49.5 57t63 35.5t68 19.5t64.5 8t51.5 2.5q38 1 64 4t42 9.5t23 19t7 32.5q0 8 -4 16.5t-16.5 16t-36 12t-61.5 4.5q-66 0 -132 -10t-133 -27l23 165q57 16 115.5 24.5t120.5 8.5h36q87 0 141 -17.5t83.5 -47.5t38 -69.5
t4.5 -82.5l-1 -13q-5 -49 -24.5 -83t-47.5 -56.5t-62.5 -35.5t-68.5 -19.5t-65.5 -8t-54.5 -2.5q-35 -1 -59.5 -3.5t-41 -8.5t-25 -16.5t-10.5 -28.5l-5 -38h424z" />
    <glyph glyph-name="three" unicode="3" horiz-adv-x="720" 
d="M315 -20q-127 0 -237 32l23 165q32 -9 61.5 -16t58.5 -11.5t60 -7t66 -2.5q55 0 88 5.5t50.5 15t22.5 23t5 30.5q0 12 -7 22t-30.5 17.5t-68 12t-118.5 4.5h-18l-11 130l216 115l-87 -5h-240l22 160h536l-21 -150l-183 -119q55 -10 90.5 -29t55 -44t24.5 -55.5t0 -62.5
l-3 -20q-6 -44 -25.5 -82t-58.5 -66.5t-100 -45t-151 -16.5h-20z" />
    <glyph glyph-name="four" unicode="4" horiz-adv-x="720" 
d="M558 670l-257 -370h170l17 118l152 82h40l-29 -200h71l-22 -160h-71l-20 -140h-180l20 140h-380l20 140l270 390h199z" />
    <glyph glyph-name="five" unicode="5" horiz-adv-x="720" 
d="M345 510l-17 -80l115 -5q17 -1 43.5 -2.5t56.5 -7.5t59.5 -18t51 -34.5t32 -57t2.5 -85.5l-2 -13q-7 -45 -27 -86t-58.5 -72.5t-98 -50t-146.5 -18.5h-36q-71 0 -134 8.5t-122 24.5l23 165q69 -17 141 -27t134 -10q47 0 75.5 6.5t44 17t20.5 24.5t5 30q0 19 -7 29t-20 15
t-31 7t-40 4l-272 23l82 373h485l-22 -160h-337z" />
    <glyph glyph-name="six" unicode="6" horiz-adv-x="720" 
d="M485 690q27 0 57 -2t59.5 -6.5t57 -10.5t49.5 -14l-24 -167q-23 10 -51.5 17.5t-58 13t-58.5 8t-53 2.5q-47 0 -78 -9.5t-50.5 -27.5t-29.5 -43.5t-16 -56.5q32 12 67 17t80 5q66 0 112 -8.5t76.5 -24t46.5 -36t23 -44t6.5 -50t-4.5 -52.5l-2 -13q-6 -43 -23 -80.5
t-53.5 -66t-97 -45t-153.5 -16.5h-37q-82 0 -132.5 25.5t-76 70t-30.5 103.5t4 126l7 52q9 69 32 129.5t65 105.5t106 71.5t155 26.5h25zM395 140q40 0 64 6.5t37 17t17 23.5t4 26q0 10 -4.5 19t-19 16t-40.5 11t-69 4q-67 0 -114 -10q-2 -27 2.5 -48.5t18 -35.5t38.5 -21.5
t66 -7.5z" />
    <glyph glyph-name="seven" unicode="7" horiz-adv-x="720" 
d="M522 510h-391l22 160h601l-19 -140l-368 -530h-188z" />
    <glyph glyph-name="eight" unicode="8" horiz-adv-x="720" 
d="M697 190l-3 -20q-6 -39 -24 -74t-54.5 -60.5t-93.5 -40.5t-141 -15h-48q-84 0 -137 15t-82.5 40.5t-37.5 60.5t-2 74l3 20q7 45 26.5 76t63.5 54q-21 25 -29.5 64t-0.5 96l3 20q6 39 23.5 73.5t51 60.5t87 41t131.5 15h48q78 0 127.5 -15t76 -41t34 -60.5t1.5 -73.5
l-3 -20q-12 -82 -68 -126q27 -24 41.5 -63.5t6.5 -100.5zM237 188q0 -10 5 -18.5t20 -15t42.5 -10.5t72.5 -4h6q51 0 82 5t47 13.5t21 20.5t5 27q0 17 -8.5 25.5t-27 12t-48 4t-71.5 2.5q-27 1 -55.5 3t-54.5 8q-17 -11 -26.5 -27.5t-9.5 -45.5zM557 482q0 10 -4.5 19
t-17.5 15.5t-37 10t-63 3.5q-47 0 -74.5 -5t-42 -14t-19 -22.5t-4.5 -29.5t7 -25t23.5 -14t44.5 -7t71 -3q19 -1 41.5 -2t45.5 -5q12 11 20.5 28.5t8.5 50.5z" />
    <glyph glyph-name="nine" unicode="9" horiz-adv-x="720" 
d="M328 -20q-27 0 -57 2t-59 6.5t-56.5 10.5t-49.5 14l23 167q23 -10 51.5 -17.5t58 -13t58.5 -8t53 -2.5q47 0 77.5 9.5t50 27.5t30 43.5t16.5 56.5q-32 -13 -67 -17.5t-79 -4.5q-99 0 -154.5 19t-81 49.5t-28 69t3.5 77.5l2 13q6 43 23 80.5t53.5 66t96.5 45t153 16.5h37
q82 0 132.5 -25.5t76 -70t30.5 -103.5t-4 -126l-7 -52q-9 -69 -32 -129.5t-65 -105.5t-106 -71.5t-155 -26.5h-25zM418 530q-40 0 -64 -6.5t-37 -17t-17 -23.5t-4 -26q0 -10 4.5 -19t19 -16t40.5 -11t69 -4q33 0 60.5 2t53.5 7q2 27 -2 48.5t-17.5 36t-39 22t-66.5 7.5z" />
    <glyph glyph-name="colon" unicode=":" horiz-adv-x="360" 
d="M82 87q5 39 31 67t88 28h8q31 0 50.5 -7.5t30 -20.5t13 -30.5t-0.5 -36.5l-2 -12q-5 -39 -31 -67t-88 -28h-8q-31 0 -50.5 7.5t-30 20.5t-13 30t0.5 37zM129 425q2 19 9 36.5t21.5 30.5t36.5 20.5t53 7.5h8q31 0 50.5 -7.5t30 -20.5t13 -30.5t-0.5 -36.5l-2 -12
q-3 -20 -10.5 -37t-21.5 -30t-35.5 -20.5t-52.5 -7.5h-8q-31 0 -50 7.5t-29 20.5t-12.5 30t-0.5 37z" />
    <glyph glyph-name="semicolon" unicode=";" horiz-adv-x="360" 
d="M82 -86q53 0 80 21t40 53q-21 -8 -43 -8q-50 0 -67.5 28t-10.5 67l2 12q3 19 10.5 36.5t21 30.5t35 20.5t52.5 7.5h8q31 0 50.5 -7.5t30 -20.5t13 -30.5t-0.5 -36.5l-2 -12q-7 -46 -19 -88.5t-36.5 -75t-66 -52t-107.5 -19.5zM130 425q2 19 9 36.5t21.5 30.5t36.5 20.5
t53 7.5h8q31 0 50 -7.5t29 -20.5t12.5 -30.5t0.5 -36.5l-1 -12q-2 -20 -9.5 -37t-21.5 -30t-36 -20.5t-53 -7.5h-8q-31 0 -50 7.5t-29 20.5t-12.5 30t-0.5 37z" />
    <glyph glyph-name="less" unicode="&#x3c;" horiz-adv-x="720" 
d="M181 367l507 323l-15 -110l-386 -245l317 -245l-15 -110l-417 323z" />
    <glyph glyph-name="equal" unicode="=" horiz-adv-x="720" 
d="M675 470v-90h-550v90h550zM675 280v-90h-550v90h550z" />
    <glyph glyph-name="greater" unicode="&#x3e;" horiz-adv-x="720" 
d="M633 303l-507 -323l15 110l386 245l-317 245l16 110l416 -323z" />
    <glyph glyph-name="question" unicode="?" horiz-adv-x="675" 
d="M198 214l5 35q9 66 36.5 103t61 55t67.5 22.5t56 5.5q20 1 36 2.5t26.5 6.5t16 15t5.5 27q0 8 -4 15.5t-17 13.5t-36.5 10t-62.5 4q-64 0 -130.5 -10t-133.5 -27l23 165q57 16 115.5 24.5t120.5 8.5h36q87 0 142 -16t85.5 -43t39.5 -63t3 -75l-2 -13q-11 -72 -44.5 -111
t-74 -57t-80 -22t-62.5 -6q-10 -1 -17.5 -2.5t-13 -6t-9 -13t-5.5 -24.5l-3 -24h-180zM169 75q-6 -35 11 -60t73 -25h8q56 0 79 25t29 60l2 12q3 17 1 32.5t-11.5 27t-27.5 18.5t-46 7h-8q-28 0 -47.5 -7t-32 -18.5t-19 -27t-9.5 -32.5z" />
    <glyph glyph-name="at" unicode="@" horiz-adv-x="805" 
d="M744 -47q-29 -6 -62 -10.5t-67.5 -8t-69.5 -5t-66 -1.5q-126 0 -205 25.5t-122 69t-54.5 101.5t-2.5 123l7 52q8 58 36.5 108.5t83 88.5t138 60t201.5 22q64 0 112.5 -8.5t79 -31.5t42 -63t2.5 -103l-34 -240h-32l-39 25q-43 -22 -88.5 -31.5t-102.5 -9.5q-64 0 -105 11
t-64 29.5t-30 42.5t-4 51l1 8q3 25 17 47.5t42.5 39.5t73 26.5t108.5 9.5q75 0 128 -15q4 28 2 46.5t-14.5 29.5t-39.5 15.5t-73 4.5q-100 0 -163 -14.5t-98.5 -44t-48.5 -72.5t-13 -100q0 -42 13.5 -76t46 -59t85.5 -38.5t132 -13.5q30 0 64 2t68.5 5.5t68.5 9t63 13.5z
M517 216q39 0 71 4t61 13l6 37q-26 8 -56 11.5t-66 3.5t-57.5 -3.5t-32.5 -8.5t-14 -12.5t-3 -14.5q0 -6 3 -11.5t13 -9.5t28 -6.5t47 -2.5z" />
    <glyph glyph-name="A" unicode="A" horiz-adv-x="816" 
d="M20 0l6 40l386 630h180l210 -630l-6 -40h-162l-40 130h-337l-75 -130h-162zM549 280l-69 229l-135 -229h204z" />
    <glyph glyph-name="B" unicode="B" horiz-adv-x="830" 
d="M164 670q88 10 183 15t186 5h28q84 0 137 -16t82 -43t37 -63.5t2 -77.5l-3 -20q-3 -22 -12 -42.5t-25 -37.5t-41 -31t-60 -23q38 -9 63 -23t38.5 -32t17.5 -38.5t1 -42.5l-3 -20q-6 -41 -25 -77.5t-58 -63.5t-100 -43t-151 -16h-28q-91 0 -184.5 5t-178.5 15zM514 530
q-37 0 -88.5 -2t-102.5 -7l-15 -111h178q61 0 95 5t51 14t21 22t4 30q0 10 -5 19t-20 16t-43.5 10.5t-74.5 3.5zM285 250l-14 -101q49 -5 100.5 -7t91.5 -2q60 0 95 5t53 14t23 21.5t5 28.5q0 9 -5.5 16.5t-24 13t-53.5 8.5t-93 3h-178z" />
    <glyph glyph-name="C" unicode="C" horiz-adv-x="756" 
d="M111 361q10 68 35.5 128t72.5 104.5t120.5 70.5t179.5 26h36q68 0 130.5 -8.5t122.5 -24.5l-23 -163q-33 10 -67.5 17t-68.5 11.5t-65 6.5t-56 2q-78 0 -126.5 -15.5t-74.5 -48t-35 -81.5t-9 -116q0 -29 7.5 -53t28.5 -41.5t57.5 -27.5t95.5 -10q25 0 57 2t67 6.5t72 12
t73 17.5l-23 -164q-64 -15 -129.5 -23.5t-133.5 -8.5h-36q-106 0 -172.5 26t-102 70.5t-43.5 104.5t2 128z" />
    <glyph glyph-name="D" unicode="D" horiz-adv-x="846" 
d="M839 309q-10 -68 -36.5 -128t-77.5 -104.5t-130 -70.5t-194 -26h-36q-77 0 -151.5 5t-143.5 15l94 669q72 11 148 16t153 5h36q115 0 187 -26t111 -70.5t48.5 -104.5t-0.5 -128zM392 138q90 0 144 15.5t83 48t38 81t9 114.5q0 29 -8.5 53.5t-32.5 42.5t-66.5 28
t-110.5 10q-26 0 -58 -1t-66 -3l-54 -385q34 -2 65 -3t57 -1z" />
    <glyph glyph-name="E" unicode="E" horiz-adv-x="760" 
d="M783 510h-461l-14 -100h361l-23 -160h-361l-13 -90h461l-22 -160h-641l94 670h641z" />
    <glyph glyph-name="F" unicode="F" horiz-adv-x="760" 
d="M783 510h-461l-14 -100h361l-23 -160h-361l-35 -250h-180l94 670h641z" />
    <glyph glyph-name="G" unicode="G" horiz-adv-x="856" 
d="M833 336l-45 -324q-73 -15 -149.5 -23.5t-153.5 -8.5h-36q-115 0 -187 26t-111 70.5t-48.5 104.5t0.5 128l8 52q10 68 36.5 128t77.5 104.5t130 70.5t194 26h36q72 0 140.5 -8.5t132.5 -24.5l-23 -163q-71 20 -146 28.5t-131 8.5q-90 0 -144 -15.5t-83 -47.5t-38 -80.5
t-9 -114.5q0 -29 8.5 -54t32.5 -43t66.5 -28t110.5 -10q55 0 124 6l27 192h180z" />
    <glyph glyph-name="H" unicode="H" horiz-adv-x="850" 
d="M344 670l-36 -260h350l36 260h180l-94 -670h-180l35 250h-350l-35 -250h-180l94 670h180z" />
    <glyph glyph-name="I" unicode="I" horiz-adv-x="320" 
d="M344 670l-94 -670h-180l94 670h180z" />
    <glyph glyph-name="J" unicode="J" horiz-adv-x="477" 
d="M331 670h180l-66 -470q-8 -53 -28 -93t-56 -67t-89 -41t-127 -14q-29 0 -60.5 2.5t-55.5 7.5l23 165q23 -8 53 -11.5t56 -3.5q34 0 54.5 5t31 14.5t14.5 23.5t7 32z" />
    <glyph glyph-name="K" unicode="K" horiz-adv-x="789" 
d="M344 670l-36 -260h115l254 260h176l-5 -40l-289 -295l206 -295l-6 -40h-176l-175 250h-123l-35 -250h-180l94 670h180z" />
    <glyph glyph-name="L" unicode="L" horiz-adv-x="760" 
d="M70 0l94 670h180l-72 -510h461l-22 -160h-641z" />
    <glyph glyph-name="M" unicode="M" horiz-adv-x="968" 
d="M457 137l-151 263l-56 -400h-180l94 670h180l186 -343l282 343h180l-94 -670h-180l56 400l-225 -263h-92z" />
    <glyph glyph-name="N" unicode="N" horiz-adv-x="851" 
d="M635 240l60 430h180l-94 -670h-180l-291 430l-60 -430h-180l94 670h180z" />
    <glyph glyph-name="O" unicode="O" horiz-adv-x="900" 
d="M111 361q9 68 34.5 128t74.5 104.5t124.5 70.5t184.5 26h36q109 0 177 -26t104.5 -70.5t45 -104.5t-0.5 -128l-7 -52q-9 -68 -35 -128t-75 -104.5t-124.5 -70.5t-184.5 -26h-36q-109 0 -177 26t-104 70.5t-44.5 104.5t0.5 128zM280 275q0 -27 7.5 -51.5t28.5 -43
t58 -29.5t96 -11q79 0 127 17t74 49.5t34.5 80t8.5 107.5q0 27 -7.5 51.5t-28.5 43t-58 29.5t-96 11q-79 0 -127 -17t-74 -49.5t-34.5 -80t-8.5 -107.5z" />
    <glyph glyph-name="P" unicode="P" horiz-adv-x="800" 
d="M808 410q-6 -50 -24.5 -93.5t-54 -76t-89.5 -51.5t-132 -19h-28q-54 0 -105.5 1t-99.5 9l-25 -180h-180l94 670q88 10 183 15t186 5h28q84 0 136.5 -19t80 -51.5t34.5 -76.5t1 -93zM474 330q53 0 85 8t48.5 24t21.5 40.5t5 57.5q0 16 -5 29t-18.5 22t-38 14t-63.5 5
q-32 0 -83.5 -2t-102.5 -7l-25 -182q46 -6 87.5 -7.5t88.5 -1.5z" />
    <glyph glyph-name="Q" unicode="Q" horiz-adv-x="900" 
d="M558 -200l-90 180h-39q-109 0 -177.5 26t-105 70.5t-45 104.5t1.5 128l8 52q10 68 35.5 128t74.5 104.5t124 70.5t184 26h36q109 0 177.5 -26t105 -70.5t45 -104.5t-1.5 -128l-8 -52q-8 -50 -23.5 -96.5t-42.5 -85.5t-67 -70t-95 -50l83 -167l-6 -40h-174zM280 275
q0 -27 7.5 -51.5t28.5 -43t58 -29.5t96 -11q79 0 127 17t74 49.5t34.5 80t8.5 107.5q0 27 -7.5 51.5t-28.5 43t-58 29.5t-96 11q-79 0 -127 -17t-74 -49.5t-34.5 -80t-8.5 -107.5z" />
    <glyph glyph-name="R" unicode="R" horiz-adv-x="810" 
d="M586 0l-104 210q-54 0 -103.5 1t-97.5 9l-31 -220h-180l94 670q88 10 183 15t186 5h28q84 0 137 -17.5t81.5 -47.5t36 -70t0.5 -85l-6 -40q-9 -63 -41 -114.5t-100 -79.5l97 -196l-6 -40h-174zM512 530q-35 0 -86.5 -2t-102.5 -7l-20 -142q46 -6 88 -7.5t68 -1.5
q60 0 95.5 5.5t53.5 18.5t23.5 33t5.5 50q0 10 -4.5 20t-18 17t-38 11.5t-64.5 4.5z" />
    <glyph glyph-name="S" unicode="S" horiz-adv-x="785" 
d="M411 140q54 0 86 5.5t49 15t22.5 21t5.5 23.5q0 15 -8.5 24.5t-26.5 14.5t-47 7.5t-69 3.5q-26 1 -59.5 3t-68.5 8.5t-68.5 19t-57.5 35t-36 56.5t-5 83l2 13q6 43 27 82.5t63 69.5t107.5 47.5t160.5 17.5h36q69 0 133 -8.5t124 -24.5l-24 -165q-70 17 -140 27t-144 10
q-54 0 -86.5 -5.5t-50 -14.5t-22.5 -20.5t-5 -22.5q0 -16 8.5 -25.5t27 -14.5t47 -7.5t67.5 -3.5q24 -1 57 -2.5t68.5 -8t69.5 -19.5t59 -35.5t37 -57t5 -83.5l-2 -13q-6 -43 -27 -82t-63 -69t-107.5 -47.5t-161.5 -17.5h-36q-79 0 -153 8.5t-143 23.5l24 168
q78 -18 163 -29t162 -11z" />
    <glyph glyph-name="T" unicode="T" horiz-adv-x="741" 
d="M280 0l72 510h-260l22 160h701l-22 -160h-261l-72 -510h-180z" />
    <glyph glyph-name="U" unicode="U" horiz-adv-x="850" 
d="M879 670l-55 -391q-9 -62 -32.5 -116t-68 -95t-114 -64.5t-169.5 -23.5h-36q-100 0 -162.5 23.5t-96 64.5t-42 95t0.5 116l55 391h180l-51 -365q-5 -33 -6.5 -62.5t12.5 -52.5t48.5 -36.5t102.5 -13.5q67 0 105.5 13.5t58.5 36.5t27 52.5t12 62.5l51 365h180z" />
    <glyph glyph-name="V" unicode="V" horiz-adv-x="816" 
d="M891 670l-6 -40l-387 -630h-180l-209 630l6 40h162l154 -510l298 510h162z" />
    <glyph glyph-name="W" unicode="W" horiz-adv-x="1021" 
d="M271 670l72 -441l199 441h127l72 -441l199 441h156l-6 -40l-319 -630h-123l-79 433l-196 -433h-123l-141 630l6 40h156z" />
    <glyph glyph-name="X" unicode="X" horiz-adv-x="764" 
d="M324 335l-205 295l5 40h177l146 -210l205 210h176l-5 -40l-289 -295l206 -295l-6 -40h-176l-147 209l-204 -209h-177l6 40z" />
    <glyph glyph-name="Y" unicode="Y" horiz-adv-x="744" 
d="M317 249l-208 381l6 40h177l136 -278l215 278h176l-6 -40l-316 -381l-35 -249h-180z" />
    <glyph glyph-name="Z" unicode="Z" horiz-adv-x="721" 
d="M503 510h-381l22 160h621l-20 -140l-443 -370h401l-22 -160h-641l20 140z" />
    <glyph glyph-name="bracketleft" unicode="[" horiz-adv-x="411" 
d="M487 750l-19 -130h-161l-104 -740h161l-18 -130h-311l141 1000h311z" />
    <glyph glyph-name="backslash" unicode="\" horiz-adv-x="352" 
d="M406 -250h-90l-210 1000h90z" />
    <glyph glyph-name="bracketright" unicode="]" horiz-adv-x="411" 
d="M447 750l-141 -1000h-311l18 130h161l104 740h-161l19 130h311z" />
    <glyph glyph-name="asciicircum" unicode="^" horiz-adv-x="782" 
d="M484 659l-295 -188l-42 74l322 205h56l264 -205l-62 -74z" />
    <glyph glyph-name="underscore" unicode="_" horiz-adv-x="720" 
d="M50 -250v90h700v-90h-700z" />
    <glyph glyph-name="grave" unicode="`" horiz-adv-x="321" 
d="M347 610l-4 -32h-72l-114 110l4 32h121z" />
    <glyph glyph-name="a" unicode="a" 
d="M662 0h-40l-86 54q-23 -20 -46 -34t-48 -23t-52.5 -13t-60.5 -4q-76 0 -125.5 19.5t-76.5 53.5t-35 79.5t0 97.5l6 40q8 52 27.5 97.5t57 79.5t95.5 53.5t143 19.5h28q84 0 136.5 -19.5t80 -53.5t34.5 -79.5t0 -97.5zM367 125q48 0 86 11.5t73 34.5l11 79q3 24 4 47
t-9.5 40t-37.5 27.5t-80 10.5t-85 -11t-49.5 -32t-23 -51t-5.5 -68q0 -17 4.5 -33t17 -28t35.5 -19.5t59 -7.5z" />
    <glyph glyph-name="b" unicode="b" 
d="M285 464q41 32 82.5 44t95.5 12q76 0 125.5 -19.5t77 -53.5t35 -79.5t-0.5 -97.5l-6 -40q-8 -52 -27.5 -97.5t-57 -79.5t-95.5 -53.5t-143 -19.5h-28q-84 0 -136.5 19.5t-80 53.5t-34.5 79.5t0 97.5l73 520h40l111 -70zM427 375q-48 0 -86.5 -12.5t-75.5 -38.5l-10 -74
q-3 -24 -4 -47t10 -40t38 -27.5t80 -10.5t85 11t49 32t22.5 51t5.5 68q0 17 -4.5 33t-17 28t-34.5 19.5t-58 7.5z" />
    <glyph glyph-name="c" unicode="c" horiz-adv-x="630" 
d="M98 270q8 52 27.5 97.5t57 79.5t95 53.5t141.5 19.5h28q54 0 104.5 -6.5t98.5 -18.5l-21 -149q-54 16 -109 22.5t-97 6.5q-56 0 -90 -10t-52 -30.5t-24 -51t-6 -72.5q0 -19 5 -34.5t20 -27t42 -18t70 -6.5q42 0 99 6.5t115 22.5l-21 -149q-51 -12 -103.5 -18.5
t-106.5 -6.5h-28q-84 0 -136.5 19.5t-80.5 53.5t-35 79.5t1 97.5z" />
    <glyph glyph-name="d" unicode="d" 
d="M662 0h-40l-86 54q-23 -20 -46 -34t-48 -23t-52.5 -13t-60.5 -4q-76 0 -125.5 19.5t-76.5 53.5t-35 79.5t0 97.5l6 40q8 52 27.5 97.5t57 79.5t95 53.5t141.5 19.5q44 0 81.5 -6t71.5 -17l35 253h40l111 -70zM367 125q48 0 86 11.5t73 34.5l26 182q-32 11 -66 16.5
t-72 5.5q-53 0 -85 -10.5t-49.5 -31t-23 -50.5t-5.5 -70q0 -17 4.5 -33t17 -28t35.5 -19.5t59 -7.5z" />
    <glyph glyph-name="e" unicode="e" horiz-adv-x="709" 
d="M343 -20q-84 0 -136.5 19.5t-80.5 53.5t-35 79.5t1 97.5l6 40q8 52 27.5 97.5t57 79.5t95 53.5t141.5 19.5h28q85 0 137.5 -13t80.5 -34.5t34.5 -50.5t0.5 -62l-2 -10q-5 -30 -16.5 -57t-42.5 -47.5t-86.5 -33t-149.5 -12.5q-45 0 -82.5 4t-69.5 14q-2 -21 1.5 -38.5
t18.5 -29.5t44 -18.5t79 -6.5q24 0 53.5 2t61.5 5.5t63.5 9t58.5 13.5l-21 -150q-27 -6 -58 -10.5t-64 -8t-65.5 -5t-60.5 -1.5h-19zM431 395q-40 0 -67.5 -4.5t-46 -13.5t-29.5 -22t-17 -30q28 -8 61 -11.5t77 -3.5t69.5 3.5t39 9.5t17.5 14t4 17q0 7 -3.5 14t-15 13
t-33 10t-56.5 4z" />
    <glyph glyph-name="f" unicode="f" horiz-adv-x="437" 
d="M137 549q7 48 25.5 85t51.5 62.5t81.5 39t116.5 13.5q28 0 53.5 -2.5t45.5 -7.5l-21 -146q-19 6 -43 8.5t-47 2.5q-34 0 -54 -5t-30.5 -15t-14.5 -23.5t-7 -31.5l-4 -29h154l-19 -140h-154l-87 -610h-160z" />
    <glyph glyph-name="g" unicode="g" 
d="M655 -50q-8 -54 -29.5 -95t-61.5 -68.5t-99.5 -42t-143.5 -14.5q-29 0 -60.5 1.5t-63 5t-61.5 8t-55 10.5l21 150q25 -8 54.5 -13.5t61 -9t62 -5.5t57.5 -2q53 0 83.5 6.5t46.5 18.5t22 29.5t9 40.5l5 33q-38 -11 -77 -17t-83 -6q-84 0 -136.5 19.5t-80.5 53.5t-35 79.5
t1 97.5l6 40q8 52 27.5 97.5t57 79.5t95.5 53.5t143 19.5h28q84 0 136.5 -19.5t80 -53.5t34.5 -79.5t0 -97.5zM373 125q80 0 149 21l15 104q3 24 4 47t-9.5 40t-37.5 27.5t-79 10.5q-53 0 -85.5 -11t-50 -32t-23 -51t-5.5 -69q0 -18 4.5 -33.5t18 -27.5t37.5 -19t62 -7z" />
    <glyph glyph-name="h" unicode="h" horiz-adv-x="727" 
d="M210 750l111 -70l-31 -214q42 30 83.5 42t94.5 12q76 0 125 -19.5t76.5 -53.5t35 -79.5t0.5 -97.5l-38 -270h-160l35 250q3 22 4 44.5t-8.5 40.5t-34 29t-72.5 11q-45 0 -83.5 -11.5t-76.5 -37.5l-46 -326h-160l105 750h40z" />
    <glyph glyph-name="i" unicode="i" horiz-adv-x="300" 
d="M140 500l-70 -500h160l60 430l-110 70h-40zM155 675q5 31 25.5 53t70.5 22h8q50 0 65.5 -22t10.5 -53l-2 -12q-5 -31 -25.5 -53t-70.5 -22h-8q-50 0 -65.5 22t-10.5 53z" />
    <glyph glyph-name="j" unicode="j" horiz-adv-x="280" 
d="M130 500l-105 -750h160l96 680l-111 70h-40zM145 675q5 31 26 53t71 22h8q50 0 65 -22t10 -53l-2 -12q-5 -31 -25.5 -53t-70.5 -22h-8q-50 0 -65.5 22t-10.5 53z" />
    <glyph glyph-name="k" unicode="k" horiz-adv-x="671" 
d="M492 0l-87 176h-160l-25 -176h-160l105 750h40l111 -70l-50 -356h160l136 176h154l-5 -40l-163 -210l104 -210l-6 -40h-154z" />
    <glyph glyph-name="l" unicode="l" horiz-adv-x="300" 
d="M215 750l111 -70l-96 -680h-160l105 750h40z" />
    <glyph glyph-name="m" unicode="m" horiz-adv-x="1129" 
d="M175 500l81 -52q46 38 94.5 55t112.5 17q79 0 126.5 -23.5t71.5 -61.5q49 44 100 64.5t124 20.5q75 0 121.5 -20.5t71 -55t30.5 -79.5t-1 -95l-38 -270h-160l35 250q3 24 4.5 46.5t-6.5 40t-29.5 28t-63.5 10.5q-87 0 -160 -48q0 -14 -1 -28.5t-3 -28.5l-38 -270h-160
l35 250q3 23 4.5 45.5t-6 40t-28.5 28.5t-62 11q-87 0 -160 -54l-45 -321h-160l70 500h40z" />
    <glyph glyph-name="n" unicode="n" horiz-adv-x="727" 
d="M175 500l89 -57q48 43 95 60t109 17q76 0 125 -19.5t76.5 -53.5t35 -79.5t0.5 -97.5l-38 -270h-160l35 250q3 22 4 44.5t-8 40.5t-33.5 29t-72.5 11q-47 0 -85.5 -12t-75.5 -39l-46 -324h-160l70 500h40z" />
    <glyph glyph-name="o" unicode="o" horiz-adv-x="720" 
d="M98 270q8 52 27.5 97.5t57 79.5t95 53.5t141.5 19.5h28q84 0 136.5 -19.5t80.5 -53.5t35 -79.5t-1 -97.5l-6 -40q-8 -52 -27.5 -97.5t-56.5 -79.5t-95 -53.5t-142 -19.5h-28q-84 0 -136.5 19.5t-80.5 53.5t-35 79.5t1 97.5zM251 212q0 -18 5 -33.5t19 -27.5t38.5 -19
t64.5 -7q52 0 84 11t49.5 32t23 51t5.5 69q0 18 -5 33.5t-19 27.5t-38.5 19t-64.5 7q-53 0 -84.5 -11t-49 -32t-23 -51t-5.5 -69z" />
    <glyph glyph-name="p" unicode="p" 
d="M170 500l89 -57q49 43 95.5 60t108.5 17q76 0 125.5 -19.5t77 -53.5t35 -79.5t-0.5 -97.5l-6 -40q-8 -52 -27.5 -97.5t-57 -79.5t-95 -53.5t-141.5 -19.5q-86 0 -152 23l-36 -253h-160l105 750h40zM427 375q-48 0 -86.5 -12.5t-74.5 -38.5l-25 -178q61 -21 138 -21
q53 0 85 10.5t49 31t22.5 50.5t5.5 70q0 17 -4.5 33t-17 28t-34.5 19.5t-58 7.5z" />
    <glyph glyph-name="q" unicode="q" 
d="M627 -250h-160l35 253q-37 -11 -76 -17t-83 -6q-84 0 -136.5 19.5t-80.5 53.5t-35 79.5t1 97.5l6 40q8 52 27.5 97.5t57 79.5t95.5 53.5t143 19.5h28q84 0 136.5 -19.5t80 -53.5t34.5 -79.5t0 -97.5zM537 250q3 24 4 47t-9.5 40t-37.5 27.5t-79 10.5q-53 0 -85.5 -11
t-50 -32t-23 -51t-5.5 -69q0 -18 4.5 -33.5t18 -27.5t37.5 -19t62 -7q80 0 149 21z" />
    <glyph glyph-name="r" unicode="r" horiz-adv-x="490" 
d="M511 362q-21 4 -44 6t-48 2q-81 0 -150 -21l-49 -349h-160l70 500h40l50 -32q52 26 107.5 39t121.5 13q23 0 44 -2t39 -5z" />
    <glyph glyph-name="s" unicode="s" horiz-adv-x="652" 
d="M343 115q38 0 61 3t35 8t15.5 11.5t3.5 13.5q0 20 -26.5 24.5t-83.5 6.5q-20 0 -47 1.5t-55.5 7t-55.5 15.5t-47 28t-31 45t-6 66l1 10q4 33 20.5 62.5t50.5 52.5t88 36.5t132 13.5h28q57 0 110 -6.5t103 -18.5l-20 -139q-57 14 -115.5 21.5t-121.5 7.5q-39 0 -62 -3
t-35 -8t-15.5 -11.5t-3.5 -13.5q0 -19 27 -24t84 -7q19 -1 46 -2t55.5 -6.5t55.5 -15.5t47.5 -28t31 -45t6.5 -66l-1 -10q-4 -33 -20.5 -62.5t-51 -52.5t-88.5 -36.5t-132 -13.5h-28q-65 0 -125 6.5t-117 18.5l20 139q64 -14 133 -21.5t134 -7.5z" />
    <glyph glyph-name="t" unicode="t" horiz-adv-x="457" 
d="M291 500h154l-20 -140h-155l-22 -160q-2 -17 -2 -30t8.5 -22t26.5 -13.5t52 -4.5q23 0 48.5 2.5t45.5 8.5l-20 -146q-21 -5 -47.5 -7.5t-54.5 -2.5q-68 0 -113 13t-71 37.5t-34 61t-1 83.5l73 520h40l110 -70z" />
    <glyph glyph-name="u" unicode="u" 
d="M290 500l-35 -250q-3 -23 -4 -45.5t8.5 -40t34.5 -28.5t73 -11t86 11.5t73 34.5l46 329h160l-70 -500h-40l-86 54q-23 -20 -46 -34t-48 -23t-52.5 -13t-60.5 -4q-76 0 -125.5 19.5t-76.5 53.5t-34.5 79.5t-0.5 97.5l38 270h160z" />
    <glyph glyph-name="v" unicode="v" horiz-adv-x="629" 
d="M226 500l112 -330l207 330h140l-6 -40l-294 -460h-141l-164 460l6 40h140z" />
    <glyph glyph-name="w" unicode="w" horiz-adv-x="915" 
d="M229 500l76 -306l163 306h121l76 -306l163 306h143l-6 -40l-257 -460h-141l-71 280l-148 -280h-141l-127 460l6 40h143z" />
    <glyph glyph-name="x" unicode="x" horiz-adv-x="602" 
d="M243 250l-148 210l5 40h152l99 -141l140 141h151l-5 -40l-208 -210l149 -210l-6 -40h-151l-100 141l-139 -141h-152l6 40z" />
    <glyph glyph-name="y" unicode="y" horiz-adv-x="697" 
d="M625 -50q-8 -54 -29.5 -95t-61.5 -68.5t-99.5 -42t-143.5 -14.5q-25 0 -53 1.5t-56 5t-54 8t-47 10.5l21 150q21 -8 47 -13.5t53.5 -9t54.5 -5.5t50 -2q53 0 83.5 6.5t46.5 18.5t22 29.5t9 40.5l4 28q-60 -18 -129 -18q-84 0 -136.5 19.5t-80 53.5t-34.5 79.5t0 97.5
l38 270h160l-35 -250q-3 -24 -4 -47t9 -40t36 -27.5t77 -10.5q64 0 119 16l50 359h160z" />
    <glyph glyph-name="z" unicode="z" horiz-adv-x="664" 
d="M405 360h-284l19 140h524l-17 -120l-327 -240h304l-20 -140h-544l17 120z" />
    <glyph glyph-name="braceleft" unicode="{" horiz-adv-x="431" 
d="M203 445q10 65 28.5 121t50 97t78 64t112.5 23h15l-23 -160q-28 0 -45.5 -10.5t-28.5 -32.5t-17.5 -54.5t-13.5 -77.5q-8 -56 -35 -101.5t-80 -68.5q38 -19 54 -55.5t16 -81.5q0 -64 1.5 -103t7 -60t16.5 -28t30 -7l-23 -160h-15q-66 0 -106 22.5t-60 62.5t-23 94t5 116
l5 40q3 19 4 35.5t-4 28.5t-18.5 19t-40.5 7h-18l20 140h18q27 0 42.5 6.5t23.5 18.5t11.5 28.5t6.5 36.5z" />
    <glyph glyph-name="bar" unicode="|" horiz-adv-x="230" 
d="M175 750h90l-140 -999h-90z" />
    <glyph glyph-name="braceright" unicode="}" horiz-adv-x="431" 
d="M348 405q-3 -20 -4.5 -36.5t4 -28.5t19 -18.5t40.5 -6.5h18l-19 -140h-18q-27 0 -42.5 -7t-24 -19t-12 -28.5t-6.5 -35.5l-5 -40q-8 -62 -26.5 -116t-50 -94t-78.5 -62.5t-113 -22.5h-15l22 160q28 0 45.5 9t28.5 29t18 51.5t13 75.5q8 56 34.5 101.5t79.5 68.5
q-38 19 -54 55t-16 81q0 66 -1.5 107t-6.5 63.5t-15.5 30.5t-29.5 8l23 160h15q66 0 106.5 -23t60.5 -64t23 -97t-7 -121z" />
    <glyph glyph-name="asciitilde" unicode="~" horiz-adv-x="636" 
d="M95 246l16 117q18 24 44 42q21 16 52 29.5t70 13.5q38 0 67.5 -11.5t56.5 -25.5t53 -25.5t56 -11.5q21 0 39 7.5t33 18.5t26 24t19 24h12l-19 -135q-14 -19 -35 -33q-18 -12 -45.5 -22t-64.5 -10q-36 0 -65 11.5t-56 25t-54.5 25t-60.5 11.5q-21 0 -40.5 -7.5t-36 -18.5
t-30 -24t-22.5 -25h-15z" />
    <glyph glyph-name="exclamdown" unicode="&#xa1;" horiz-adv-x="320" 
d="M25 -250l100 430h120l-20 -430h-200zM108 345q3 17 9.5 32.5t19 27t32 18.5t47.5 7h8q28 0 46 -7t27.5 -18.5t11.5 -27t-1 -32.5l-2 -12q-6 -35 -29 -60t-79 -25h-8q-56 0 -73 25t-11 60z" />
    <glyph glyph-name="cent" unicode="&#xa2;" horiz-adv-x="630" 
d="M318 -19q-76 3 -123 23.5t-71.5 54t-30.5 77.5t0 94l5 40q6 49 24.5 93t53 78t87.5 54.5t130 23.5l19 131h90l-19 -131q45 -2 86.5 -8t80.5 -16l-21 -149q-42 12 -85 19t-81 9l-35 -248q38 2 83.5 8.5t90.5 19.5l-21 -149q-42 -10 -85 -16t-88 -8l-19 -130h-90zM251 210
q0 -31 17 -54t70 -29l35 245q-38 -4 -62 -15.5t-37.5 -31t-18 -48t-4.5 -67.5z" />
    <glyph glyph-name="yen" unicode="&#xa5;" horiz-adv-x="744" 
d="M250 370l-142 260l6 40h177l136 -278l215 278h176l-6 -40l-215 -260h110l-13 -90h-172l-25 -31l-4 -29h193l-13 -90h-193l-18 -130h-180l18 130h-197l13 90h197l4 29l-18 31h-175l13 90h113z" />
    <glyph glyph-name="dieresis" unicode="&#xa8;" horiz-adv-x="460" 
d="M152 655q3 23 19.5 39t54.5 16h8q38 0 49.5 -16t8.5 -39l-2 -12q-3 -23 -19.5 -39t-54.5 -16h-8q-38 0 -49.5 16t-8.5 39zM352 655q3 23 19.5 39t54.5 16h8q38 0 49.5 -16t8.5 -39l-2 -12q-3 -23 -19.5 -39t-54.5 -16h-8q-38 0 -49.5 16t-8.5 39z" />
    <glyph glyph-name="copyright" unicode="&#xa9;" horiz-adv-x="900" 
d="M100 361q0 68 17 128t59.5 104.5t114.5 70.5t181 26h36q109 0 181 -26t114.5 -70.5t59.5 -104.5t17 -128v-52q0 -68 -17 -128t-59.5 -104.5t-114.5 -70.5t-181 -26h-36q-109 0 -181 26t-114.5 70.5t-59.5 104.5t-17 128v52zM247 349q0 42 11 79t37.5 64.5t71 43.5
t112.5 16h23q44 0 85 -5.5t82 -15.5v-121q-46 13 -91.5 18.5t-79.5 5.5q-45 0 -70 -7.5t-36 -21t-13 -32t-2 -40.5t2 -41t13 -32.5t36 -21t70 -7.5q34 0 79.5 5.5t91.5 19.5v-122q-41 -10 -82 -15t-85 -5h-23q-68 0 -112.5 16t-71 43.5t-37.5 64.5t-11 79v32zM145 309
q0 -60 15 -112.5t52.5 -91.5t100.5 -62t159 -23h36q96 0 159 23t100.5 62t52.5 91.5t15 112.5v52q0 60 -15 112.5t-52.5 91.5t-100.5 62t-159 23h-36q-96 0 -159 -23t-100.5 -62t-52.5 -91.5t-15 -112.5v-52z" />
    <glyph glyph-name="ordfeminine" unicode="&#xaa;" horiz-adv-x="421" 
d="M422 430h-20l-25 16q-27 -14 -55 -20t-63 -6q-41 0 -67 7t-40.5 18.5t-19 26.5t-1.5 32l1 5q3 16 12 29.5t26 24t44 16.5t66 6q47 0 82 -9q1 10 0 17.5t-8 12.5t-21 8t-39 3q-27 0 -60.5 -3.5t-61.5 -11.5l11 75q27 6 60.5 9.5t62.5 3.5q42 0 70 -7t44 -21t21.5 -34.5
t1.5 -47.5zM275 482q20 0 39 2.5t37 8.5l3 23q-33 9 -78 9q-22 0 -35 -2t-19.5 -5.5t-8.5 -8t-2 -9.5q0 -8 11 -13t53 -5z" />
    <glyph glyph-name="guillemotleft" unicode="&#xab;" horiz-adv-x="581" 
d="M291 500h141l-4 -32l-199 -218l138 -218l-5 -32h-141l-138 234l4 32zM481 450h113l-3 -26l-160 -174l111 -174l-4 -26h-113l-111 187l4 26z" />
    <glyph glyph-name="registered" unicode="&#xae;" horiz-adv-x="624" 
d="M100 472q0 45 11 84.5t39 69.5t74 47t117 17h22q70 0 116.5 -17t74.5 -47t39 -69.5t11 -84.5v-32q0 -45 -11 -84.5t-39 -69.5t-74.5 -47t-116.5 -17h-22q-71 0 -117 17t-74 47t-39 69.5t-11 84.5v32zM135 440q0 -38 9.5 -71.5t33 -58t63.5 -39t100 -14.5h22
q60 0 100 14.5t63.5 39t33 58t9.5 71.5v32q0 38 -9.5 71.5t-33 58t-63.5 39t-100 14.5h-22q-60 0 -100 -14.5t-63.5 -39t-33 -58t-9.5 -71.5v-32zM495 487q0 -21 -9 -38.5t-33 -27.5l45 -70v-19h-74l-50 77h-7h-35t-36 2v-79h-69v240q32 4 68.5 6t71.5 2h11q34 0 57 -6
t36 -16.5t18.5 -25t5.5 -30.5v-15zM369 470q36 0 43.5 7.5t7.5 16.5t-7.5 16.5t-43.5 7.5q-14 0 -33.5 -0.5t-39.5 -2.5v-42q20 -2 39.5 -2.5t33.5 -0.5z" />
    <glyph glyph-name="macron" unicode="&#xaf;" horiz-adv-x="455" 
d="M133 592l10 70h355l-10 -70h-355z" />
    <glyph glyph-name="degree" unicode="&#xb0;" horiz-adv-x="336" 
d="M165 608q4 25 12.5 47.5t24.5 39t40.5 26t60.5 9.5h14q36 0 58 -9.5t33.5 -26t14 -39t-1.5 -47.5l-3 -20q-4 -26 -12.5 -48t-24.5 -38.5t-40.5 -26t-60.5 -9.5h-14q-36 0 -58 9.5t-33.5 26t-14 39t1.5 47.5zM222 588q-4 -26 6.5 -44t46.5 -18h14q36 0 50.5 18t18.5 44
l3 20q4 26 -6 44t-46 18h-14q-36 0 -51 -18t-19 -44z" />
    <glyph glyph-name="plusminus" unicode="&#xb1;" horiz-adv-x="720" 
d="M445 359v-200h-90v200h-261v90h261v221h90v-221h260v-90h-260zM94 0v90h611v-90h-611z" />
    <glyph glyph-name="acute" unicode="&#xb4;" horiz-adv-x="321" 
d="M241 720h121l-5 -32l-144 -110h-72l4 32z" />
    <glyph glyph-name="cedilla" unicode="&#xb8;" horiz-adv-x="315" 
d="M247 -122q0 -27 -12 -46.5t-32 -32.5t-47 -19.5t-58 -6.5q-27 0 -47.5 4.5t-30.5 11.5l9 64q30 -15 63 -15q25 0 39.5 7t14.5 22q0 14 -15.5 23t-50.5 12l25 100h67l-13 -56q88 -6 88 -68z" />
    <glyph glyph-name="guillemotright" unicode="&#xbb;" horiz-adv-x="581" 
d="M568 266l-4 -32l-204 -234h-141l4 32l199 218l-137 218l4 32h141zM337 263l-4 -26l-163 -187h-113l4 26l159 174l-110 174l3 26h113z" />
    <glyph glyph-name="questiondown" unicode="&#xbf;" horiz-adv-x="675" 
d="M539 226l-5 -35q-9 -66 -36.5 -103t-61 -55t-67.5 -22.5t-56 -5.5q-41 -2 -62.5 -9.5t-21.5 -41.5q0 -8 4 -15.5t17 -13.5t36.5 -10t62.5 -4q64 0 130.5 10t133.5 27l-23 -165q-57 -16 -115.5 -24.5t-120.5 -8.5h-36q-87 0 -142 16t-85.5 43t-39.5 63t-3 75l2 13
q11 72 44.5 111t74 57t80 22t62.5 6q10 1 17.5 2t13 5.5t9 13.5t5.5 25l3 24h180zM566 353q-6 -35 -29 -60t-79 -25h-8q-56 0 -73 25t-11 60l2 12q3 17 9.5 32.5t19 27t31.5 18.5t47 7h8q28 0 46 -7t27.5 -18.5t12 -27t-0.5 -32.5z" />
    <glyph glyph-name="Agrave" unicode="&#xc0;" horiz-adv-x="816" 
d="M20 0l6 40l386 630h180l210 -630l-6 -40h-162l-40 130h-337l-75 -130h-162zM549 280l-69 229l-135 -229h204zM568 780l-4 -32h-72l-114 110l4 32h121z" />
    <glyph glyph-name="Aacute" unicode="&#xc1;" horiz-adv-x="816" 
d="M20 0l6 40l386 630h180l210 -630l-6 -40h-162l-40 130h-337l-75 -130h-162zM549 280l-69 229l-135 -229h204zM561 890h121l-5 -32l-144 -110h-72l4 32z" />
    <glyph glyph-name="Acircumflex" unicode="&#xc2;" horiz-adv-x="816" 
d="M20 0l6 40l386 630h180l210 -630l-6 -40h-162l-40 130h-337l-75 -130h-162zM549 280l-69 229l-135 -229h204zM679 790l-4 -32h-92l-58 77l-79 -77h-92l4 32l135 100h81z" />
    <glyph glyph-name="Atilde" unicode="&#xc3;" horiz-adv-x="816" 
d="M20 0l6 40l386 630h180l210 -630l-6 -40h-162l-40 130h-337l-75 -130h-162zM549 280l-69 229l-135 -229h204zM353 754l10 73q12 15 28 26q14 10 32.5 18.5t43.5 8.5q24 0 42 -7t34.5 -16t33 -16t35.5 -7q26 0 45 16t29 30h7l-12 -84q-9 -12 -22 -21q-11 -8 -28.5 -14
t-40.5 -6q-22 0 -40 7t-35 16t-34.5 16t-37.5 7q-27 0 -48 -16.5t-33 -30.5h-9z" />
    <glyph glyph-name="Adieresis" unicode="&#xc4;" horiz-adv-x="816" 
d="M20 0l6 40l386 630h180l210 -630l-6 -40h-162l-40 130h-337l-75 -130h-162zM549 280l-69 229l-135 -229h204zM354 825q3 23 19.5 39t54.5 16h8q38 0 49.5 -16t8.5 -39l-2 -12q-3 -23 -19.5 -39t-54.5 -16h-8q-38 0 -49.5 16t-8.5 39zM554 825q3 23 19.5 39t54.5 16h8
q38 0 49.5 -16t8.5 -39l-2 -12q-3 -23 -19.5 -39t-54.5 -16h-8q-38 0 -49.5 16t-8.5 39z" />
    <glyph glyph-name="Aring" unicode="&#xc5;" horiz-adv-x="816" 
d="M20 0l6 40l386 630h180l210 -630l-6 -40h-162l-40 130h-337l-75 -130h-162zM549 280l-69 229l-135 -229h204zM411 805q5 39 31 67t88 28h8q31 0 50.5 -7.5t30 -20.5t13 -30.5t-0.5 -36.5l-2 -12q-5 -39 -31 -67t-88 -28h-8q-31 0 -50.5 7.5t-30 20.5t-13 30t0.5 37z
M469 793q-2 -14 6 -24.5t35 -10.5h8q27 0 38 10.5t13 24.5l2 12q2 14 -6 24.5t-35 10.5h-8q-27 0 -38 -10.5t-13 -24.5z" />
    <glyph glyph-name="AE" unicode="&#xc6;" horiz-adv-x="1101" 
d="M20 0l6 40l386 630h733l-22 -160h-361l-14 -100h261l-23 -160h-261l-13 -90h361l-22 -160h-541l18 130h-271l-75 -130h-162zM549 280l33 230h-102l-135 -230h204z" />
    <glyph glyph-name="Ccedilla" unicode="&#xc7;" horiz-adv-x="756" 
d="M544 -122q0 -27 -12 -46.5t-32.5 -32.5t-47.5 -19.5t-58 -6.5q-27 0 -47.5 4.5t-29.5 11.5l9 64q28 -15 63 -15q25 0 39 7t14 22q0 14 -15 23t-50 12l19 79q-99 3 -160 30t-93.5 71t-40 102.5t1.5 124.5l7 52q9 68 34.5 128t73 104.5t121 70.5t179.5 26h36q68 0 131 -8.5
t123 -24.5l-23 -163q-33 10 -68 17t-68.5 11.5t-65 6.5t-56.5 2q-78 0 -126 -15.5t-74.5 -48t-35 -81.5t-8.5 -116q0 -29 7.5 -53t28.5 -41.5t57.5 -27.5t95.5 -10q51 0 123.5 9t144.5 29l-23 -164q-63 -14 -126 -22.5t-129 -9.5l-7 -34q88 -6 88 -68z" />
    <glyph glyph-name="Egrave" unicode="&#xc8;" horiz-adv-x="760" 
d="M783 510h-461l-14 -100h361l-23 -160h-361l-13 -90h461l-22 -160h-641l94 670h641zM568 780l-4 -32h-72l-114 110l4 32h121z" />
    <glyph glyph-name="Eacute" unicode="&#xc9;" horiz-adv-x="760" 
d="M783 510h-461l-14 -100h361l-23 -160h-361l-13 -90h461l-22 -160h-641l94 670h641zM535 890h121l-5 -32l-144 -110h-72l4 32z" />
    <glyph glyph-name="Ecircumflex" unicode="&#xca;" horiz-adv-x="760" 
d="M783 510h-461l-14 -100h361l-23 -160h-361l-13 -90h461l-22 -160h-641l94 670h641zM651 790l-4 -32h-92l-58 77l-79 -77h-92l4 32l135 100h81z" />
    <glyph glyph-name="Edieresis" unicode="&#xcb;" horiz-adv-x="760" 
d="M783 510h-461l-14 -100h361l-23 -160h-361l-13 -90h461l-22 -160h-641l94 670h641zM326 825q3 23 19.5 39t54.5 16h8q38 0 49.5 -16t8.5 -39l-2 -12q-3 -23 -19.5 -39t-54.5 -16h-8q-38 0 -49.5 16t-8.5 39zM526 825q3 23 19.5 39t54.5 16h8q38 0 49.5 -16t8.5 -39
l-2 -12q-3 -23 -19.5 -39t-54.5 -16h-8q-38 0 -49.5 16t-8.5 39z" />
    <glyph glyph-name="Igrave" unicode="&#xcc;" horiz-adv-x="320" 
d="M344 670l-94 -670h-180l94 670h180zM323 780l-4 -32h-72l-114 110l4 32h121z" />
    <glyph glyph-name="Iacute" unicode="&#xcd;" horiz-adv-x="320" 
d="M344 670l-94 -670h-180l94 670h180zM314 890h121l-5 -32l-144 -110h-72l4 32z" />
    <glyph glyph-name="Icircumflex" unicode="&#xce;" horiz-adv-x="320" 
d="M344 670l-94 -670h-180l94 670h180zM433 790l-4 -32h-92l-58 77l-79 -77h-92l4 32l135 100h81z" />
    <glyph glyph-name="Idieresis" unicode="&#xcf;" horiz-adv-x="320" 
d="M344 670l-94 -670h-180l94 670h180zM107 825q3 23 19.5 39t54.5 16h8q38 0 49.5 -16t8.5 -39l-2 -12q-3 -23 -19.5 -39t-54.5 -16h-8q-38 0 -49.5 16t-8.5 39zM307 825q3 23 19.5 39t54.5 16h8q38 0 49.5 -16t8.5 -39l-2 -12q-3 -23 -19.5 -39t-54.5 -16h-8
q-38 0 -49.5 16t-8.5 39z" />
    <glyph glyph-name="Eth" unicode="&#xd0;" horiz-adv-x="893" 
d="M72 283l15 110h85l39 276q72 11 148 16t153 5h36q115 0 187 -26t110.5 -70.5t48 -104.5t0.5 -128l-7 -52q-9 -68 -36 -128t-78 -104.5t-130.5 -70.5t-194.5 -26h-36q-77 0 -151.5 5t-143.5 15l40 283h-85zM440 138q90 0 144 15.5t83 48t38 81t9 114.5q0 29 -8.5 53.5
t-32.5 42.5t-67 28t-111 10q-26 0 -57.5 -1t-66.5 -3l-19 -134h190l-15 -110h-190l-20 -141q34 -2 65.5 -3t57.5 -1z" />
    <glyph glyph-name="Ntilde" unicode="&#xd1;" horiz-adv-x="851" 
d="M635 240l60 430h180l-94 -670h-180l-291 430l-60 -430h-180l94 670h180zM370 754l10 73q12 15 28 26q14 10 32.5 18.5t43.5 8.5q24 0 42 -7t34.5 -16t33 -16t35.5 -7q26 0 45 16t29 30h7l-12 -84q-9 -12 -22 -21q-11 -8 -28.5 -14t-40.5 -6q-22 0 -40 7t-35 16t-34.5 16
t-37.5 7q-27 0 -48 -16.5t-33 -30.5h-9z" />
    <glyph glyph-name="Ograve" unicode="&#xd2;" horiz-adv-x="900" 
d="M111 361q9 68 34.5 128t74.5 104.5t124.5 70.5t184.5 26h36q109 0 177 -26t104.5 -70.5t45 -104.5t-0.5 -128l-7 -52q-9 -68 -35 -128t-75 -104.5t-124.5 -70.5t-184.5 -26h-36q-109 0 -177 26t-104 70.5t-44.5 104.5t0.5 128zM280 275q0 -27 7.5 -51.5t28.5 -43
t58 -29.5t96 -11q79 0 127 17t74 49.5t34.5 80t8.5 107.5q0 27 -7.5 51.5t-28.5 43t-58 29.5t-96 11q-79 0 -127 -17t-74 -49.5t-34.5 -80t-8.5 -107.5zM607 780l-4 -32h-72l-114 110l4 32h121z" />
    <glyph glyph-name="Oacute" unicode="&#xd3;" horiz-adv-x="900" 
d="M111 361q9 68 34.5 128t74.5 104.5t124.5 70.5t184.5 26h36q109 0 177 -26t104.5 -70.5t45 -104.5t-0.5 -128l-7 -52q-9 -68 -35 -128t-75 -104.5t-124.5 -70.5t-184.5 -26h-36q-109 0 -177 26t-104 70.5t-44.5 104.5t0.5 128zM280 275q0 -27 7.5 -51.5t28.5 -43
t58 -29.5t96 -11q79 0 127 17t74 49.5t34.5 80t8.5 107.5q0 27 -7.5 51.5t-28.5 43t-58 29.5t-96 11q-79 0 -127 -17t-74 -49.5t-34.5 -80t-8.5 -107.5zM607 890h121l-5 -32l-144 -110h-72l4 32z" />
    <glyph glyph-name="Ocircumflex" unicode="&#xd4;" horiz-adv-x="900" 
d="M111 361q9 68 34.5 128t74.5 104.5t124.5 70.5t184.5 26h36q109 0 177 -26t104.5 -70.5t45 -104.5t-0.5 -128l-7 -52q-9 -68 -35 -128t-75 -104.5t-124.5 -70.5t-184.5 -26h-36q-109 0 -177 26t-104 70.5t-44.5 104.5t0.5 128zM280 275q0 -27 7.5 -51.5t28.5 -43
t58 -29.5t96 -11q79 0 127 17t74 49.5t34.5 80t8.5 107.5q0 27 -7.5 51.5t-28.5 43t-58 29.5t-96 11q-79 0 -127 -17t-74 -49.5t-34.5 -80t-8.5 -107.5zM721 790l-4 -32h-92l-58 77l-79 -77h-92l4 32l135 100h81z" />
    <glyph glyph-name="Otilde" unicode="&#xd5;" horiz-adv-x="900" 
d="M111 361q9 68 34.5 128t74.5 104.5t124.5 70.5t184.5 26h36q109 0 177 -26t104.5 -70.5t45 -104.5t-0.5 -128l-7 -52q-9 -68 -35 -128t-75 -104.5t-124.5 -70.5t-184.5 -26h-36q-109 0 -177 26t-104 70.5t-44.5 104.5t0.5 128zM280 275q0 -27 7.5 -51.5t28.5 -43
t58 -29.5t96 -11q79 0 127 17t74 49.5t34.5 80t8.5 107.5q0 27 -7.5 51.5t-28.5 43t-58 29.5t-96 11q-79 0 -127 -17t-74 -49.5t-34.5 -80t-8.5 -107.5zM365 754l10 73q12 15 28 26q14 10 32.5 18.5t43.5 8.5q24 0 42 -7t34.5 -16t33 -16t35.5 -7q26 0 45 16t29 30h7
l-12 -84q-9 -12 -22 -21q-11 -8 -28.5 -14t-40.5 -6q-22 0 -40 7t-35 16t-34.5 16t-37.5 7q-27 0 -48 -16.5t-33 -30.5h-9z" />
    <glyph glyph-name="Odieresis" unicode="&#xd6;" horiz-adv-x="900" 
d="M111 361q9 68 34.5 128t74.5 104.5t124.5 70.5t184.5 26h36q109 0 177 -26t104.5 -70.5t45 -104.5t-0.5 -128l-7 -52q-9 -68 -35 -128t-75 -104.5t-124.5 -70.5t-184.5 -26h-36q-109 0 -177 26t-104 70.5t-44.5 104.5t0.5 128zM280 275q0 -27 7.5 -51.5t28.5 -43
t58 -29.5t96 -11q79 0 127 17t74 49.5t34.5 80t8.5 107.5q0 27 -7.5 51.5t-28.5 43t-58 29.5t-96 11q-79 0 -127 -17t-74 -49.5t-34.5 -80t-8.5 -107.5zM396 825q3 23 19.5 39t54.5 16h8q38 0 49.5 -16t8.5 -39l-2 -12q-3 -23 -19.5 -39t-54.5 -16h-8q-38 0 -49.5 16
t-8.5 39zM596 825q3 23 19.5 39t54.5 16h8q38 0 49.5 -16t8.5 -39l-2 -12q-3 -23 -19.5 -39t-54.5 -16h-8q-38 0 -49.5 16t-8.5 39z" />
    <glyph glyph-name="multiply" unicode="&#xd7;" horiz-adv-x="616" 
d="M419 335l158 -183l-73 -64l-158 183l-210 -184l-55 64l210 184l-158 185l73 64l158 -185l210 184l55 -64z" />
    <glyph glyph-name="Oslash" unicode="&#xd8;" horiz-adv-x="900" 
d="M110 361q9 68 35 128t75 104.5t124.5 70.5t184.5 26h36q74 0 127.5 -12t92.5 -34l75 66l55 -64l-66 -58q34 -45 42 -103t-1 -124l-7 -52q-9 -68 -35 -128t-74.5 -104.5t-124 -70.5t-184.5 -26h-36q-74 0 -128.5 12t-92.5 34l-75 -66l-55 64l65 57q-34 45 -41.5 103.5
t1.5 124.5zM713 393q0 17 -2 36t-8 31l-349 -306q21 -7 49 -10.5t66 -3.5q79 0 127 17t74 49.5t34.5 79.5t8.5 107zM280 275q0 -16 2 -35t7 -31l349 306q-21 7 -49 10.5t-65 3.5q-79 0 -127 -17t-74 -49.5t-34.5 -80t-8.5 -107.5z" />
    <glyph glyph-name="Ugrave" unicode="&#xd9;" horiz-adv-x="850" 
d="M879 670l-55 -391q-9 -62 -32.5 -116t-68 -95t-114 -64.5t-169.5 -23.5h-36q-100 0 -162.5 23.5t-96 64.5t-42 95t0.5 116l55 391h180l-51 -365q-5 -33 -6.5 -62.5t12.5 -52.5t48.5 -36.5t102.5 -13.5q67 0 105.5 13.5t58.5 36.5t27 52.5t12 62.5l51 365h180zM577 780
l-4 -32h-72l-114 110l4 32h121z" />
    <glyph glyph-name="Uacute" unicode="&#xda;" horiz-adv-x="850" 
d="M879 670l-55 -391q-9 -62 -32.5 -116t-68 -95t-114 -64.5t-169.5 -23.5h-36q-100 0 -162.5 23.5t-96 64.5t-42 95t0.5 116l55 391h180l-51 -365q-5 -33 -6.5 -62.5t12.5 -52.5t48.5 -36.5t102.5 -13.5q67 0 105.5 13.5t58.5 36.5t27 52.5t12 62.5l51 365h180zM580 890
h121l-5 -32l-144 -110h-72l4 32z" />
    <glyph glyph-name="Ucircumflex" unicode="&#xdb;" horiz-adv-x="850" 
d="M879 670l-55 -391q-9 -62 -32.5 -116t-68 -95t-114 -64.5t-169.5 -23.5h-36q-100 0 -162.5 23.5t-96 64.5t-42 95t0.5 116l55 391h180l-51 -365q-5 -33 -6.5 -62.5t12.5 -52.5t48.5 -36.5t102.5 -13.5q67 0 105.5 13.5t58.5 36.5t27 52.5t12 62.5l51 365h180zM696 790
l-4 -32h-92l-58 77l-79 -77h-92l4 32l135 100h81z" />
    <glyph glyph-name="Udieresis" unicode="&#xdc;" horiz-adv-x="850" 
d="M879 670l-55 -391q-9 -62 -32.5 -116t-68 -95t-114 -64.5t-169.5 -23.5h-36q-100 0 -162.5 23.5t-96 64.5t-42 95t0.5 116l55 391h180l-51 -365q-5 -33 -6.5 -62.5t12.5 -52.5t48.5 -36.5t102.5 -13.5q67 0 105.5 13.5t58.5 36.5t27 52.5t12 62.5l51 365h180zM371 825
q3 23 19.5 39t54.5 16h8q38 0 49.5 -16t8.5 -39l-2 -12q-3 -23 -19.5 -39t-54.5 -16h-8q-38 0 -49.5 16t-8.5 39zM571 825q3 23 19.5 39t54.5 16h8q38 0 49.5 -16t8.5 -39l-2 -12q-3 -23 -19.5 -39t-54.5 -16h-8q-38 0 -49.5 16t-8.5 39z" />
    <glyph glyph-name="Yacute" unicode="&#xdd;" horiz-adv-x="744" 
d="M317 249l-208 381l6 40h177l136 -278l215 278h176l-6 -40l-316 -381l-35 -249h-180zM549 890h121l-5 -32l-144 -110h-72l4 32z" />
    <glyph glyph-name="Thorn" unicode="&#xde;" horiz-adv-x="800" 
d="M794 315q-7 -45 -25 -85t-52.5 -70t-88 -47.5t-131.5 -17.5h-28q-54 0 -105 1t-99 9l-15 -105h-180l94 670h180l-15 -105q51 8 102.5 9t105.5 1h28q78 0 127 -17.5t75 -47.5t33 -70t0 -85zM464 255q49 0 79.5 6.5t47.5 18.5t22.5 30t5.5 42q0 13 -5 25t-19.5 20t-40.5 13
t-68 5q-47 0 -89 -1t-90 -8l-20 -142q46 -6 88 -7.5t89 -1.5z" />
    <glyph glyph-name="germandbls" unicode="&#xdf;" horiz-adv-x="781" 
d="M165 500l7 49q7 50 27 87.5t56.5 62.5t91 37.5t130.5 12.5q39 0 72.5 -5t58 -20t38.5 -42.5t14 -73.5q0 -53 -9.5 -85.5t-23.5 -52t-31 -30.5t-31 -21.5t-23.5 -24.5t-9.5 -40q0 -17 10.5 -21t30.5 -5q22 -1 56 -5t64 -20.5t48.5 -51t11.5 -96.5l-1 -10q-4 -33 -18 -62.5
t-41.5 -52.5t-69.5 -36.5t-102 -13.5h-28q-47 0 -89 6.5t-84 18.5l20 139q48 -14 99 -21.5t89 -7.5q41 0 53.5 11t12.5 35q0 17 -11 23t-40 8q-23 1 -56.5 4.5t-63 17t-47 42t-8.5 79.5l2 10q7 36 28.5 61.5t45 48t42 46t18.5 56.5q0 27 -18.5 34.5t-50.5 7.5t-51.5 -4
t-30.5 -13t-16 -22t-8 -31l-74 -529h-161l51 360h-74l20 140h74z" />
    <glyph glyph-name="agrave" unicode="&#xe0;" 
d="M662 0h-40l-86 54q-23 -20 -46 -34t-48 -23t-52.5 -13t-60.5 -4q-76 0 -125.5 19.5t-76.5 53.5t-35 79.5t0 97.5l6 40q8 52 27.5 97.5t57 79.5t95.5 53.5t143 19.5h28q84 0 136.5 -19.5t80 -53.5t34.5 -79.5t0 -97.5zM367 125q48 0 86 11.5t73 34.5l11 79q3 24 4 47
t-9.5 40t-37.5 27.5t-80 10.5t-85 -11t-49.5 -32t-23 -51t-5.5 -68q0 -17 4.5 -33t17 -28t35.5 -19.5t59 -7.5zM547 610l-4 -32h-72l-114 110l4 32h121z" />
    <glyph glyph-name="aacute" unicode="&#xe1;" 
d="M662 0h-40l-86 54q-23 -20 -46 -34t-48 -23t-52.5 -13t-60.5 -4q-76 0 -125.5 19.5t-76.5 53.5t-35 79.5t0 97.5l6 40q8 52 27.5 97.5t57 79.5t95.5 53.5t143 19.5h28q84 0 136.5 -19.5t80 -53.5t34.5 -79.5t0 -97.5zM367 125q48 0 86 11.5t73 34.5l11 79q3 24 4 47
t-9.5 40t-37.5 27.5t-80 10.5t-85 -11t-49.5 -32t-23 -51t-5.5 -68q0 -17 4.5 -33t17 -28t35.5 -19.5t59 -7.5zM488 720h121l-5 -32l-144 -110h-72l4 32z" />
    <glyph glyph-name="acircumflex" unicode="&#xe2;" 
d="M662 0h-40l-86 54q-23 -20 -46 -34t-48 -23t-52.5 -13t-60.5 -4q-76 0 -125.5 19.5t-76.5 53.5t-35 79.5t0 97.5l6 40q8 52 27.5 97.5t57 79.5t95.5 53.5t143 19.5h28q84 0 136.5 -19.5t80 -53.5t34.5 -79.5t0 -97.5zM367 125q48 0 86 11.5t73 34.5l11 79q3 24 4 47
t-9.5 40t-37.5 27.5t-80 10.5t-85 -11t-49.5 -32t-23 -51t-5.5 -68q0 -17 4.5 -33t17 -28t35.5 -19.5t59 -7.5zM608 620l-4 -32h-92l-58 77l-79 -77h-92l4 32l135 100h81z" />
    <glyph glyph-name="atilde" unicode="&#xe3;" 
d="M662 0h-40l-86 54q-23 -20 -46 -34t-48 -23t-52.5 -13t-60.5 -4q-76 0 -125.5 19.5t-76.5 53.5t-35 79.5t0 97.5l6 40q8 52 27.5 97.5t57 79.5t95.5 53.5t143 19.5h28q84 0 136.5 -19.5t80 -53.5t34.5 -79.5t0 -97.5zM367 125q48 0 86 11.5t73 34.5l11 79q3 24 4 47
t-9.5 40t-37.5 27.5t-80 10.5t-85 -11t-49.5 -32t-23 -51t-5.5 -68q0 -17 4.5 -33t17 -28t35.5 -19.5t59 -7.5zM282 584l10 73q12 15 28 26q14 10 32.5 18.5t43.5 8.5q24 0 42 -7t34.5 -16t33 -16t35.5 -7q26 0 45 16t29 30h7l-12 -84q-9 -12 -22 -21q-11 -8 -28.5 -14
t-40.5 -6q-22 0 -40 7t-35 16t-34.5 16t-37.5 7q-27 0 -48 -16.5t-33 -30.5h-9z" />
    <glyph glyph-name="adieresis" unicode="&#xe4;" 
d="M662 0h-40l-86 54q-23 -20 -46 -34t-48 -23t-52.5 -13t-60.5 -4q-76 0 -125.5 19.5t-76.5 53.5t-35 79.5t0 97.5l6 40q8 52 27.5 97.5t57 79.5t95.5 53.5t143 19.5h28q84 0 136.5 -19.5t80 -53.5t34.5 -79.5t0 -97.5zM367 125q48 0 86 11.5t73 34.5l11 79q3 24 4 47
t-9.5 40t-37.5 27.5t-80 10.5t-85 -11t-49.5 -32t-23 -51t-5.5 -68q0 -17 4.5 -33t17 -28t35.5 -19.5t59 -7.5zM283 655q3 23 19.5 39t54.5 16h8q38 0 49.5 -16t8.5 -39l-2 -12q-3 -23 -19.5 -39t-54.5 -16h-8q-38 0 -49.5 16t-8.5 39zM483 655q3 23 19.5 39t54.5 16h8
q38 0 49.5 -16t8.5 -39l-2 -12q-3 -23 -19.5 -39t-54.5 -16h-8q-38 0 -49.5 16t-8.5 39z" />
    <glyph glyph-name="aring" unicode="&#xe5;" 
d="M662 0h-40l-86 54q-23 -20 -46 -34t-48 -23t-52.5 -13t-60.5 -4q-76 0 -125.5 19.5t-76.5 53.5t-35 79.5t0 97.5l6 40q8 52 27.5 97.5t57 79.5t95.5 53.5t143 19.5h28q84 0 136.5 -19.5t80 -53.5t34.5 -79.5t0 -97.5zM367 125q48 0 86 11.5t73 34.5l11 79q3 24 4 47
t-9.5 40t-37.5 27.5t-80 10.5t-85 -11t-49.5 -32t-23 -51t-5.5 -68q0 -17 4.5 -33t17 -28t35.5 -19.5t59 -7.5zM340 635q5 39 31 67t88 28h8q31 0 50.5 -7.5t30 -20.5t13 -30.5t-0.5 -36.5l-2 -12q-5 -39 -31 -67t-88 -28h-8q-31 0 -50.5 7.5t-30 20.5t-13 30t0.5 37z
M398 623q-2 -14 6 -24.5t35 -10.5h8q27 0 38 10.5t13 24.5l2 12q2 14 -6 24.5t-35 10.5h-8q-27 0 -38 -10.5t-13 -24.5z" />
    <glyph glyph-name="ae" unicode="&#xe6;" horiz-adv-x="1061" 
d="M726 -15q-65 0 -109 13.5t-71 37.5q-54 -29 -108.5 -42.5t-122.5 -13.5q-75 0 -123.5 14t-75 37t-34.5 53.5t-2 63.5l2 10q6 31 22.5 59t49 49t82.5 33t122 12q44 0 79.5 -4t65.5 -12q2 19 -0.5 34t-14.5 25t-36 15.5t-66 5.5q-24 0 -53 -2t-58.5 -5.5t-58 -9.5
t-53.5 -13l21 150q50 12 112.5 18.5t115.5 6.5q69 0 114 -13.5t71 -39.5q35 27 85 42.5t119 15.5h28q79 0 127 -12.5t72.5 -34.5t31 -51t2.5 -62l-1 -10q-3 -30 -14 -57t-40 -48t-81.5 -33t-139.5 -12q-79 0 -133 16q-2 -21 1 -38t15.5 -28.5t38 -18t68.5 -6.5q21 0 48.5 2
t56.5 5.5t58 9t54 13.5l-21 -150q-24 -6 -53 -10.5t-59 -8t-59.5 -5t-55.5 -1.5h-19zM495 128q-2 11 -3.5 22.5t-1.5 23.5q-29 8 -62.5 12.5t-75.5 4.5q-38 0 -60 -4t-33.5 -11t-15 -16.5t-3.5 -19.5q0 -8 3.5 -14t15 -11t33 -7.5t57.5 -2.5q81 0 146 23zM813 400
q-35 0 -59.5 -5t-40.5 -14t-25.5 -22.5t-15.5 -30.5q48 -13 119 -13q37 0 58.5 3.5t33 9.5t15 14.5t3.5 17.5q0 7 -3 14t-12 13t-26.5 9.5t-46.5 3.5z" />
    <glyph glyph-name="ccedilla" unicode="&#xe7;" horiz-adv-x="630" 
d="M466 -122q0 -27 -12 -46.5t-32.5 -32.5t-47.5 -19.5t-58 -6.5q-27 0 -47.5 4.5t-29.5 11.5l9 64q28 -15 63 -15q25 0 39.5 7t14.5 22q0 14 -15.5 23t-50.5 12l19 79q-76 3 -123 23.5t-71.5 54t-30.5 77.5t0 94l5 40q7 52 26.5 97.5t57 79.5t95.5 53.5t142 19.5h28
q54 0 104.5 -6.5t98.5 -18.5l-21 -149q-54 16 -109 22.5t-97 6.5q-56 0 -90 -10t-52 -30.5t-24 -51t-6 -72.5q0 -19 5.5 -34.5t20.5 -27t41.5 -18t69.5 -6.5q42 0 99 6.5t115 22.5l-21 -149q-48 -11 -96 -17.5t-99 -7.5l-8 -34q88 -6 88 -68z" />
    <glyph glyph-name="egrave" unicode="&#xe8;" horiz-adv-x="709" 
d="M343 -20q-84 0 -136.5 19.5t-80.5 53.5t-35 79.5t1 97.5l6 40q8 52 27.5 97.5t57 79.5t95 53.5t141.5 19.5h28q85 0 137.5 -13t80.5 -34.5t34.5 -50.5t0.5 -62l-2 -10q-5 -30 -16.5 -57t-42.5 -47.5t-86.5 -33t-149.5 -12.5q-45 0 -82.5 4t-69.5 14q-2 -21 1.5 -38.5
t18.5 -29.5t44 -18.5t79 -6.5q24 0 53.5 2t61.5 5.5t63.5 9t58.5 13.5l-21 -150q-27 -6 -58 -10.5t-64 -8t-65.5 -5t-60.5 -1.5h-19zM431 395q-40 0 -67.5 -4.5t-46 -13.5t-29.5 -22t-17 -30q28 -8 61 -11.5t77 -3.5t69.5 3.5t39 9.5t17.5 14t4 17q0 7 -3.5 14t-15 13
t-33 10t-56.5 4zM498 610l-4 -32h-72l-114 110l4 32h121z" />
    <glyph glyph-name="eacute" unicode="&#xe9;" horiz-adv-x="709" 
d="M343 -20q-84 0 -136.5 19.5t-80.5 53.5t-35 79.5t1 97.5l6 40q8 52 27.5 97.5t57 79.5t95 53.5t141.5 19.5h28q85 0 137.5 -13t80.5 -34.5t34.5 -50.5t0.5 -62l-2 -10q-5 -30 -16.5 -57t-42.5 -47.5t-86.5 -33t-149.5 -12.5q-45 0 -82.5 4t-69.5 14q-2 -21 1.5 -38.5
t18.5 -29.5t44 -18.5t79 -6.5q24 0 53.5 2t61.5 5.5t63.5 9t58.5 13.5l-21 -150q-27 -6 -58 -10.5t-64 -8t-65.5 -5t-60.5 -1.5h-19zM431 395q-40 0 -67.5 -4.5t-46 -13.5t-29.5 -22t-17 -30q28 -8 61 -11.5t77 -3.5t69.5 3.5t39 9.5t17.5 14t4 17q0 7 -3.5 14t-15 13
t-33 10t-56.5 4zM466 720h121l-5 -32l-144 -110h-72l4 32z" />
    <glyph glyph-name="ecircumflex" unicode="&#xea;" horiz-adv-x="709" 
d="M343 -20q-84 0 -136.5 19.5t-80.5 53.5t-35 79.5t1 97.5l6 40q8 52 27.5 97.5t57 79.5t95 53.5t141.5 19.5h28q85 0 137.5 -13t80.5 -34.5t34.5 -50.5t0.5 -62l-2 -10q-5 -30 -16.5 -57t-42.5 -47.5t-86.5 -33t-149.5 -12.5q-45 0 -82.5 4t-69.5 14q-2 -21 1.5 -38.5
t18.5 -29.5t44 -18.5t79 -6.5q24 0 53.5 2t61.5 5.5t63.5 9t58.5 13.5l-21 -150q-27 -6 -58 -10.5t-64 -8t-65.5 -5t-60.5 -1.5h-19zM431 395q-40 0 -67.5 -4.5t-46 -13.5t-29.5 -22t-17 -30q28 -8 61 -11.5t77 -3.5t69.5 3.5t39 9.5t17.5 14t4 17q0 7 -3.5 14t-15 13
t-33 10t-56.5 4zM602 620l-4 -32h-92l-58 77l-79 -77h-92l4 32l135 100h81z" />
    <glyph glyph-name="edieresis" unicode="&#xeb;" horiz-adv-x="709" 
d="M343 -20q-84 0 -136.5 19.5t-80.5 53.5t-35 79.5t1 97.5l6 40q8 52 27.5 97.5t57 79.5t95 53.5t141.5 19.5h28q85 0 137.5 -13t80.5 -34.5t34.5 -50.5t0.5 -62l-2 -10q-5 -30 -16.5 -57t-42.5 -47.5t-86.5 -33t-149.5 -12.5q-45 0 -82.5 4t-69.5 14q-2 -21 1.5 -38.5
t18.5 -29.5t44 -18.5t79 -6.5q24 0 53.5 2t61.5 5.5t63.5 9t58.5 13.5l-21 -150q-27 -6 -58 -10.5t-64 -8t-65.5 -5t-60.5 -1.5h-19zM431 395q-40 0 -67.5 -4.5t-46 -13.5t-29.5 -22t-17 -30q28 -8 61 -11.5t77 -3.5t69.5 3.5t39 9.5t17.5 14t4 17q0 7 -3.5 14t-15 13
t-33 10t-56.5 4zM276 655q3 23 19.5 39t54.5 16h8q38 0 49.5 -16t8.5 -39l-2 -12q-3 -23 -19.5 -39t-54.5 -16h-8q-38 0 -49.5 16t-8.5 39zM476 655q3 23 19.5 39t54.5 16h8q38 0 49.5 -16t8.5 -39l-2 -12q-3 -23 -19.5 -39t-54.5 -16h-8q-38 0 -49.5 16t-8.5 39z" />
    <glyph glyph-name="igrave" unicode="&#xec;" horiz-adv-x="300" 
d="M180 500l110 -70l-60 -430h-160l70 500h40zM338 610l-4 -32h-72l-114 110l4 32h121z" />
    <glyph glyph-name="iacute" unicode="&#xed;" horiz-adv-x="300" 
d="M180 500l110 -70l-60 -430h-160l70 500h40zM270 720h121l-5 -32l-144 -110h-72l4 32z" />
    <glyph glyph-name="icircumflex" unicode="&#xee;" horiz-adv-x="300" 
d="M180 500l110 -70l-60 -430h-160l70 500h40zM399 620l-4 -32h-92l-58 77l-79 -77h-92l4 32l135 100h81z" />
    <glyph glyph-name="idieresis" unicode="&#xef;" horiz-adv-x="300" 
d="M180 500l110 -70l-60 -430h-160l70 500h40zM73 655q3 23 19.5 39t54.5 16h8q38 0 49.5 -16t8.5 -39l-2 -12q-3 -23 -19.5 -39t-54.5 -16h-8q-38 0 -49.5 16t-8.5 39zM273 655q3 23 19.5 39t54.5 16h8q38 0 49.5 -16t8.5 -39l-2 -12q-3 -23 -19.5 -39t-54.5 -16h-8
q-38 0 -49.5 16t-8.5 39z" />
    <glyph glyph-name="eth" unicode="&#xf0;" horiz-adv-x="720" 
d="M694 381q5 -32 5.5 -67t-5.5 -74l-6 -40q-7 -45 -26 -85t-55.5 -70t-94 -47.5t-141.5 -17.5h-28q-84 0 -137 17.5t-81.5 47.5t-36 70t-0.5 85l6 40q7 45 25.5 85t55.5 70t94.5 47.5t141.5 17.5h28q26 0 47 -5.5t40 -16.5l-25 96l-107 -46l-20 64l100 43q-10 9 -24.5 14
t-37.5 5q-15 0 -37.5 -1.5t-40.5 -5.5l19 132q19 5 42 7.5t43 2.5q68 0 106 -25.5t62 -70.5l112 49l20 -64l-107 -47l13 -37l51 -173h-1zM248 194q0 -14 5 -26.5t19 -22t39 -15t66 -5.5q52 0 83.5 8t47.5 24t21 38t5 51q0 14 -5 26.5t-19 22t-39.5 15t-66.5 5.5
q-53 0 -83.5 -8t-47 -24t-21 -38.5t-4.5 -50.5z" />
    <glyph glyph-name="ntilde" unicode="&#xf1;" horiz-adv-x="727" 
d="M175 500l89 -57q48 43 95 60t109 17q76 0 125 -19.5t76.5 -53.5t35 -79.5t0.5 -97.5l-38 -270h-160l35 250q3 22 4 44.5t-8 40.5t-33.5 29t-72.5 11q-47 0 -85.5 -12t-75.5 -39l-46 -324h-160l70 500h40zM254 584l10 73q12 15 28 26q14 10 32.5 18.5t43.5 8.5q24 0 42 -7
t34.5 -16t33 -16t35.5 -7q26 0 45 16t29 30h7l-12 -84q-9 -12 -22 -21q-11 -8 -28.5 -14t-40.5 -6q-22 0 -40 7t-35 16t-34.5 16t-37.5 7q-27 0 -48 -16.5t-33 -30.5h-9z" />
    <glyph glyph-name="ograve" unicode="&#xf2;" horiz-adv-x="720" 
d="M98 270q8 52 27.5 97.5t57 79.5t95 53.5t141.5 19.5h28q84 0 136.5 -19.5t80.5 -53.5t35 -79.5t-1 -97.5l-6 -40q-8 -52 -27.5 -97.5t-56.5 -79.5t-95 -53.5t-142 -19.5h-28q-84 0 -136.5 19.5t-80.5 53.5t-35 79.5t1 97.5zM251 212q0 -18 5 -33.5t19 -27.5t38.5 -19
t64.5 -7q52 0 84 11t49.5 32t23 51t5.5 69q0 18 -5 33.5t-19 27.5t-38.5 19t-64.5 7q-53 0 -84.5 -11t-49 -32t-23 -51t-5.5 -69zM504 610l-4 -32h-72l-114 110l4 32h121z" />
    <glyph glyph-name="oacute" unicode="&#xf3;" horiz-adv-x="720" 
d="M98 270q8 52 27.5 97.5t57 79.5t95 53.5t141.5 19.5h28q84 0 136.5 -19.5t80.5 -53.5t35 -79.5t-1 -97.5l-6 -40q-8 -52 -27.5 -97.5t-56.5 -79.5t-95 -53.5t-142 -19.5h-28q-84 0 -136.5 19.5t-80.5 53.5t-35 79.5t1 97.5zM251 212q0 -18 5 -33.5t19 -27.5t38.5 -19
t64.5 -7q52 0 84 11t49.5 32t23 51t5.5 69q0 18 -5 33.5t-19 27.5t-38.5 19t-64.5 7q-53 0 -84.5 -11t-49 -32t-23 -51t-5.5 -69zM490 720h121l-5 -32l-144 -110h-72l4 32z" />
    <glyph glyph-name="ocircumflex" unicode="&#xf4;" horiz-adv-x="720" 
d="M98 270q8 52 27.5 97.5t57 79.5t95 53.5t141.5 19.5h28q84 0 136.5 -19.5t80.5 -53.5t35 -79.5t-1 -97.5l-6 -40q-8 -52 -27.5 -97.5t-56.5 -79.5t-95 -53.5t-142 -19.5h-28q-84 0 -136.5 19.5t-80.5 53.5t-35 79.5t1 97.5zM251 212q0 -18 5 -33.5t19 -27.5t38.5 -19
t64.5 -7q52 0 84 11t49.5 32t23 51t5.5 69q0 18 -5 33.5t-19 27.5t-38.5 19t-64.5 7q-53 0 -84.5 -11t-49 -32t-23 -51t-5.5 -69zM607 620l-4 -32h-92l-58 77l-79 -77h-92l4 32l135 100h81z" />
    <glyph glyph-name="otilde" unicode="&#xf5;" horiz-adv-x="720" 
d="M98 270q8 52 27.5 97.5t57 79.5t95 53.5t141.5 19.5h28q84 0 136.5 -19.5t80.5 -53.5t35 -79.5t-1 -97.5l-6 -40q-8 -52 -27.5 -97.5t-56.5 -79.5t-95 -53.5t-142 -19.5h-28q-84 0 -136.5 19.5t-80.5 53.5t-35 79.5t1 97.5zM251 212q0 -18 5 -33.5t19 -27.5t38.5 -19
t64.5 -7q52 0 84 11t49.5 32t23 51t5.5 69q0 18 -5 33.5t-19 27.5t-38.5 19t-64.5 7q-53 0 -84.5 -11t-49 -32t-23 -51t-5.5 -69zM281 584l10 73q12 15 28 26q14 10 32.5 18.5t43.5 8.5q24 0 42 -7t34.5 -16t33 -16t35.5 -7q26 0 45 16t29 30h7l-12 -84q-9 -12 -22 -21
q-11 -8 -28.5 -14t-40.5 -6q-22 0 -40 7t-35 16t-34.5 16t-37.5 7q-27 0 -48 -16.5t-33 -30.5h-9z" />
    <glyph glyph-name="odieresis" unicode="&#xf6;" horiz-adv-x="720" 
d="M98 270q8 52 27.5 97.5t57 79.5t95 53.5t141.5 19.5h28q84 0 136.5 -19.5t80.5 -53.5t35 -79.5t-1 -97.5l-6 -40q-8 -52 -27.5 -97.5t-56.5 -79.5t-95 -53.5t-142 -19.5h-28q-84 0 -136.5 19.5t-80.5 53.5t-35 79.5t1 97.5zM251 212q0 -18 5 -33.5t19 -27.5t38.5 -19
t64.5 -7q52 0 84 11t49.5 32t23 51t5.5 69q0 18 -5 33.5t-19 27.5t-38.5 19t-64.5 7q-53 0 -84.5 -11t-49 -32t-23 -51t-5.5 -69zM282 655q3 23 19.5 39t54.5 16h8q38 0 49.5 -16t8.5 -39l-2 -12q-3 -23 -19.5 -39t-54.5 -16h-8q-38 0 -49.5 16t-8.5 39zM482 655
q3 23 19.5 39t54.5 16h8q38 0 49.5 -16t8.5 -39l-2 -12q-3 -23 -19.5 -39t-54.5 -16h-8q-38 0 -49.5 16t-8.5 39z" />
    <glyph glyph-name="oslash" unicode="&#xf8;" horiz-adv-x="720" 
d="M98 270q8 52 27.5 97.5t57 79.5t95 53.5t141.5 19.5h28q56 0 97 -8.5t70 -25.5l75 65l43 -50l-65 -57q26 -34 32.5 -78.5t-1.5 -95.5l-6 -40q-8 -52 -27.5 -97.5t-57 -79.5t-95 -53.5t-141.5 -19.5h-28q-56 0 -97.5 8.5t-70.5 24.5l-73 -64l-43 50l65 57
q-27 34 -33.5 78.5t1.5 95.5zM540 287q0 10 -1.5 21.5t-4.5 19.5l-224 -197q25 -6 68 -6q52 0 84 11t49.5 32t23 51t5.5 68zM251 213q0 -10 1 -21.5t4 -19.5l224 196q-14 3 -30 5t-37 2q-53 0 -84.5 -11t-49 -32t-23 -51t-5.5 -68z" />
    <glyph glyph-name="ugrave" unicode="&#xf9;" 
d="M290 500l-35 -250q-3 -23 -4 -45.5t8.5 -40t34.5 -28.5t73 -11t86 11.5t73 34.5l46 329h160l-70 -500h-40l-86 54q-23 -20 -46 -34t-48 -23t-52.5 -13t-60.5 -4q-76 0 -125.5 19.5t-76.5 53.5t-34.5 79.5t-0.5 97.5l38 270h160zM484 610l-4 -32h-72l-114 110l4 32h121z
" />
    <glyph glyph-name="uacute" unicode="&#xfa;" 
d="M290 500l-35 -250q-3 -23 -4 -45.5t8.5 -40t34.5 -28.5t73 -11t86 11.5t73 34.5l46 329h160l-70 -500h-40l-86 54q-23 -20 -46 -34t-48 -23t-52.5 -13t-60.5 -4q-76 0 -125.5 19.5t-76.5 53.5t-34.5 79.5t-0.5 97.5l38 270h160zM482 720h121l-5 -32l-144 -110h-72l4 32z
" />
    <glyph glyph-name="ucircumflex" unicode="&#xfb;" 
d="M290 500l-35 -250q-3 -23 -4 -45.5t8.5 -40t34.5 -28.5t73 -11t86 11.5t73 34.5l46 329h160l-70 -500h-40l-86 54q-23 -20 -46 -34t-48 -23t-52.5 -13t-60.5 -4q-76 0 -125.5 19.5t-76.5 53.5t-34.5 79.5t-0.5 97.5l38 270h160zM609 620l-4 -32h-92l-58 77l-79 -77h-92
l4 32l135 100h81z" />
    <glyph glyph-name="udieresis" unicode="&#xfc;" 
d="M290 500l-35 -250q-3 -23 -4 -45.5t8.5 -40t34.5 -28.5t73 -11t86 11.5t73 34.5l46 329h160l-70 -500h-40l-86 54q-23 -20 -46 -34t-48 -23t-52.5 -13t-60.5 -4q-76 0 -125.5 19.5t-76.5 53.5t-34.5 79.5t-0.5 97.5l38 270h160zM283 655q3 23 19.5 39t54.5 16h8
q38 0 49.5 -16t8.5 -39l-2 -12q-3 -23 -19.5 -39t-54.5 -16h-8q-38 0 -49.5 16t-8.5 39zM483 655q3 23 19.5 39t54.5 16h8q38 0 49.5 -16t8.5 -39l-2 -12q-3 -23 -19.5 -39t-54.5 -16h-8q-38 0 -49.5 16t-8.5 39z" />
    <glyph glyph-name="yacute" unicode="&#xfd;" horiz-adv-x="697" 
d="M625 -50q-8 -54 -29.5 -95t-61.5 -68.5t-99.5 -42t-143.5 -14.5q-25 0 -53 1.5t-56 5t-54 8t-47 10.5l21 150q21 -8 47 -13.5t53.5 -9t54.5 -5.5t50 -2q53 0 83.5 6.5t46.5 18.5t22 29.5t9 40.5l4 28q-60 -18 -129 -18q-84 0 -136.5 19.5t-80 53.5t-34.5 79.5t0 97.5
l38 270h160l-35 -250q-3 -24 -4 -47t9 -40t36 -27.5t77 -10.5q64 0 119 16l50 359h160zM485 720h121l-5 -32l-144 -110h-72l4 32z" />
    <glyph glyph-name="thorn" unicode="&#xfe;" 
d="M205 749l111 -70l-26 -182q36 11 75 17t84 6q84 0 136.5 -19.5t80.5 -53.5t35 -79.5t-1 -97.5l-6 -40q-8 -52 -27.5 -97.5t-57 -79.5t-95 -53.5t-141.5 -19.5q-86 0 -152 23l-36 -253h-160l140 999h40zM420 375q-42 0 -78.5 -5.5t-71.5 -16.5l-29 -207q63 -21 144 -21
q51 0 81.5 11t47.5 32t22.5 51t5.5 69q0 18 -5 33.5t-18.5 27.5t-37 19t-61.5 7z" />
    <glyph glyph-name="ydieresis" unicode="&#xff;" horiz-adv-x="697" 
d="M625 -50q-8 -54 -29.5 -95t-61.5 -68.5t-99.5 -42t-143.5 -14.5q-25 0 -53 1.5t-56 5t-54 8t-47 10.5l21 150q21 -8 47 -13.5t53.5 -9t54.5 -5.5t50 -2q53 0 83.5 6.5t46.5 18.5t22 29.5t9 40.5l4 28q-60 -18 -129 -18q-84 0 -136.5 19.5t-80 53.5t-34.5 79.5t0 97.5
l38 270h160l-35 -250q-3 -24 -4 -47t9 -40t36 -27.5t77 -10.5q64 0 119 16l50 359h160zM270 655q3 23 19.5 39t54.5 16h8q38 0 49.5 -16t8.5 -39l-2 -12q-3 -23 -19.5 -39t-54.5 -16h-8q-38 0 -49.5 16t-8.5 39zM470 655q3 23 19.5 39t54.5 16h8q38 0 49.5 -16t8.5 -39
l-2 -12q-3 -23 -19.5 -39t-54.5 -16h-8q-38 0 -49.5 16t-8.5 39z" />
    <glyph glyph-name="Amacron" unicode="&#x100;" horiz-adv-x="816" 
d="M20 0l6 40l386 630h180l210 -630l-6 -40h-162l-40 130h-337l-75 -130h-162zM549 280l-69 229l-135 -229h204zM337 762l10 70h355l-10 -70h-355z" />
    <glyph glyph-name="amacron" unicode="&#x101;" 
d="M662 0h-40l-86 54q-23 -20 -46 -34t-48 -23t-52.5 -13t-60.5 -4q-76 0 -125.5 19.5t-76.5 53.5t-35 79.5t0 97.5l6 40q8 52 27.5 97.5t57 79.5t95.5 53.5t143 19.5h28q84 0 136.5 -19.5t80 -53.5t34.5 -79.5t0 -97.5zM367 125q48 0 86 11.5t73 34.5l11 79q3 24 4 47
t-9.5 40t-37.5 27.5t-80 10.5t-85 -11t-49.5 -32t-23 -51t-5.5 -68q0 -17 4.5 -33t17 -28t35.5 -19.5t59 -7.5zM266 592l10 70h355l-10 -70h-355z" />
    <glyph glyph-name="Abreve" unicode="&#x102;" horiz-adv-x="816" 
d="M20 0l6 40l386 630h180l210 -630l-6 -40h-162l-40 130h-337l-75 -130h-162zM549 280l-69 229l-135 -229h204zM681 875l-3 -22q-3 -23 -12.5 -44t-28.5 -37t-48.5 -25t-72.5 -9h-8q-43 0 -70 9t-41 25t-18 37t-1 44l3 22h90l-3 -22q-2 -14 8 -24.5t43 -10.5h8
q33 0 46 10.5t15 24.5l3 22h90z" />
    <glyph glyph-name="abreve" unicode="&#x103;" 
d="M662 0h-40l-86 54q-23 -20 -46 -34t-48 -23t-52.5 -13t-60.5 -4q-76 0 -125.5 19.5t-76.5 53.5t-35 79.5t0 97.5l6 40q8 52 27.5 97.5t57 79.5t95.5 53.5t143 19.5h28q84 0 136.5 -19.5t80 -53.5t34.5 -79.5t0 -97.5zM367 125q48 0 86 11.5t73 34.5l11 79q3 24 4 47
t-9.5 40t-37.5 27.5t-80 10.5t-85 -11t-49.5 -32t-23 -51t-5.5 -68q0 -17 4.5 -33t17 -28t35.5 -19.5t59 -7.5zM610 705l-3 -22q-3 -23 -12.5 -44t-28.5 -37t-48.5 -25t-72.5 -9h-8q-43 0 -70 9t-41 25t-18 37t-1 44l3 22h90l-3 -22q-2 -14 8 -24.5t43 -10.5h8q33 0 46 10.5
t15 24.5l3 22h90z" />
    <glyph glyph-name="Aogonek" unicode="&#x104;" horiz-adv-x="816" 
d="M20 0l6 40l386 630h180l210 -630l-6 -40q-35 -6 -59 -21.5t-24 -55.5q0 -35 37 -35q10 0 32.5 3t46.5 14l-10 -69q-23 -14 -53.5 -20t-55.5 -6q-42 0 -70 19.5t-28 64.5q0 36 15 62t38 44h-31l-40 130h-337l-75 -130h-162zM549 280l-69 229l-135 -229h204z" />
    <glyph glyph-name="aogonek" unicode="&#x105;" 
d="M662 0q-15 -3 -29.5 -8t-26.5 -13.5t-19.5 -22t-7.5 -33.5q0 -35 37 -35q10 0 32.5 3t46.5 14l-10 -69q-23 -14 -53.5 -20t-55.5 -6q-42 0 -70 19.5t-28 64.5q0 28 9 50t23.5 38t32.5 27t36 18l-43 27q-23 -20 -46 -34t-48 -23t-52.5 -13t-60.5 -4q-76 0 -125.5 19.5
t-76.5 53.5t-35 79.5t0 97.5l6 40q8 52 27.5 97.5t57 79.5t95.5 53.5t143 19.5h28q84 0 136.5 -19.5t80 -53.5t34.5 -79.5t0 -97.5zM537 250q3 24 4 47t-9.5 40t-37.5 27.5t-80 10.5t-85 -11t-49.5 -32t-23 -51t-5.5 -68q0 -17 4.5 -33t17 -28t35.5 -19.5t59 -7.5
q48 0 86 11.5t73 34.5z" />
    <glyph glyph-name="Cacute" unicode="&#x106;" horiz-adv-x="756" 
d="M111 361q10 68 35.5 128t72.5 104.5t120.5 70.5t179.5 26h36q68 0 130.5 -8.5t122.5 -24.5l-23 -163q-33 10 -67.5 17t-68.5 11.5t-65 6.5t-56 2q-78 0 -126.5 -15.5t-74.5 -48t-35 -81.5t-9 -116q0 -29 7.5 -53t28.5 -41.5t57.5 -27.5t95.5 -10q25 0 57 2t67 6.5t72 12
t73 17.5l-23 -164q-64 -15 -129.5 -23.5t-133.5 -8.5h-36q-106 0 -172.5 26t-102 70.5t-43.5 104.5t2 128zM607 890h121l-5 -32l-144 -110h-72l4 32z" />
    <glyph glyph-name="cacute" unicode="&#x107;" horiz-adv-x="630" 
d="M98 270q8 52 27.5 97.5t57 79.5t95 53.5t141.5 19.5h28q54 0 104.5 -6.5t98.5 -18.5l-21 -149q-54 16 -109 22.5t-97 6.5q-56 0 -90 -10t-52 -30.5t-24 -51t-6 -72.5q0 -19 5 -34.5t20 -27t42 -18t70 -6.5q42 0 99 6.5t115 22.5l-21 -149q-51 -12 -103.5 -18.5
t-106.5 -6.5h-28q-84 0 -136.5 19.5t-80.5 53.5t-35 79.5t1 97.5zM485 720h121l-5 -32l-144 -110h-72l4 32z" />
    <glyph glyph-name="Ccircumflex" unicode="&#x108;" horiz-adv-x="756" 
d="M111 361q10 68 35.5 128t72.5 104.5t120.5 70.5t179.5 26h36q68 0 130.5 -8.5t122.5 -24.5l-23 -163q-33 10 -67.5 17t-68.5 11.5t-65 6.5t-56 2q-78 0 -126.5 -15.5t-74.5 -48t-35 -81.5t-9 -116q0 -29 7.5 -53t28.5 -41.5t57.5 -27.5t95.5 -10q25 0 57 2t67 6.5t72 12
t73 17.5l-23 -164q-64 -15 -129.5 -23.5t-133.5 -8.5h-36q-106 0 -172.5 26t-102 70.5t-43.5 104.5t2 128zM708 790l-4 -32h-92l-58 77l-79 -77h-92l4 32l134 100h81z" />
    <glyph glyph-name="ccircumflex" unicode="&#x109;" horiz-adv-x="630" 
d="M98 270q8 52 27.5 97.5t57 79.5t95 53.5t141.5 19.5h28q54 0 104.5 -6.5t98.5 -18.5l-21 -149q-54 16 -109 22.5t-97 6.5q-56 0 -90 -10t-52 -30.5t-24 -51t-6 -72.5q0 -19 5 -34.5t20 -27t42 -18t70 -6.5q42 0 99 6.5t115 22.5l-21 -149q-51 -12 -103.5 -18.5
t-106.5 -6.5h-28q-84 0 -136.5 19.5t-80.5 53.5t-35 79.5t1 97.5zM611 620l-4 -32h-92l-58 77l-79 -77h-92l4 32l134 100h81z" />
    <glyph glyph-name="Cdotaccent" unicode="&#x10a;" horiz-adv-x="756" 
d="M103 309q-10 -68 -2 -128t43.5 -104.5t102 -70.5t172.5 -26h36q68 0 133.5 8.5t129.5 23.5l23 164q-36 -10 -73 -17.5t-72 -12t-67 -6.5t-57 -2q-59 0 -95.5 10t-57.5 27.5t-28.5 41.5t-7.5 53q0 67 9 116t35 81.5t74.5 48t126.5 15.5q25 0 56 -2t65 -6.5t68.5 -11.5
t67.5 -17l23 163q-60 16 -122.5 24.5t-130.5 8.5h-36q-106 0 -179.5 -26t-120.5 -70.5t-72.5 -104.5t-35.5 -128zM494 825q3 23 19.5 39t54.5 16h8q38 0 49.5 -16t8.5 -39l-2 -12q-3 -23 -19 -39t-54 -16h-8q-38 0 -50 16t-9 39z" />
    <glyph glyph-name="cdotaccent" unicode="&#x10b;" horiz-adv-x="630" 
d="M92 230q-8 -52 -1 -97.5t35 -79.5t80.5 -53.5t136.5 -19.5h28q54 0 106.5 6.5t103.5 18.5l21 149q-58 -16 -115 -22.5t-99 -6.5q-43 0 -70 6.5t-42 18t-20 27t-5 34.5q0 42 6 72.5t24 51t52 30.5t90 10q42 0 97 -6.5t109 -22.5l21 149q-48 12 -98.5 18.5t-104.5 6.5h-28
q-84 0 -141.5 -19.5t-95 -53.5t-57 -79.5t-27.5 -97.5zM387 655q3 23 19.5 39t54.5 16h8q38 0 49.5 -16t8.5 -39l-2 -12q-3 -23 -19 -39t-54 -16h-8q-38 0 -50 16t-9 39z" />
    <glyph glyph-name="Ccaron" unicode="&#x10c;" horiz-adv-x="756" 
d="M111 361q10 68 35.5 128t72.5 104.5t120.5 70.5t179.5 26h36q68 0 130.5 -8.5t122.5 -24.5l-23 -163q-33 10 -67.5 17t-68.5 11.5t-65 6.5t-56 2q-78 0 -126.5 -15.5t-74.5 -48t-35 -81.5t-9 -116q0 -29 7.5 -53t28.5 -41.5t57.5 -27.5t95.5 -10q25 0 57 2t67 6.5t72 12
t73 17.5l-23 -164q-64 -15 -129.5 -23.5t-133.5 -8.5h-36q-106 0 -172.5 26t-102 70.5t-43.5 104.5t2 128zM602 748h-81l-106 100l4 32h92l58 -77l79 77h92l-4 -32z" />
    <glyph glyph-name="ccaron" unicode="&#x10d;" horiz-adv-x="630" 
d="M98 270q8 52 27.5 97.5t57 79.5t95 53.5t141.5 19.5h28q54 0 104.5 -6.5t98.5 -18.5l-21 -149q-54 16 -109 22.5t-97 6.5q-56 0 -90 -10t-52 -30.5t-24 -51t-6 -72.5q0 -19 5 -34.5t20 -27t42 -18t70 -6.5q42 0 99 6.5t115 22.5l-21 -149q-51 -12 -103.5 -18.5
t-106.5 -6.5h-28q-84 0 -136.5 19.5t-80.5 53.5t-35 79.5t1 97.5zM493 578h-81l-106 100l4 32h92l58 -77l79 77h92l-4 -32z" />
    <glyph glyph-name="Dcaron" unicode="&#x10e;" horiz-adv-x="846" 
d="M839 309q-10 -68 -36.5 -128t-77.5 -104.5t-130 -70.5t-194 -26h-36q-77 0 -151.5 5t-143.5 15l94 669q72 11 148 16t153 5h36q115 0 187 -26t111 -70.5t48.5 -104.5t-0.5 -128zM392 138q90 0 144 15.5t83 48t38 81t9 114.5q0 29 -8.5 53.5t-32.5 42.5t-66.5 28
t-110.5 10q-26 0 -58 -1t-66 -3l-54 -385q34 -2 65 -3t57 -1zM568 748h-81l-106 100l4 32h92l58 -77l79 77h92l-4 -32z" />
    <glyph glyph-name="dcaron" unicode="&#x10f;" horiz-adv-x="958" 
d="M662 0h-40l-50 31q-51 -26 -107 -38.5t-122 -12.5q-84 0 -136.5 19.5t-80.5 53.5t-35 79.5t1 97.5l6 40q8 52 27.5 97.5t57 79.5t95 53.5t141.5 19.5q44 0 81.5 -6t71.5 -17l35 253h40l111 -70zM373 125q79 0 150 21l29 207q-32 11 -67.5 16.5t-76.5 5.5q-51 0 -81.5 -11
t-47.5 -32t-22.5 -51t-5.5 -69q0 -18 4.5 -33.5t18 -27.5t37.5 -19t62 -7zM823 511q42 0 63 16t32 42q-15 -6 -34 -6q-20 0 -33 6t-20.5 16.5t-9 24.5t0.5 29l5 34q4 31 24.5 53.5t70.5 22.5h6q25 0 41 -6t24 -16.5t10 -24t0 -29.5l-5 -34q-5 -36 -14.5 -70t-29.5 -60.5
t-53.5 -42t-86.5 -15.5z" />
    <glyph glyph-name="Dcroat" unicode="&#x110;" horiz-adv-x="893" 
d="M72 283l15 110h85l39 276q72 11 148 16t153 5h36q115 0 187 -26t110.5 -70.5t48 -104.5t0.5 -128l-7 -52q-9 -68 -36 -128t-78 -104.5t-130.5 -70.5t-194.5 -26h-36q-77 0 -151.5 5t-143.5 15l40 283h-85zM440 138q90 0 144 15.5t83 48t38 81t9 114.5q0 29 -8.5 53.5
t-32.5 42.5t-67 28t-111 10q-26 0 -57.5 -1t-66.5 -3l-19 -134h190l-15 -110h-190l-20 -141q34 -2 65.5 -3t57.5 -1z" />
    <glyph glyph-name="dcroat" unicode="&#x111;" 
d="M752 637h105l-9 -64h-105l-81 -573h-40l-50 31q-51 -26 -107 -38.5t-122 -12.5q-84 0 -136.5 19.5t-80.5 53.5t-35 79.5t1 97.5l6 40q8 52 27.5 97.5t57 79.5t95 53.5t141.5 19.5q44 0 81.5 -6t71.5 -17l11 76h-149l9 64h149l15 113h40l111 -70zM373 125q79 0 150 21
l29 207q-32 11 -67.5 16.5t-76.5 5.5q-51 0 -81.5 -11t-47.5 -32t-22.5 -51t-5.5 -69q0 -18 4.5 -33.5t18 -27.5t37.5 -19t62 -7z" />
    <glyph glyph-name="Emacron" unicode="&#x112;" horiz-adv-x="760" 
d="M783 510h-461l-14 -100h361l-23 -160h-361l-13 -90h461l-22 -160h-641l94 670h641zM309 762l10 70h355l-10 -70h-355z" />
    <glyph glyph-name="emacron" unicode="&#x113;" horiz-adv-x="709" 
d="M343 -20q-84 0 -136.5 19.5t-80.5 53.5t-35 79.5t1 97.5l6 40q8 52 27.5 97.5t57 79.5t95 53.5t141.5 19.5h28q85 0 137.5 -13t80.5 -34.5t34.5 -50.5t0.5 -62l-2 -10q-5 -30 -16.5 -57t-42.5 -47.5t-86.5 -33t-149.5 -12.5q-45 0 -82.5 4t-69.5 14q-2 -21 1.5 -38.5
t18.5 -29.5t44 -18.5t79 -6.5q24 0 53.5 2t61.5 5.5t63.5 9t58.5 13.5l-21 -150q-27 -6 -58 -10.5t-64 -8t-65.5 -5t-60.5 -1.5h-19zM431 395q-40 0 -67.5 -4.5t-46 -13.5t-29.5 -22t-17 -30q28 -8 61 -11.5t77 -3.5t69.5 3.5t39 9.5t17.5 14t4 17q0 7 -3.5 14t-15 13
t-33 10t-56.5 4zM260 592l10 70h355l-10 -70h-355z" />
    <glyph glyph-name="Ebreve" unicode="&#x114;" horiz-adv-x="760" 
d="M308 410l-18 -127l54 387h-180l-94 -670h641l22 160h-461l13 90h361l23 160h-361zM344 670l-22 -160h461l22 160h-461zM653 875l-3 -22q-3 -23 -12.5 -44t-28.5 -37t-48.5 -25t-72.5 -9h-8q-43 0 -70 9t-41 25t-18 37t-1 44l3 22h90l-3 -22q-2 -14 8 -24.5t43 -10.5h8
q33 0 46 10.5t15 24.5l3 22h90z" />
    <glyph glyph-name="ebreve" unicode="&#x115;" horiz-adv-x="709" 
d="M362 -20q28 0 60.5 1.5t65.5 5t64 8t58 10.5l21 150q-27 -8 -58.5 -13.5t-63.5 -9t-61.5 -5.5t-53.5 -2q-45 0 -73 6t-44 17.5t-21.5 27t-5.5 34.5v9q32 -11 69.5 -15t83.5 -4q94 0 149.5 12.5t86.5 33t42.5 47.5t16.5 57l2 10q6 33 -0.5 62t-34.5 50.5t-80.5 34.5
t-137.5 13h-28q-84 0 -141.5 -19.5t-95 -53.5t-57 -79.5t-27.5 -97.5l-6 -40q-8 -52 -1 -97.5t35 -79.5t80.5 -53.5t136.5 -19.5h19zM603 705l-3 -22q-3 -23 -12.5 -44t-28.5 -37t-48.5 -25t-72.5 -9h-8q-43 0 -70 9t-41 25t-18 37t-1 44l3 22h90l-3 -22q-2 -14 8 -24.5
t43 -10.5h8q33 0 46 10.5t15 24.5l3 22h90zM431 395q35 0 56.5 -4t33 -10t15 -13t3.5 -14q0 -9 -4 -17t-17.5 -14t-39 -9.5t-69.5 -3.5q-45 0 -79.5 4t-63.5 12q16 36 54 52.5t111 16.5z" />
    <glyph glyph-name="Edotaccent" unicode="&#x116;" horiz-adv-x="760" 
d="M783 510h-461l-14 -100h361l-23 -160h-361l-13 -90h461l-22 -160h-641l94 670h641zM426 825q3 23 19.5 39t54.5 16h8q38 0 49.5 -16t8.5 -39l-2 -12q-3 -23 -19.5 -39t-54.5 -16h-8q-38 0 -49.5 16t-8.5 39z" />
    <glyph glyph-name="edotaccent" unicode="&#x117;" horiz-adv-x="709" 
d="M343 -20q-84 0 -136.5 19.5t-80.5 53.5t-35 79.5t1 97.5l6 40q8 52 27.5 97.5t57 79.5t95 53.5t141.5 19.5h28q85 0 137.5 -13t80.5 -34.5t34.5 -50.5t0.5 -62l-2 -10q-5 -30 -16.5 -57t-42.5 -47.5t-86.5 -33t-149.5 -12.5q-45 0 -82.5 4t-69.5 14q-2 -21 1.5 -38.5
t18.5 -29.5t44 -18.5t79 -6.5q24 0 53.5 2t61.5 5.5t63.5 9t58.5 13.5l-21 -150q-27 -6 -58 -10.5t-64 -8t-65.5 -5t-60.5 -1.5h-19zM431 395q-40 0 -67.5 -4.5t-46 -13.5t-29.5 -22t-17 -30q28 -8 61 -11.5t77 -3.5t69.5 3.5t39 9.5t17.5 14t4 17q0 7 -3.5 14t-15 13
t-33 10t-56.5 4zM376 655q3 23 19.5 39t54.5 16h8q38 0 49.5 -16t8.5 -39l-2 -12q-3 -23 -19.5 -39t-54.5 -16h-8q-38 0 -49.5 16t-8.5 39z" />
    <glyph glyph-name="Eogonek" unicode="&#x118;" horiz-adv-x="760" 
d="M527 -106q0 36 15 62t38 44h-510l94 670h641l-22 -160h-461l-14 -100h361l-23 -160h-361l-13 -90h461l-22 -160q-16 -3 -31 -8t-26.5 -13.5t-18.5 -22t-7 -33.5q0 -35 37 -35q10 0 32.5 3t46.5 14l-10 -69q-23 -14 -53.5 -20t-55.5 -6q-42 0 -70 19.5t-28 64.5z" />
    <glyph glyph-name="eogonek" unicode="&#x119;" horiz-adv-x="709" 
d="M426 -101q0 26 8.5 47t22.5 38q-26 -2 -49.5 -3t-45.5 -1h-19q-84 0 -136.5 19.5t-80.5 53.5t-35 79.5t1 97.5l6 40q8 52 27.5 97.5t57 79.5t95 53.5t141.5 19.5h28q85 0 137.5 -13t80.5 -34.5t34.5 -50.5t0.5 -62l-2 -10q-5 -30 -16.5 -57t-42.5 -47.5t-86.5 -33
t-149.5 -12.5q-45 0 -82.5 4t-69.5 14q-2 -21 1.5 -38.5t18.5 -29.5t44 -18.5t79 -6.5q24 0 53.5 2t61.5 5.5t63.5 9t58.5 13.5l-21 -150q-17 -5 -32 -10t-26.5 -13t-18.5 -20.5t-7 -33.5q0 -35 38 -35q10 0 32 3t46 14l-9 -69q-23 -14 -53.5 -20t-55.5 -6q-42 0 -70 19.5
t-28 64.5zM431 395q-40 0 -67.5 -4.5t-46 -13.5t-29.5 -22t-17 -30q28 -8 61 -11.5t77 -3.5t69.5 3.5t39 9.5t17.5 14t4 17q0 7 -3.5 14t-15 13t-33 10t-56.5 4z" />
    <glyph glyph-name="Ecaron" unicode="&#x11a;" horiz-adv-x="760" 
d="M783 510h-461l-14 -100h361l-23 -160h-361l-13 -90h461l-22 -160h-641l94 670h641zM525 748h-81l-106 100l4 32h92l58 -77l79 77h92l-4 -32z" />
    <glyph glyph-name="ecaron" unicode="&#x11b;" horiz-adv-x="709" 
d="M343 -20q-84 0 -136.5 19.5t-80.5 53.5t-35 79.5t1 97.5l6 40q8 52 27.5 97.5t57 79.5t95 53.5t141.5 19.5h28q85 0 137.5 -13t80.5 -34.5t34.5 -50.5t0.5 -62l-2 -10q-5 -30 -16.5 -57t-42.5 -47.5t-86.5 -33t-149.5 -12.5q-45 0 -82.5 4t-69.5 14q-2 -21 1.5 -38.5
t18.5 -29.5t44 -18.5t79 -6.5q24 0 53.5 2t61.5 5.5t63.5 9t58.5 13.5l-21 -150q-27 -6 -58 -10.5t-64 -8t-65.5 -5t-60.5 -1.5h-19zM431 395q-40 0 -67.5 -4.5t-46 -13.5t-29.5 -22t-17 -30q28 -8 61 -11.5t77 -3.5t69.5 3.5t39 9.5t17.5 14t4 17q0 7 -3.5 14t-15 13
t-33 10t-56.5 4zM476 578h-81l-106 100l4 32h92l58 -77l79 77h92l-4 -32z" />
    <glyph glyph-name="Gcircumflex" unicode="&#x11c;" horiz-adv-x="856" 
d="M833 336l-23 -160h1l-10 -70l-13 -94q-73 -15 -149.5 -23.5t-153.5 -8.5h-36q-115 0 -187 26t-111 70.5t-48.5 104.5t0.5 128l8 52q10 68 36.5 128t77.5 104.5t130 70.5t194 26h36q72 0 140.5 -8.5t132.5 -24.5l-23 -163q-71 20 -146 28.5t-131 8.5q-90 0 -144 -15.5
t-83 -47.5t-38 -80.5t-9 -114.5q0 -29 8.5 -54t32.5 -43t66.5 -28t110.5 -10q55 0 124 6l27 192h180zM699 790l-4 -32h-92l-58 77l-79 -77h-92l4 32l134 100h81z" />
    <glyph glyph-name="gcircumflex" unicode="&#x11d;" 
d="M655 -50q-8 -54 -29.5 -95t-61.5 -68.5t-99.5 -42t-143.5 -14.5q-29 0 -60.5 1.5t-63 5t-61.5 8t-55 10.5l21 150q25 -8 54.5 -13.5t61 -9t62 -5.5t57.5 -2q53 0 83.5 6.5t46.5 18.5t22 29.5t9 40.5l4 33q-37 -11 -76 -17t-83 -6q-84 0 -136.5 19.5t-80.5 53.5t-35 79.5
t1 97.5l6 40q8 52 27.5 97.5t57 79.5t95.5 53.5t143 19.5h28q84 0 136.5 -19.5t80 -53.5t34.5 -79.5t0 -97.5zM373 125q80 0 149 21l15 104q3 24 4 47t-9.5 40t-37.5 27.5t-79 10.5q-53 0 -85.5 -11t-50 -32t-23 -51t-5.5 -69q0 -18 4.5 -33.5t18 -27.5t37.5 -19t62 -7z
M608 620l-4 -32h-92l-58 77l-79 -77h-92l4 32l134 100h81z" />
    <glyph glyph-name="Gbreve" unicode="&#x11e;" horiz-adv-x="856" 
d="M833 336l-45 -324q-73 -15 -149.5 -23.5t-153.5 -8.5h-36q-115 0 -187 26t-111 70.5t-48.5 104.5t0.5 128l8 52q10 68 36.5 128t77.5 104.5t130 70.5t194 26h36q72 0 140.5 -8.5t132.5 -24.5l-23 -163q-71 20 -146 28.5t-131 8.5q-90 0 -144 -15.5t-83 -47.5t-38 -80.5
t-9 -114.5q0 -29 8.5 -54t32.5 -43t66.5 -28t110.5 -10q55 0 124 6l27 192h180zM741 875l-3 -22q-3 -23 -12.5 -44t-28.5 -37t-48.5 -25t-72.5 -9h-8q-43 0 -70 9t-41 25t-18 37t-1 44l3 22h90l-3 -22q-2 -14 8 -24.5t43 -10.5h8q33 0 46 10.5t15 24.5l3 22h90z" />
    <glyph glyph-name="gbreve" unicode="&#x11f;" 
d="M655 -50q-8 -54 -29.5 -95t-61.5 -68.5t-99.5 -42t-143.5 -14.5q-29 0 -60.5 1.5t-63 5t-61.5 8t-55 10.5l21 150q25 -8 54.5 -13.5t61 -9t62 -5.5t57.5 -2q53 0 83.5 6.5t46.5 18.5t22 29.5t9 40.5l5 33q-38 -11 -77 -17t-83 -6q-84 0 -136.5 19.5t-80.5 53.5t-35 79.5
t1 97.5l6 40q8 52 27.5 97.5t57 79.5t95.5 53.5t143 19.5h28q84 0 136.5 -19.5t80 -53.5t34.5 -79.5t0 -97.5zM373 125q80 0 149 21l15 104q3 24 4 47t-9.5 40t-37.5 27.5t-79 10.5q-53 0 -85.5 -11t-50 -32t-23 -51t-5.5 -69q0 -18 4.5 -33.5t18 -27.5t37.5 -19t62 -7z
M610 705l-3 -22q-3 -23 -12.5 -44t-28.5 -37t-48.5 -25t-72.5 -9h-8q-43 0 -70 9t-41 25t-18 37t-1 44l3 22h90l-3 -22q-2 -14 8 -24.5t43 -10.5h8q33 0 46 10.5t15 24.5l3 22h90z" />
    <glyph glyph-name="Gdotaccent" unicode="&#x120;" horiz-adv-x="856" 
d="M653 336l-27 -192q-69 -6 -124 -6q-68 0 -110.5 10t-66.5 28t-32.5 43t-8.5 54q0 66 9 114.5t38 80.5t83 47.5t144 15.5q56 0 131 -8.5t146 -28.5l23 163q-64 16 -132.5 24.5t-140.5 8.5h-36q-115 0 -194 -26t-130 -70.5t-77.5 -104.5t-36.5 -128l-8 -52
q-10 -68 -0.5 -128t48.5 -104.5t111 -70.5t187 -26h36q77 0 153.5 8.5t149.5 23.5l13 94l10 70h-1l23 160h-180zM474 825q3 23 19.5 39t54.5 16h8q38 0 49.5 -16t8.5 -39l-2 -12q-3 -23 -19 -39t-54 -16h-8q-38 0 -50 16t-9 39z" />
    <glyph glyph-name="gdotaccent" unicode="&#x121;" 
d="M700 270q7 52 0 97.5t-34.5 79.5t-80 53.5t-136.5 19.5h-28q-85 0 -143 -19.5t-95.5 -53.5t-57 -79.5t-27.5 -97.5l-6 -40q-8 -52 -1 -97.5t35 -79.5t80.5 -53.5t136.5 -19.5q44 0 83 6t76 17l-4 -33q-3 -23 -9 -40.5t-22 -29.5t-46.5 -18.5t-83.5 -6.5q-27 0 -57.5 2
t-62 5.5t-61 9t-54.5 13.5l-21 -150q25 -6 55 -10.5t61.5 -8t63 -5t60.5 -1.5q84 0 143.5 14.5t99.5 42t61.5 68.5t29.5 95zM373 125q-38 0 -62 7t-37.5 19t-18 27.5t-4.5 33.5q0 39 5.5 69t23 51t50 32t85.5 11q52 0 79 -10.5t37.5 -27.5t9.5 -40t-4 -47l-15 -104
q-69 -21 -149 -21zM383 655q3 23 19.5 39t54.5 16h8q38 0 49.5 -16t8.5 -39l-2 -12q-3 -23 -19 -39t-54 -16h-8q-38 0 -50 16t-9 39z" />
    <glyph glyph-name="uni0122" unicode="&#x122;" horiz-adv-x="856" 
d="M833 336l-45 -324q-73 -15 -149.5 -23.5t-153.5 -8.5h-36q-115 0 -187 26t-111 70.5t-48.5 104.5t0.5 128l8 52q10 68 36.5 128t77.5 104.5t130 70.5t194 26h36q72 0 140.5 -8.5t132.5 -24.5l-23 -163q-71 20 -146 28.5t-131 8.5q-90 0 -144 -15.5t-83 -47.5t-38 -80.5
t-9 -114.5q0 -29 8.5 -54t32.5 -43t66.5 -28t110.5 -10q55 0 124 6l27 192h180zM398 -205q32 0 48.5 12t24.5 32q-13 -5 -26 -5q-31 0 -40.5 17t-6.5 40l1 8q3 23 18.5 40t53.5 17h4q38 0 48.5 -17t7.5 -40l-1 -8q-3 -27 -10.5 -52.5t-22.5 -45t-40 -31.5t-65 -12l6 45v0z
" />
    <glyph glyph-name="uni0123" unicode="&#x123;" 
d="M655 -50q-8 -54 -29.5 -95t-61.5 -68.5t-99.5 -42t-143.5 -14.5q-29 0 -60.5 1.5t-63 5t-61.5 8t-55 10.5l21 150q25 -8 54.5 -13.5t61 -9t62 -5.5t57.5 -2q53 0 83.5 6.5t46.5 18.5t22 29.5t9 40.5l5 33q-38 -11 -77 -17t-83 -6q-84 0 -136.5 19.5t-80.5 53.5t-35 79.5
t1 97.5l6 40q8 52 27.5 97.5t57 79.5t95.5 53.5t143 19.5h28q84 0 136.5 -19.5t80 -53.5t34.5 -79.5t0 -97.5zM373 125q80 0 149 21l15 104q3 24 4 47t-9.5 40t-37.5 27.5t-79 10.5q-53 0 -85.5 -11t-50 -32t-23 -51t-5.5 -69q0 -18 4.5 -33.5t18 -27.5t37.5 -19t62 -7z
M518 752q-32 0 -48.5 -12.5t-23.5 -31.5q12 5 25 5q31 0 40.5 -17t6.5 -40l-1 -8q-3 -23 -18.5 -40t-53.5 -17h-4q-38 0 -48.5 17t-7.5 40l1 8q3 27 10.5 52.5t22.5 45t40 31.5t65 12z" />
    <glyph glyph-name="Hcircumflex" unicode="&#x124;" horiz-adv-x="850" 
d="M657 410l37 260h180l-94 -670h-180l35 250h-350l-35 -250h-180l94 670h180l-56 -399l20 139h349zM696 790l-4 -32h-92l-58 77l-79 -77h-92l4 32l134 100h81z" />
    <glyph glyph-name="hcircumflex" unicode="&#x125;" horiz-adv-x="727" 
d="M210 750l111 -70l-26 -183q37 11 76 17t83 6q84 0 136.5 -19.5t80 -53.5t34.5 -79.5t0 -97.5l-38 -270h-160l35 250q3 24 4.5 47t-9 40t-36 27.5t-76.5 10.5q-42 0 -78.5 -5.5t-71.5 -16.5l-50 -353h-160l105 750h40zM698 620l-4 -32h-92l-58 77l-79 -77h-92l4 32
l134 100h81z" />
    <glyph glyph-name="Itilde" unicode="&#x128;" horiz-adv-x="320" 
d="M344 670l-94 -670h-180l94 670h180zM105 754l10 73q12 15 28 26q14 10 32.5 18.5t43.5 8.5q24 0 42 -7t34.5 -16t33 -16t35.5 -7q26 0 45 16t29 30h7l-12 -84q-9 -12 -22 -21q-11 -8 -28.5 -14t-40.5 -6q-22 0 -40 7t-35 16t-34.5 16t-37.5 7q-27 0 -48 -16.5t-33 -30.5
h-9z" />
    <glyph glyph-name="itilde" unicode="&#x129;" horiz-adv-x="300" 
d="M180 500l110 -70l-60 -430h-160l70 500h40zM71 584l10 73q12 15 28 26q14 10 32.5 18.5t43.5 8.5q24 0 42 -7t34.5 -16t33 -16t35.5 -7q26 0 45 16t29 30h7l-12 -84q-9 -12 -22 -21q-11 -8 -28.5 -14t-40.5 -6q-22 0 -40 7t-35 16t-34.5 16t-37.5 7q-27 0 -48 -16.5
t-33 -30.5h-9z" />
    <glyph glyph-name="Imacron" unicode="&#x12a;" horiz-adv-x="320" 
d="M344 670l-94 -670h-180l94 670h180zM91 762l10 70h355l-10 -70h-355z" />
    <glyph glyph-name="imacron" unicode="&#x12b;" horiz-adv-x="300" 
d="M180 500l110 -70l-60 -430h-160l70 500h40zM57 592l10 70h355l-10 -70h-355z" />
    <glyph glyph-name="Ibreve" unicode="&#x12c;" horiz-adv-x="320" 
d="M164 670l-94 -670h180l94 670h-180zM433 875l-3 -22q-3 -23 -12.5 -44t-28.5 -37t-48.5 -25t-72.5 -9h-8q-43 0 -70 9t-41 25t-18 37t-1 44l3 22h90l-3 -22q-2 -14 8 -24.5t43 -10.5h8q33 0 46 10.5t15 24.5l3 22h90z" />
    <glyph glyph-name="ibreve" unicode="&#x12d;" horiz-adv-x="300" 
d="M140 500l-70 -500h160l60 430l-110 70h-40zM399 705l-3 -22q-3 -23 -12.5 -44t-28.5 -37t-48.5 -25t-72.5 -9h-8q-43 0 -70 9t-41 25t-18 37t-1 44l3 22h90l-3 -22q-2 -14 8 -24.5t43 -10.5h8q33 0 46 10.5t15 24.5l3 22h90z" />
    <glyph glyph-name="Iogonek" unicode="&#x12e;" horiz-adv-x="320" 
d="M344 670l-94 -670q-37 -6 -60 -21.5t-23 -55.5q0 -35 37 -35q10 0 32.5 3t46.5 14l-10 -69q-22 -14 -53 -20t-56 -6q-42 0 -70 19.5t-28 64.5q0 36 15 62t38 44h-49l94 670h180z" />
    <glyph glyph-name="iogonek" unicode="&#x12f;" horiz-adv-x="300" 
d="M46 -106q0 -45 28 -64.5t70 -19.5q25 0 56 6t53 20l10 69q-24 -11 -46.5 -14t-32.5 -3q-37 0 -37 35q0 20 7 33.5t18.5 21.5t26.5 13t31 9l61 430l-111 70h-40l-70 -500h29q-23 -18 -38 -44t-15 -62zM155 675q5 31 26 53t71 22h8q50 0 65 -22t10 -53l-2 -12
q-5 -31 -25.5 -53t-70.5 -22h-8q-50 0 -65.5 22t-10.5 53z" />
    <glyph glyph-name="Idotaccent" unicode="&#x130;" horiz-adv-x="320" 
d="M344 670l-94 -670h-180l94 670h180zM206 825q3 23 19.5 39t54.5 16h8q38 0 49.5 -16t8.5 -39l-2 -12q-3 -23 -19.5 -39t-54.5 -16h-8q-38 0 -49.5 16t-8.5 39z" />
    <glyph glyph-name="dotlessi" unicode="&#x131;" horiz-adv-x="300" 
d="M180 500l110 -70l-60 -430h-160l70 500h40z" />
    <glyph glyph-name="IJ" unicode="&#x132;" horiz-adv-x="807" 
d="M344 670l-94 -670h-180l94 670h180zM661 670h180l-66 -470q-8 -53 -28 -93t-56 -67t-89 -41t-127 -14q-29 0 -60.5 2.5t-55.5 7.5l23 165q23 -8 53 -11.5t56 -3.5q34 0 54.5 5t31 14.5t14.5 23.5t7 32z" />
    <glyph glyph-name="ij" unicode="&#x133;" horiz-adv-x="580" 
d="M140 500l-70 -500h160l60 430l-110 70h-40zM155 675q5 31 25.5 53t70.5 22h8q50 0 65.5 -22t10.5 -53l-2 -12q-5 -31 -25.5 -53t-70.5 -22h-8q-50 0 -65.5 22t-10.5 53zM430 500l-105 -750h160l95 680l-110 70h-40zM445 675q5 31 25.5 53t70.5 22h8q50 0 65.5 -22
t10.5 -53l-2 -12q-5 -31 -25.5 -53t-70.5 -22h-8q-50 0 -65.5 22t-10.5 53z" />
    <glyph glyph-name="Jcircumflex" unicode="&#x134;" horiz-adv-x="477" 
d="M331 670h180l-66 -470q-8 -53 -28 -93t-56 -67t-89 -41t-127 -14q-29 0 -60.5 2.5t-55.5 7.5l23 165q23 -8 53 -11.5t56 -3.5q34 0 54.5 5t31 14.5t14.5 23.5t7 32zM600 790l-5 -32h-92l-58 77l-79 -77h-92l5 32l134 100h81z" />
    <glyph glyph-name="jcircumflex" unicode="&#x135;" horiz-adv-x="280" 
d="M170 500l111 -70l-96 -680h-160l105 750h40zM388 620l-4 -32h-92l-58 77l-79 -77h-92l4 32l134 100h81z" />
    <glyph glyph-name="uni0136" unicode="&#x136;" horiz-adv-x="789" 
d="M344 670l-36 -260h115l254 260h176l-5 -40l-289 -295l206 -295l-6 -40h-176l-175 250h-123l-35 -250h-180l94 670h180zM313 -205q32 0 48.5 12t24.5 32q-13 -5 -26 -5q-31 0 -40.5 17t-6.5 40l1 8q3 23 18.5 40t53.5 17h4q38 0 48.5 -17t7.5 -40l-1 -8
q-3 -27 -10.5 -52.5t-22.5 -45t-40 -31.5t-65 -12l6 45v0z" />
    <glyph glyph-name="uni0137" unicode="&#x137;" horiz-adv-x="671" 
d="M492 0l-87 176h-160l-25 -176h-160l105 750h40l111 -70l-50 -356h160l136 176h154l-5 -40l-163 -210l104 -210l-6 -40h-154zM254 -205q32 0 48.5 12t24.5 32q-13 -5 -26 -5q-31 0 -40.5 17t-6.5 40l1 8q3 23 18.5 40t53.5 17h4q38 0 48.5 -17t7.5 -40l-1 -8
q-3 -27 -10.5 -52.5t-22.5 -45t-40 -31.5t-65 -12l6 45v0z" />
    <glyph glyph-name="kgreenlandic" unicode="&#x138;" horiz-adv-x="671" 
d="M492 0l-88 176h-160l-24 -176h-160l70 500l160 -1l-25 -175h160l137 176h154l-5 -40l-163 -210l104 -210l-6 -40h-154z" />
    <glyph glyph-name="Lacute" unicode="&#x139;" horiz-adv-x="760" 
d="M70 0l94 670h180l-72 -510h461l-22 -160h-641zM334 890h121l-5 -32l-144 -110h-72l4 32z" />
    <glyph glyph-name="lacute" unicode="&#x13a;" horiz-adv-x="300" 
d="M215 750l111 -70l-96 -680h-160l105 750h40zM311 940h121l-5 -32l-144 -110h-72l4 32z" />
    <glyph glyph-name="uni013B" unicode="&#x13b;" horiz-adv-x="760" 
d="M70 0l94 670h180l-72 -510h461l-22 -160h-641zM299 -205q32 0 48.5 12t24.5 32q-13 -5 -26 -5q-31 0 -40.5 17t-6.5 40l1 8q3 23 18.5 40t53.5 17h4q38 0 48.5 -17t7.5 -40l-1 -8q-3 -27 -10.5 -52.5t-22.5 -45t-40 -31.5t-65 -12l6 45v0z" />
    <glyph glyph-name="uni013C" unicode="&#x13c;" horiz-adv-x="300" 
d="M215 750l111 -70l-96 -680h-160l105 750h40zM69 -205q32 0 48.5 12t24.5 32q-13 -5 -26 -5q-31 0 -40.5 17t-6.5 40l1 8q3 23 18.5 40t53.5 17h4q38 0 48.5 -17t7.5 -40l-1 -8q-3 -27 -10.5 -52.5t-22.5 -45t-40 -31.5t-65 -12l6 45v0z" />
    <glyph glyph-name="Lcaron" unicode="&#x13d;" horiz-adv-x="760" 
d="M70 0l94 670h180l-72 -510h461l-22 -160h-641zM560 422q53 0 80 20.5t40 53.5q-17 -8 -43 -8q-50 0 -67.5 28t-10.5 67l2 12q3 19 10.5 36.5t21 30.5t35 20.5t52.5 7.5h8q31 0 50.5 -7.5t30 -20.5t13 -30.5t-0.5 -36.5l-2 -12q-7 -46 -19 -88.5t-36.5 -75t-66 -52
t-107.5 -19.5z" />
    <glyph glyph-name="lcaron" unicode="&#x13e;" horiz-adv-x="526" 
d="M215 750l111 -70l-96 -680h-160l105 750h40zM391 511q42 0 63 16t32 42q-15 -6 -34 -6q-20 0 -33 6t-20.5 16.5t-9 24.5t0.5 29l5 34q4 31 24.5 53.5t70.5 22.5h6q25 0 41 -6t24 -16.5t10 -24t0 -29.5l-5 -34q-5 -36 -14.5 -70t-29.5 -60.5t-53.5 -42t-86.5 -15.5z" />
    <glyph glyph-name="Lslash" unicode="&#x141;" horiz-adv-x="836" 
d="M146 0l37 263l-93 -40l-21 63l125 54l46 330h180l-35 -246l162 71l22 -63l-194 -85l-27 -187h461l-22 -160h-641z" />
    <glyph glyph-name="lslash" unicode="&#x142;" horiz-adv-x="529" 
d="M308 750l110 -70l-36 -256l161 71l22 -63l-193 -84l-49 -348h-160l38 273l-115 -50l-21 63l147 64l56 400h40z" />
    <glyph glyph-name="Nacute" unicode="&#x143;" horiz-adv-x="851" 
d="M635 240l60 430h180l-94 -670h-180l-291 430l-60 -430h-180l94 670h180zM600 890h121l-5 -32l-144 -110h-72l4 32z" />
    <glyph glyph-name="nacute" unicode="&#x144;" horiz-adv-x="727" 
d="M175 500l89 -57q48 43 95 60t109 17q76 0 125 -19.5t76.5 -53.5t35 -79.5t0.5 -97.5l-38 -270h-160l35 250q3 22 4 44.5t-8 40.5t-33.5 29t-72.5 11q-47 0 -85.5 -12t-75.5 -39l-46 -324h-160l70 500h40zM444 720h121l-5 -32l-144 -110h-72l4 32z" />
    <glyph glyph-name="uni0145" unicode="&#x145;" horiz-adv-x="851" 
d="M635 240l60 430h180l-94 -670h-180l-291 430l-60 -430h-180l94 670h180zM344 -205q32 0 48.5 12t24.5 32q-13 -5 -26 -5q-31 0 -40.5 17t-6.5 40l1 8q3 23 18.5 40t53.5 17h4q38 0 48.5 -17t7.5 -40l-1 -8q-3 -27 -10.5 -52.5t-22.5 -45t-40 -31.5t-65 -12l6 45v0z" />
    <glyph glyph-name="uni0146" unicode="&#x146;" horiz-adv-x="727" 
d="M175 500l89 -57q48 43 95 60t109 17q76 0 125 -19.5t76.5 -53.5t35 -79.5t0.5 -97.5l-38 -270h-160l35 250q3 22 4 44.5t-8 40.5t-33.5 29t-72.5 11q-47 0 -85.5 -12t-75.5 -39l-46 -324h-160l70 500h40zM282 -205q32 0 48.5 12t24.5 32q-13 -5 -26 -5q-31 0 -40.5 17
t-6.5 40l1 8q3 23 18.5 40t53.5 17h4q38 0 48.5 -17t7.5 -40l-1 -8q-3 -27 -10.5 -52.5t-22.5 -45t-40 -31.5t-65 -12l6 45v0z" />
    <glyph glyph-name="Ncaron" unicode="&#x147;" horiz-adv-x="851" 
d="M635 240l60 430h180l-94 -670h-180l-291 430l-60 -430h-180l94 670h180zM571 748h-81l-106 100l4 32h92l58 -77l79 77h92l-4 -32z" />
    <glyph glyph-name="ncaron" unicode="&#x148;" horiz-adv-x="727" 
d="M175 500l89 -57q48 43 95 60t109 17q76 0 125 -19.5t76.5 -53.5t35 -79.5t0.5 -97.5l-38 -270h-160l35 250q3 22 4 44.5t-8 40.5t-33.5 29t-72.5 11q-47 0 -85.5 -12t-75.5 -39l-46 -324h-160l70 500h40zM485 578h-81l-106 100l4 32h92l58 -77l79 77h92l-4 -32z" />
    <glyph glyph-name="Omacron" unicode="&#x14c;" horiz-adv-x="900" 
d="M111 361q9 68 34.5 128t74.5 104.5t124.5 70.5t184.5 26h36q109 0 177 -26t104.5 -70.5t45 -104.5t-0.5 -128l-7 -52q-9 -68 -35 -128t-75 -104.5t-124.5 -70.5t-184.5 -26h-36q-109 0 -177 26t-104 70.5t-44.5 104.5t0.5 128zM280 275q0 -27 7.5 -51.5t28.5 -43
t58 -29.5t96 -11q79 0 127 17t74 49.5t34.5 80t8.5 107.5q0 27 -7.5 51.5t-28.5 43t-58 29.5t-96 11q-79 0 -127 -17t-74 -49.5t-34.5 -80t-8.5 -107.5zM379 762l10 70h355l-10 -70h-355z" />
    <glyph glyph-name="omacron" unicode="&#x14d;" horiz-adv-x="720" 
d="M98 270q8 52 27.5 97.5t57 79.5t95 53.5t141.5 19.5h28q84 0 136.5 -19.5t80.5 -53.5t35 -79.5t-1 -97.5l-6 -40q-8 -52 -27.5 -97.5t-56.5 -79.5t-95 -53.5t-142 -19.5h-28q-84 0 -136.5 19.5t-80.5 53.5t-35 79.5t1 97.5zM251 212q0 -18 5 -33.5t19 -27.5t38.5 -19
t64.5 -7q52 0 84 11t49.5 32t23 51t5.5 69q0 18 -5 33.5t-19 27.5t-38.5 19t-64.5 7q-53 0 -84.5 -11t-49 -32t-23 -51t-5.5 -69zM265 592l10 70h355l-10 -70h-355z" />
    <glyph glyph-name="Obreve" unicode="&#x14e;" horiz-adv-x="900" 
d="M111 361q9 68 34.5 128t74.5 104.5t124.5 70.5t184.5 26h36q109 0 177 -26t104.5 -70.5t45 -104.5t-0.5 -128l-7 -52q-9 -68 -35 -128t-75 -104.5t-124.5 -70.5t-184.5 -26h-36q-109 0 -177 26t-104 70.5t-44.5 104.5t0.5 128zM280 275q0 -27 7.5 -51.5t28.5 -43
t58 -29.5t96 -11q79 0 127 17t74 49.5t34.5 80t8.5 107.5q0 27 -7.5 51.5t-28.5 43t-58 29.5t-96 11q-79 0 -127 -17t-74 -49.5t-34.5 -80t-8.5 -107.5zM723 875l-3 -22q-3 -23 -12.5 -44t-28.5 -37t-48.5 -25t-72.5 -9h-8q-43 0 -70 9t-41 25t-18 37t-1 44l3 22h90l-3 -22
q-2 -14 8 -24.5t43 -10.5h8q33 0 46 10.5t15 24.5l3 22h90z" />
    <glyph glyph-name="obreve" unicode="&#x14f;" horiz-adv-x="720" 
d="M98 270q8 52 27.5 97.5t57 79.5t95 53.5t141.5 19.5h28q84 0 136.5 -19.5t80.5 -53.5t35 -79.5t-1 -97.5l-6 -40q-8 -52 -27.5 -97.5t-56.5 -79.5t-95 -53.5t-142 -19.5h-28q-84 0 -136.5 19.5t-80.5 53.5t-35 79.5t1 97.5zM251 212q0 -18 5 -33.5t19 -27.5t38.5 -19
t64.5 -7q52 0 84 11t49.5 32t23 51t5.5 69q0 18 -5 33.5t-19 27.5t-38.5 19t-64.5 7q-53 0 -84.5 -11t-49 -32t-23 -51t-5.5 -69zM609 705l-3 -22q-3 -23 -12.5 -44t-28.5 -37t-48.5 -25t-72.5 -9h-8q-43 0 -70 9t-41 25t-18 37t-1 44l3 22h90l-3 -22q-2 -14 8 -24.5
t43 -10.5h8q33 0 46 10.5t15 24.5l3 22h90z" />
    <glyph glyph-name="Ohungarumlaut" unicode="&#x150;" horiz-adv-x="900" 
d="M111 361q9 68 34.5 128t74.5 104.5t124.5 70.5t184.5 26h36q109 0 177 -26t104.5 -70.5t45 -104.5t-0.5 -128l-7 -52q-9 -68 -35 -128t-75 -104.5t-124.5 -70.5t-184.5 -26h-36q-109 0 -177 26t-104 70.5t-44.5 104.5t0.5 128zM280 275q0 -27 7.5 -51.5t28.5 -43
t58 -29.5t96 -11q79 0 127 17t74 49.5t34.5 80t8.5 107.5q0 27 -7.5 51.5t-28.5 43t-58 29.5t-96 11q-79 0 -127 -17t-74 -49.5t-34.5 -80t-8.5 -107.5zM489 890h121l-5 -32l-124 -110h-72l4 32zM680 890h121l-5 -32l-124 -110h-72l4 32z" />
    <glyph glyph-name="ohungarumlaut" unicode="&#x151;" horiz-adv-x="720" 
d="M98 270q8 52 27.5 97.5t57 79.5t95 53.5t141.5 19.5h28q84 0 136.5 -19.5t80.5 -53.5t35 -79.5t-1 -97.5l-6 -40q-8 -52 -27.5 -97.5t-56.5 -79.5t-95 -53.5t-142 -19.5h-28q-84 0 -136.5 19.5t-80.5 53.5t-35 79.5t1 97.5zM251 212q0 -18 5 -33.5t19 -27.5t38.5 -19
t64.5 -7q52 0 84 11t49.5 32t23 51t5.5 69q0 18 -5 33.5t-19 27.5t-38.5 19t-64.5 7q-53 0 -84.5 -11t-49 -32t-23 -51t-5.5 -69zM385 720h121l-5 -32l-124 -110h-72l4 32zM576 720h121l-5 -32l-124 -110h-72l4 32z" />
    <glyph glyph-name="OE" unicode="&#x152;" horiz-adv-x="1230" 
d="M1252 510h-401l-14 -100h301l-23 -160h-301l-13 -90h401l-22 -160h-581l1 10q-34 -14 -75 -22t-90 -8h-36q-100 0 -162.5 26t-95.5 70.5t-40.5 104.5t2.5 128l8 52q10 68 34.5 128t69.5 104.5t114.5 70.5t169.5 26h36q49 0 87.5 -8t69.5 -22l1 10h581zM280 271
q0 -27 6.5 -50.5t24 -41.5t48.5 -28.5t81 -10.5q67 0 109.5 17t65.5 50t31.5 81t8.5 110q0 27 -6.5 50.5t-24.5 41.5t-49.5 28.5t-80.5 10.5q-68 0 -109.5 -17t-65 -50t-31.5 -81t-8 -110z" />
    <glyph glyph-name="oe" unicode="&#x153;" horiz-adv-x="1059" 
d="M98 270q8 52 26.5 97.5t53.5 79.5t89 53.5t132 19.5h28q69 0 111 -19.5t65 -52.5q32 33 79.5 52.5t116.5 19.5h28q79 0 128 -13t74 -34.5t31 -50.5t0 -62l-2 -10q-5 -30 -16 -57t-39.5 -47.5t-80.5 -33t-139 -12.5q-78 0 -133 16q-2 -21 1.5 -38t16 -28.5t38 -18
t68.5 -6.5q21 0 48.5 2t56.5 5.5t58 9t54 13.5l-21 -150q-24 -6 -53 -10.5t-59 -8t-60 -5t-56 -1.5h-19q-69 0 -111 19t-65 53q-32 -34 -79.5 -53t-116.5 -19h-28q-78 0 -127 19.5t-74.5 53.5t-31.5 79.5t2 97.5zM250 210q0 -17 4.5 -32.5t16.5 -27t33 -18.5t54 -7
q45 0 73 11t43 32t20.5 52t5.5 70q0 17 -4 32.5t-16 27t-33 18.5t-54 7q-45 0 -73 -11t-43.5 -32t-21 -52t-5.5 -70zM811 395q-35 0 -59.5 -5t-41 -14t-26 -22.5t-15.5 -30.5q48 -13 120 -13q37 0 58.5 3.5t33 9.5t15 14.5t3.5 17.5q0 7 -3 14t-12.5 13t-27 9.5t-45.5 3.5z
" />
    <glyph glyph-name="Racute" unicode="&#x154;" horiz-adv-x="810" 
d="M586 0l-104 210q-54 0 -103.5 1t-97.5 9l-31 -220h-180l94 670q88 10 183 15t186 5h28q84 0 137 -17.5t81.5 -47.5t36 -70t0.5 -85l-6 -40q-9 -63 -41 -114.5t-100 -79.5l97 -196l-6 -40h-174zM512 530q-35 0 -86.5 -2t-102.5 -7l-20 -142q46 -6 88 -7.5t68 -1.5
q60 0 95.5 5.5t53.5 18.5t23.5 33t5.5 50q0 10 -4.5 20t-18 17t-38 11.5t-64.5 4.5zM509 890h121l-5 -32l-144 -110h-72l4 32z" />
    <glyph glyph-name="racute" unicode="&#x155;" horiz-adv-x="490" 
d="M511 362q-21 4 -44 6t-48 2q-81 0 -150 -21l-49 -349h-160l70 500h40l50 -32q52 26 107.5 39t121.5 13q23 0 44 -2t39 -5zM395 720h121l-5 -32l-144 -110h-72l4 32z" />
    <glyph glyph-name="uni0156" unicode="&#x156;" horiz-adv-x="810" 
d="M586 0l-104 210q-54 0 -103.5 1t-97.5 9l-31 -220h-180l94 670q88 10 183 15t186 5h28q84 0 137 -17.5t81.5 -47.5t36 -70t0.5 -85l-6 -40q-9 -63 -41 -114.5t-100 -79.5l97 -196l-6 -40h-174zM512 530q-35 0 -86.5 -2t-102.5 -7l-20 -142q46 -6 88 -7.5t68 -1.5
q60 0 95.5 5.5t53.5 18.5t23.5 33t5.5 50q0 10 -4.5 20t-18 17t-38 11.5t-64.5 4.5zM324 -205q32 0 48.5 12t24.5 32q-13 -5 -26 -5q-31 0 -40.5 17t-6.5 40l1 8q3 23 18.5 40t53.5 17h4q38 0 48.5 -17t7.5 -40l-1 -8q-3 -27 -10.5 -52.5t-22.5 -45t-40 -31.5t-65 -12l6 45
v0z" />
    <glyph glyph-name="uni0157" unicode="&#x157;" horiz-adv-x="490" 
d="M511 362q-21 4 -44 6t-48 2q-81 0 -150 -21l-49 -349h-160l70 500h40l50 -32q52 26 107.5 39t121.5 13q23 0 44 -2t39 -5zM60 -205q32 0 48.5 12t24.5 32q-13 -5 -26 -5q-31 0 -40.5 17t-6.5 40l1 8q3 23 18.5 40t53.5 17h4q38 0 48.5 -17t7.5 -40l-1 -8
q-3 -27 -10.5 -52.5t-22.5 -45t-40 -31.5t-65 -12l6 45v0z" />
    <glyph glyph-name="Rcaron" unicode="&#x158;" horiz-adv-x="810" 
d="M586 0l-104 210q-54 0 -103.5 1t-97.5 9l-31 -220h-180l94 670q88 10 183 15t186 5h28q84 0 137 -17.5t81.5 -47.5t36 -70t0.5 -85l-6 -40q-9 -63 -41 -114.5t-100 -79.5l97 -196l-6 -40h-174zM512 530q-35 0 -86.5 -2t-102.5 -7l-20 -142q46 -6 88 -7.5t68 -1.5
q60 0 95.5 5.5t53.5 18.5t23.5 33t5.5 50q0 10 -4.5 20t-18 17t-38 11.5t-64.5 4.5zM550 748h-81l-106 100l4 32h92l58 -77l79 77h92l-4 -32z" />
    <glyph glyph-name="rcaron" unicode="&#x159;" horiz-adv-x="490" 
d="M511 362q-21 4 -44 6t-48 2q-81 0 -150 -21l-49 -349h-160l70 500h40l50 -32q52 26 107.5 39t121.5 13q23 0 44 -2t39 -5zM421 578h-81l-106 100l4 32h92l58 -77l79 77h92l-4 -32z" />
    <glyph glyph-name="Sacute" unicode="&#x15a;" horiz-adv-x="785" 
d="M411 140q54 0 86 5.5t49 15t22.5 21t5.5 23.5q0 15 -8.5 24.5t-26.5 14.5t-47 7.5t-69 3.5q-26 1 -59.5 3t-68.5 8.5t-68.5 19t-57.5 35t-36 56.5t-5 83l2 13q6 43 27 82.5t63 69.5t107.5 47.5t160.5 17.5h36q69 0 133 -8.5t124 -24.5l-24 -165q-70 17 -140 27t-144 10
q-54 0 -86.5 -5.5t-50 -14.5t-22.5 -20.5t-5 -22.5q0 -16 8.5 -25.5t27 -14.5t47 -7.5t67.5 -3.5q24 -1 57 -2.5t68.5 -8t69.5 -19.5t59 -35.5t37 -57t5 -83.5l-2 -13q-6 -43 -27 -82t-63 -69t-107.5 -47.5t-161.5 -17.5h-36q-79 0 -153 8.5t-143 23.5l24 168
q78 -18 163 -29t162 -11zM557 890h121l-5 -32l-144 -110h-72l4 32z" />
    <glyph glyph-name="sacute" unicode="&#x15b;" horiz-adv-x="652" 
d="M343 115q38 0 61 3t35 8t15.5 11.5t3.5 13.5q0 20 -26.5 24.5t-83.5 6.5q-20 0 -47 1.5t-55.5 7t-55.5 15.5t-47 28t-31 45t-6 66l1 10q4 33 20.5 62.5t50.5 52.5t88 36.5t132 13.5h28q57 0 110 -6.5t103 -18.5l-20 -139q-57 14 -115.5 21.5t-121.5 7.5q-39 0 -62 -3
t-35 -8t-15.5 -11.5t-3.5 -13.5q0 -19 27 -24t84 -7q19 -1 46 -2t55.5 -6.5t55.5 -15.5t47.5 -28t31 -45t6.5 -66l-1 -10q-4 -33 -20.5 -62.5t-51 -52.5t-88.5 -36.5t-132 -13.5h-28q-65 0 -125 6.5t-117 18.5l20 139q64 -14 133 -21.5t134 -7.5zM459 720h121l-5 -32
l-144 -110h-72l4 32z" />
    <glyph glyph-name="Scircumflex" unicode="&#x15c;" horiz-adv-x="785" 
d="M411 140q54 0 86 5.5t49 15t22.5 21t5.5 23.5q0 15 -8.5 24.5t-26.5 14.5t-47 7.5t-69 3.5q-26 1 -59.5 3t-68.5 8.5t-68.5 19t-57.5 35t-36 56.5t-5 83l2 13q6 43 27 82.5t63 69.5t107.5 47.5t160.5 17.5h36q69 0 133 -8.5t124 -24.5l-24 -165q-70 17 -140 27t-144 10
q-54 0 -86.5 -5.5t-50 -14.5t-22.5 -20.5t-5 -22.5q0 -16 8.5 -25.5t27 -14.5t47 -7.5t67.5 -3.5q24 -1 57 -2.5t68.5 -8t69.5 -19.5t59 -35.5t37 -57t5 -83.5l-2 -13q-6 -43 -27 -82t-63 -69t-107.5 -47.5t-161.5 -17.5h-36q-79 0 -153 8.5t-143 23.5l24 168
q78 -18 163 -29t162 -11zM664 790l-4 -32h-92l-58 77l-79 -77h-92l4 32l134 100h81z" />
    <glyph glyph-name="scircumflex" unicode="&#x15d;" horiz-adv-x="652" 
d="M343 115q38 0 61 3t35 8t15.5 11.5t3.5 13.5q0 20 -26.5 24.5t-83.5 6.5q-20 0 -47 1.5t-55.5 7t-55.5 15.5t-47 28t-31 45t-6 66l1 10q4 33 20.5 62.5t50.5 52.5t88 36.5t132 13.5h28q57 0 110 -6.5t103 -18.5l-20 -139q-57 14 -115.5 21.5t-121.5 7.5q-39 0 -62 -3
t-35 -8t-15.5 -11.5t-3.5 -13.5q0 -19 27 -24t84 -7q19 -1 46 -2t55.5 -6.5t55.5 -15.5t47.5 -28t31 -45t6.5 -66l-1 -10q-4 -33 -20.5 -62.5t-51 -52.5t-88.5 -36.5t-132 -13.5h-28q-65 0 -125 6.5t-117 18.5l20 139q64 -14 133 -21.5t134 -7.5zM573 620l-4 -32h-92l-58 77
l-79 -77h-92l4 32l134 100h81z" />
    <glyph glyph-name="Scedilla" unicode="&#x15e;" horiz-adv-x="785" 
d="M508 -122q0 -27 -12 -46.5t-32.5 -32.5t-47.5 -19.5t-58 -6.5q-27 0 -47.5 4.5t-29.5 11.5l9 64q28 -15 63 -15q25 0 39 7t14 22q0 14 -15 23t-50 12l19 78h-2q-79 0 -153 8.5t-143 23.5l24 168q78 -18 163 -29t162 -11q54 0 86 5.5t49 15t22.5 21t5.5 23.5
q0 15 -8.5 24.5t-26.5 14.5t-47 7.5t-69 3.5q-26 1 -59.5 3t-68.5 8.5t-68.5 19t-57.5 35t-36 56.5t-5 83l2 13q6 43 27 82.5t63 69.5t107.5 47.5t160.5 17.5h36q69 0 133 -8.5t124 -24.5l-24 -165q-70 17 -140 27t-144 10q-54 0 -86.5 -5.5t-50 -14.5t-22.5 -20.5t-5 -22.5
q0 -16 8.5 -25.5t27 -14.5t47 -7.5t67.5 -3.5q24 -1 57 -2.5t68.5 -8t69.5 -19.5t59 -35.5t37 -57t5 -83.5l-2 -13q-6 -41 -25.5 -78.5t-57.5 -66.5t-97.5 -48t-144.5 -22l-8 -35q88 -6 88 -68z" />
    <glyph glyph-name="scedilla" unicode="&#x15f;" horiz-adv-x="652" 
d="M417 -122q0 -27 -12 -46.5t-32.5 -32.5t-47.5 -19.5t-58 -6.5q-27 0 -47.5 4.5t-29.5 11.5l9 64q28 -15 63 -15q25 0 39 7t14 22q0 14 -15 23t-50 12l19 79q-113 3 -213 24l20 139q64 -14 133 -21.5t134 -7.5q38 0 61 3t35 8t15.5 11.5t3.5 13.5q0 20 -26.5 24.5
t-83.5 6.5q-20 0 -47 1.5t-55.5 7t-55.5 15.5t-47 28t-31 45t-6 66l1 10q4 33 20.5 62.5t50.5 52.5t88 36.5t132 13.5h28q57 0 110 -6.5t103 -18.5l-20 -139q-57 14 -115.5 21.5t-121.5 7.5q-39 0 -62 -3t-35 -8t-15.5 -11.5t-3.5 -13.5q0 -19 27 -24t84 -7q19 -1 46 -2
t55.5 -6.5t55.5 -15.5t47.5 -28t31 -45t6.5 -66l-1 -10q-4 -32 -20 -61.5t-49 -52t-85.5 -36.5t-127.5 -15l-7 -34q88 -6 88 -68z" />
    <glyph glyph-name="Scaron" unicode="&#x160;" horiz-adv-x="785" 
d="M411 140q54 0 86 5.5t49 15t22.5 21t5.5 23.5q0 15 -8.5 24.5t-26.5 14.5t-47 7.5t-69 3.5q-26 1 -59.5 3t-68.5 8.5t-68.5 19t-57.5 35t-36 56.5t-5 83l2 13q6 43 27 82.5t63 69.5t107.5 47.5t160.5 17.5h36q69 0 133 -8.5t124 -24.5l-24 -165q-70 17 -140 27t-144 10
q-54 0 -86.5 -5.5t-50 -14.5t-22.5 -20.5t-5 -22.5q0 -16 8.5 -25.5t27 -14.5t47 -7.5t67.5 -3.5q24 -1 57 -2.5t68.5 -8t69.5 -19.5t59 -35.5t37 -57t5 -83.5l-2 -13q-6 -43 -27 -82t-63 -69t-107.5 -47.5t-161.5 -17.5h-36q-79 0 -153 8.5t-143 23.5l24 168
q78 -18 163 -29t162 -11zM538 748h-81l-106 100l4 32h92l58 -77l79 77h92l-4 -32z" />
    <glyph glyph-name="scaron" unicode="&#x161;" horiz-adv-x="652" 
d="M343 115q38 0 61 3t35 8t15.5 11.5t3.5 13.5q0 20 -26.5 24.5t-83.5 6.5q-20 0 -47 1.5t-55.5 7t-55.5 15.5t-47 28t-31 45t-6 66l1 10q4 33 20.5 62.5t50.5 52.5t88 36.5t132 13.5h28q57 0 110 -6.5t103 -18.5l-20 -139q-57 14 -115.5 21.5t-121.5 7.5q-39 0 -62 -3
t-35 -8t-15.5 -11.5t-3.5 -13.5q0 -19 27 -24t84 -7q19 -1 46 -2t55.5 -6.5t55.5 -15.5t47.5 -28t31 -45t6.5 -66l-1 -10q-4 -33 -20.5 -62.5t-51 -52.5t-88.5 -36.5t-132 -13.5h-28q-65 0 -125 6.5t-117 18.5l20 139q64 -14 133 -21.5t134 -7.5zM447 578h-81l-106 100l4 32
h92l58 -77l79 77h92l-4 -32z" />
    <glyph glyph-name="uni0162" unicode="&#x162;" horiz-adv-x="741" 
d="M482 -122q0 -27 -12 -46.5t-32.5 -32.5t-47.5 -19.5t-58 -6.5q-27 0 -47.5 4.5t-29.5 11.5l9 64q28 -15 63 -15q25 0 39.5 7t14.5 22q0 14 -15.5 23t-50.5 12l24 98h-59l72 510h-260l22 160h701l-22 -160h-261l-72 -510h-54l-12 -54q88 -6 88 -68z" />
    <glyph glyph-name="uni0163" unicode="&#x163;" horiz-adv-x="457" 
d="M376 -122q0 -27 -12 -46.5t-32 -32.5t-47 -19.5t-58 -6.5q-27 0 -47.5 4.5t-30.5 11.5l9 64q30 -15 63 -15q25 0 39.5 7t14.5 22q0 14 -15.5 23t-50.5 12l21 88q-91 13 -123.5 61.5t-21.5 128.5l73 520h40l110 -70l-18 -130h154l-20 -140h-154l-22 -160q-2 -17 -2 -30
t8 -22t26 -13.5t52 -4.5q23 0 48.5 2.5t45.5 8.5l-20 -146q-21 -5 -47.5 -7.5t-54.5 -2.5h-8l-8 -39q88 -6 88 -68z" />
    <glyph glyph-name="Tcaron" unicode="&#x164;" horiz-adv-x="741" 
d="M280 0l72 510h-260l22 160h701l-22 -160h-261l-72 -510h-180zM516 748h-81l-106 100l4 32h92l58 -77l79 77h92l-4 -32z" />
    <glyph glyph-name="tcaron" unicode="&#x165;" horiz-adv-x="650" 
d="M291 500h154l-20 -140h-155l-22 -160q-2 -17 -2 -30t8.5 -22t26.5 -13.5t52 -4.5q23 0 48.5 2.5t45.5 8.5l-20 -146q-21 -5 -47.5 -7.5t-54.5 -2.5q-68 0 -113 13t-71 37.5t-34 61t-1 83.5l73 520h40l110 -70zM518 535q42 0 63.5 16.5t32.5 42.5q-15 -6 -34 -6
q-20 0 -33 6t-20 16.5t-9 24.5t0 29l1 10q3 31 24.5 53.5t71.5 22.5h6q25 0 40.5 -6t23.5 -16.5t9.5 -24.5t0.5 -29l-1 -10q-4 -36 -13.5 -70t-30 -60.5t-54 -42t-86.5 -15.5z" />
    <glyph glyph-name="Utilde" unicode="&#x168;" horiz-adv-x="850" 
d="M879 670l-55 -391q-9 -62 -32.5 -116t-68 -95t-114 -64.5t-169.5 -23.5h-36q-100 0 -162.5 23.5t-96 64.5t-42 95t0.5 116l55 391h180l-51 -365q-5 -33 -6.5 -62.5t12.5 -52.5t48.5 -36.5t102.5 -13.5q67 0 105.5 13.5t58.5 36.5t27 52.5t12 62.5l51 365h180zM370 754
l10 73q12 15 28 26q14 10 32.5 18.5t43.5 8.5q24 0 42 -7t34.5 -16t33 -16t35.5 -7q26 0 45 16t29 30h7l-12 -84q-9 -12 -22 -21q-11 -8 -28.5 -14t-40.5 -6q-22 0 -40.5 7t-35.5 16t-34.5 16t-37.5 7q-27 0 -48 -16.5t-32 -30.5h-9z" />
    <glyph glyph-name="utilde" unicode="&#x169;" horiz-adv-x="700" 
d="M333 -20q-81 0 -131.5 19.5t-77 53.5t-33 79.5t0.5 97.5l38 270h160l-35 -250q-3 -24 -4 -47t8.5 -40t34.5 -27.5t74 -10.5t76.5 10.5t42 27.5t20 40t8.5 47l35 250h160l-38 -270q-7 -52 -26 -97.5t-55.5 -79.5t-92.5 -53.5t-137 -19.5h-28zM271 584l10 73q12 15 28 26
q14 10 32.5 18.5t43.5 8.5q24 0 42 -7t34.5 -16t33 -16t35.5 -7q26 0 45 16t29 30h7l-12 -84q-9 -12 -22 -21q-11 -8 -28.5 -14t-40.5 -6q-22 0 -40 7t-35 16t-34.5 16t-37.5 7q-27 0 -48 -16.5t-33 -30.5h-9z" />
    <glyph glyph-name="Umacron" unicode="&#x16a;" horiz-adv-x="850" 
d="M879 670l-55 -391q-9 -62 -32.5 -116t-68 -95t-114 -64.5t-169.5 -23.5h-36q-100 0 -162.5 23.5t-96 64.5t-42 95t0.5 116l55 391h180l-51 -365q-5 -33 -6.5 -62.5t12.5 -52.5t48.5 -36.5t102.5 -13.5q67 0 105.5 13.5t58.5 36.5t27 52.5t12 62.5l51 365h180zM354 762
l10 70h355l-10 -70h-355z" />
    <glyph glyph-name="umacron" unicode="&#x16b;" horiz-adv-x="700" 
d="M290 500l-35 -250q-3 -23 -4 -45.5t8.5 -40t34.5 -28.5t73 -11t86 11.5t73 34.5l46 329h160l-70 -500h-40l-86 54q-23 -20 -46 -34t-48 -23t-52.5 -13t-60.5 -4q-76 0 -125.5 19.5t-76.5 53.5t-34.5 79.5t-0.5 97.5l38 270h160zM255 592l10 70h355l-10 -70h-355z" />
    <glyph glyph-name="Ubreve" unicode="&#x16c;" horiz-adv-x="850" 
d="M699 670l-51 -365q-5 -33 -12 -62.5t-27 -52.5t-58.5 -36.5t-105.5 -13.5q-68 0 -102.5 13.5t-48.5 36.5t-12.5 52.5t6.5 62.5l51 365h-180l-55 -391q-9 -62 -0.5 -116t42 -95t96 -64.5t162.5 -23.5h36q100 0 169.5 23.5t114 64.5t68 95t32.5 116l55 391h-180zM698 875
l-3 -22q-3 -23 -12.5 -44t-28.5 -37t-48.5 -25t-72.5 -9h-8q-43 0 -70 9t-41 25t-18 37t-1 44l3 22h90l-3 -22q-2 -14 8 -24.5t43 -10.5h8q33 0 46 10.5t15 24.5l3 22h90z" />
    <glyph glyph-name="ubreve" unicode="&#x16d;" horiz-adv-x="700" 
d="M333 -20q-81 0 -131.5 19.5t-77 53.5t-33 79.5t0.5 97.5l38 270h160l-35 -250q-3 -24 -4 -47t8.5 -40t34.5 -27.5t74 -10.5t76.5 10.5t42 27.5t20 40t8.5 47l35 250h160l-38 -270q-7 -52 -26 -97.5t-55.5 -79.5t-92.5 -53.5t-137 -19.5h-28zM599 705l-3 -22
q-3 -23 -12.5 -44t-28.5 -37t-48.5 -25t-72.5 -9h-8q-43 0 -70 9t-41 25t-18 37t-1 44l3 22h90l-3 -22q-2 -14 8 -24.5t43 -10.5h8q33 0 46 10.5t15 24.5l3 22h90z" />
    <glyph glyph-name="Uring" unicode="&#x16e;" horiz-adv-x="850" 
d="M879 670l-55 -391q-9 -62 -32.5 -116t-68 -95t-114 -64.5t-169.5 -23.5h-36q-100 0 -162.5 23.5t-96 64.5t-42 95t0.5 116l55 391h180l-51 -365q-5 -33 -6.5 -62.5t12.5 -52.5t48.5 -36.5t102.5 -13.5q67 0 105.5 13.5t58.5 36.5t27 52.5t12 62.5l51 365h180zM428 805
q5 39 31 67t88 28h8q31 0 50.5 -7.5t30 -20.5t13 -30.5t-0.5 -36.5l-2 -12q-5 -39 -31 -67t-88 -28h-8q-31 0 -50.5 7.5t-30 20.5t-13 30t0.5 37zM486 793q-2 -14 6 -24.5t35 -10.5h8q27 0 38 10.5t13 24.5l2 12q2 14 -6 24.5t-35 10.5h-8q-27 0 -38 -10.5t-13 -24.5z" />
    <glyph glyph-name="uring" unicode="&#x16f;" horiz-adv-x="700" 
d="M290 500l-35 -250q-3 -23 -4 -45.5t8.5 -40t34.5 -28.5t73 -11t86 11.5t73 34.5l46 329h160l-70 -500h-40l-86 54q-23 -20 -46 -34t-48 -23t-52.5 -13t-60.5 -4q-76 0 -125.5 19.5t-76.5 53.5t-34.5 79.5t-0.5 97.5l38 270h160zM329 635q5 39 31 67t88 28h8
q31 0 50.5 -7.5t30 -20.5t13 -30.5t-0.5 -36.5l-2 -12q-5 -39 -31 -67t-88 -28h-8q-31 0 -50.5 7.5t-30 20.5t-13 30t0.5 37zM387 623q-2 -14 6 -24.5t35 -10.5h8q27 0 38 10.5t13 24.5l2 12q2 14 -6 24.5t-35 10.5h-8q-27 0 -38 -10.5t-13 -24.5z" />
    <glyph glyph-name="Uhungarumlaut" unicode="&#x170;" horiz-adv-x="850" 
d="M879 670l-55 -391q-9 -62 -32.5 -116t-68 -95t-114 -64.5t-169.5 -23.5h-36q-100 0 -162.5 23.5t-96 64.5t-42 95t0.5 116l55 391h180l-51 -365q-5 -33 -6.5 -62.5t12.5 -52.5t48.5 -36.5t102.5 -13.5q67 0 105.5 13.5t58.5 36.5t27 52.5t12 62.5l51 365h180zM449 890
h121l-5 -32l-124 -110h-72l4 32zM640 890h121l-5 -32l-124 -110h-72l4 32z" />
    <glyph glyph-name="uhungarumlaut" unicode="&#x171;" horiz-adv-x="700" 
d="M290 500l-35 -250q-3 -23 -4 -45.5t8.5 -40t34.5 -28.5t73 -11t86 11.5t73 34.5l46 329h160l-70 -500h-40l-86 54q-23 -20 -46 -34t-48 -23t-52.5 -13t-60.5 -4q-76 0 -125.5 19.5t-76.5 53.5t-34.5 79.5t-0.5 97.5l38 270h160zM359 720h121l-5 -32l-124 -110h-72l4 32z
M550 720h121l-5 -32l-124 -110h-72l4 32z" />
    <glyph glyph-name="Uogonek" unicode="&#x172;" horiz-adv-x="850" 
d="M416 -106q0 26 8.5 47.5t23.5 38.5h-44q-100 0 -162.5 23.5t-96 64.5t-42 95t0.5 116l55 391h180l-51 -365q-5 -33 -6 -62.5t12.5 -52.5t48 -36.5t102.5 -13.5q67 0 105.5 13.5t59 36.5t27 52.5t11.5 62.5l51 365h180l-55 -391q-7 -47 -22 -90.5t-41.5 -80t-66 -64.5
t-94.5 -44q-21 -9 -37 -14.5t-26.5 -12t-15.5 -18t-5 -32.5q0 -35 38 -35q10 0 32.5 3t45.5 14l-9 -69q-23 -14 -53.5 -20t-55.5 -6q-42 0 -70 19.5t-28 64.5z" />
    <glyph glyph-name="uogonek" unicode="&#x173;" 
d="M290 500l-35 -250q-3 -23 -4 -45.5t8.5 -40t34.5 -28.5t73 -11t86 11.5t73 34.5l46 329h160l-70 -500q-36 -5 -59.5 -21.5t-23.5 -55.5q0 -35 37 -35q10 0 32.5 3t46.5 14l-10 -69q-23 -14 -53.5 -20t-55.5 -6q-42 0 -70 19.5t-28 64.5q0 28 9 50t23.5 38t32.5 27t36 18
l-43 27q-23 -20 -46 -34t-48 -23t-52.5 -13t-60.5 -4q-76 0 -125.5 19.5t-76.5 53.5t-34.5 79.5t-0.5 97.5l38 270h160z" />
    <glyph glyph-name="Wcircumflex" unicode="&#x174;" horiz-adv-x="1021" 
d="M271 670l72 -442l199 442h127l72 -442l199 442h156l-6 -40l-319 -630h-123l-79 432l-196 -432h-123l-141 630l6 40h156zM782 790l-4 -32h-92l-58 77l-79 -77h-92l4 32l135 100h81z" />
    <glyph glyph-name="wcircumflex" unicode="&#x175;" horiz-adv-x="915" 
d="M229 500l76 -306l163 306h121l76 -306l163 306h143l-6 -40l-257 -460h-141l-71 280l-148 -280h-141l-127 460l6 40h143zM705 620l-4 -32h-92l-58 77l-79 -77h-92l4 32l135 100h81z" />
    <glyph glyph-name="Ycircumflex" unicode="&#x176;" horiz-adv-x="744" 
d="M317 249l-208 381l6 40h177l136 -278l215 278h176l-6 -40l-316 -381l-35 -249h-180zM643 790l-4 -32h-92l-58 77l-79 -77h-92l4 32l135 100h81z" />
    <glyph glyph-name="ycircumflex" unicode="&#x177;" horiz-adv-x="629" 
d="M379 -55q-26 -44 -51 -80t-55 -61.5t-67 -39.5t-87 -14q-20 0 -43 2.5t-40 7.5l20 142q17 -4 39 -5.5t37 -1.5q25 0 41.5 4.5t28 13.5t20.5 22t18 30l10 19l-171 476l6 40h150l110 -344l189 344h150l-6 -40zM562 620l-5 -32h-92l-58 77l-79 -77h-92l5 32l134 100h81z" />
    <glyph glyph-name="Ydieresis" unicode="&#x178;" horiz-adv-x="744" 
d="M317 249l-208 381l6 40h177l136 -278l215 278h176l-6 -40l-316 -381l-35 -249h-180zM318 825q3 23 19.5 39t54.5 16h8q38 0 49.5 -16t8.5 -39l-2 -12q-3 -23 -19.5 -39t-54.5 -16h-8q-38 0 -49.5 16t-8.5 39zM518 825q3 23 19.5 39t54.5 16h8q38 0 49.5 -16t8.5 -39
l-2 -12q-3 -23 -19.5 -39t-54.5 -16h-8q-38 0 -49.5 16t-8.5 39z" />
    <glyph glyph-name="Zacute" unicode="&#x179;" horiz-adv-x="721" 
d="M503 510h-381l22 160h621l-20 -140l-443 -370h401l-22 -160h-641l20 140zM514 890h121l-5 -32l-144 -110h-72l4 32z" />
    <glyph glyph-name="zacute" unicode="&#x17a;" horiz-adv-x="664" 
d="M405 360h-284l19 140h524l-17 -120l-327 -240h304l-20 -140h-544l17 120zM454 720h121l-5 -32l-144 -110h-72l4 32z" />
    <glyph glyph-name="Zdotaccent" unicode="&#x17b;" horiz-adv-x="721" 
d="M503 510h-381l22 160h621l-20 -140l-443 -370h401l-22 -160h-641l20 140zM406 825q3 23 19.5 39t54.5 16h8q38 0 49.5 -16t8.5 -39l-2 -12q-3 -23 -19.5 -39t-54.5 -16h-8q-38 0 -49.5 16t-8.5 39z" />
    <glyph glyph-name="zdotaccent" unicode="&#x17c;" horiz-adv-x="664" 
d="M405 360h-284l19 140h524l-17 -120l-327 -240h304l-20 -140h-544l17 120zM354 655q3 23 19.5 39t54.5 16h8q38 0 49.5 -16t8.5 -39l-2 -12q-3 -23 -19.5 -39t-54.5 -16h-8q-38 0 -49.5 16t-8.5 39z" />
    <glyph glyph-name="Zcaron" unicode="&#x17d;" horiz-adv-x="721" 
d="M503 510h-381l22 160h621l-20 -140l-443 -370h401l-22 -160h-641l20 140zM506 748h-81l-106 100l4 32h92l58 -77l79 77h92l-4 -32z" />
    <glyph glyph-name="zcaron" unicode="&#x17e;" horiz-adv-x="664" 
d="M405 360h-284l19 140h524l-17 -120l-327 -240h304l-20 -140h-544l17 120zM453 578h-81l-106 100l4 32h92l58 -77l79 77h92l-4 -32z" />
    <glyph glyph-name="uni0218" unicode="&#x218;" horiz-adv-x="785" 
d="M411 140q54 0 86 5.5t49 15t22.5 21t5.5 23.5q0 15 -8.5 24.5t-26.5 14.5t-47 7.5t-69 3.5q-26 1 -59.5 3t-68.5 8.5t-68.5 19t-57.5 35t-36 56.5t-5 83l2 13q6 43 27 82.5t63 69.5t107.5 47.5t160.5 17.5h36q69 0 133 -8.5t124 -24.5l-24 -165q-70 17 -140 27t-144 10
q-54 0 -86.5 -5.5t-50 -14.5t-22.5 -20.5t-5 -22.5q0 -16 8.5 -25.5t27 -14.5t47 -7.5t67.5 -3.5q24 -1 57 -2.5t68.5 -8t69.5 -19.5t59 -35.5t37 -57t5 -83.5l-2 -13q-6 -43 -27 -82t-63 -69t-107.5 -47.5t-161.5 -17.5h-36q-79 0 -153 8.5t-143 23.5l24 168
q78 -18 163 -29t162 -11zM311 -205q32 0 48.5 12t24.5 32q-13 -5 -26 -5q-31 0 -40.5 17t-6.5 40l1 8q3 23 18.5 40t53.5 17h4q38 0 48.5 -17t7.5 -40l-1 -8q-3 -27 -10.5 -52.5t-22.5 -45t-40 -31.5t-65 -12l6 45v0z" />
    <glyph glyph-name="uni0219" unicode="&#x219;" horiz-adv-x="652" 
d="M343 115q38 0 61 3t35 8t15.5 11.5t3.5 13.5q0 20 -26.5 24.5t-83.5 6.5q-20 0 -47 1.5t-55.5 7t-55.5 15.5t-47 28t-31 45t-6 66l1 10q4 33 20.5 62.5t50.5 52.5t88 36.5t132 13.5h28q57 0 110 -6.5t103 -18.5l-20 -139q-57 14 -115.5 21.5t-121.5 7.5q-39 0 -62 -3
t-35 -8t-15.5 -11.5t-3.5 -13.5q0 -19 27 -24t84 -7q19 -1 46 -2t55.5 -6.5t55.5 -15.5t47.5 -28t31 -45t6.5 -66l-1 -10q-4 -33 -20.5 -62.5t-51 -52.5t-88.5 -36.5t-132 -13.5h-28q-65 0 -125 6.5t-117 18.5l20 139q64 -14 133 -21.5t134 -7.5zM245 -205q32 0 48.5 12
t24.5 32q-13 -5 -26 -5q-31 0 -40.5 17t-6.5 40l1 8q3 23 18.5 40t53.5 17h4q38 0 48.5 -17t7.5 -40l-1 -8q-3 -27 -10.5 -52.5t-22.5 -45t-40 -31.5t-65 -12l6 45v0z" />
    <glyph glyph-name="uni021A" unicode="&#x21a;" horiz-adv-x="741" 
d="M280 0l72 510h-260l22 160h701l-22 -160h-261l-72 -510h-180zM289 -205q32 0 48.5 12t24.5 32q-13 -5 -26 -5q-31 0 -40.5 17t-6.5 40l1 8q3 23 18.5 40t53.5 17h4q38 0 48.5 -17t7.5 -40l-1 -8q-3 -27 -10.5 -52.5t-22.5 -45t-40 -31.5t-65 -12l6 45v0z" />
    <glyph glyph-name="uni021B" unicode="&#x21b;" horiz-adv-x="457" 
d="M291 500h154l-20 -140h-155l-22 -160q-2 -17 -2 -30t8.5 -22t26.5 -13.5t52 -4.5q23 0 48.5 2.5t45.5 8.5l-20 -146q-21 -5 -47.5 -7.5t-54.5 -2.5q-68 0 -113 13t-71 37.5t-34 61t-1 83.5l73 520h40l110 -70zM188 -205q32 0 48.5 12t24.5 32q-13 -5 -26 -5
q-31 0 -40.5 17t-6.5 40l1 8q3 23 18.5 40t53.5 17h4q38 0 48.5 -17t7.5 -40l-1 -8q-3 -27 -10.5 -52.5t-22.5 -45t-40 -31.5t-65 -12l6 45v0z" />
    <glyph glyph-name="circumflex" unicode="&#x2c6;" horiz-adv-x="441" 
d="M468 620l-4 -32h-92l-58 77l-79 -77h-92l4 32l135 100h81z" />
    <glyph glyph-name="caron" unicode="&#x2c7;" horiz-adv-x="441" 
d="M342 578h-81l-106 100l4 32h92l58 -77l79 77h92l-4 -32z" />
    <glyph glyph-name="breve" unicode="&#x2d8;" horiz-adv-x="380" 
d="M439 705l-3 -22q-3 -23 -12.5 -44t-28.5 -37t-48.5 -25t-72.5 -9h-8q-43 0 -70 9t-41 25t-18 37t-1 44l3 22h90l-3 -22q-2 -14 8 -24.5t43 -10.5h8q33 0 46 10.5t15 24.5l3 22h90z" />
    <glyph glyph-name="dotaccent" unicode="&#x2d9;" horiz-adv-x="260" 
d="M152 655q3 23 19.5 39t54.5 16h8q38 0 49.5 -16t8.5 -39l-2 -12q-3 -23 -19.5 -39t-54.5 -16h-8q-38 0 -49.5 16t-8.5 39z" />
    <glyph glyph-name="ring" unicode="&#x2da;" horiz-adv-x="300" 
d="M129 635q5 39 31 67t88 28h8q31 0 50.5 -7.5t30 -20.5t13 -30.5t-0.5 -36.5l-2 -12q-5 -39 -31 -67t-88 -28h-8q-31 0 -50.5 7.5t-30 20.5t-13 30t0.5 37zM187 623q-2 -14 6 -24.5t35 -10.5h8q27 0 38 10.5t13 24.5l2 12q2 14 -6 24.5t-35 10.5h-8q-27 0 -38 -10.5
t-13 -24.5z" />
    <glyph glyph-name="ogonek" unicode="&#x2db;" horiz-adv-x="316" 
d="M36 -106q0 43 19.5 71.5t46 45t53 23t41.5 7.5l24 -41q-32 0 -57.5 -18.5t-25.5 -58.5q0 -35 37 -35q10 0 32.5 3t46.5 14l-10 -69q-22 -14 -53 -20t-56 -6q-42 0 -70 19.5t-28 64.5z" />
    <glyph glyph-name="tilde" unicode="&#x2dc;" horiz-adv-x="462" 
d="M152 584l10 73q12 15 28 26q14 10 32.5 18.5t43.5 8.5q24 0 42 -7t34.5 -16t33 -16t35.5 -7q26 0 45 16t29 30h7l-12 -84q-9 -12 -22 -21q-11 -8 -28.5 -14t-40.5 -6q-22 0 -40 7t-35 16t-34.5 16t-37.5 7q-27 0 -48 -16.5t-33 -30.5h-9z" />
    <glyph glyph-name="hungarumlaut" unicode="&#x2dd;" horiz-adv-x="497" 
d="M241 720h121l-5 -32l-124 -110h-72l4 32zM432 720h121l-5 -32l-124 -110h-72l4 32z" />
    <glyph glyph-name="commaaccent" unicode="&#x326;" horiz-adv-x="232" 
d="M35 -205q32 0 48.5 12t24.5 32q-13 -5 -26 -5q-31 0 -40.5 17t-6.5 40l1 8q3 23 18.5 40t53.5 17h4q38 0 48.5 -17t7.5 -40l-1 -8q-3 -27 -10.5 -52.5t-22.5 -45t-40 -31.5t-65 -12l6 45v0z" />
    <glyph glyph-name="afii10023" unicode="&#x401;" horiz-adv-x="760" 
d="M783 510h-461l-14 -100h361l-23 -160h-361l-13 -90h461l-22 -160h-641l94 670h641zM326 825q3 23 19.5 39t54.5 16h8q38 0 49.5 -16t8.5 -39l-2 -12q-3 -23 -19.5 -39t-54.5 -16h-8q-38 0 -49.5 16t-8.5 39zM526 825q3 23 19.5 39t54.5 16h8q38 0 49.5 -16t8.5 -39
l-2 -12q-3 -23 -19.5 -39t-54.5 -16h-8q-38 0 -49.5 16t-8.5 39z" />
    <glyph glyph-name="afii10051" unicode="&#x402;" horiz-adv-x="915" 
d="M185 0l72 510h-160l22 160h601l-22 -160h-261l-17 -120q38 17 85.5 23.5t94.5 6.5h28q87 0 141.5 -16t84.5 -43t38.5 -63.5t3.5 -77.5l-5 -40q-5 -41 -21.5 -77.5t-48.5 -63.5t-82 -43t-122 -16h-28q-29 0 -60.5 2.5t-55.5 7.5l23 165q23 -8 53.5 -11.5t60.5 -3.5
q43 0 68 4.5t37.5 13.5t16 22.5t3.5 30.5q0 11 -5.5 20t-22.5 15.5t-48.5 10t-83.5 3.5q-42 0 -85 -4.5t-92 -24.5l-33 -231h-180z" />
    <glyph glyph-name="afii10052" unicode="&#x403;" horiz-adv-x="696" 
d="M743 510h-421l-72 -510h-180l94 670h601zM521 890h121l-5 -32l-144 -110h-72l4 32z" />
    <glyph glyph-name="afii10053" unicode="&#x404;" horiz-adv-x="756" 
d="M111 361q10 68 35.5 128t72.5 104.5t120.5 70.5t179.5 26h36q68 0 130.5 -8.5t122.5 -24.5l-23 -163q-33 10 -67.5 17t-68.5 11.5t-65 6.5t-56 2q-60 0 -99.5 -8.5t-64.5 -24.5t-38.5 -38.5t-20.5 -49.5h364l-23 -160h-363q1 -26 9 -46.5t29 -35t57.5 -22.5t93.5 -8
q25 0 57 2t67 6.5t72 12t73 17.5l-23 -164q-64 -15 -129.5 -23.5t-133.5 -8.5h-36q-106 0 -172.5 26t-102 70.5t-43.5 104.5t2 128z" />
    <glyph glyph-name="afii10054" unicode="&#x405;" horiz-adv-x="785" 
d="M411 140q54 0 86 5.5t49 15t22.5 21t5.5 23.5q0 15 -8.5 24.5t-26.5 14.5t-47 7.5t-69 3.5q-26 1 -59.5 3t-68.5 8.5t-68.5 19t-57.5 35t-36 56.5t-5 83l2 13q6 43 27 82.5t63 69.5t107.5 47.5t160.5 17.5h36q69 0 133 -8.5t124 -24.5l-24 -165q-70 17 -140 27t-144 10
q-54 0 -86.5 -5.5t-50 -14.5t-22.5 -20.5t-5 -22.5q0 -16 8.5 -25.5t27 -14.5t47 -7.5t67.5 -3.5q24 -1 57 -2.5t68.5 -8t69.5 -19.5t59 -35.5t37 -57t5 -83.5l-2 -13q-6 -43 -27 -82t-63 -69t-107.5 -47.5t-161.5 -17.5h-36q-79 0 -153 8.5t-143 23.5l24 168
q78 -18 163 -29t162 -11z" />
    <glyph glyph-name="afii10055" unicode="&#x406;" horiz-adv-x="320" 
d="M344 670l-94 -670h-180l94 670h180z" />
    <glyph glyph-name="afii10056" unicode="&#x407;" horiz-adv-x="320" 
d="M344 670l-94 -670h-180l94 670h180zM107 825q3 23 19.5 39t54.5 16h8q38 0 49.5 -16t8.5 -39l-2 -12q-3 -23 -19.5 -39t-54.5 -16h-8q-38 0 -49.5 16t-8.5 39zM307 825q3 23 19.5 39t54.5 16h8q38 0 49.5 -16t8.5 -39l-2 -12q-3 -23 -19.5 -39t-54.5 -16h-8
q-38 0 -49.5 16t-8.5 39z" />
    <glyph glyph-name="afii10057" unicode="&#x408;" horiz-adv-x="477" 
d="M331 670h180l-66 -470q-8 -53 -28 -93t-56 -67t-89 -41t-127 -14q-29 0 -60.5 2.5t-55.5 7.5l23 165q23 -8 53 -11.5t56 -3.5q34 0 54.5 5t31 14.5t14.5 23.5t7 32z" />
    <glyph glyph-name="afii10058" unicode="&#x409;" horiz-adv-x="1330" 
d="M1307 190q-6 -44 -25 -82t-55.5 -66.5t-94 -45t-141.5 -16.5h-28q-91 0 -184.5 5t-178.5 15l72 510h-272l-56 -307q-11 -53 -28 -93t-45.5 -67t-69.5 -41t-99 -14q-23 0 -46 2t-40 8l22 153q11 -2 27 -2.5t27 -0.5q40 0 56.5 19t23.5 56l83 447h619l-33 -240
q50 8 101.5 9t105.5 1h28q78 0 127 -16.5t75.5 -45t33.5 -67t1 -81.5zM998 280q-47 0 -89.5 -1.5t-90.5 -7.5l-17 -122q24 -2 50 -4t50.5 -3t46 -1.5t37.5 -0.5q58 0 91.5 5.5t50 16t21 27t4.5 37.5q0 12 -5.5 21.5t-22 17t-46.5 11.5t-80 4z" />
    <glyph glyph-name="afii10059" unicode="&#x40a;" horiz-adv-x="1330" 
d="M1307 190q-6 -44 -24.5 -82t-55 -66.5t-94.5 -45t-142 -16.5h-28q-91 0 -184.5 5t-178.5 15l35 250h-350l-35 -250h-180l94 670h180l-36 -260h350l36 260h180l-34 -240q51 8 102.5 9t105.5 1h28q78 0 126.5 -16.5t75 -45t33.5 -67t1 -81.5zM997 280q-47 0 -89 -1.5
t-90 -7.5l-17 -122q24 -2 50 -4t50.5 -3t46 -1.5t37.5 -0.5q58 0 91.5 5.5t50 16t20.5 27t4 37.5q0 12 -5 21.5t-21.5 17t-47 11.5t-80.5 4z" />
    <glyph glyph-name="afii10060" unicode="&#x40b;" horiz-adv-x="915" 
d="M720 670l-22 -160h-261l-14 -100q50 8 101.5 9t105.5 1h28q78 0 126.5 -19t74.5 -51.5t32.5 -76.5t-0.5 -93l-25 -180h-180l22 160q3 22 3.5 40t-11 31.5t-39.5 21t-81 7.5q-47 0 -89 -1.5t-90 -7.5l-36 -251h-180l72 510h-160l22 160h601z" />
    <glyph glyph-name="afii10061" unicode="&#x40c;" horiz-adv-x="789" 
d="M344 670l-36 -260h115l254 260h176l-5 -40l-289 -295l206 -295l-6 -40h-176l-175 250h-123l-35 -250h-180l94 670h180zM562 890h121l-5 -32l-144 -110h-72l4 32z" />
    <glyph glyph-name="afii10062" unicode="&#x40e;" horiz-adv-x="729" 
d="M498 175q-29 -43 -55.5 -79t-58.5 -61.5t-72 -40t-94 -14.5q-22 0 -47.5 2.5t-45.5 7.5l23 162q19 -5 44 -7t42 -2q22 0 37 3t25.5 9t18 15.5t15.5 22.5l-240 437l6 40h180l161 -323l228 323h170l-6 -40zM637 875l-3 -22q-3 -23 -12.5 -44t-28.5 -37t-48.5 -25t-72.5 -9
h-8q-43 0 -70 9t-41 25t-18 37t-1 44l3 22h90l-3 -22q-2 -14 8 -24.5t43 -10.5h8q33 0 46 10.5t15 24.5l3 22h90z" />
    <glyph glyph-name="afii10145" unicode="&#x40f;" horiz-adv-x="830" 
d="M310 -180l25 180h-265l94 670h180l-72 -510h330l72 510h180l-94 -670h-265l-15 -110l-130 -70h-40z" />
    <glyph glyph-name="afii10017" unicode="&#x410;" horiz-adv-x="816" 
d="M20 0l6 40l386 630h180l210 -630l-6 -40h-162l-40 130h-337l-75 -130h-162zM549 280l-69 229l-135 -229h204z" />
    <glyph glyph-name="afii10018" unicode="&#x411;" horiz-adv-x="800" 
d="M775 180q-6 -41 -24.5 -77.5t-54.5 -63.5t-93.5 -43t-141.5 -16h-28q-91 0 -184.5 5t-178.5 15l94 670h641l-22 -160h-461l-14 -100q50 8 101.5 9t105.5 1h28q78 0 127 -16t76 -43t34 -63.5t1 -77.5zM465 260q-47 0 -89.5 -1.5t-90.5 -7.5l-14 -102q24 -2 50 -4t50.5 -3
t46 -1.5t37.5 -0.5q58 0 91 4.5t49.5 14t20.5 23t4 31.5q0 10 -5 18.5t-21.5 15t-47 10t-81.5 3.5z" />
    <glyph glyph-name="afii10019" unicode="&#x412;" horiz-adv-x="830" 
d="M164 670q88 10 183 15t186 5h28q84 0 137 -16t82 -43t37 -63.5t2 -77.5l-3 -20q-3 -22 -12 -42.5t-25 -37.5t-41 -31t-60 -23q38 -9 63 -23t38.5 -32t17.5 -38.5t1 -42.5l-3 -20q-6 -41 -25 -77.5t-58 -63.5t-100 -43t-151 -16h-28q-91 0 -184.5 5t-178.5 15zM514 530
q-37 0 -88.5 -2t-102.5 -7l-15 -111h178q61 0 95 5t51 14t21 22t4 30q0 10 -5 19t-20 16t-43.5 10.5t-74.5 3.5zM285 250l-14 -101q49 -5 100.5 -7t91.5 -2q60 0 95 5t53 14t23 21.5t5 28.5q0 9 -5.5 16.5t-24 13t-53.5 8.5t-93 3h-178z" />
    <glyph glyph-name="afii10020" unicode="&#x413;" horiz-adv-x="696" 
d="M743 510h-421l-72 -510h-180l94 670h601z" />
    <glyph glyph-name="afii10021" unicode="&#x414;" horiz-adv-x="874" 
d="M155 -110l-130 -70h-40l48 340h76q23 13 35 44t20 81l74 385h620l-71 -510h100l-38 -270l-130 -70h-40l25 180h-534zM607 160l49 350h-274l-42 -217q-8 -40 -17.5 -73t-23.5 -60h308z" />
    <glyph glyph-name="afii10022" unicode="&#x415;" horiz-adv-x="760" 
d="M783 510h-461l-14 -100h361l-23 -160h-361l-13 -90h461l-22 -160h-641l94 670h641z" />
    <glyph glyph-name="afii10024" unicode="&#x416;" horiz-adv-x="1198" 
d="M783 670l-36 -260h85l254 260h176l-5 -40l-289 -295l206 -295l-6 -40h-176l-175 250h-93l-35 -250h-180l35 250h-94l-244 -250h-176l6 40l288 295l-205 295l5 40h176l182 -260h85l36 260h180z" />
    <glyph glyph-name="afii10025" unicode="&#x417;" horiz-adv-x="756" 
d="M334 -20q-71 0 -134.5 8t-122.5 24l23 165q70 -19 131 -28t130 -9q65 0 103 5t57.5 14.5t25 22.5t5.5 28q0 9 -5.5 16t-23 12.5t-50.5 8.5t-88 3h-78l23 160h78q57 0 89.5 4.5t48 13.5t19.5 22t4 30q0 10 -5 19t-21.5 16t-47 11t-81.5 4q-68 0 -126 -10t-123 -28l24 165
q57 16 118.5 24.5t122.5 8.5h23q90 0 147 -15t88.5 -41t41 -60.5t3.5 -73.5l-3 -20q-4 -24 -14.5 -46t-30 -41t-49 -33.5t-72.5 -23.5q46 -10 75.5 -25t46 -34t21.5 -41t2 -46l-3 -20q-6 -39 -26 -74t-60.5 -60.5t-105 -40.5t-160.5 -15h-20z" />
    <glyph glyph-name="afii10026" unicode="&#x418;" horiz-adv-x="851" 
d="M695 670h180l-94 -670h-180l60 430l-411 -430h-180l94 670h180l-60 -430z" />
    <glyph glyph-name="afii10027" unicode="&#x419;" horiz-adv-x="851" 
d="M695 670h180l-94 -670h-180l60 430l-411 -430h-180l94 670h180l-60 -430zM698 875l-3 -22q-3 -23 -12.5 -44t-28.5 -37t-48.5 -25t-72.5 -9h-8q-43 0 -70 9t-41 25t-18 37t-1 44l3 22h90l-3 -22q-2 -14 8 -24.5t43 -10.5h8q33 0 46 10.5t15 24.5l3 22h90z" />
    <glyph glyph-name="afii10028" unicode="&#x41a;" horiz-adv-x="789" 
d="M344 670l-36 -260h115l254 260h176l-5 -40l-289 -295l206 -295l-6 -40h-176l-175 250h-123l-35 -250h-180l94 670h180z" />
    <glyph glyph-name="afii10029" unicode="&#x41b;" horiz-adv-x="839" 
d="M91 148q40 0 56.5 19t23.5 56l83 447h609l-94 -670h-180l72 510h-262l-56 -307q-11 -53 -28 -93t-45.5 -67t-69.5 -41t-99 -14q-23 0 -46 2t-40 8l22 153q11 -2 27 -2.5t27 -0.5z" />
    <glyph glyph-name="afii10030" unicode="&#x41c;" horiz-adv-x="968" 
d="M457 137l-151 263l-56 -400h-180l94 670h180l186 -343l282 343h180l-94 -670h-180l56 400l-225 -263h-92z" />
    <glyph glyph-name="afii10031" unicode="&#x41d;" horiz-adv-x="850" 
d="M344 670l-36 -260h350l36 260h180l-94 -670h-180l35 250h-350l-35 -250h-180l94 670h180z" />
    <glyph glyph-name="afii10032" unicode="&#x41e;" horiz-adv-x="900" 
d="M111 361q9 68 34.5 128t74.5 104.5t124.5 70.5t184.5 26h36q109 0 177 -26t104.5 -70.5t45 -104.5t-0.5 -128l-7 -52q-9 -68 -35 -128t-75 -104.5t-124.5 -70.5t-184.5 -26h-36q-109 0 -177 26t-104 70.5t-44.5 104.5t0.5 128zM280 275q0 -27 7.5 -51.5t28.5 -43
t58 -29.5t96 -11q79 0 127 17t74 49.5t34.5 80t8.5 107.5q0 27 -7.5 51.5t-28.5 43t-58 29.5t-96 11q-79 0 -127 -17t-74 -49.5t-34.5 -80t-8.5 -107.5z" />
    <glyph glyph-name="afii10033" unicode="&#x41f;" horiz-adv-x="830" 
d="M854 670l-94 -670h-180l72 510h-330l-72 -510h-180l94 670h690z" />
    <glyph glyph-name="afii10034" unicode="&#x420;" horiz-adv-x="800" 
d="M808 410q-6 -50 -24.5 -93.5t-54 -76t-89.5 -51.5t-132 -19h-28q-54 0 -105.5 1t-99.5 9l-25 -180h-180l94 670q88 10 183 15t186 5h28q84 0 136.5 -19t80 -51.5t34.5 -76.5t1 -93zM474 330q53 0 85 8t48.5 24t21.5 40.5t5 57.5q0 16 -5 29t-18.5 22t-38 14t-63.5 5
q-32 0 -83.5 -2t-102.5 -7l-25 -182q46 -6 87.5 -7.5t88.5 -1.5z" />
    <glyph glyph-name="afii10035" unicode="&#x421;" horiz-adv-x="756" 
d="M111 361q10 68 35.5 128t72.5 104.5t120.5 70.5t179.5 26h36q68 0 130.5 -8.5t122.5 -24.5l-23 -163q-33 10 -67.5 17t-68.5 11.5t-65 6.5t-56 2q-78 0 -126.5 -15.5t-74.5 -48t-35 -81.5t-9 -116q0 -29 7.5 -53t28.5 -41.5t57.5 -27.5t95.5 -10q25 0 57 2t67 6.5t72 12
t73 17.5l-23 -164q-64 -15 -129.5 -23.5t-133.5 -8.5h-36q-106 0 -172.5 26t-102 70.5t-43.5 104.5t2 128z" />
    <glyph glyph-name="afii10036" unicode="&#x422;" horiz-adv-x="741" 
d="M280 0l72 510h-260l22 160h701l-22 -160h-261l-72 -510h-180z" />
    <glyph glyph-name="afii10037" unicode="&#x423;" horiz-adv-x="789" 
d="M522 175q-29 -43 -55.5 -79t-58.5 -61.5t-72 -40t-94 -14.5q-22 0 -47.5 2.5t-45.5 7.5l23 162q19 -5 44 -7t42 -2q22 0 37 3t25.5 9t18 15.5t15.5 22.5l-240 437l6 40h180l161 -323l228 323h170l-6 -40z" />
    <glyph glyph-name="afii10038" unicode="&#x424;" horiz-adv-x="1060" 
d="M725 750l-10 -70h18q106 0 173 -20t103.5 -54.5t47 -80.5t3.5 -98l-7 -52q-7 -53 -30.5 -99t-69.5 -80t-119 -54t-179 -20h-18l-17 -122h-180l17 122h-18q-106 0 -173.5 20t-104 54.5t-47 80.5t-2.5 98l8 52q8 52 31 98t69 80.5t118.5 54.5t178.5 20h18l10 70h180z
M293 371q0 -18 6.5 -34t26.5 -28.5t56.5 -19.5t96.5 -7l34 237q-75 0 -119 -10t-66.5 -29.5t-28.5 -47t-6 -61.5zM880 431q0 18 -6.5 34t-27 28t-57 19t-96.5 7l-34 -237q75 0 119 10t66.5 29.5t29 47t6.5 62.5z" />
    <glyph glyph-name="afii10039" unicode="&#x425;" horiz-adv-x="764" 
d="M324 335l-205 295l5 40h177l146 -210l205 210h176l-5 -40l-289 -295l206 -295l-6 -40h-176l-147 209l-204 -209h-177l6 40z" />
    <glyph glyph-name="afii10040" unicode="&#x426;" horiz-adv-x="890" 
d="M735 -180h-40l25 180h-650l94 670h180l-72 -510h350l72 510h180l-72 -510h100l-37 -270z" />
    <glyph glyph-name="afii10041" unicode="&#x427;" horiz-adv-x="800" 
d="M294 460q-3 -22 -3.5 -40t11 -31.5t39.5 -21t81 -7.5q47 0 89.5 1.5t90.5 7.5l42 301h180l-94 -670h-180l29 210q-50 -8 -101.5 -9t-105.5 -1h-28q-78 0 -126.5 19t-74 51.5t-32 76t0.5 93.5l32 230h180z" />
    <glyph glyph-name="afii10042" unicode="&#x428;" horiz-adv-x="1110" 
d="M739 670l-72 -510h215l72 510h180l-94 -670h-970l94 670h180l-72 -510h215l72 510h180z" />
    <glyph glyph-name="afii10043" unicode="&#x429;" horiz-adv-x="1150" 
d="M995 -180h-40l25 180h-910l94 670h180l-72 -510h215l72 510h180l-72 -510h215l72 510h180l-72 -510h100l-37 -270z" />
    <glyph glyph-name="afii10044" unicode="&#x42a;" horiz-adv-x="960" 
d="M504 670l-33 -240q50 8 101.5 9t105.5 1h28q78 0 127 -16.5t75.5 -45t33.5 -67t1 -81.5l-6 -40q-6 -44 -24.5 -82t-55 -66.5t-94 -45t-141.5 -16.5h-28q-91 0 -185 5t-179 15l72 510h-220l22 160h400zM628 280q-47 0 -89.5 -1.5t-90.5 -7.5l-17 -122q24 -2 50 -4t50.5 -3
t46 -1.5t37.5 -0.5q58 0 91.5 5.5t50 16t21 27t4.5 37.5q0 12 -5.5 21.5t-22 17t-46.5 11.5t-80 4z" />
    <glyph glyph-name="afii10045" unicode="&#x42b;" horiz-adv-x="1049" 
d="M757 190q-6 -44 -23.5 -82t-52 -66.5t-88.5 -45t-132 -16.5h-28q-91 0 -184.5 5t-178.5 15l94 670h180l-34 -240q51 8 102.5 9t105.5 1h28q72 0 117 -16.5t69 -45t30 -67t0 -81.5zM1073 670l-94 -670h-180l94 670h180zM467 280q-47 0 -89 -1.5t-90 -7.5l-17 -122
q24 -2 50 -4t50.5 -3t46 -1.5t37.5 -0.5q51 0 80 5.5t44 16.5t19 27t4 38q0 12 -5 21.5t-19 16.5t-41 11t-70 4z" />
    <glyph glyph-name="afii10046" unicode="&#x42c;" horiz-adv-x="800" 
d="M777 190q-6 -44 -24.5 -82t-55 -66.5t-94.5 -45t-142 -16.5h-28q-91 0 -184.5 5t-178.5 15l94 670h180l-34 -240q51 8 102.5 9t105.5 1h28q78 0 126.5 -16.5t75 -45t33.5 -67t1 -81.5zM467 280q-47 0 -89 -1.5t-90 -7.5l-17 -122q24 -2 50 -4t50.5 -3t46 -1.5t37.5 -0.5
q58 0 91.5 5.5t50 16t20.5 27t4 37.5q0 12 -5 21.5t-21.5 17t-47 11.5t-80.5 4z" />
    <glyph glyph-name="afii10047" unicode="&#x42d;" horiz-adv-x="756" 
d="M740 309q-9 -68 -34.5 -128t-73 -104.5t-121 -70.5t-179.5 -26h-36q-68 0 -131 8.5t-123 23.5l23 164q33 -10 68 -17.5t68.5 -12t64.5 -6.5t57 -2q57 0 95.5 8t63.5 22.5t38.5 35t21.5 46.5h-362l23 160h364q0 27 -7 49.5t-27.5 38.5t-57.5 24.5t-97 8.5
q-51 0 -123.5 -8.5t-144.5 -28.5l23 163q64 16 129 24.5t133 8.5h36q106 0 172 -26t101 -70.5t43.5 -104.5t-0.5 -128z" />
    <glyph glyph-name="afii10048" unicode="&#x42e;" horiz-adv-x="1180" 
d="M344 670l-36 -260h132q13 59 40.5 110.5t73.5 89t113.5 59t161.5 21.5h36q103 0 167.5 -26t98.5 -70.5t42 -104.5t-2 -128l-8 -52q-10 -68 -35 -128t-71 -104.5t-117.5 -70.5t-174.5 -26h-36q-92 0 -152.5 20.5t-96.5 57t-50 86t-12 106.5h-133l-35 -250h-180l94 670h180
zM600 272q0 -27 6.5 -51t25.5 -42t52 -28.5t86 -10.5q71 0 115 17t68 50t32.5 80.5t8.5 109.5q0 27 -6.5 51t-25.5 42t-52 28.5t-86 10.5q-71 0 -115 -17t-68 -50t-32.5 -81t-8.5 -109z" />
    <glyph glyph-name="afii10049" unicode="&#x42f;" horiz-adv-x="810" 
d="M50 0l6 40l151 196q-61 28 -78.5 79.5t-8.5 114.5l6 40q7 45 25.5 85t55.5 70t94.5 47.5t141.5 17.5h28q91 0 184.5 -5t178.5 -15l-94 -670h-180l31 220q-49 -8 -99.5 -9t-103.5 -1l-164 -210h-174zM446 530q-49 0 -77.5 -6t-43.5 -18t-19 -30t-4 -42q0 -16 6 -28
t22.5 -20t46.5 -12t78 -4q26 0 68 1.5t90 7.5l20 142q-49 5 -100.5 7t-86.5 2z" />
    <glyph glyph-name="afii10065" unicode="&#x430;" 
d="M662 0h-40l-86 54q-23 -20 -46 -34t-48 -23t-52.5 -13t-60.5 -4q-76 0 -125.5 19.5t-76.5 53.5t-35 79.5t0 97.5l6 40q8 52 27.5 97.5t57 79.5t95.5 53.5t143 19.5h28q84 0 136.5 -19.5t80 -53.5t34.5 -79.5t0 -97.5zM367 125q48 0 86 11.5t73 34.5l11 79q3 24 4 47
t-9.5 40t-37.5 27.5t-80 10.5t-85 -11t-49.5 -32t-23 -51t-5.5 -68q0 -17 4.5 -33t17 -28t35.5 -19.5t59 -7.5z" />
    <glyph glyph-name="afii10066" unicode="&#x431;" 
d="M476 750q42 0 99.5 6.5t115.5 22.5l-21 -149q-36 -8 -63 -13t-50.5 -7t-46 -3t-50.5 -2q-59 -2 -92 -14t-50 -32t-23.5 -48t-11.5 -61q46 28 90.5 39t98.5 11q75 0 122.5 -18t73.5 -49.5t32.5 -73.5t-0.5 -89l-6 -40q-8 -52 -27.5 -97.5t-57 -79.5t-95.5 -53.5
t-143 -19.5h-28q-84 0 -136.5 19.5t-80 53.5t-34.5 79.5t0 97.5l34 240q8 58 28.5 109.5t58.5 89t96 59.5t142 22h25zM379 125q53 0 85 11t49 31t22.5 49.5t5.5 65.5q0 15 -4 28.5t-15.5 23.5t-32 15.5t-52.5 5.5q-51 0 -93.5 -11.5t-80.5 -34.5l-8 -59q-3 -24 -4 -47
t10 -40t38 -27.5t80 -10.5z" />
    <glyph glyph-name="afii10067" unicode="&#x432;" horiz-adv-x="685" 
d="M661 368q-5 -38 -30.5 -68.5t-84.5 -45.5q63 -16 84 -49t14 -73l-3 -16q-5 -27 -20.5 -52t-47 -43.5t-81 -29.5t-121.5 -11h-28q-84 0 -136.5 19.5t-80.5 53.5t-35 79.5t1 97.5l6 40q8 52 27.5 97.5t57 79.5t95 53.5t141.5 19.5h28q67 0 110.5 -11t68 -29.5t32.5 -43.5
t5 -52zM384 102q34 0 55 4.5t32.5 13t15 19t3.5 22.5q0 7 -3.5 13.5t-15.5 11.5t-34 7.5t-58 2.5h-128q0 -22 5.5 -39.5t20.5 -29.5t40.5 -18.5t66.5 -6.5zM420 398q-42 0 -69.5 -8t-45.5 -21.5t-27.5 -30t-13.5 -34.5h130q37 0 58.5 3.5t32.5 10.5t13.5 17t2.5 23
q0 7 -3 14.5t-11.5 13t-24.5 9t-42 3.5z" />
    <glyph glyph-name="afii10068" unicode="&#x433;" horiz-adv-x="652" 
d="M341 115q65 0 136.5 7.5t139.5 21.5l-19 -139q-61 -12 -123 -18.5t-127 -6.5h-28q-78 0 -128 13.5t-78 36.5t-36.5 53t-2.5 62l2 10q7 39 25.5 66t44 45t55.5 28t60 15t56.5 7t46.5 2q65 1 92.5 7.5t27.5 29.5q0 5 -3.5 10.5t-15 10t-32.5 7t-56 2.5q-63 0 -123.5 -7.5
t-121.5 -21.5l19 139q54 12 108.5 18.5t111.5 6.5h28q78 0 128 -13.5t78 -36.5t36.5 -53t2.5 -62l-2 -10q-7 -39 -25 -65.5t-43.5 -44.5t-55.5 -28.5t-59.5 -15.5t-57 -6.5t-47.5 -2.5q-64 -2 -92 -7.5t-28 -30.5q0 -5 3.5 -10.5t14.5 -9.5t32 -6.5t56 -2.5z" />
    <glyph glyph-name="afii10069" unicode="&#x434;" horiz-adv-x="720" 
d="M92 140q20 13 30.5 40.5t19.5 67.5l54 252h506l-51 -360h79l-37 -260l-108 -60h-40l25 180h-420l-17 -120l-108 -60h-40l45 320h62zM320 356l-21 -100q-8 -35 -16.5 -64t-19.5 -52h228l30 216h-201z" />
    <glyph glyph-name="afii10070" unicode="&#x435;" horiz-adv-x="709" 
d="M343 -20q-84 0 -136.5 19.5t-80.5 53.5t-35 79.5t1 97.5l6 40q8 52 27.5 97.5t57 79.5t95 53.5t141.5 19.5h28q85 0 137.5 -13t80.5 -34.5t34.5 -50.5t0.5 -62l-2 -10q-5 -30 -16.5 -57t-42.5 -47.5t-86.5 -33t-149.5 -12.5q-45 0 -82.5 4t-69.5 14q-2 -21 1.5 -38.5
t18.5 -29.5t44 -18.5t79 -6.5q24 0 53.5 2t61.5 5.5t63.5 9t58.5 13.5l-21 -150q-27 -6 -58 -10.5t-64 -8t-65.5 -5t-60.5 -1.5h-19zM431 395q-40 0 -67.5 -4.5t-46 -13.5t-29.5 -22t-17 -30q28 -8 61 -11.5t77 -3.5t69.5 3.5t39 9.5t17.5 14t4 17q0 7 -3.5 14t-15 13
t-33 10t-56.5 4z" />
    <glyph glyph-name="afii10072" unicode="&#x436;" horiz-adv-x="922" 
d="M25 0l6 40l162 210l-103 210l5 40h154l88 -176h90l24 176l160 -1l-24 -175h90l136 176h154l-5 -40l-163 -210l104 -210l-6 -40h-154l-87 176h-90l-25 -176h-160l25 176h-90l-137 -176h-154z" />
    <glyph glyph-name="afii10073" unicode="&#x437;" horiz-adv-x="616" 
d="M256 -20q-57 0 -107 7t-98 19l21 148q28 -8 53.5 -13.5t51 -9t53 -5.5t59.5 -2q43 0 68 3t38.5 8t17.5 12.5t4 16.5q0 6 -3.5 11t-16 8.5t-36.5 6t-64 2.5h-112l15 108h112q40 0 63.5 3.5t34.5 9.5t14 14.5t3 19.5q0 6 -4 11.5t-15.5 9t-32.5 6t-56 2.5q-59 0 -105.5 -7
t-97.5 -19l21 144q45 12 94.5 19t97.5 7h19q78 0 127.5 -10t77.5 -27.5t36.5 -41t5.5 -49.5l-2 -16q-5 -43 -37.5 -75.5t-108.5 -49.5q40 -8 66 -20t40.5 -27t19 -33t2.5 -37l-2 -16q-4 -29 -20.5 -54t-51 -43.5t-90.5 -29.5t-139 -11h-16z" />
    <glyph glyph-name="afii10074" unicode="&#x438;" 
d="M290 500l-35 -250q-3 -23 -4 -45.5t8.5 -40t34.5 -28.5t73 -11t86 11.5t73 34.5l46 329h160l-70 -500h-40l-86 54q-23 -20 -46 -34t-48 -23t-52.5 -13t-60.5 -4q-76 0 -125.5 19.5t-76.5 53.5t-34.5 79.5t-0.5 97.5l38 270h160z" />
    <glyph glyph-name="afii10075" unicode="&#x439;" 
d="M610 705l-3 -22q-3 -23 -12.5 -44t-28.5 -37t-48.5 -25t-72.5 -9h-8q-43 0 -70 9t-41 25t-18 37t-1 44l3 22h90l-3 -22q-2 -14 8 -24.5t43 -10.5h8q33 0 46 10.5t15 24.5l3 22h90zM290 500l-35 -250q-3 -23 -4 -45.5t8.5 -40t34.5 -28.5t73 -11t86 11.5t73 34.5l46 329
h160l-70 -500h-40l-86 54q-23 -20 -46 -34t-48 -23t-52.5 -13t-60.5 -4q-76 0 -125.5 19.5t-76.5 53.5t-34.5 79.5t-0.5 97.5l38 270h160z" />
    <glyph glyph-name="afii10076" unicode="&#x43a;" horiz-adv-x="671" 
d="M492 0l-87 176h-160l-25 -176h-160l70 500l160 -1l-24 -175h160l136 176h154l-5 -40l-163 -210l104 -210l-6 -40h-154z" />
    <glyph glyph-name="afii10077" unicode="&#x43b;" horiz-adv-x="716" 
d="M84 133q36 0 50.5 17.5t21.5 50.5l36 179q12 63 46.5 91.5t97.5 28.5h386l-71 -500h-160l50 356h-179q-20 0 -24 -20l-30 -153q-9 -47 -24.5 -83.5t-40.5 -61t-61.5 -37t-88.5 -12.5q-20 0 -41 2t-37 7l19 138q11 -2 25 -2.5t25 -0.5z" />
    <glyph glyph-name="afii10078" unicode="&#x43c;" horiz-adv-x="780" 
d="M368 110l-105 162l-38 -272h-160l70 500h144l150 -222l212 222h144l-70 -500h-160l38 272l-151 -162h-74z" />
    <glyph glyph-name="afii10079" unicode="&#x43d;" horiz-adv-x="732" 
d="M295 500l-25 -180h282l25 180h160l-70 -500h-160l25 180h-282l-25 -180h-160l70 500h160z" />
    <glyph glyph-name="afii10080" unicode="&#x43e;" horiz-adv-x="720" 
d="M98 270q8 52 27.5 97.5t57 79.5t95 53.5t141.5 19.5h28q84 0 136.5 -19.5t80.5 -53.5t35 -79.5t-1 -97.5l-6 -40q-8 -52 -27.5 -97.5t-56.5 -79.5t-95 -53.5t-142 -19.5h-28q-84 0 -136.5 19.5t-80.5 53.5t-35 79.5t1 97.5zM251 212q0 -18 5 -33.5t19 -27.5t38.5 -19
t64.5 -7q52 0 84 11t49.5 32t23 51t5.5 69q0 18 -5 33.5t-19 27.5t-38.5 19t-64.5 7q-53 0 -84.5 -11t-49 -32t-23 -51t-5.5 -69z" />
    <glyph glyph-name="afii10081" unicode="&#x43f;" horiz-adv-x="727" 
d="M175 500l89 -57q48 43 95 60t109 17q76 0 125 -19.5t76.5 -53.5t35 -79.5t0.5 -97.5l-38 -270h-160l35 250q3 22 4 44.5t-8 40.5t-33.5 29t-72.5 11q-47 0 -85.5 -12t-75.5 -39l-46 -324h-160l70 500h40z" />
    <glyph glyph-name="afii10082" unicode="&#x440;" 
d="M170 500l89 -57q49 43 95.5 60t108.5 17q76 0 125.5 -19.5t77 -53.5t35 -79.5t-0.5 -97.5l-6 -40q-8 -52 -27.5 -97.5t-57 -79.5t-95 -53.5t-141.5 -19.5q-86 0 -152 23l-36 -253h-160l105 750h40zM427 375q-48 0 -86.5 -12.5t-74.5 -38.5l-25 -178q61 -21 138 -21
q53 0 85 10.5t49 31t22.5 50.5t5.5 70q0 17 -4.5 33t-17 28t-34.5 19.5t-58 7.5z" />
    <glyph glyph-name="afii10083" unicode="&#x441;" horiz-adv-x="640" 
d="M98 270q8 52 27.5 97.5t57 79.5t95 53.5t141.5 19.5h28q54 0 104.5 -6.5t98.5 -18.5l-21 -149q-54 16 -109 22.5t-97 6.5q-56 0 -90 -10t-52 -30.5t-24 -51t-6 -72.5q0 -19 5 -34.5t20 -27t42 -18t70 -6.5q42 0 99 6.5t115 22.5l-21 -149q-51 -12 -103.5 -18.5
t-106.5 -6.5h-28q-84 0 -136.5 19.5t-80.5 53.5t-35 79.5t1 97.5z" />
    <glyph glyph-name="afii10084" unicode="&#x442;" horiz-adv-x="1129" 
d="M175 500l81 -52q46 38 94.5 55t112.5 17q79 0 126.5 -23.5t71.5 -61.5q49 44 100 64.5t124 20.5q75 0 121.5 -20.5t71 -55t30.5 -79.5t-1 -95l-38 -270h-160l35 250q3 24 4.5 46.5t-6.5 40t-29.5 28t-63.5 10.5q-87 0 -160 -48q0 -14 -1 -28.5t-3 -28.5l-38 -270h-160
l35 250q3 23 4.5 45.5t-6 40t-28.5 28.5t-62 11q-87 0 -160 -54l-45 -321h-160l70 500h40z" />
    <glyph glyph-name="afii10085" unicode="&#x443;" horiz-adv-x="697" 
d="M625 -50q-8 -54 -29.5 -95t-61.5 -68.5t-99.5 -42t-143.5 -14.5q-25 0 -53 1.5t-56 5t-54 8t-47 10.5l21 150q21 -8 47 -13.5t53.5 -9t54.5 -5.5t50 -2q53 0 83.5 6.5t46.5 18.5t22 29.5t9 40.5l4 28q-60 -18 -129 -18q-84 0 -136.5 19.5t-80 53.5t-34.5 79.5t0 97.5
l38 270h160l-35 -250q-3 -24 -4 -47t9 -40t36 -27.5t77 -10.5q64 0 119 16l50 359h160z" />
    <glyph glyph-name="afii10086" unicode="&#x444;" horiz-adv-x="900" 
d="M527 -20l-32 -229h-160l32 229h-14q-87 0 -141.5 19.5t-83.5 53.5t-36.5 79.5t0.5 97.5l6 40q8 52 28 97.5t58.5 79.5t98 53.5t146.5 19.5h14l32 230h40l111 -70l-23 -160h14q87 0 141.5 -19.5t84 -53.5t36.5 -79.5t-1 -97.5l-6 -40q-8 -52 -28 -97.5t-58.5 -79.5
t-98 -53.5t-146.5 -19.5h-14zM719 286q0 18 -5 34t-20 28.5t-41.5 19.5t-69.5 7l-35 -250q56 0 90 11t52 31.5t23.5 50.5t5.5 68zM251 214q0 -18 5 -34t20 -28.5t42 -19.5t70 -7l35 250q-56 0 -90 -11t-52 -31.5t-24 -50.5t-6 -68z" />
    <glyph glyph-name="afii10087" unicode="&#x445;" horiz-adv-x="602" 
d="M243 250l-148 210l5 40h152l99 -141l140 141h151l-5 -40l-208 -210l149 -210l-6 -40h-151l-100 141l-139 -141h-152l6 40z" />
    <glyph glyph-name="afii10088" unicode="&#x446;" horiz-adv-x="751" 
d="M682 140h79l-37 -260l-108 -60h-40l27 192l-67 42q-23 -20 -46 -34t-48 -23t-52.5 -13t-60.5 -4q-76 0 -125.5 19.5t-76.5 53.5t-34.5 79.5t-0.5 97.5l38 270h160l-35 -250q-3 -23 -4 -45.5t8.5 -40t34.5 -28.5t73 -11t86 11.5t73 34.5l46 329h160z" />
    <glyph glyph-name="afii10089" unicode="&#x447;" horiz-adv-x="712" 
d="M257 374q-3 -20 -3 -36.5t9.5 -28.5t33 -18.5t68.5 -6.5q43 0 81 3t83 15l28 198h160l-70 -500h-160l22 159q-43 -14 -84.5 -16.5t-85.5 -2.5h-26q-73 0 -118.5 17t-70 46.5t-30 68.5t0.5 84l20 144h160z" />
    <glyph glyph-name="afii10090" unicode="&#x448;" horiz-adv-x="974" 
d="M869 0l-70 45q-33 -37 -66.5 -51t-82.5 -14q-69 0 -113.5 21.5t-68.5 56.5q-19 -23 -36.5 -38t-36.5 -24t-40.5 -12.5t-47.5 -3.5q-67 0 -111 20.5t-68 55t-30.5 79.5t0.5 95l38 270h160l-35 -250q-3 -20 -4.5 -42t5.5 -40.5t26.5 -30.5t58.5 -12q26 0 47.5 6t42.5 20
q-2 19 -1 39t4 40l38 270h160l-35 -250q-3 -20 -4.5 -41.5t5.5 -40.5t25.5 -31t56.5 -12q47 0 85 26l49 349h160l-71 -500h-40z" />
    <glyph glyph-name="afii10091" unicode="&#x449;" horiz-adv-x="996" 
d="M861 -180h-40l27 193l-49 32q-33 -37 -66.5 -51t-82.5 -14q-69 0 -113.5 21.5t-68.5 56.5q-19 -23 -36.5 -38t-36.5 -24t-40.5 -12.5t-47.5 -3.5q-67 0 -111 20.5t-68 55t-30.5 79.5t0.5 95l38 270h160l-35 -250q-3 -20 -4.5 -42t5.5 -40.5t26.5 -30.5t58.5 -12
q26 0 47.5 6t42.5 20q-2 19 -1 39t4 40l38 270h160l-35 -250q-3 -20 -4.5 -41.5t5.5 -40.5t25.5 -31t56.5 -12q47 0 85 26l49 349h160l-51 -360h77l-36 -260z" />
    <glyph glyph-name="afii10092" unicode="&#x44a;" horiz-adv-x="776" 
d="M746 146q-5 -34 -20.5 -63.5t-46.5 -51.5t-80 -34.5t-121 -12.5h-22q-73 0 -148 4t-142 12l53 380h-156l17 120h316l-23 -164q33 2 66.5 3t66.5 1h22q72 0 118 -12.5t71 -34.5t32 -51.5t2 -63.5zM493 212q-27 0 -64.5 -1.5t-74.5 -5.5l-12 -86q36 -4 73 -5.5t64 -1.5
q37 0 59 4.5t34 12t15.5 18.5t3.5 24q0 8 -3.5 15.5t-14 13t-29.5 9t-51 3.5z" />
    <glyph glyph-name="afii10093" unicode="&#x44b;" horiz-adv-x="884" 
d="M626 146q-5 -34 -19.5 -63.5t-43 -51.5t-74 -34.5t-111.5 -12.5h-22q-73 0 -148 4t-143 12l70 500h160l-23 -164q34 2 67.5 3t66.5 1h22q66 0 107.5 -12.5t64 -34.5t28.5 -51.5t2 -63.5zM889 500l-70 -500h-150l70 500h150zM393 212q-27 0 -64.5 -1.5t-74.5 -5.5l-12 -86
q35 -4 72.5 -5.5t64.5 -1.5q30 0 48 4.5t28 12.5t13 19t3 25q0 8 -3 15t-11.5 12.5t-23.5 8.5t-40 3z" />
    <glyph glyph-name="afii10094" unicode="&#x44c;" horiz-adv-x="675" 
d="M646 146q-5 -34 -20 -63.5t-46.5 -51.5t-80.5 -34.5t-121 -12.5h-22q-73 0 -148 4t-143 12l70 500h160l-23 -164q34 2 67.5 3t66.5 1h22q72 0 117.5 -12.5t70 -34.5t31.5 -51.5t3 -63.5zM393 212q-27 0 -64.5 -1.5t-74.5 -5.5l-12 -86q35 -4 72.5 -5.5t64.5 -1.5
q37 0 59 4.5t34 12t15.5 18.5t3.5 24q0 8 -3.5 15.5t-14 13t-30 9t-50.5 3.5z" />
    <glyph glyph-name="afii10095" unicode="&#x44d;" horiz-adv-x="630" 
d="M603 230q-7 -52 -26.5 -97.5t-57 -79.5t-96 -53.5t-142.5 -19.5h-28q-54 0 -104 6.5t-98 18.5l21 149q54 -16 109 -22.5t97 -6.5q39 0 65.5 4.5t44.5 13t28 20.5t16 27h-270l17 120h271q-2 15 -9 27t-22.5 20.5t-41 13t-64.5 4.5q-42 0 -99 -6.5t-115 -22.5l21 149
q51 12 103 18.5t106 6.5h28q84 0 136 -19.5t80 -53.5t35 -79.5t0 -97.5z" />
    <glyph glyph-name="afii10096" unicode="&#x44e;" horiz-adv-x="940" 
d="M295 500l-25 -180h98q11 43 32.5 79.5t56 63.5t84 42t118.5 15h28q78 0 127 -19.5t74.5 -53.5t31.5 -79.5t-2 -97.5l-6 -40q-8 -52 -26.5 -97.5t-53.5 -79.5t-89 -53.5t-132 -19.5h-28q-69 0 -114.5 15t-72.5 42t-38 63.5t-10 79.5h-98l-25 -180h-160l70 500h160z
M510 210q0 -17 4.5 -32.5t16.5 -27t33 -18.5t54 -7q45 0 73 11t43 32t20.5 52t5.5 70q0 17 -4.5 32.5t-16 27t-32.5 18.5t-54 7q-45 0 -73 -11t-43.5 -32t-21 -52t-5.5 -70z" />
    <glyph glyph-name="afii10097" unicode="&#x44f;" horiz-adv-x="690" 
d="M115 354q5 34 20.5 63.5t46.5 51.5t80 34.5t121 12.5h22q73 0 148 -4t142 -12l-70 -500h-144l23 164q-38 -2 -76 -3t-74 -1h-16l-124 -160h-154l6 40l112 145q-47 22 -61 57.5t-7 79.5zM367 288q32 0 72.5 1.5t82.5 5.5l13 86q-42 4 -81.5 5.5t-71.5 1.5q-37 0 -59 -4.5
t-34 -12t-15.5 -18.5t-3.5 -24q0 -8 3.5 -15.5t13.5 -13t29 -9t51 -3.5z" />
    <glyph glyph-name="afii10071" unicode="&#x451;" horiz-adv-x="709" 
d="M343 -20q-84 0 -136.5 19.5t-80.5 53.5t-35 79.5t1 97.5l6 40q8 52 27.5 97.5t57 79.5t95 53.5t141.5 19.5h28q85 0 137.5 -13t80.5 -34.5t34.5 -50.5t0.5 -62l-2 -10q-5 -30 -16.5 -57t-42.5 -47.5t-86.5 -33t-149.5 -12.5q-45 0 -82.5 4t-69.5 14q-2 -21 1.5 -38.5
t18.5 -29.5t44 -18.5t79 -6.5q24 0 53.5 2t61.5 5.5t63.5 9t58.5 13.5l-21 -150q-27 -6 -58 -10.5t-64 -8t-65.5 -5t-60.5 -1.5h-19zM431 395q-40 0 -67.5 -4.5t-46 -13.5t-29.5 -22t-17 -30q28 -8 61 -11.5t77 -3.5t69.5 3.5t39 9.5t17.5 14t4 17q0 7 -3.5 14t-15 13
t-33 10t-56.5 4zM276 655q3 23 19.5 39t54.5 16h8q38 0 49.5 -16t8.5 -39l-2 -12q-3 -23 -19.5 -39t-54.5 -16h-8q-38 0 -49.5 16t-8.5 39zM476 655q3 23 19.5 39t54.5 16h8q38 0 49.5 -16t8.5 -39l-2 -12q-3 -23 -19.5 -39t-54.5 -16h-8q-38 0 -49.5 16t-8.5 39z" />
    <glyph glyph-name="afii10099" unicode="&#x452;" horiz-adv-x="792" 
d="M276 750l110 -70l-6 -43h149l-9 -64h-149l-11 -76q74 23 160 23q84 0 136 -19.5t80 -53.5t34.5 -79.5t-0.5 -97.5l-45 -325q-7 -47 -25.5 -83.5t-51.5 -61t-82 -37.5t-116 -13q-28 0 -53 2.5t-45 7.5l20 146q19 -6 44 -8.5t48 -2.5q34 0 53.5 4.5t29.5 13.5t14 22t6 30
l41 285q3 24 4 47t-9 40t-36 27.5t-77 10.5q-42 0 -78.5 -5.5t-71.5 -16.5l-50 -353h-160l81 573h-105l9 64h105l16 113h40z" />
    <glyph glyph-name="afii10100" unicode="&#x453;" horiz-adv-x="652" 
d="M341 115q65 0 136.5 7.5t139.5 21.5l-19 -139q-61 -12 -123 -18.5t-127 -6.5h-28q-78 0 -128 13.5t-78 36.5t-36.5 53t-2.5 62l2 10q7 39 25.5 66t44 45t55.5 28t60 15t56.5 7t46.5 2q65 1 92.5 7.5t27.5 29.5q0 5 -3.5 10.5t-15 10t-32.5 7t-56 2.5q-63 0 -123.5 -7.5
t-121.5 -21.5l19 139q54 12 108.5 18.5t111.5 6.5h28q78 0 128 -13.5t78 -36.5t36.5 -53t2.5 -62l-2 -10q-7 -39 -25 -65.5t-43.5 -44.5t-55.5 -28.5t-59.5 -15.5t-57 -6.5t-47.5 -2.5q-64 -2 -92 -7.5t-28 -30.5q0 -5 3.5 -10.5t14.5 -9.5t32 -6.5t56 -2.5zM450 720h121
l-5 -32l-144 -110h-72l4 32z" />
    <glyph glyph-name="afii10101" unicode="&#x454;" horiz-adv-x="630" 
d="M98 270q8 52 27.5 97.5t57 79.5t95 53.5t141.5 19.5h28q54 0 104.5 -6.5t98.5 -18.5l-21 -149q-54 16 -109 22.5t-97 6.5q-39 0 -66 -4.5t-45 -13t-28.5 -20.5t-15.5 -27h271l-17 -120h-271q1 -15 8 -27t22.5 -20.5t41.5 -13t65 -4.5q42 0 99 6.5t115 22.5l-21 -149
q-51 -12 -103.5 -18.5t-106.5 -6.5h-28q-84 0 -136.5 19.5t-80.5 53.5t-35 79.5t1 97.5z" />
    <glyph glyph-name="afii10102" unicode="&#x455;" horiz-adv-x="652" 
d="M343 115q38 0 61 3t35 8t15.5 11.5t3.5 13.5q0 20 -26.5 24.5t-83.5 6.5q-20 0 -47 1.5t-55.5 7t-55.5 15.5t-47 28t-31 45t-6 66l1 10q4 33 20.5 62.5t50.5 52.5t88 36.5t132 13.5h28q57 0 110 -6.5t103 -18.5l-20 -139q-57 14 -115.5 21.5t-121.5 7.5q-39 0 -62 -3
t-35 -8t-15.5 -11.5t-3.5 -13.5q0 -19 27 -24t84 -7q19 -1 46 -2t55.5 -6.5t55.5 -15.5t47.5 -28t31 -45t6.5 -66l-1 -10q-4 -33 -20.5 -62.5t-51 -52.5t-88.5 -36.5t-132 -13.5h-28q-65 0 -125 6.5t-117 18.5l20 139q64 -14 133 -21.5t134 -7.5z" />
    <glyph glyph-name="afii10103" unicode="&#x456;" horiz-adv-x="300" 
d="M140 500l-70 -500h160l60 430l-110 70h-40zM155 675q5 31 25.5 53t70.5 22h8q50 0 65.5 -22t10.5 -53l-2 -12q-5 -31 -25.5 -53t-70.5 -22h-8q-50 0 -65.5 22t-10.5 53z" />
    <glyph glyph-name="afii10104" unicode="&#x457;" horiz-adv-x="320" 
d="M150 500l-70 -500h160l60 430l-110 70h-40zM102 655q3 23 17.5 39t46.5 16h8q32 0 41.5 -16t6.5 -39l-2 -12q-3 -23 -17 -39t-46 -16h-8q-32 0 -42 16t-7 39zM282 655q3 23 17.5 39t46.5 16h8q32 0 41.5 -16t6.5 -39l-2 -12q-3 -23 -17 -39t-46 -16h-8q-32 0 -42 16
t-7 39z" />
    <glyph glyph-name="afii10105" unicode="&#x458;" horiz-adv-x="280" 
d="M130 500l-105 -750h160l96 680l-111 70h-40zM145 675q5 31 26 53t71 22h8q50 0 65 -22t10 -53l-2 -12q-5 -31 -25.5 -53t-70.5 -22h-8q-50 0 -65.5 22t-10.5 53z" />
    <glyph glyph-name="afii10106" unicode="&#x459;" horiz-adv-x="1112" 
d="M84 133q36 0 50.5 17.5t21.5 50.5l36 179q12 63 46.5 91.5t97.5 28.5h386l-23 -164q35 2 69.5 3t69.5 1h22q72 0 117.5 -12.5t70 -34.5t31.5 -51.5t3 -63.5l-4 -32q-5 -34 -20 -63.5t-46.5 -51.5t-80.5 -34.5t-121 -12.5h-22q-73 0 -148 4t-143 12h-6l50 356h-179
q-20 0 -24 -20l-30 -153q-9 -47 -24.5 -83.5t-40.5 -61t-61.5 -37t-88.5 -12.5q-20 0 -41 2t-37 7l19 138q11 -2 25 -2.5t25 -0.5zM825 212q-28 0 -67.5 -1.5t-77.5 -5.5l-12 -86q37 -4 76 -5.5t67 -1.5q37 0 59 4.5t34 12t15.5 18.5t3.5 24q0 8 -3.5 15.5t-14 13t-30 9
t-50.5 3.5z" />
    <glyph glyph-name="afii10107" unicode="&#x45a;" horiz-adv-x="1122" 
d="M737 500l-23 -164q34 2 67.5 3t66.5 1h22q72 0 117.5 -12.5t70 -34.5t31.5 -51.5t3 -63.5l-4 -32q-5 -34 -20 -63.5t-46.5 -51.5t-80.5 -34.5t-121 -12.5h-22q-73 0 -148 4t-143 12l25 180h-282l-25 -180h-160l70 500h160l-25 -180h282l25 180h160zM835 212
q-27 0 -64.5 -1.5t-74.5 -5.5l-12 -86q35 -4 72.5 -5.5t64.5 -1.5q37 0 59 4.5t34 12t15.5 18.5t3.5 24q0 8 -3.5 15.5t-14 13t-30 9t-50.5 3.5z" />
    <glyph glyph-name="afii10108" unicode="&#x45b;" horiz-adv-x="792" 
d="M276 750l110 -70l-6 -43h149l-9 -64h-149l-11 -76q74 23 160 23q84 0 136 -19.5t80 -53.5t34.5 -79.5t-0.5 -97.5l-38 -270h-159l35 250q3 24 4 47t-9 40t-36 27.5t-77 10.5q-42 0 -78.5 -5.5t-71.5 -16.5l-50 -353h-160l81 573h-105l9 64h105l16 113h40z" />
    <glyph glyph-name="afii10109" unicode="&#x45c;" horiz-adv-x="671" 
d="M492 0l-87 176h-160l-25 -176h-160l70 500l160 -1l-24 -175h160l136 176h154l-5 -40l-163 -210l104 -210l-6 -40h-154zM466 720h121l-5 -32l-144 -110h-72l4 32z" />
    <glyph glyph-name="afii10110" unicode="&#x45e;" horiz-adv-x="697" 
d="M625 -50q-8 -54 -29.5 -95t-61.5 -68.5t-99.5 -42t-143.5 -14.5q-25 0 -53 1.5t-56 5t-54 8t-47 10.5l21 150q21 -8 47 -13.5t53.5 -9t54.5 -5.5t50 -2q53 0 83.5 6.5t46.5 18.5t22 29.5t9 40.5l4 28q-60 -18 -129 -18q-84 0 -136.5 19.5t-80 53.5t-34.5 79.5t0 97.5
l38 270h160l-35 -250q-3 -24 -4 -47t9 -40t36 -27.5t77 -10.5q64 0 119 16l50 359h160zM597 705l-3 -22q-3 -23 -12.5 -44t-28.5 -37t-48.5 -25t-72.5 -9h-8q-43 0 -70 9t-41 25t-18 37t-1 44l3 22h90l-3 -22q-2 -14 8 -24.5t43 -10.5h8q33 0 46 10.5t15 24.5l3 22h90z" />
    <glyph glyph-name="afii10193" unicode="&#x45f;" horiz-adv-x="712" 
d="M251 -180l25 180h-211l70 500h160l-50 -360h262l50 360h160l-70 -500h-211l-15 -110l-130 -70h-40z" />
    <glyph glyph-name="afii10146" unicode="&#x462;" horiz-adv-x="915" 
d="M279 670l12 80h180l-12 -80h261l-22 -160h-261l-14 -100q50 8 101.5 9t105.5 1h28q78 0 127 -16t75.5 -43t33.5 -63.5t2 -77.5l-5 -40q-5 -41 -23.5 -77.5t-55 -63.5t-94 -43t-141.5 -16h-28q-91 0 -185 5t-179 15l72 510h-160l22 160h160zM580 260q-47 0 -89 -1.5
t-90 -7.5l-15 -102q24 -2 50 -4t50.5 -3t46 -1.5t37.5 -0.5q58 0 91 4.5t49.5 14t20.5 23t4 31.5q0 10 -5 18.5t-21.5 15t-47 10t-81.5 3.5z" />
    <glyph glyph-name="afii10194" unicode="&#x463;" horiz-adv-x="734" 
d="M200 501l15 109h40l110 -70l-5 -39h149l-9 -64h-149l-14 -100q66 3 132 3h22q72 0 118 -12.5t71 -34.5t32 -51.5t2 -63.5l-5 -32q-5 -34 -20.5 -63.5t-46.5 -51.5t-80 -34.5t-121 -12.5h-22q-73 0 -147.5 4t-141.5 12l45 323l-1 1h1l16 113h-105l9 64h105zM456 212
q-27 0 -64.5 -1.5t-73.5 -5.5l-12 -86q35 -4 72 -5.5t64 -1.5q37 0 59 4.5t34 12t15.5 18.5t3.5 24q0 8 -3.5 15.5t-14 13t-29.5 9t-51 3.5z" />
    <glyph glyph-name="afii10148" unicode="&#x474;" horiz-adv-x="816" 
d="M891 670l-6 -40l-387 -630h-180l-209 630l6 40h162l154 -510l298 510h162z" />
    <glyph glyph-name="afii10196" unicode="&#x475;" horiz-adv-x="629" 
d="M226 500l112 -330l207 330h140l-6 -40l-294 -460h-141l-164 460l6 40h140z" />
    <glyph glyph-name="afii10050" unicode="&#x490;" horiz-adv-x="696" 
d="M670 850l111 -70l-38 -270h-421l-72 -510h-180l94 670h441l25 180h40z" />
    <glyph glyph-name="afii10098" unicode="&#x491;" horiz-adv-x="532" 
d="M481 670l110 -70l-33 -240h-282l-51 -360h-160l70 500h282l24 170h40z" />
    <glyph glyph-name="afii10846" unicode="&#x4d9;" horiz-adv-x="709" 
d="M436 520q84 0 136.5 -19.5t80.5 -53.5t35 -79.5t-1 -97.5l-6 -40q-8 -52 -27.5 -97.5t-57 -79.5t-95 -53.5t-141.5 -19.5h-28q-86 0 -138 13t-80 34.5t-34.5 50.5t-0.5 62l2 10q5 30 16.5 57t42.5 47.5t86.5 33t149.5 12.5q88 0 151 -19q2 21 -1.5 38.5t-18 30t-43.5 19
t-79 6.5q-24 0 -53.5 -2t-61.5 -5.5t-63.5 -9.5t-58.5 -13l21 150q27 6 58.5 10.5t64 8t64.5 5t61 1.5h19zM348 105q39 0 66.5 4.5t46.5 13.5t30 22t17 30q-28 8 -61.5 11.5t-76.5 3.5q-44 0 -69.5 -3.5t-39 -9.5t-17.5 -14t-4 -17q0 -7 3.5 -14t15 -13t33 -10t56.5 -4z" />
    <glyph glyph-name="endash" unicode="&#x2013;" horiz-adv-x="571" 
d="M551 360v-140h-451v140h451z" />
    <glyph glyph-name="emdash" unicode="&#x2014;" horiz-adv-x="771" 
d="M751 360v-140h-651v140h651z" />
    <glyph glyph-name="quoteleft" unicode="&#x2018;" horiz-adv-x="320" 
d="M330 596q-53 0 -79.5 -21t-39.5 -53q19 8 43 8q25 0 41 -7.5t25 -20.5t11.5 -30.5t-0.5 -36.5l-6 -42q-5 -39 -31 -67t-88 -28h-8q-31 0 -50.5 7.5t-30 20t-13 30t0.5 37.5l6 42q6 46 18 88.5t37 75t66.5 52t107.5 19.5l-10 -74v0z" />
    <glyph glyph-name="quoteright" unicode="&#x2019;" horiz-adv-x="320" 
d="M126 372q53 0 79.5 20.5t40.5 53.5q-17 -8 -43 -8q-25 0 -41.5 7.5t-25.5 20.5t-11.5 30t0.5 37l6 42q5 39 31 67t88 28h8q31 0 50.5 -7.5t30 -20t13 -30t-0.5 -37.5l-6 -42q-6 -46 -18 -88.5t-37 -75t-66.5 -52t-107.5 -19.5l10 74v0z" />
    <glyph glyph-name="quotesinglbase" unicode="&#x201a;" horiz-adv-x="320" 
d="M62 -86q53 0 80 21t40 53q-21 -8 -43 -8q-25 0 -41.5 7.5t-25.5 20.5t-11.5 30t0.5 37l6 42q5 39 31 67t88 28h8q31 0 50.5 -7.5t30 -20t13 -30t-0.5 -37.5l-6 -42q-6 -46 -18 -88.5t-37 -75t-66.5 -52t-107.5 -19.5l10 74v0z" />
    <glyph glyph-name="quotedblleft" unicode="&#x201c;" horiz-adv-x="590" 
d="M600 596q-53 0 -79.5 -21t-39.5 -53q19 8 43 8q25 0 41 -7.5t25 -20.5t11.5 -30.5t-0.5 -36.5l-6 -42q-5 -39 -31 -67t-88 -28h-8q-31 0 -50.5 7.5t-30 20t-13 30t0.5 37.5l6 42q6 46 18 88.5t37 75t66.5 52t107.5 19.5zM330 596q-53 0 -79.5 -21t-39.5 -53q19 8 43 8
q25 0 41 -7.5t25 -20.5t11.5 -30.5t-0.5 -36.5l-6 -42q-5 -39 -31 -67t-88 -28h-8q-31 0 -50.5 7.5t-30 20t-13 30t0.5 37.5l6 42q6 46 18 88.5t37 75t66.5 52t107.5 19.5z" />
    <glyph glyph-name="quotedblright" unicode="&#x201d;" horiz-adv-x="590" 
d="M126 372q53 0 79.5 20.5t40.5 53.5q-17 -8 -43 -8q-25 0 -41.5 7.5t-25.5 20.5t-11.5 30t0.5 37l6 42q5 39 31 67t88 28h8q31 0 50.5 -7.5t30 -20t13 -30t-0.5 -37.5l-6 -42q-6 -46 -18 -88.5t-37 -75t-66.5 -52t-107.5 -19.5zM396 372q53 0 79.5 20.5t40.5 53.5
q-17 -8 -43 -8q-25 0 -41.5 7.5t-25.5 20.5t-11.5 30t0.5 37l6 42q5 39 31 67t88 28h8q31 0 50.5 -7.5t30 -20t13 -30t-0.5 -37.5l-6 -42q-6 -46 -18 -88.5t-37 -75t-66.5 -52t-107.5 -19.5z" />
    <glyph glyph-name="quotedblbase" unicode="&#x201e;" horiz-adv-x="590" 
d="M62 -86q53 0 80 21t40 53q-21 -8 -43 -8q-25 0 -41.5 7.5t-25.5 20.5t-11.5 30t0.5 37l6 42q5 39 31 67t88 28h8q31 0 50.5 -7.5t30 -20t13 -30t-0.5 -37.5l-6 -42q-6 -46 -18 -88.5t-37 -75t-66.5 -52t-107.5 -19.5zM332 -86q53 0 80 21t40 53q-21 -8 -43 -8
q-25 0 -41.5 7.5t-25.5 20.5t-11.5 30t0.5 37l6 42q5 39 31 67t88 28h8q31 0 50.5 -7.5t30 -20t13 -30t-0.5 -37.5l-6 -42q-6 -46 -18 -88.5t-37 -75t-66.5 -52t-107.5 -19.5z" />
    <glyph glyph-name="bullet" unicode="&#x2022;" horiz-adv-x="382" 
d="M110 338q0 22 5.5 41t18.5 33t35.5 22t57.5 8h8q34 0 57 -8t36 -22.5t18.5 -33.5t5.5 -40v-14q0 -21 -5.5 -40t-18.5 -33.5t-36 -22.5t-57 -8h-8q-35 0 -57.5 8t-35.5 22t-18.5 33t-5.5 41v14z" />
    <glyph glyph-name="ellipsis" unicode="&#x2026;" horiz-adv-x="1040" 
d="M82 87q5 39 31 67t88 28h8q31 0 50.5 -7.5t30 -20.5t13 -30.5t-0.5 -36.5l-2 -12q-5 -39 -31 -67t-88 -28h-8q-31 0 -50.5 7.5t-30 20.5t-13 30t0.5 37zM422 87q5 39 31 67t88 28h8q31 0 50.5 -7.5t30 -20.5t13 -30.5t-0.5 -36.5l-2 -12q-5 -39 -31 -67t-88 -28h-8
q-31 0 -50.5 7.5t-30 20.5t-13 30t0.5 37zM762 87q5 39 31 67t88 28h8q31 0 50.5 -7.5t30 -20.5t13 -30.5t-0.5 -36.5l-2 -12q-5 -39 -31 -67t-88 -28h-8q-31 0 -50.5 7.5t-30 20.5t-13 30t0.5 37z" />
    <glyph glyph-name="perthousand" unicode="&#x2030;" horiz-adv-x="971" 
d="M141 0h90l394 670h-90zM128 558q4 25 12.5 47.5t24.5 39t40.5 26t60.5 9.5h14q36 0 58 -9.5t33.5 -26t14 -39t-1.5 -47.5l-3 -20q-4 -26 -12.5 -48t-24.5 -38.5t-40.5 -26t-60.5 -9.5h-14q-36 0 -58 9.5t-33.5 26t-14 39t1.5 47.5zM383 131q4 25 12.5 47.5t24.5 39
t40.5 26t60.5 9.5h14q36 0 58 -9.5t33.5 -26t14 -39t-1.5 -47.5l-3 -20q-4 -26 -12.5 -48t-24.5 -38.5t-40.5 -26t-60.5 -9.5h-14q-36 0 -58 9.5t-33.5 26t-14 39t1.5 47.5zM683 131q4 25 12.5 47.5t24.5 39t40.5 26t60.5 9.5h14q36 0 58 -9.5t33.5 -26t14 -39t-1.5 -47.5
l-3 -20q-4 -26 -12.5 -48t-24.5 -38.5t-40.5 -26t-60.5 -9.5h-14q-36 0 -58 9.5t-33.5 26t-14 39t1.5 47.5z" />
    <glyph glyph-name="guilsinglleft" unicode="&#x2039;" horiz-adv-x="412" 
d="M291 500h141l-4 -32l-199 -218l138 -218l-5 -32h-141l-138 234l4 32z" />
    <glyph glyph-name="guilsinglright" unicode="&#x203a;" horiz-adv-x="412" 
d="M399 266l-4 -32l-204 -234h-141l4 32l199 218l-137 218l4 32h141z" />
    <glyph glyph-name="Euro" unicode="&#x20ac;" horiz-adv-x="841" 
d="M196 450q16 52 46 96t76.5 76t112 50t153.5 18h36q68 0 131 -8.5t123 -24.5l-23 -163q-33 10 -68 17t-68.5 11.5t-65 6.5t-56.5 2q-48 0 -83 -5.5t-59.5 -16t-40 -25.5t-25.5 -34h279l-13 -90h-570l13 90h102zM643 300l-13 -90h-275q12 -34 52.5 -53t130.5 -19
q51 0 123.5 9t144.5 29l-23 -164q-64 -15 -129 -23.5t-133 -8.5h-36q-86 0 -146 17t-97.5 48t-56 73t-21.5 92h-104l13 90h570z" />
    <glyph glyph-name="uni20B4" unicode="&#x20b4;" horiz-adv-x="912" 
d="M925 300l-13 -90h-570q1 -45 41 -58.5t121 -13.5q65 0 139.5 7.5t162.5 30.5l-23 -164q-69 -15 -139.5 -23.5t-142.5 -8.5h-36q-81 0 -144.5 17t-104.5 47.5t-58.5 72.5t-6.5 93h-91l13 90h852zM654 450q0 38 -44 59.5t-129 21.5q-24 0 -57 -2t-70 -6.5t-76.5 -11.5
t-77.5 -17l23 163q69 16 139.5 24.5t142.5 8.5h36q78 0 138 -18.5t98.5 -51t54.5 -76.5t6 -94h107l-13 -90h-851l13 90h560z" />
    <glyph glyph-name="uni20BD" unicode="&#x20bd;" horiz-adv-x="850" 
d="M150 210l8 60h-95l13 90h95l43 310q88 10 183 15t186 5h28q84 0 137 -16.5t82 -45t36.5 -67t1.5 -81.5l-6 -40q-5 -35 -22 -66t-50.5 -54t-86.5 -36.5t-131 -13.5h-234l-8 -60h318l-13 -90h-318l-17 -120h-180l17 120h-95l13 90h95zM557 530q-14 0 -35 -0.5t-46 -1.5
t-51.5 -3t-51.5 -4l-19 -141h178q50 0 80 5.5t46.5 16.5t21.5 27.5t5 38.5q0 13 -5 24.5t-18.5 20t-39 13t-65.5 4.5z" />
    <glyph glyph-name="afii61352" unicode="&#x2116;" horiz-adv-x="1269" 
d="M439 670l291 -430l50 360l130 70h383l-22 -160h-323l-72 -510h-180l-291 430l-50 -361l-130 -69h-200l22 160h140l72 510h180zM988 317q4 25 12.5 47.5t24.5 39t40.5 26t60.5 9.5h14q36 0 58 -9.5t33.5 -26t14 -39t-1.5 -47.5l-3 -20q-4 -26 -12.5 -48t-24.5 -38.5
t-40.5 -26t-60.5 -9.5h-14q-36 0 -58 9.5t-33.5 26t-14 39t1.5 47.5z" />
    <glyph glyph-name="trademark" unicode="&#x2122;" horiz-adv-x="834" 
d="M632 408l-66 127l-28 -195h-90l47 335h90l84 -162l130 162h90l-47 -335h-90l28 195l-102 -127h-46zM193 340l36 255h-130l11 80h350l-11 -80h-130l-36 -255h-90z" />
    <glyph glyph-name="three.alt" unicode="&#xe033;" horiz-adv-x="685" 
d="M334 -20q-127 0 -237 32l23 165q64 -19 120 -28t121 -9q50 0 80 5t45.5 14.5t20 22t4.5 27.5q0 9 -6 16.5t-25.5 13t-56 8.5t-98.5 3h-18l23 160h18q64 0 100.5 5t54.5 14t22.5 22.5t4.5 30.5q0 9 -4 18t-16.5 15.5t-35.5 10.5t-60 4q-62 0 -115.5 -10t-113.5 -28l24 165
q53 16 108.5 24.5t112.5 8.5h23q78 0 127.5 -15t76.5 -41t34.5 -60.5t1.5 -73.5l-3 -20q-4 -24 -13.5 -46t-26.5 -41t-43.5 -33.5t-63.5 -23.5q40 -10 66.5 -25t40.5 -34t18 -41t1 -46l-3 -20q-6 -39 -24 -74t-54 -60.5t-93 -40.5t-141 -15h-20z" />
    </font>
</defs>
</svg>
