<?xml version="1.0" standalone="no"?>
<!DOCTYPE svg PUBLIC "-//W3C//DTD SVG 1.1//EN" "http://www.w3.org/Graphics/SVG/1.1/DTD/svg11.dtd" >
<svg>
<metadata>
Created by FontForge 20120731 at Mon Dec 22 10:26:29 2014
 By Orthosie Webhosting
Copyright (c) 2005-2012 by Jovanny Lemonad
</metadata>
<defs>
<font id="Scada-Italic" horiz-adv-x="510" >
  <font-face 
    font-family="Scada"
    font-weight="400"
    font-style="italic"
    font-stretch="normal"
    units-per-em="1000"
    panose-1="2 0 5 3 5 0 0 9 0 4"
    ascent="800"
    descent="-200"
    x-height="500"
    cap-height="700"
    bbox="-144 -275 1314 930"
    underline-thickness="50"
    underline-position="-50"
    slope="-10"
    unicode-range="U+0020-2122"
  />
<missing-glyph horiz-adv-x="270" 
 />
    <glyph glyph-name=".notdef" horiz-adv-x="270" 
 />
    <glyph glyph-name=".null" horiz-adv-x="0" 
 />
    <glyph glyph-name="nonmarkingreturn" horiz-adv-x="333" 
 />
    <glyph glyph-name="space" unicode=" " horiz-adv-x="290" 
 />
    <glyph glyph-name="exclam" unicode="!" horiz-adv-x="290" 
d="M183 700h120l-112 -520h-80zM68 50q5 26 25 43t46 17t40 -17t9 -43t-24.5 -43t-45.5 -17t-40.5 17t-9.5 43z" />
    <glyph glyph-name="quotedbl" unicode="&#x22;" horiz-adv-x="340" 
d="M138 700h105l-62 -240h-65zM293 700h105l-62 -240h-65z" />
    <glyph glyph-name="numbersign" unicode="#" horiz-adv-x="660" 
d="M365 520h140l73 180h100l-73 -180h101l-12 -70h-117l-81 -200h103l-13 -70h-119l-72 -180h-100l72 180h-140l-72 -180h-100l72 180h-101l13 70h117l81 200h-103l12 70h119l73 180h100zM256 250h140l81 200h-140z" />
    <glyph glyph-name="dollar" unicode="$" horiz-adv-x="495" 
d="M163 -7q-38 4 -66 12.5t-47 17.5q-22 11 -38 22l46 60h10q16 -13 37 -23q18 -8 44.5 -15t60.5 -7q68 0 110 33.5t51 86.5q7 40 -12.5 65.5t-52.5 45t-72 37t-70.5 42t-49.5 60t-8 90.5q12 69 60 117.5t122 65.5l12 67h105l-11 -62q38 -4 65.5 -12.5t45.5 -17.5
q21 -11 35 -23l-46 -60h-10q-13 12 -32 22q-17 8 -41.5 15.5t-58.5 7.5q-28 0 -52.5 -9t-43.5 -24t-31.5 -35t-16.5 -42q-7 -40 12.5 -65.5t52.5 -45t72 -37t70.5 -42t49.5 -60t8 -90.5q-14 -78 -66 -129.5t-138 -65.5l-12 -65h-105z" />
    <glyph glyph-name="percent" unicode="%" horiz-adv-x="800" 
d="M678 700h110l-593 -700h-110zM279 650q-30 0 -54.5 -26t-36.5 -94q-6 -34 -4.5 -57t8 -37t18.5 -20t27 -6q30 0 54.5 26t36.5 94q12 67 -3.5 93.5t-45.5 26.5zM290 710q72 0 107.5 -46.5t20.5 -133.5t-67.5 -133.5t-124.5 -46.5t-107.5 46.5t-20.5 133.5t67.5 133.5
t124.5 46.5zM636 290q-30 0 -55 -26t-37 -94q-6 -34 -4.5 -57t8.5 -37t18.5 -20t26.5 -6t29 6t26 20t21 37t15 57q12 67 -3 93.5t-45 26.5zM646 350q71 0 107.5 -47t20.5 -133q-15 -87 -67 -133.5t-124 -46.5t-108 46.5t-21 133.5q16 87 68 133.5t124 46.5z" />
    <glyph glyph-name="ampersand" unicode="&#x26;" horiz-adv-x="615" 
d="M36 180q6 34 23 62.5t42 52.5t54.5 45t61.5 40q-20 24 -34 51q-12 23 -20 54t-2 65q13 72 67 116t137 44q39 0 68.5 -11.5t48 -31.5t25.5 -47.5t1 -59.5q-8 -42 -34.5 -76t-56.5 -60q-35 -30 -77 -54l118 -180q16 26 26 59t17 71h90q-10 -57 -33 -105t-56 -90l83 -125
h-120l-40 60q-48 -34 -101.5 -52t-110.5 -18q-49 0 -85.5 14t-59 39.5t-31 60.5t-1.5 76zM245 60q42 0 77.5 12t66.5 38l-134 205q-47 -30 -79 -61.5t-40 -73.5q-9 -53 20 -86.5t89 -33.5zM261 550q-4 -21 2.5 -41t14.5 -37q10 -19 23 -37q27 16 49 36q19 17 36 40t22 49
q8 42 -8.5 63.5t-46.5 21.5q-34 0 -58.5 -23t-33.5 -72z" />
    <glyph glyph-name="quotesingle" unicode="'" horiz-adv-x="185" 
d="M138 700h105l-62 -240h-65z" />
    <glyph glyph-name="parenleft" unicode="(" horiz-adv-x="285" 
d="M79 280q11 64 34.5 127t57.5 121.5t79 111t99 95.5l33 -40q-75 -87 -127.5 -187t-75.5 -228q-11 -64 -12 -120.5t7 -107.5t23.5 -97.5t38.5 -89.5l-47 -40q-39 43 -65.5 95.5t-40 111t-14.5 121.5t10 127z" />
    <glyph glyph-name="parenright" unicode=")" horiz-adv-x="285" 
d="M254 280q-11 -64 -34.5 -127t-57.5 -121.5t-79 -111t-99 -95.5l-32 40q75 87 127 187t75 228q22 127 5 228t-62 187l47 40q39 -43 65.5 -95.5t40 -111t14.5 -121.5t-10 -127z" />
    <glyph glyph-name="asterisk" unicode="*" horiz-adv-x="410" 
d="M152 640l95 -60l21 120h70l-21 -120l115 60l25 -60l-116 -60l95 -60l-46 -60l-94 60l-22 -120h-70l22 120l-116 -60l-24 60l115 60l-94 60z" />
    <glyph glyph-name="plus" unicode="+" horiz-adv-x="470" 
d="M221 290h-165l14 80h165l29 165h80l-29 -165h165l-14 -80h-165l-29 -165h-80z" />
    <glyph glyph-name="comma" unicode="," horiz-adv-x="200" 
d="M23 50q5 26 24 43t42 17q30 0 44 -18t9 -52q-8 -44 -28 -75.5t-40 -52.5q-24 -25 -52 -42l-24 35q17 12 32 26q12 12 23.5 27t14.5 32q-23 0 -36.5 17t-8.5 43z" />
    <glyph glyph-name="hyphen" unicode="-" horiz-adv-x="440" 
d="M56 290l14 80h380l-14 -80h-380z" />
    <glyph glyph-name="period" unicode="." horiz-adv-x="200" 
d="M23 50q5 26 25 43t46 17t40 -17t9 -43t-24.5 -43t-45.5 -17t-40.5 17t-9.5 43z" />
    <glyph glyph-name="slash" unicode="/" horiz-adv-x="410" 
d="M408 700h100l-433 -700h-100z" />
    <glyph glyph-name="zero" unicode="0" horiz-adv-x="580" 
d="M461 350q15 86 14.5 142t-13 89t-35 46t-50.5 13t-55 -13t-51 -46t-44.5 -89t-35.5 -142t-14.5 -142t13 -89t35 -46t50.5 -13t55 13t51 46t44.5 89t35.5 142zM91 350q17 97 47 165.5t69 112t85.5 63t97.5 19.5t90.5 -19.5t63 -63t29 -112t-11.5 -165.5q-17 -98 -47 -166
t-69 -111.5t-85 -63t-97 -19.5t-90.5 19.5t-63.5 63t-29.5 111.5t11.5 166z" />
    <glyph glyph-name="one" unicode="1" horiz-adv-x="390" 
d="M239 590l-112 -65l-30 55l171 120h90l-111 -630h110l-12 -70h-320l12 70h110z" />
    <glyph glyph-name="two" unicode="2" horiz-adv-x="500" 
d="M521 520q-9 -50 -40.5 -93t-74.5 -81.5t-91 -73t-90 -68t-72 -66.5t-36 -68h325l-12 -70h-425l12 70q9 50 40.5 91.5t74 78.5t90.5 71t90 68.5t72.5 71t38.5 79.5q8 45 -22 77.5t-94 32.5q-34 0 -61 -7.5t-47 -15.5q-23 -10 -40 -22h-10l-24 60q23 15 54 27
q26 11 64 19.5t87 8.5q54 0 93.5 -14t63.5 -39.5t32.5 -60.5t1.5 -76z" />
    <glyph glyph-name="three" unicode="3" horiz-adv-x="500" 
d="M128 700h410l-12 -70l-264 -220q124 0 174.5 -56.5t33.5 -153.5q-17 -98 -88 -154t-199 -56q-49 0 -84 8t-58 19q-26 12 -44 28l46 60h10q13 -13 32 -23q17 -8 41.5 -15t58.5 -7q83 0 128 36t57 104t-20.5 104t-115.5 36h-105l13 70l264 220h-290z" />
    <glyph glyph-name="four" unicode="4" horiz-adv-x="540" 
d="M537 240l-13 -70h-80l-29 -170h-100l29 170h-330l13 70l411 460h100l-81 -460h80zM137 240h220l46 260q2 9 4.5 21t6.5 23q4 12 9 26h-4q-9 -14 -18 -26q-8 -11 -16.5 -23t-16.5 -21z" />
    <glyph glyph-name="five" unicode="5" horiz-adv-x="505" 
d="M158 700h379l-12 -70h-279l-36 -200h65q121 0 170.5 -57t31.5 -163q-19 -106 -89 -163t-195 -57q-49 0 -84 8t-58 19q-26 12 -44 28l46 60h10q13 -13 32 -23q17 -8 41.5 -15t58.5 -7q155 0 182 150q13 75 -18.5 112.5t-110.5 37.5h-120l-25 30z" />
    <glyph glyph-name="six" unicode="6" horiz-adv-x="535" 
d="M102 410q28 157 103.5 228.5t184.5 71.5q43 0 75 -8.5t53 -19.5q25 -12 42 -27l-46 -60h-10q-12 12 -30 22q-15 8 -37 15.5t-50 7.5q-32 0 -60.5 -12t-52.5 -39t-42.5 -71t-29.5 -108q17 11 38 20q18 8 43.5 14t55.5 6q98 0 144 -57t27 -163q-21 -121 -88 -180.5
t-168 -59.5q-110 0 -157.5 59.5t-26.5 180.5zM307 380q-26 0 -47.5 -6t-37.5 -14q-18 -9 -33 -20l-19 -110q-16 -90 11.5 -130t83.5 -40q49 0 89 40t56 130q14 75 -14.5 112.5t-88.5 37.5z" />
    <glyph glyph-name="seven" unicode="7" horiz-adv-x="440" 
d="M130 90q15 86 45 166t67.5 149t80 126.5t83.5 98.5h-320l12 70h430l-12 -70q-41 -41 -85 -98.5t-83.5 -126.5t-71 -149t-46.5 -166l-15 -90h-100z" />
    <glyph glyph-name="eight" unicode="8" horiz-adv-x="560" 
d="M313 330q-30 -11 -58 -24.5t-50.5 -31.5t-38 -41t-20.5 -53q-9 -53 21 -86.5t98 -33.5t110 33.5t51 86.5q5 30 -2 53t-23 41t-39 31.5t-49 24.5zM327 410q24 7 45.5 18t39 26t30 35t17.5 46q4 21 -1.5 40t-18 33.5t-31.5 23t-41 8.5q-23 0 -44 -8.5t-38.5 -23
t-29.5 -33.5t-16 -40q-5 -26 0 -46t17.5 -35t31 -26t39.5 -18zM139 535q6 36 26.5 67.5t52 55.5t72.5 38t90 14t85.5 -14t59.5 -38t31.5 -55.5t2.5 -67.5q-9 -49 -34 -80.5t-52 -50.5q-32 -22 -68 -34q41 -12 71 -37q13 -11 24 -25t18.5 -33t10 -42.5t-2.5 -52.5
q-6 -38 -28.5 -72t-58 -60.5t-83 -42t-103.5 -15.5t-98 15.5t-68 42t-36.5 60.5t-4.5 72q11 58 41.5 95t63.5 58q39 25 84 37q-33 12 -57 34q-20 19 -34 50.5t-5 80.5z" />
    <glyph glyph-name="nine" unicode="9" horiz-adv-x="535" 
d="M506 290q-14 -79 -40.5 -135.5t-63 -93t-83.5 -54t-101 -17.5q-44 0 -76 8t-53 19q-25 12 -42 28l46 60h10q12 -13 30 -23q15 -8 36.5 -15t50.5 -7q32 0 61 12t53 39t42.5 71t29.5 108q-18 -11 -39 -20q-18 -8 -43 -14t-55 -6q-98 0 -144 57t-28 163q22 121 89 180.5
t168 59.5q110 0 157.5 -59.5t25.5 -180.5zM301 320q26 0 47.5 6t37.5 14q18 9 32 20l19 110q8 45 5 77t-16 53t-34.5 30.5t-49.5 9.5q-24 0 -47 -9.5t-42 -30.5t-33.5 -53t-22.5 -77q-13 -75 15.5 -112.5t88.5 -37.5z" />
    <glyph glyph-name="colon" unicode=":" horiz-adv-x="200" 
d="M23 50q5 26 25 43t46 17t40 -17t9 -43t-24.5 -43t-45.5 -17t-40.5 17t-9.5 43zM94 450q5 26 24.5 43t45.5 17t40.5 -17t9.5 -43t-25 -43t-46 -17t-40 17t-9 43z" />
    <glyph glyph-name="semicolon" unicode=";" horiz-adv-x="200" 
d="M94 450q5 26 24.5 43t45.5 17t40.5 -17t9.5 -43t-25 -43t-46 -17t-40 17t-9 43zM23 50q5 26 24 43t42 17q30 0 44 -18t9 -52q-8 -44 -28 -75.5t-40 -52.5q-24 -25 -52 -42l-24 35q17 12 32 26q12 12 23.5 27t14.5 32q-23 0 -36.5 17t-8.5 43z" />
    <glyph glyph-name="less" unicode="&#x3c;" horiz-adv-x="470" 
d="M493 500l-17 -95l-307 -155l252 -155l-16 -95l-353 215l13 70z" />
    <glyph glyph-name="equal" unicode="=" horiz-adv-x="470" 
d="M45 200l14 80h400l-14 -80h-400zM77 380l14 80h400l-14 -80h-400z" />
    <glyph glyph-name="greater" unicode="&#x3e;" horiz-adv-x="445" 
d="M450 285l-13 -70l-427 -215l16 95l308 155l-253 155l17 95z" />
    <glyph glyph-name="question" unicode="?" horiz-adv-x="460" 
d="M104 50q5 26 25 43t46 17t40 -17t9 -43t-24.5 -43t-45.5 -17t-40.5 17t-9.5 43zM232 180h-90l7 40q8 42 26.5 72t43 53t52 41.5t51.5 38.5t42 45t24 60q8 45 -22 77.5t-94 32.5q-34 0 -61 -7.5t-47 -15.5q-23 -10 -40 -22h-10l-24 60q23 15 54 27q26 11 64 19.5t87 8.5
q54 0 93.5 -14t63.5 -39.5t32.5 -60.5t1.5 -76q-7 -43 -27 -72.5t-45.5 -52t-53.5 -40.5t-53 -37t-43.5 -42.5t-24.5 -55.5z" />
    <glyph glyph-name="at" unicode="@" horiz-adv-x="930" 
d="M596 405q-9 15 -21 27q-11 11 -25.5 19.5t-33.5 8.5q-21 0 -40.5 -9t-36.5 -28.5t-30.5 -51t-21.5 -76.5t-6 -76.5t12 -51t26.5 -28.5t37.5 -9q19 0 36.5 7t31.5 15q16 10 30 23zM408 -120q-86 0 -155.5 32t-114.5 88t-63.5 133t-2.5 167t61.5 167t111.5 133t148.5 88
t172.5 32t161.5 -32t118 -88t64.5 -133t2 -167q-11 -62 -33 -108t-52 -76.5t-65.5 -45.5t-72.5 -15q-38 0 -62 8t-38 19q-17 12 -25 28h-5q-18 -16 -40 -28q-19 -11 -44.5 -19t-55.5 -8q-38 0 -67.5 14.5t-47.5 44t-23 74.5t6 107t32 107t49.5 74.5t63 44t72.5 14.5
q32 0 54.5 -10.5t36.5 -22.5q17 -14 27 -32h5l20 55h70l-68 -385q6 -6 12 -10q5 -4 12.5 -7t17.5 -3q17 0 36.5 9t37.5 30t33 55.5t24 85.5q14 79 0.5 143.5t-49.5 110.5t-92 71t-127 25t-136 -25t-117.5 -71t-88.5 -110.5t-50 -143.5t-0.5 -143.5t49.5 -110.5t92.5 -71
t127.5 -25q38 0 68 7t53 15q26 10 47 23h10l24 -60q-26 -16 -60 -28q-29 -11 -70.5 -19t-94.5 -8z" />
    <glyph glyph-name="A" unicode="A" horiz-adv-x="570" 
d="M430 0l-24 180h-230l-86 -180h-100l328 700h130l82 -700h-100zM209 250h190l-32 275q-2 11 -2 23.5v23.5q0 12 1 23h-4q-3 -12 -7 -24q-4 -11 -8.5 -23t-9.5 -23z" />
    <glyph glyph-name="B" unicode="B" horiz-adv-x="575" 
d="M425 370q38 -9 64 -32q11 -10 21 -23.5t17 -31.5t9 -41t-3 -52q-15 -86 -83 -138t-195 -52h-190l123 700h190q54 0 93 -13.5t62.5 -36.5t32 -55.5t1.5 -69.5q-9 -49 -32 -79t-48 -47q-29 -20 -62 -29zM235 400h90q57 0 94 31t46 84q10 53 -16 84t-83 31h-90zM223 330
l-46 -260h90q75 0 116 33t52 97t-18 97t-104 33h-90z" />
    <glyph glyph-name="C" unicode="C" horiz-adv-x="515" 
d="M91 350q17 97 47 165.5t70.5 112t90.5 63t106 19.5q42 0 72.5 -8.5t51.5 -19.5q24 -12 41 -27l-46 -60h-10q-13 12 -30 22q-14 8 -35 15.5t-47 7.5q-34 0 -65.5 -14.5t-59 -48t-49.5 -89.5t-37 -138q-15 -83 -12 -138.5t19.5 -89t45 -48t66.5 -14.5q26 0 49.5 7t40.5 15
q20 10 38 23h10l24 -60q-23 -16 -51 -28q-24 -11 -57.5 -19t-75.5 -8q-60 0 -105 19.5t-71 63t-32 111.5t11 166z" />
    <glyph glyph-name="D" unicode="D" horiz-adv-x="585" 
d="M65 0l123 700h150q71 0 122 -19.5t80 -61.5t35.5 -108.5t-9.5 -160.5q-17 -94 -47 -160.5t-74 -108.5t-101.5 -61.5t-128.5 -19.5h-150zM227 70q45 0 83 14t68 47t52 86.5t36 132.5t10.5 132.5t-22 86.5t-51 47t-77.5 14h-50l-99 -560h50z" />
    <glyph glyph-name="E" unicode="E" 
d="M65 0l123 700h390l-12 -70h-290l-41 -230h230l-12 -70h-230l-46 -260h290l-12 -70h-390z" />
    <glyph glyph-name="F" unicode="F" horiz-adv-x="500" 
d="M65 0l123 700h390l-12 -70h-290l-43 -240h230l-12 -70h-230l-56 -320h-100z" />
    <glyph glyph-name="G" unicode="G" horiz-adv-x="565" 
d="M482 45q-24 -16 -54 -28q-26 -11 -61.5 -19t-78.5 -8q-56 0 -100 21t-71 65t-35 112t9 162q16 94 47.5 162t73.5 112t91 65t102 21q42 0 72.5 -8.5t51.5 -19.5q24 -12 41 -27l-46 -60h-10q-13 12 -30 22q-14 8 -35 15.5t-47 7.5q-34 0 -65.5 -14.5t-59 -48t-49.5 -89.5
t-37 -138q-15 -83 -12 -138.5t19.5 -89t45 -48t66.5 -14.5q15 0 29 3.5t25.5 7t18 6.5l6.5 3l40 230h-115l13 70h185l24 -30z" />
    <glyph glyph-name="H" unicode="H" horiz-adv-x="630" 
d="M638 700l-123 -700h-100l56 320h-250l-56 -320h-100l123 700h100l-55 -310h250l55 310h100z" />
    <glyph glyph-name="I" unicode="I" horiz-adv-x="280" 
d="M188 700h100l-123 -700h-100z" />
    <glyph glyph-name="J" unicode="J" horiz-adv-x="425" 
d="M110 60q57 0 91.5 31t46.5 99l90 510h100l-90 -510q-17 -98 -77.5 -149t-162.5 -51q-30 0 -53.5 7t-40.5 15q-19 10 -33 23l41 65h10q10 -11 22 -20q11 -8 25 -14t31 -6z" />
    <glyph glyph-name="K" unicode="K" horiz-adv-x="555" 
d="M515 0h-115l-174 350l-61 -350h-100l123 700h100l-58 -330l283 330h115l-290 -340z" />
    <glyph glyph-name="L" unicode="L" horiz-adv-x="490" 
d="M288 700l-111 -630h290l-12 -70h-390l123 700h100z" />
    <glyph glyph-name="M" unicode="M" horiz-adv-x="840" 
d="M423 275q5 -14 7 -31q1 -10 2 -19h4q5 9 9 19q4 8 8.5 16.5t9.5 14.5l285 425h100l-123 -700h-100l74 420q2 11 5 25.5t6 28.5q4 15 8 31h-4q-7 -16 -15 -31q-7 -14 -14.5 -28.5t-15.5 -25.5l-202 -295h-100l-98 295q-4 11 -6.5 25.5t-4.5 28.5q-3 15 -4 31h-4
q-2 -16 -4 -31q-2 -14 -3.5 -28.5t-3.5 -25.5l-74 -420h-100l123 700h100z" />
    <glyph glyph-name="N" unicode="N" horiz-adv-x="630" 
d="M273 445q-4 11 -6.5 25.5t-4.5 28.5q-3 15 -4 31h-4q-2 -16 -4 -31q-2 -14 -3.5 -28.5t-3.5 -25.5l-78 -445h-100l123 700h110l131 -445q3 -11 6 -26t5 -28q3 -16 4 -31h4q2 15 4 31q2 13 3.5 28t3.5 26l79 445h100l-123 -700h-110z" />
    <glyph glyph-name="O" unicode="O" horiz-adv-x="600" 
d="M191 350q-15 -83 -12.5 -138.5t16.5 -89t38 -48t52 -14.5t56.5 14.5t55 48t48 89t36.5 138.5q15 82 12.5 138t-17 89.5t-38 48t-51.5 14.5t-56.5 -14.5t-55 -48t-48 -89.5t-36.5 -138zM581 350q-17 -98 -47 -166t-70 -111.5t-88.5 -63t-102.5 -19.5t-96 19.5t-66.5 63
t-30.5 111.5t11 166q17 97 47 165.5t70 112t89 63t103 19.5t95.5 -19.5t66.5 -63t30.5 -112t-11.5 -165.5z" />
    <glyph glyph-name="P" unicode="P" horiz-adv-x="565" 
d="M299 310q75 0 119.5 38.5t58.5 121.5q15 83 -15.5 121.5t-105.5 38.5h-80l-57 -320h80zM207 240l-42 -240h-100l123 700h180q128 0 178.5 -58.5t30.5 -171.5t-91 -171.5t-199 -58.5h-80z" />
    <glyph glyph-name="Q" unicode="Q" horiz-adv-x="600" 
d="M581 350q-15 -86 -40.5 -149.5t-59 -106.5t-73.5 -67.5t-84 -31.5q-8 -42 6.5 -61t44.5 -19q13 0 25 5q5 2 11 5h10l9 -65l-24 -8q-11 -3 -25 -5t-29 -2q-72 0 -106 41t-22 109q-42 7 -73.5 31.5t-50 67.5t-21.5 106.5t12 149.5q17 97 47 165.5t70 112t89 63t103 19.5
t95.5 -19.5t66.5 -63t30.5 -112t-11.5 -165.5zM191 350q-15 -83 -12.5 -138.5t16.5 -89t38 -48t52 -14.5t56.5 14.5t55 48t48 89t36.5 138.5q15 82 12.5 138t-17 89.5t-38 48t-51.5 14.5t-56.5 -14.5t-55 -48t-48 -89.5t-36.5 -138z" />
    <glyph glyph-name="R" unicode="R" horiz-adv-x="575" 
d="M210 260l-45 -260h-100l123 700h170q128 0 179 -57t32 -163q-27 -160 -173 -205l119 -275h-115l-110 260h-80zM293 330q150 0 176 150q27 150 -123 150h-70l-53 -300h70z" />
    <glyph glyph-name="S" unicode="S" horiz-adv-x="505" 
d="M355 710q49 0 83.5 -8.5t57.5 -19.5q26 -12 44 -27l-46 -60h-10q-13 12 -32 22q-17 8 -41.5 15.5t-58.5 7.5q-26 0 -49.5 -9t-42 -24t-31 -35t-16.5 -42q-7 -40 12.5 -65.5t52.5 -45t72 -37t70.5 -42t49.5 -60t8 -90.5q-8 -45 -29 -82t-55 -63t-79.5 -40.5t-101.5 -14.5
q-49 0 -85.5 8t-61.5 19q-29 12 -49 28l46 60h10q16 -13 37 -23q18 -8 44.5 -15t60.5 -7q68 0 110 33.5t51 86.5q7 40 -12.5 65.5t-52.5 45t-72 37t-70.5 42t-49.5 60t-8 90.5q7 41 28 76t52.5 60.5t73 39.5t90.5 14z" />
    <glyph glyph-name="T" unicode="T" horiz-adv-x="480" 
d="M165 0l111 630h-180l12 70h460l-12 -70h-180l-111 -630h-100z" />
    <glyph glyph-name="U" unicode="U" horiz-adv-x="620" 
d="M295 60q57 0 98 38.5t55 121.5l85 480h100l-85 -480q-20 -113 -88 -171.5t-177 -58.5t-157 58.5t-28 171.5l85 480h100l-85 -480q-14 -83 13 -121.5t84 -38.5z" />
    <glyph glyph-name="V" unicode="V" horiz-adv-x="550" 
d="M270 105l8 24q4 11 8 23t9 23l238 525h100l-318 -700h-130l-72 700h100l52 -525q1 -11 1.5 -23t0.5 -23q0 -12 -1 -24h4z" />
    <glyph glyph-name="W" unicode="W" horiz-adv-x="860" 
d="M617 210q0 -11 -0.5 -25t-1.5 -26q-1 -14 -2 -29h4q4 15 8 29q4 12 8 26t9 25l201 490h100l-288 -700h-120l-29 490q-2 25 0 51q0 14 1 29h-4q-5 -15 -9 -29q-4 -12 -8.5 -26t-9.5 -25l-201 -490h-120l-42 700h100l29 -490q0 -11 -0.5 -25t-1.5 -26q-1 -14 -3 -29h4
q4 15 8 29q4 12 8.5 26t9.5 25l201 490h120z" />
    <glyph glyph-name="X" unicode="X" horiz-adv-x="530" 
d="M303 475q2 -7 3.5 -14.5t3.5 -14.5q2 -8 3 -16h4l8 16q4 7 8.5 14.5t9.5 14.5l155 225h110l-241 -345l123 -355h-110l-79 235q-2 6 -3.5 14t-3.5 15q-2 8 -3 16h-4q-5 -8 -9 -16q-4 -7 -8 -15t-9 -14l-161 -235h-110l247 355l-119 345h110z" />
    <glyph glyph-name="Y" unicode="Y" horiz-adv-x="530" 
d="M523 700h105l-298 -470l-40 -230h-100l40 230l-132 470h105l86 -305l4 -20t3 -19q1 -11 1 -21h4q4 10 8 21q8 20 20 39z" />
    <glyph glyph-name="Z" unicode="Z" horiz-adv-x="485" 
d="M0 0l13 75l408 555h-310l12 70h430l-13 -75l-408 -555h315l-12 -70h-435z" />
    <glyph glyph-name="bracketleft" unicode="[" horiz-adv-x="310" 
d="M235 -170h-200l158 900h200l-12 -70h-100l-134 -760h100z" />
    <glyph glyph-name="backslash" unicode="\" horiz-adv-x="410" 
d="M385 0h-100l-187 700h100z" />
    <glyph glyph-name="bracketright" unicode="]" horiz-adv-x="310" 
d="M-23 -100h100l134 760h-100l12 70h200l-158 -900h-199z" />
    <glyph glyph-name="asciicircum" unicode="^" horiz-adv-x="430" 
d="M351 720l131 -280h-100l-83 180l-147 -180h-100l229 280h70z" />
    <glyph glyph-name="underscore" unicode="_" horiz-adv-x="380" 
d="M-47 -130l14 80h379l-14 -80h-379z" />
    <glyph glyph-name="grave" unicode="`" horiz-adv-x="175" 
d="M218 700l18 -150h-65l-63 150h110z" />
    <glyph glyph-name="a" unicode="a" 
d="M371 320q11 60 -12 90t-72 30q-23 0 -44 -7.5t-38 -15.5q-19 -10 -36 -22h-10l-24 60q22 15 49 27q23 11 55 19.5t70 8.5q43 0 76.5 -14t55 -39.5t29.5 -60.5t1 -76l-56 -320h-70v60h-5q-17 -20 -41 -35q-20 -14 -49 -24.5t-67 -10.5q-79 0 -115 41.5t-23 113.5
q6 34 23 61.5t46 47t72 30.5t101 11h80zM354 225h-80q-60 0 -91.5 -23t-37.5 -57q-7 -38 12 -59t64 -21q23 0 43 9.5t37 20.5q18 13 36 30z" />
    <glyph glyph-name="b" unicode="b" horiz-adv-x="535" 
d="M172 125q10 -17 24 -30q12 -11 29.5 -20.5t40.5 -9.5q21 0 41.5 10t39 32t33.5 57t24 86q9 52 6.5 88.5t-14 59t-31 32.5t-43.5 10q-21 0 -38.5 -3t-31.5 -7q-16 -4 -28 -10zM273 700l-39 -220q17 8 35 15q16 5 36.5 10t43.5 5q43 0 77 -16t55 -48.5t27.5 -81
t-4.5 -114.5q-12 -66 -35 -114.5t-54 -81t-66 -48.5t-71 -16q-38 0 -63 10.5t-41 24.5q-18 15 -29 35h-5l-20 -60h-70l118 670l35 30h70z" />
    <glyph glyph-name="c" unicode="c" horiz-adv-x="455" 
d="M322 440q-26 0 -50 -10t-44 -32.5t-35 -59t-24 -88.5q-9 -53 -6.5 -89t15 -58.5t35 -32.5t52.5 -10q23 0 43.5 7t37.5 15q19 10 37 23h10l24 -60q-23 -16 -50 -28q-23 -11 -54.5 -19t-69.5 -8q-102 0 -149.5 64t-24.5 196t92 196t163 64q38 0 66.5 -8.5t48.5 -19.5
q23 -12 41 -27l-46 -60h-10q-13 12 -29 22q-14 8 -32 15.5t-41 7.5z" />
    <glyph glyph-name="d" unicode="d" horiz-adv-x="535" 
d="M409 420q-11 6 -25 10q-12 4 -29.5 7t-37.5 3q-24 0 -47 -10t-42.5 -32.5t-34.5 -59t-24 -88.5q-9 -51 -6.5 -86t13 -57t27.5 -32t38 -10q23 0 43 9.5t37 20.5q18 13 36 30zM488 700h70l-123 -700h-70v60h-5q-17 -20 -41 -35q-20 -14 -49 -24.5t-67 -10.5q-36 0 -65.5 16
t-48.5 48.5t-25.5 81t5.5 114.5q11 66 34.5 114.5t56 81t72 48.5t82.5 16q23 0 42 -5t33 -10q17 -7 30 -15l34 190z" />
    <glyph glyph-name="e" unicode="e" horiz-adv-x="505" 
d="M319 510q45 0 80 -16t56.5 -48.5t28 -81t-4.5 -114.5l-3 -15l-24 -20h-290q-14 -79 14.5 -117t88.5 -38q23 0 43.5 7t37.5 15q19 10 37 23h10l24 -60q-23 -16 -50 -28q-23 -11 -54.5 -19t-69.5 -8q-102 0 -149.5 64t-24.5 196q11 66 34.5 114.5t56.5 81t73.5 48.5
t85.5 16zM307 440q-45 0 -81.5 -36.5t-50.5 -118.5h210q14 83 -9.5 119t-68.5 36z" />
    <glyph glyph-name="f" unicode="f" horiz-adv-x="340" 
d="M347 640q-34 0 -58.5 -22.5t-32.5 -67.5l-8 -50h135l-13 -70h-135l-75 -430h-100l75 430h-65l13 70h65l8 50q6 36 23 65.5t42.5 50.5t58 32.5t70.5 11.5q32 0 57 -8.5t42 -19.5q20 -12 36 -27l-46 -60h-10q-11 12 -24 22q-11 8 -26 15.5t-32 7.5z" />
    <glyph glyph-name="g" unicode="g" horiz-adv-x="535" 
d="M401 375q-11 17 -25 30q-12 11 -29.5 20.5t-40.5 9.5q-21 0 -41.5 -10t-39 -32t-33 -57t-23.5 -86q-9 -53 -7 -89t13.5 -58.5t31 -32.5t43.5 -10q20 0 38 3t32 7q16 4 29 10zM433 -10q-8 -45 -29 -82t-53.5 -63t-75 -40.5t-93.5 -14.5q-38 0 -66.5 8t-48.5 19
q-23 12 -40 28l46 60h10q12 -13 28 -23q14 -8 32.5 -15t41.5 -7q64 0 100 31t48 99l5 30q-17 -9 -35 -15q-16 -6 -36.5 -10.5t-43.5 -4.5q-43 0 -77 16t-55 48.5t-27.5 81t5.5 114.5q11 66 34.5 114.5t54 81t65.5 48.5t71 16q38 0 63 -11t41 -24q18 -16 29 -35h5l21 60h70z
" />
    <glyph glyph-name="h" unicode="h" horiz-adv-x="545" 
d="M273 700l-42 -240q16 14 37 25q18 9 43.5 17t57.5 8q37 0 66.5 -12.5t48 -35t25.5 -54t0 -68.5l-59 -340h-100l59 340q8 42 -14 68.5t-64 26.5q-23 0 -43.5 -9.5t-36.5 -20.5q-18 -13 -35 -30l-66 -375h-100l118 670l35 30h70z" />
    <glyph glyph-name="i" unicode="i" horiz-adv-x="250" 
d="M238 500l-88 -500h-100l88 500h100zM272 640q-5 -26 -24.5 -43t-45.5 -17t-40.5 17t-9.5 43t25 43t46 17t40 -17t9 -43z" />
    <glyph glyph-name="j" unicode="j" horiz-adv-x="250" 
d="M272 640q-5 -26 -24.5 -43t-45.5 -17t-40.5 17t-9.5 43t25 43t46 17t40 -17t9 -43zM-47 -130q33 0 57 22.5t32 67.5l96 540h100l-96 -540q-6 -36 -23 -65.5t-42 -50.5t-57.5 -32.5t-69.5 -11.5q-23 0 -40.5 4.5t-29.5 10.5q-14 6 -24 15l36 65h10q6 -8 14 -13
q7 -5 16.5 -8.5t20.5 -3.5z" />
    <glyph glyph-name="k" unicode="k" horiz-adv-x="480" 
d="M273 700l-76 -430l211 230h115l-223 -240l145 -260h-115l-136 250l-44 -250h-100l118 670l35 30h70z" />
    <glyph glyph-name="l" unicode="l" horiz-adv-x="250" 
d="M168 670l35 30h70l-123 -700h-100z" />
    <glyph glyph-name="m" unicode="m" horiz-adv-x="805" 
d="M477 440q21 19 47 35q22 13 51.5 24t63.5 11t61 -12.5t44.5 -35t24.5 -54t0 -68.5l-59 -340h-100l59 340q7 41 -13.5 68t-54.5 27q-19 0 -37.5 -8t-33.5 -17q-18 -11 -33 -25l-67 -385h-100l59 340q7 41 -13.5 68t-54.5 27q-19 0 -37.5 -9.5t-33.5 -20.5q-18 -13 -34 -30
l-66 -375h-100l88 500h70l-1 -60h5q19 19 42 35q20 13 46.5 24t58.5 11q35 0 58 -11t37 -24q16 -16 23 -35z" />
    <glyph glyph-name="n" unicode="n" horiz-adv-x="545" 
d="M331 435q-23 0 -43.5 -9.5t-36.5 -20.5q-18 -13 -35 -30l-66 -375h-100l88 500h70l-1 -60h5q17 19 41 35q20 13 49 24t67 11q37 0 66.5 -12.5t48 -35t25.5 -54t0 -68.5l-59 -340h-100l59 340q8 42 -14 68.5t-64 26.5z" />
    <glyph glyph-name="o" unicode="o" horiz-adv-x="530" 
d="M499 250q-12 -66 -36 -114.5t-57.5 -81t-76 -48.5t-91.5 -16q-98 0 -145 64.5t-24 195.5q23 132 92.5 196t167.5 64q49 0 85.5 -16t59 -48.5t29.5 -81t-4 -114.5zM399 250q9 52 6.5 88.5t-14 59t-31 32.5t-43.5 10t-47 -10t-42.5 -32.5t-34.5 -59t-24 -88.5
q-9 -53 -7 -89t13.5 -58.5t31 -32.5t43.5 -10t47 10t42.5 32.5t35 58.5t24.5 89z" />
    <glyph glyph-name="p" unicode="p" horiz-adv-x="535" 
d="M164 80q11 -6 25 -10q12 -4 28.5 -7t37.5 -3q24 0 47 10t42.5 32.5t35 58.5t24.5 89q9 51 6 86t-13.5 57t-27.5 32t-38 10q-23 0 -43.5 -9.5t-36.5 -20.5q-18 -13 -35 -30zM84 -200h-70l124 700h70l-1 -60h5q17 19 41 35q20 13 49 24t67 11q36 0 65.5 -16t49 -48.5
t25.5 -81t-5 -114.5q-12 -66 -35.5 -114.5t-56 -81t-72 -48.5t-82.5 -16q-23 0 -42 4.5t-33 10.5q-17 6 -30 15l-33 -190z" />
    <glyph glyph-name="q" unicode="q" horiz-adv-x="535" 
d="M401 375q-11 17 -25 30q-12 11 -29.5 20.5t-40.5 9.5q-21 0 -41.5 -10t-39 -32t-33 -57t-23.5 -86q-9 -53 -7 -89t13.5 -58.5t31 -32.5t43.5 -10q20 0 38 3t32 7q16 4 29 10zM305 -170l33 190q-17 -9 -35 -15q-16 -6 -36.5 -10.5t-43.5 -4.5q-43 0 -77 16t-55 48.5
t-27.5 81t5.5 114.5q11 66 34.5 114.5t54 81t65.5 48.5t71 16q38 0 63 -11t41 -24q18 -16 29 -35h5l21 60h70l-124 -700h-70z" />
    <glyph glyph-name="r" unicode="r" horiz-adv-x="365" 
d="M325 430q-21 0 -40.5 -9.5t-35.5 -20.5q-18 -13 -34 -30l-65 -370h-100l88 500h70l-1 -60h5q17 19 40 35q20 13 48 24t64 11q13 0 24.5 -1.5t20.5 -3.5q11 -3 19 -5l-29 -80h-10q-10 2 -21 5q-9 2 -20.5 3.5t-22.5 1.5z" />
    <glyph glyph-name="s" unicode="s" horiz-adv-x="460" 
d="M193 -10q-45 0 -78 8t-55 19q-26 12 -43 28l46 60h10q13 -13 31 -23q15 -8 38 -15t53 -7q64 0 93 20t34 50q5 27 -13 43.5t-46.5 28.5t-63 23t-62.5 28t-44.5 43t-8.5 69q11 64 64 104.5t151 40.5q42 0 72.5 -8.5t51.5 -19.5q25 -12 42 -27l-46 -60h-10q-13 12 -30 22
q-14 8 -35 15.5t-47 7.5q-53 0 -79.5 -19.5t-31.5 -45.5q-5 -27 13 -43.5t46.5 -28.5t63 -23t62.5 -28t44 -43.5t9 -68.5q-12 -68 -67 -109t-164 -41z" />
    <glyph glyph-name="t" unicode="t" horiz-adv-x="400" 
d="M196 150q-8 -45 8.5 -67.5t50.5 -22.5q17 0 33.5 6t29.5 14q15 9 29 20h10l25 -60q-21 -14 -45 -25q-20 -10 -47 -17.5t-57 -7.5q-38 0 -66 11.5t-46 32.5t-24.5 50.5t-0.5 65.5l49 280h-75l11 60l153 130h45l-21 -120h125l-13 -70h-125z" />
    <glyph glyph-name="u" unicode="u" horiz-adv-x="550" 
d="M256 65q23 0 43 9.5t37 20.5q18 13 36 30l66 375h100l-88 -500h-70v60h-5q-17 -20 -41 -35q-20 -14 -49 -24.5t-67 -10.5t-67 12.5t-47.5 35t-25.5 53.5t0 69l60 340h100l-60 -340q-8 -42 14 -68.5t64 -26.5z" />
    <glyph glyph-name="v" unicode="v" horiz-adv-x="470" 
d="M150 0l-72 500h100l46 -330q2 -11 2 -23v-23q0 -12 -1 -24h4q3 12 7 24q3 11 7.5 23t10.5 23l164 330h100l-248 -500h-120z" />
    <glyph glyph-name="w" unicode="w" horiz-adv-x="710" 
d="M478 500l26 -305q1 -11 1.5 -23t-0.5 -21q-1 -11 -2 -21h4q2 10 6 21l7 21t9 23l134 305h95l-218 -500h-110l-30 315q-2 9 -2 21v23q0 12 1 26h-4q-4 -14 -8 -26q-4 -11 -8.5 -23t-8.5 -21l-140 -315h-110l-42 500h95l26 -305q2 -24 0 -44q-1 -11 -2 -21h4q3 10 7 21
l7 21t9 23l134 305h120z" />
    <glyph glyph-name="x" unicode="x" horiz-adv-x="460" 
d="M235 185l-8 -14q-4 -6 -8 -13t-9 -13l-110 -145h-110l199 255l-106 245h110l55 -140q4 -12 8 -26q2 -7 3 -14h4l8 14q4 6 8 13t9 13l105 140h110l-194 -245l111 -255h-110l-60 145q-3 6 -4.5 13t-3.5 13q-2 7 -3 14h-4z" />
    <glyph glyph-name="y" unicode="y" horiz-adv-x="475" 
d="M75 -140q26 0 49.5 20t37.5 50l33 70h-40l-77 500h100l51 -330q2 -11 3 -25t2 -26q1 -14 2 -29h4q6 15 12 29q5 12 10.5 26t10.5 25l150 330h100l-261 -570q-27 -60 -76.5 -100t-113.5 -40q-23 0 -40.5 4.5t-29.5 10.5q-14 6 -24 15l36 65h10q6 -8 14 -13q7 -5 16.5 -8.5
t20.5 -3.5z" />
    <glyph glyph-name="z" unicode="z" horiz-adv-x="440" 
d="M10 0l13 75l307 355h-245l13 70h365l-14 -75l-307 -355h250l-12 -70h-370z" />
    <glyph glyph-name="braceleft" unicode="{" horiz-adv-x="325" 
d="M70 315q38 0 60 21t32 74l32 180q11 60 60.5 100t128.5 40h35l-12 -70h-35q-30 0 -51 -18t-26 -52l-32 -180q-8 -45 -25 -71t-34 -39q-20 -16 -44 -20q21 -5 36 -20q13 -14 21 -39.5t0 -70.5l-32 -180q-6 -34 8.5 -52t44.5 -18h35l-12 -70h-35q-39 0 -68 10.5t-47 29.5
t-24.5 44.5t-1.5 55.5l32 180q9 53 -5.5 74t-52.5 21z" />
    <glyph glyph-name="bar" unicode="|" horiz-adv-x="280" 
d="M288 700l-159 -900h-100l159 900h100z" />
    <glyph glyph-name="braceright" unicode="}" horiz-adv-x="325" 
d="M303 245q-38 0 -60.5 -21t-31.5 -74l-32 -180q-11 -60 -60.5 -100t-128.5 -40h-34l12 70h34q30 0 50.5 18t26.5 52l32 180q8 45 25 70.5t34 39.5q20 15 44 20q-21 4 -36 20q-13 13 -21 39t0 71l32 180q5 34 -9 52t-44 18h-35l12 70h35q79 0 115 -40t26 -100l-32 -180
q-10 -53 5 -74t53 -21z" />
    <glyph glyph-name="asciitilde" unicode="~" horiz-adv-x="490" 
d="M189 310q-17 0 -32 -8.5t-26 -19t-17 -19l-6 -8.5h-9l-46 50q9 17 24 34t34.5 30.5t43.5 22t50 8.5q30 0 50 -10t37 -22.5t33 -22.5t39 -10q17 0 31.5 8.5t25.5 19t17 19l6 8.5h9l46 -50q-8 -17 -23 -34t-34.5 -30.5t-43.5 -22t-50 -8.5q-30 0 -50 10t-37 22.5
t-33.5 22.5t-38.5 10z" />
    <glyph glyph-name="uni00A0" unicode="&#xa0;" horiz-adv-x="290" 
 />
    <glyph glyph-name="exclamdown" unicode="&#xa1;" horiz-adv-x="290" 
d="M136 320h80l-72 -520h-120zM139 450q5 26 24.5 43t45.5 17t40.5 -17t9.5 -43t-25 -43t-46 -17t-40 17t-9 43z" />
    <glyph glyph-name="cent" unicode="&#xa2;" horiz-adv-x="455" 
d="M383 560l-9 -55q26 -5 45 -13.5t33 -16.5q16 -10 28 -20l-46 -60h-10q-13 12 -29 22q-14 8 -32 15.5t-41 7.5q-26 0 -50 -10t-44 -32.5t-35 -59t-24 -88.5q-9 -53 -6.5 -89t15 -58.5t35 -32.5t52.5 -10q23 0 43.5 7t37.5 15q19 10 37 23h10l24 -60q-17 -11 -38 -22
q-18 -9 -42.5 -17.5t-53.5 -12.5l-11 -63h-100l12 67q-72 17 -103.5 79t-11.5 174q20 113 74.5 176t130.5 79l9 55h100z" />
    <glyph glyph-name="sterling" unicode="&#xa3;" horiz-adv-x="475" 
d="M375 710q42 0 71 -8.5t48 -19.5q22 -12 36 -27l-46 -60h-10q-10 12 -25 22q-13 8 -32 15.5t-45 7.5q-34 0 -64 -27.5t-38 -72.5l-25 -140h135l-12 -70h-135l-14 -80q-11 -57 -27.5 -91.5t-33.5 -54.5q-19 -23 -41 -34h335l-12 -70h-440l12 70q23 8 43 30q17 19 35 54.5
t29 95.5l14 80h-65l12 70h65l25 140q6 36 24.5 67t46.5 54t62 36t72 13z" />
    <glyph glyph-name="currency" unicode="&#xa4;" horiz-adv-x="575" 
d="M35 230h80l7 40h-80l11 60h80l65 370h180q128 0 179 -57t32 -163q-17 -98 -88 -154t-199 -56h-80l-7 -40h250l-11 -60h-250l-29 -170h-100l29 170h-80zM313 330q150 0 176 150q27 150 -123 150h-80l-53 -300h80z" />
    <glyph glyph-name="yen" unicode="&#xa5;" horiz-adv-x="530" 
d="M321 180l-31 -180h-100l31 180h-150l13 70h141l-16 55h-116l13 70h84l-92 325h105l86 -305l4 -20t3 -19q1 -11 1 -21h4q4 10 8 21q8 20 20 39l194 305h105l-206 -325h84l-13 -70h-116l-34 -55h141l-13 -70h-150z" />
    <glyph glyph-name="brokenbar" unicode="&#xa6;" horiz-adv-x="280" 
d="M29 -200l67 380h100l-67 -380h-100zM221 320h-100l67 380h100z" />
    <glyph glyph-name="section" unicode="&#xa7;" 
d="M177 -210q-45 0 -78 8t-55 19q-26 12 -42 28l46 60h10q13 -13 31 -23q15 -8 38 -15t53 -7q64 0 99 27.5t43 72.5q6 35 -13 56.5t-50.5 38t-69 31.5t-68 37.5t-47.5 55.5t-8 86q9 48 34.5 85.5t66.5 60.5q-25 20 -38 49.5t-5 74.5q14 79 74.5 127t166.5 48q42 0 72.5 -8.5
t51.5 -19.5q24 -12 41 -27l-46 -60h-10q-13 12 -30 22q-14 8 -35 15.5t-47 7.5q-60 0 -94.5 -26.5t-41.5 -68.5q-6 -35 13 -56.5t50.5 -38t69 -31.5t68 -37.5t47.5 -56t8 -85.5q-18 -101 -99 -148q24 -20 36.5 -49t4.5 -73q-14 -83 -76 -131.5t-171 -48.5zM249 365
q-32 -11 -54 -35.5t-27 -54.5q-5 -28 5 -49t30 -37t46.5 -28t54.5 -21q32 11 54 35.5t27 54.5q5 28 -5 49t-30 37t-46.5 28t-54.5 21z" />
    <glyph glyph-name="dieresis" unicode="&#xa8;" horiz-adv-x="305" 
d="M204 620q-5 -24 -23 -39.5t-42 -15.5t-37 15.5t-8 39.5q4 24 22.5 39.5t42.5 15.5t36.5 -15.5t8.5 -39.5zM379 620q-5 -24 -23 -39.5t-42 -15.5t-37 15.5t-8 39.5q4 24 22.5 39.5t42.5 15.5t36.5 -15.5t8.5 -39.5z" />
    <glyph glyph-name="copyright" unicode="&#xa9;" horiz-adv-x="860" 
d="M533 730q86 0 153 -28.5t109.5 -79t59 -120.5t1.5 -152q-15 -83 -55.5 -152.5t-101 -120t-137.5 -79t-163 -28.5t-153 28.5t-109.5 79t-59 120t-1.5 152.5q15 82 55.5 152t101 120.5t137.5 79t163 28.5zM521 660q-64 0 -123 -23t-106.5 -64.5t-80.5 -98.5t-45 -124
q-12 -68 1 -124.5t46 -98t84 -64.5t115 -23t122.5 23t106 64.5t80.5 98t45 124.5q12 67 -1 124t-46 98.5t-83.5 64.5t-114.5 23zM286 350q10 56 31 98.5t50.5 70.5t66 42t77.5 14q32 0 58 -8t43 -17q20 -11 35 -25l-39 -50h-9q-12 9 -26 17q-12 7 -28.5 12.5t-35.5 5.5
q-45 0 -81.5 -37t-51.5 -123t9.5 -123t77.5 -37q19 0 37.5 5t32.5 12q17 8 32 18h9l21 -50q-20 -14 -44 -25q-20 -10 -48.5 -17.5t-60.5 -7.5q-90 0 -133 56t-23 169z" />
    <glyph glyph-name="ordfeminine" unicode="&#xaa;" horiz-adv-x="360" 
d="M314 590q5 26 -10 43t-45 17q-19 0 -33.5 -5t-25.5 -10q-12 -7 -21 -15h-10l-18 45q16 12 37 22q17 8 42 15.5t55 7.5q68 0 98 -33.5t21 -86.5l-41 -230h-69l1 40h-5q-12 -14 -27 -25q-13 -10 -31 -17.5t-40 -7.5q-57 0 -83.5 30t-18.5 75q8 49 49.5 79.5t124.5 30.5h45z
M299 505h-45q-34 0 -52 -13.5t-22 -36.5q-4 -19 7.5 -32t34.5 -13q13 0 25 4.5t21 10.5q11 6 19 15z" />
    <glyph glyph-name="guillemotleft" unicode="&#xab;" horiz-adv-x="475" 
d="M275 60l-75 -60l-171 250l259 250l54 -60l-193 -190zM446 465l55 -60l-157 -155l102 -155l-75 -60l-147 215z" />
    <glyph glyph-name="logicalnot" unicode="&#xac;" horiz-adv-x="460" 
d="M373 330h-310l14 80h400l-30 -170h-90z" />
    <glyph glyph-name="uni00AD" unicode="&#xad;" horiz-adv-x="440" 
d="M56 290l14 80h380l-14 -80h-380z" />
    <glyph glyph-name="registered" unicode="&#xae;" horiz-adv-x="860" 
d="M533 730q86 0 153 -28.5t109.5 -79t59 -120.5t1.5 -152q-15 -83 -55.5 -152.5t-101 -120t-137.5 -79t-163 -28.5t-153 28.5t-109.5 79t-59 120t-1.5 152.5q15 82 55.5 152t101 120.5t137.5 79t163 28.5zM521 660q-64 0 -123 -23t-106.5 -64.5t-80.5 -98.5t-45 -124
q-12 -68 1 -124.5t46 -98t84 -64.5t115 -23t122.5 23t106 64.5t80.5 98t45 124.5q12 67 -1 124t-46 98.5t-83.5 64.5t-114.5 23zM500 565q94 0 130 -38t25 -102q-8 -49 -40 -81.5t-72 -43.5l71 -165h-95l-63 150h-61l-27 -150h-90l76 430h146zM433 500l-27 -150h56
q49 0 73 18.5t30 56.5q7 38 -10 56.5t-66 18.5h-56z" />
    <glyph glyph-name="macron" unicode="&#xaf;" horiz-adv-x="310" 
d="M381 660l-12 -70h-270l12 70h270z" />
    <glyph glyph-name="degree" unicode="&#xb0;" horiz-adv-x="380" 
d="M430 540q-7 -38 -25 -69t-44.5 -53.5t-60 -35t-70.5 -12.5q-38 0 -67 12.5t-47.5 35t-25.5 53.5t0 69q6 37 24 68.5t44.5 54t60 35t71.5 12.5q37 0 66 -12.5t47.5 -35t25.5 -54t1 -68.5zM340 540q9 53 -9.5 79t-52.5 26t-61.5 -26t-36.5 -79q-10 -53 8.5 -79t52.5 -26
t61.5 26t37.5 79z" />
    <glyph glyph-name="plusminus" unicode="&#xb1;" horiz-adv-x="490" 
d="M31 95l14 80h165l24 135h-165l14 80h165l29 165h80l-29 -165h165l-14 -80h-165l-24 -135h165l-14 -80h-410z" />
    <glyph glyph-name="twosuperior" unicode="&#xb2;" horiz-adv-x="330" 
d="M374 595q-5 -29 -21 -49t-37.5 -34.5t-45.5 -25t-44.5 -20t-35 -20.5t-16.5 -26h170l-11 -60h-260l7 40q6 32 22.5 54.5t38 38.5t45.5 27t45 22t35.5 23t17.5 30q11 55 -47 55q-18 0 -32.5 -5t-24.5 -10q-12 -7 -21 -15h-10l-18 45q16 12 37 22q17 8 42 15.5t55 7.5
q60 0 89 -33t20 -82z" />
    <glyph glyph-name="threesuperior" unicode="&#xb3;" horiz-adv-x="321" 
d="M342 460q-4 -23 -17 -43t-33.5 -35t-48 -23.5t-61.5 -8.5q-30 0 -52.5 7t-36.5 15q-18 10 -29 23l34 45h10q6 -9 16 -15q8 -6 21.5 -10.5t32.5 -4.5q34 0 51.5 13.5t22.5 36.5q4 23 -10 36.5t-52 13.5h-66l9 50l134 80h-144l11 60h234l-12 -65l-121 -65q60 0 87.5 -30.5
t19.5 -79.5z" />
    <glyph glyph-name="acute" unicode="&#xb4;" horiz-adv-x="175" 
d="M263 700l-117 -150h-65l72 150h110z" />
    <glyph glyph-name="mu" unicode="&#xb5;" horiz-adv-x="550" 
d="M138 500h100l-60 -340q-8 -42 14 -68.5t64 -26.5q23 0 43 7.5t36 17.5q18 11 35 25l68 385h100l-88 -500h-70l-2 50h-5q-19 -17 -42 -30q-20 -11 -45 -20.5t-53 -9.5q-19 0 -33.5 4.5t-25.5 10.5q-12 6 -21 15l-33 -190l-36 -30h-70z" />
    <glyph glyph-name="paragraph" unicode="&#xb6;" horiz-adv-x="565" 
d="M251 290q-41 0 -74.5 16t-56 43.5t-32 65t-1.5 80.5q7 43 29.5 80.5t54.5 65t71.5 43.5t80.5 16h330l-12 -70h-80l-147 -830h-90l147 830h-70l-147 -830h-90z" />
    <glyph glyph-name="periodcentered" unicode="&#xb7;" horiz-adv-x="290" 
d="M121 350q5 26 25 43t46 17t40 -17t9 -43t-24.5 -43t-45.5 -17t-40.5 17t-9.5 43z" />
    <glyph glyph-name="cedilla" unicode="&#xb8;" horiz-adv-x="195" 
d="M64 -30q42 0 62 -23t14 -57t-35 -57t-74 -23q-19 0 -33 3t-23 7q-11 4 -19 10l22 40h9q-1 0 11 -7.5t31 -7.5t31.5 10t14.5 25q3 15 -6.5 25t-32.5 10h-40l17 95h60z" />
    <glyph glyph-name="onesuperior" unicode="&#xb9;" horiz-adv-x="325" 
d="M207 610l-66 -35l-22 45l109 80h85l-49 -280h75l-11 -60h-240l11 60h75z" />
    <glyph glyph-name="ordmasculine" unicode="&#xba;" horiz-adv-x="390" 
d="M284 650q-30 0 -54.5 -26t-36.5 -94q-6 -34 -4.5 -57t8 -37t18.5 -20t27 -6q30 0 54.5 26t36.5 94q12 67 -3.5 93.5t-45.5 26.5zM295 710q72 0 107.5 -46.5t20.5 -133.5t-67.5 -133.5t-124.5 -46.5t-107.5 46.5t-20.5 133.5t67.5 133.5t124.5 46.5z" />
    <glyph glyph-name="guillemotright" unicode="&#xbb;" horiz-adv-x="475" 
d="M364 250l-127 190l76 60l171 -250l-259 -250l-55 60zM289 250l-223 -215l-55 60l158 155l-103 155l75 60z" />
    <glyph glyph-name="onequarter" unicode="&#xbc;" horiz-adv-x="760" 
d="M673 700h110l-593 -700h-110zM207 610l-66 -35l-22 45l109 80h85l-49 -280h75l-11 -60h-240l11 60h75zM722 130l-10 -60h-50l-12 -70h-90l12 70h-170l10 60l207 210h90l-37 -210h50zM492 130h90l16 90q1 5 3.5 12.5t4.5 14.5l6 16h-4q-5 -9 -9 -17q-4 -7 -9 -14.5
t-9 -11.5z" />
    <glyph glyph-name="onehalf" unicode="&#xbd;" horiz-adv-x="750" 
d="M673 700h110l-593 -700h-110zM207 610l-66 -35l-22 45l109 80h85l-49 -280h75l-11 -60h-240l11 60h75zM731 235q-5 -29 -21 -49t-37.5 -34.5t-45.5 -25t-44.5 -20t-35 -20.5t-17.5 -26h170l-10 -60h-260l7 40q6 32 22 54.5t38 38.5t46 27t45 22t35.5 23t17.5 30
q9 55 -47 55q-18 0 -32.5 -5t-25.5 -10q-12 -7 -21 -15h-10l-18 45q16 12 37 22q17 8 42 15.5t55 7.5q60 0 89 -33t21 -82z" />
    <glyph glyph-name="threequarters" unicode="&#xbe;" horiz-adv-x="750" 
d="M663 700h110l-593 -700h-110zM712 130l-10 -60h-50l-12 -70h-90l12 70h-170l10 60l207 210h90l-37 -210h50zM482 130h90l16 90q1 5 3.5 12.5t4.5 14.5l6 16h-4q-5 -9 -9 -17q-4 -7 -9 -14.5t-9 -11.5zM357 460q-4 -23 -17 -43t-33.5 -35t-48 -23.5t-61.5 -8.5
q-30 0 -52.5 7t-36.5 15q-18 10 -29 23l34 45h10q6 -9 16 -15q8 -6 21.5 -10.5t32.5 -4.5q34 0 51.5 13.5t22.5 36.5q4 23 -10 36.5t-52 13.5h-66l9 50l134 80h-144l11 60h234l-12 -65l-121 -65q60 0 87.5 -30.5t19.5 -79.5z" />
    <glyph glyph-name="questiondown" unicode="&#xbf;" horiz-adv-x="460" 
d="M393 450q-5 -26 -25 -43t-46 -17t-40 17t-9 43t24.5 43t45.5 17t40.5 -17t9.5 -43zM265 320h90l-7 -40q-7 -42 -26 -72t-43.5 -53t-52 -41.5t-51.5 -38.5t-42 -45t-24 -60q-8 -45 22 -77.5t94 -32.5q34 0 61 7t47 15q23 10 40 23h10l24 -60q-23 -16 -54 -28
q-26 -11 -64 -19t-87 -8q-54 0 -93.5 14t-63.5 39.5t-32.5 60.5t-1.5 76q7 42 27 72t45.5 52.5t53.5 40.5t53 37t43.5 42t24.5 56z" />
    <glyph glyph-name="Agrave" unicode="&#xc0;" horiz-adv-x="570" 
d="M0 0zM430 0l-24 180h-230l-86 -180h-100l328 700h130l82 -700h-100zM209 250h190l-32 275q-2 11 -2 23.5v23.5q0 12 1 23h-4q-3 -12 -7 -24q-4 -11 -8.5 -23t-9.5 -23zM410 900l18 -150h-65l-63 150h110z" />
    <glyph glyph-name="Aacute" unicode="&#xc1;" horiz-adv-x="570" 
d="M0 0zM430 0l-24 180h-230l-86 -180h-100l328 700h130l82 -700h-100zM209 250h190l-32 275q-2 11 -2 23.5v23.5q0 12 1 23h-4q-3 -12 -7 -24q-4 -11 -8.5 -23t-9.5 -23zM525 900l-117 -150h-65l72 150h110z" />
    <glyph glyph-name="Acircumflex" unicode="&#xc2;" horiz-adv-x="570" 
d="M0 0zM430 0l-24 180h-230l-86 -180h-100l328 700h130l82 -700h-100zM209 250h190l-32 275q-2 11 -2 23.5v23.5q0 12 1 23h-4q-3 -12 -7 -24q-4 -11 -8.5 -23t-9.5 -23zM449 880l82 -130h-65l-63 65l-87 -65h-65l128 130h70z" />
    <glyph glyph-name="Atilde" unicode="&#xc3;" horiz-adv-x="570" 
d="M0 0zM430 0l-24 180h-230l-86 -180h-100l328 700h130l82 -700h-100zM209 250h190l-32 275q-2 11 -2 23.5v23.5q0 12 1 23h-4q-3 -12 -7 -24q-4 -11 -8.5 -23t-9.5 -23zM501 860l36 -25q-17 -34 -42 -59.5t-63 -25.5q-19 0 -30 7t-18.5 15.5t-15 15.5t-18.5 7t-21 -6.5
t-17 -14t-11 -13.5l-4 -6h-9l-36 25q17 34 42 59.5t63 25.5q19 0 30 -7t18.5 -15.5t15 -15.5t18.5 -7t21 6t17 13.5t11 14l4 6.5h9z" />
    <glyph glyph-name="Adieresis" unicode="&#xc4;" horiz-adv-x="570" 
d="M0 0zM430 0l-24 180h-230l-86 -180h-100l328 700h130l82 -700h-100zM209 250h190l-32 275q-2 11 -2 23.5v23.5q0 12 1 23h-4q-3 -12 -7 -24q-4 -11 -8.5 -23t-9.5 -23zM367 810q-5 -24 -23 -39.5t-42 -15.5t-37 15.5t-8 39.5q4 24 22.5 39.5t42.5 15.5t36.5 -15.5
t8.5 -39.5zM542 810q-5 -24 -23 -39.5t-42 -15.5t-37 15.5t-8 39.5q4 24 22.5 39.5t42.5 15.5t36.5 -15.5t8.5 -39.5z" />
    <glyph glyph-name="Aring" unicode="&#xc5;" horiz-adv-x="570" 
d="M0 0zM430 0l-24 180h-230l-86 -180h-100l328 700h130l82 -700h-100zM209 250h190l-32 275q-2 11 -2 23.5v23.5q0 12 1 23h-4q-3 -12 -7 -24q-4 -11 -8.5 -23t-9.5 -23zM414 880q-15 0 -29 -11t-19 -34q-4 -23 7 -34t26 -11t29 11t18 34q5 23 -6 34t-26 11zM423 930
q45 0 68 -26.5t15 -68.5q-7 -42 -39 -68.5t-77 -26.5t-68 26.5t-16 68.5q8 42 40 68.5t77 26.5z" />
    <glyph glyph-name="AE" unicode="&#xc6;" horiz-adv-x="815" 
d="M370 0l35 200h-230l-120 -200h-100l418 700h510l-12 -70h-290l-41 -230h230l-12 -70h-230l-46 -260h290l-12 -70h-390zM217 270h200l64 360h-50z" />
    <glyph glyph-name="Ccedilla" unicode="&#xc7;" horiz-adv-x="515" 
d="M74 0zM91 350q17 97 47 165.5t70.5 112t90.5 63t106 19.5q42 0 72.5 -8.5t51.5 -19.5q24 -12 41 -27l-46 -60h-10q-13 12 -30 22q-14 8 -35 15.5t-47 7.5q-34 0 -65.5 -14.5t-59 -48t-49.5 -89.5t-37 -138q-15 -83 -12 -138.5t19.5 -89t45 -48t66.5 -14.5q26 0 49.5 7
t40.5 15q20 10 38 23h10l24 -60q-23 -16 -51 -28q-24 -11 -57.5 -19t-75.5 -8q-60 0 -105 19.5t-71 63t-32 111.5t11 166zM284 -30q42 0 62 -23t14 -57t-35 -57t-74 -23q-19 0 -33 3t-23 7q-11 4 -19 10l22 40h9q-1 0 11 -7.5t31 -7.5t31.5 10t14.5 25q3 15 -6.5 25
t-32.5 10h-40l17 95h60z" />
    <glyph glyph-name="Egrave" unicode="&#xc8;" 
d="M65 0zM65 0l123 700h390l-12 -70h-290l-41 -230h230l-12 -70h-230l-46 -260h290l-12 -70h-390zM423 900l18 -150h-65l-63 150h110z" />
    <glyph glyph-name="Eacute" unicode="&#xc9;" 
d="M65 0zM65 0l123 700h390l-12 -70h-290l-41 -230h230l-12 -70h-230l-46 -260h290l-12 -70h-390zM518 900l-117 -150h-65l72 150h110z" />
    <glyph glyph-name="Ecircumflex" unicode="&#xca;" 
d="M65 0zM65 0l123 700h390l-12 -70h-290l-41 -230h230l-12 -70h-230l-46 -260h290l-12 -70h-390zM453 890l82 -130h-65l-63 65l-87 -65h-65l128 130h70z" />
    <glyph glyph-name="Edieresis" unicode="&#xcb;" 
d="M65 0zM65 0l123 700h390l-12 -70h-290l-41 -230h230l-12 -70h-230l-46 -260h290l-12 -70h-390zM371 820q-5 -24 -23 -39.5t-42 -15.5t-37 15.5t-8 39.5q4 24 22.5 39.5t42.5 15.5t36.5 -15.5t8.5 -39.5zM546 820q-5 -24 -23 -39.5t-42 -15.5t-37 15.5t-8 39.5
q4 24 22.5 39.5t42.5 15.5t36.5 -15.5t8.5 -39.5z" />
    <glyph glyph-name="Igrave" unicode="&#xcc;" horiz-adv-x="278" 
d="M64 0zM187 700h100l-123 -700h-100zM263 900l18 -150h-65l-63 150h110z" />
    <glyph glyph-name="Iacute" unicode="&#xcd;" horiz-adv-x="277" 
d="M65 0zM188 700h100l-123 -700h-100zM390 900l-117 -150h-65l72 150h110z" />
    <glyph glyph-name="Icircumflex" unicode="&#xce;" horiz-adv-x="270" 
d="M61 0zM184 700h100l-123 -700h-100zM301 890l82 -130h-65l-63 65l-87 -65h-65l128 130h70z" />
    <glyph glyph-name="Idieresis" unicode="&#xcf;" horiz-adv-x="260" 
d="M56 0zM179 700h100l-123 -700h-100zM214 820q-5 -24 -23 -39.5t-42 -15.5t-37 15.5t-8 39.5q4 24 22.5 39.5t42.5 15.5t36.5 -15.5t8.5 -39.5zM389 820q-5 -24 -23 -39.5t-42 -15.5t-37 15.5t-8 39.5q4 24 22.5 39.5t42.5 15.5t36.5 -15.5t8.5 -39.5z" />
    <glyph glyph-name="Eth" unicode="&#xd0;" horiz-adv-x="585" 
d="M65 0l56 320h-55l14 80h55l53 300h150q71 0 122 -19.5t80 -61.5t35.5 -108.5t-9.5 -160.5q-17 -94 -47 -160.5t-74 -108.5t-101.5 -61.5t-128.5 -19.5h-150zM227 70q45 0 83 14t68 47t52 86.5t36 132.5t10.5 132.5t-22 86.5t-51 47t-77.5 14h-50l-41 -230h115l-14 -80
h-115l-44 -250h50z" />
    <glyph glyph-name="Ntilde" unicode="&#xd1;" horiz-adv-x="630" 
d="M65 0zM273 445q-4 11 -6.5 25.5t-4.5 28.5q-3 15 -4 31h-4q-2 -16 -4 -31q-2 -14 -3.5 -28.5t-3.5 -25.5l-78 -445h-100l123 700h110l131 -445q3 -11 6 -26t5 -28q3 -16 4 -31h4q2 15 4 31q2 13 3.5 28t3.5 26l79 445h100l-123 -700h-110zM531 860l36 -25
q-17 -34 -42 -59.5t-63 -25.5q-19 0 -30 7t-18.5 15.5t-15 15.5t-18.5 7t-21 -6.5t-17 -14t-11 -13.5l-4 -6h-9l-36 25q17 34 42 59.5t63 25.5q19 0 30 -7t18.5 -15.5t15 -15.5t18.5 -7t21 6t17 13.5t11 14l4 6.5h9z" />
    <glyph glyph-name="Ograve" unicode="&#xd2;" horiz-adv-x="600" 
d="M74 0zM191 350q-15 -83 -12.5 -138.5t16.5 -89t38 -48t52 -14.5t56.5 14.5t55 48t48 89t36.5 138.5q15 82 12.5 138t-17 89.5t-38 48t-51.5 14.5t-56.5 -14.5t-55 -48t-48 -89.5t-36.5 -138zM581 350q-17 -98 -47 -166t-70 -111.5t-88.5 -63t-102.5 -19.5t-96 19.5
t-66.5 63t-30.5 111.5t11 166q17 97 47 165.5t70 112t89 63t103 19.5t95.5 -19.5t66.5 -63t30.5 -112t-11.5 -165.5zM435 900l18 -150h-65l-63 150h110z" />
    <glyph glyph-name="Oacute" unicode="&#xd3;" horiz-adv-x="600" 
d="M74 0zM191 350q-15 -83 -12.5 -138.5t16.5 -89t38 -48t52 -14.5t56.5 14.5t55 48t48 89t36.5 138.5q15 82 12.5 138t-17 89.5t-38 48t-51.5 14.5t-56.5 -14.5t-55 -48t-48 -89.5t-36.5 -138zM581 350q-17 -98 -47 -166t-70 -111.5t-88.5 -63t-102.5 -19.5t-96 19.5
t-66.5 63t-30.5 111.5t11 166q17 97 47 165.5t70 112t89 63t103 19.5t95.5 -19.5t66.5 -63t30.5 -112t-11.5 -165.5zM540 900l-117 -150h-65l72 150h110z" />
    <glyph glyph-name="Ocircumflex" unicode="&#xd4;" horiz-adv-x="600" 
d="M74 0zM191 350q-15 -83 -12.5 -138.5t16.5 -89t38 -48t52 -14.5t56.5 14.5t55 48t48 89t36.5 138.5q15 82 12.5 138t-17 89.5t-38 48t-51.5 14.5t-56.5 -14.5t-55 -48t-48 -89.5t-36.5 -138zM581 350q-17 -98 -47 -166t-70 -111.5t-88.5 -63t-102.5 -19.5t-96 19.5
t-66.5 63t-30.5 111.5t11 166q17 97 47 165.5t70 112t89 63t103 19.5t95.5 -19.5t66.5 -63t30.5 -112t-11.5 -165.5zM466 890l82 -130h-65l-63 65l-87 -65h-65l128 130h70z" />
    <glyph glyph-name="Otilde" unicode="&#xd5;" horiz-adv-x="600" 
d="M74 0zM191 350q-15 -83 -12.5 -138.5t16.5 -89t38 -48t52 -14.5t56.5 14.5t55 48t48 89t36.5 138.5q15 82 12.5 138t-17 89.5t-38 48t-51.5 14.5t-56.5 -14.5t-55 -48t-48 -89.5t-36.5 -138zM581 350q-17 -98 -47 -166t-70 -111.5t-88.5 -63t-102.5 -19.5t-96 19.5
t-66.5 63t-30.5 111.5t11 166q17 97 47 165.5t70 112t89 63t103 19.5t95.5 -19.5t66.5 -63t30.5 -112t-11.5 -165.5zM518 870l36 -25q-17 -34 -42 -59.5t-63 -25.5q-19 0 -30 7t-18.5 15.5t-15 15.5t-18.5 7t-21 -6.5t-17 -14t-11 -13.5l-4 -6h-9l-36 25q17 34 42 59.5
t63 25.5q19 0 30 -7t18.5 -15.5t15 -15.5t18.5 -7t21 6t17 13.5t11 14l4 6.5h9z" />
    <glyph glyph-name="Odieresis" unicode="&#xd6;" horiz-adv-x="600" 
d="M74 0zM191 350q-15 -83 -12.5 -138.5t16.5 -89t38 -48t52 -14.5t56.5 14.5t55 48t48 89t36.5 138.5q15 82 12.5 138t-17 89.5t-38 48t-51.5 14.5t-56.5 -14.5t-55 -48t-48 -89.5t-36.5 -138zM581 350q-17 -98 -47 -166t-70 -111.5t-88.5 -63t-102.5 -19.5t-96 19.5
t-66.5 63t-30.5 111.5t11 166q17 97 47 165.5t70 112t89 63t103 19.5t95.5 -19.5t66.5 -63t30.5 -112t-11.5 -165.5zM384 820q-5 -24 -23 -39.5t-42 -15.5t-37 15.5t-8 39.5q4 24 22.5 39.5t42.5 15.5t36.5 -15.5t8.5 -39.5zM559 820q-5 -24 -23 -39.5t-42 -15.5t-37 15.5
t-8 39.5q4 24 22.5 39.5t42.5 15.5t36.5 -15.5t8.5 -39.5z" />
    <glyph glyph-name="multiply" unicode="&#xd7;" horiz-adv-x="437" 
d="M242 273l-138 -116l-47 56l138 117l-97 117l67 56l97 -116l136 116l47 -56l-137 -117l96 -117l-67 -56z" />
    <glyph glyph-name="Oslash" unicode="&#xd8;" horiz-adv-x="600" 
d="M101 89q-20 44 -23 108t13 153q17 97 47 165.5t70 112t89 63t103 19.5q83 0 132 -45l26 35h80l-67 -90q20 -43 23 -107.5t-13 -152.5q-17 -98 -47 -166t-70 -111.5t-88.5 -63t-102.5 -19.5q-41 0 -74.5 11t-57.5 34l-26 -35h-80zM191 350q-8 -48 -10.5 -86.5t-0.5 -69.5
l293 392q-14 29 -37 41.5t-49 12.5q-28 0 -56.5 -14.5t-55 -48t-48 -89.5t-36.5 -138zM481 350q8 48 11 86.5t1 68.5l-294 -392q15 -29 37.5 -41t48.5 -12q28 0 56.5 14.5t55 48t48 89t36.5 138.5z" />
    <glyph glyph-name="Ugrave" unicode="&#xd9;" horiz-adv-x="620" 
d="M78 0zM295 60q57 0 98 38.5t55 121.5l85 480h100l-85 -480q-20 -113 -88 -171.5t-177 -58.5t-157 58.5t-28 171.5l85 480h100l-85 -480q-14 -83 13 -121.5t84 -38.5zM441 880l18 -150h-65l-63 150h110z" />
    <glyph glyph-name="Uacute" unicode="&#xda;" horiz-adv-x="620" 
d="M78 0zM295 60q57 0 98 38.5t55 121.5l85 480h100l-85 -480q-20 -113 -88 -171.5t-177 -58.5t-157 58.5t-28 171.5l85 480h100l-85 -480q-14 -83 13 -121.5t84 -38.5zM556 880l-117 -150h-65l72 150h110z" />
    <glyph glyph-name="Ucircumflex" unicode="&#xdb;" horiz-adv-x="620" 
d="M78 0zM295 60q57 0 98 38.5t55 121.5l85 480h100l-85 -480q-20 -113 -88 -171.5t-177 -58.5t-157 58.5t-28 171.5l85 480h100l-85 -480q-14 -83 13 -121.5t84 -38.5zM476 890l82 -130h-65l-63 65l-87 -65h-65l128 130h70z" />
    <glyph glyph-name="Udieresis" unicode="&#xdc;" horiz-adv-x="620" 
d="M78 0zM295 60q57 0 98 38.5t55 121.5l85 480h100l-85 -480q-20 -113 -88 -171.5t-177 -58.5t-157 58.5t-28 171.5l85 480h100l-85 -480q-14 -83 13 -121.5t84 -38.5zM394 820q-5 -24 -23 -39.5t-42 -15.5t-37 15.5t-8 39.5q4 24 22.5 39.5t42.5 15.5t36.5 -15.5
t8.5 -39.5zM569 820q-5 -24 -23 -39.5t-42 -15.5t-37 15.5t-8 39.5q4 24 22.5 39.5t42.5 15.5t36.5 -15.5t8.5 -39.5z" />
    <glyph glyph-name="Yacute" unicode="&#xdd;" horiz-adv-x="530" 
d="M98 0zM523 700h105l-298 -470l-40 -230h-100l40 230l-132 470h105l86 -305l4 -20t3 -19q1 -11 1 -21h4q4 10 8 21q8 20 20 39zM511 880l-117 -150h-65l72 150h110z" />
    <glyph glyph-name="Thorn" unicode="&#xde;" horiz-adv-x="615" 
d="M265 570l-78 -440h90q87 0 148.5 55.5t80.5 164.5q10 54 3.5 95.5t-26.5 69t-52.5 41.5t-75.5 14h-90zM277 640h90q140 0 202 -75t37 -215q-24 -140 -112.5 -215t-228.5 -75h-90l-14 -80h-100l130 740h100z" />
    <glyph glyph-name="germandbls" unicode="&#xdf;" horiz-adv-x="620" 
d="M365 60q49 0 82 28.5t42 81.5q5 29 -4 50.5t-25 40t-35.5 36.5t-35.5 39.5t-24 48.5t-1 65q3 19 10.5 33t15 27t15 27t10.5 33q5 30 -11 50t-42 20q-34 0 -58.5 -22.5t-32.5 -67.5l-96 -550h-100l74 420h-65l12 70h65l10 60q6 36 23 65.5t42.5 50.5t58 32.5t70.5 11.5
q86 0 123 -40t27 -100q-4 -23 -13 -37.5t-18.5 -26.5t-18 -24.5t-11.5 -31.5q-5 -26 5.5 -46t28 -37.5t38 -34.5t37.5 -38.5t26 -49t2 -64.5q-8 -43 -27.5 -78t-49 -60t-68 -38.5t-83.5 -13.5q-26 0 -46 4.5t-33 10.5q-16 6 -26 15l36 65h10q6 -8 15 -13q8 -5 19.5 -8.5
t26.5 -3.5z" />
    <glyph glyph-name="agrave" unicode="&#xe0;" 
d="M32 0zM371 320q11 60 -12 90t-72 30q-23 0 -44 -7.5t-38 -15.5q-19 -10 -36 -22h-10l-24 60q22 15 49 27q23 11 55 19.5t70 8.5q43 0 76.5 -14t55 -39.5t29.5 -60.5t1 -76l-56 -320h-70v60h-5q-17 -20 -41 -35q-20 -14 -49 -24.5t-67 -10.5q-79 0 -115 41.5t-23 113.5
q6 34 23 61.5t46 47t72 30.5t101 11h80zM354 225h-80q-60 0 -91.5 -23t-37.5 -57q-7 -38 12 -59t64 -21q23 0 43 9.5t37 20.5q18 13 36 30zM345 700l18 -150h-65l-63 150h110z" />
    <glyph glyph-name="aacute" unicode="&#xe1;" 
d="M32 0zM371 320q11 60 -12 90t-72 30q-23 0 -44 -7.5t-38 -15.5q-19 -10 -36 -22h-10l-24 60q22 15 49 27q23 11 55 19.5t70 8.5q43 0 76.5 -14t55 -39.5t29.5 -60.5t1 -76l-56 -320h-70v60h-5q-17 -20 -41 -35q-20 -14 -49 -24.5t-67 -10.5q-79 0 -115 41.5t-23 113.5
q6 34 23 61.5t46 47t72 30.5t101 11h80zM354 225h-80q-60 0 -91.5 -23t-37.5 -57q-7 -38 12 -59t64 -21q23 0 43 9.5t37 20.5q18 13 36 30zM460 700l-117 -150h-65l72 150h110z" />
    <glyph glyph-name="acircumflex" unicode="&#xe2;" 
d="M32 0zM371 320q11 60 -12 90t-72 30q-23 0 -44 -7.5t-38 -15.5q-19 -10 -36 -22h-10l-24 60q22 15 49 27q23 11 55 19.5t70 8.5q43 0 76.5 -14t55 -39.5t29.5 -60.5t1 -76l-56 -320h-70v60h-5q-17 -20 -41 -35q-20 -14 -49 -24.5t-67 -10.5q-79 0 -115 41.5t-23 113.5
q6 34 23 61.5t46 47t72 30.5t101 11h80zM354 225h-80q-60 0 -91.5 -23t-37.5 -57q-7 -38 12 -59t64 -21q23 0 43 9.5t37 20.5q18 13 36 30zM386 690l82 -130h-65l-63 65l-87 -65h-65l128 130h70z" />
    <glyph glyph-name="atilde" unicode="&#xe3;" 
d="M32 0zM371 320q11 60 -12 90t-72 30q-23 0 -44 -7.5t-38 -15.5q-19 -10 -36 -22h-10l-24 60q22 15 49 27q23 11 55 19.5t70 8.5q43 0 76.5 -14t55 -39.5t29.5 -60.5t1 -76l-56 -320h-70v60h-5q-17 -20 -41 -35q-20 -14 -49 -24.5t-67 -10.5q-79 0 -115 41.5t-23 113.5
q6 34 23 61.5t46 47t72 30.5t101 11h80zM354 225h-80q-60 0 -91.5 -23t-37.5 -57q-7 -38 12 -59t64 -21q23 0 43 9.5t37 20.5q18 13 36 30zM438 671l36 -25q-17 -34 -42 -59.5t-63 -25.5q-19 0 -30 7t-18.5 15.5t-15 15.5t-18.5 7t-21 -6.5t-17 -14t-11 -13.5l-4 -6h-9
l-36 25q17 34 42 59.5t63 25.5q19 0 30 -7t18.5 -15.5t15 -15.5t18.5 -7t21 6t17 13.5t11 14l4 6.5h9z" />
    <glyph glyph-name="adieresis" unicode="&#xe4;" 
d="M32 0zM371 320q11 60 -12 90t-72 30q-23 0 -44 -7.5t-38 -15.5q-19 -10 -36 -22h-10l-24 60q22 15 49 27q23 11 55 19.5t70 8.5q43 0 76.5 -14t55 -39.5t29.5 -60.5t1 -76l-56 -320h-70v60h-5q-17 -20 -41 -35q-20 -14 -49 -24.5t-67 -10.5q-79 0 -115 41.5t-23 113.5
q6 34 23 61.5t46 47t72 30.5t101 11h80zM354 225h-80q-60 0 -91.5 -23t-37.5 -57q-7 -38 12 -59t64 -21q23 0 43 9.5t37 20.5q18 13 36 30zM304 620q-5 -24 -23 -39.5t-42 -15.5t-37 15.5t-8 39.5q4 24 22.5 39.5t42.5 15.5t36.5 -15.5t8.5 -39.5zM479 620q-5 -24 -23 -39.5
t-42 -15.5t-37 15.5t-8 39.5q4 24 22.5 39.5t42.5 15.5t36.5 -15.5t8.5 -39.5z" />
    <glyph glyph-name="aring" unicode="&#xe5;" 
d="M32 0zM371 320q11 60 -12 90t-72 30q-23 0 -44 -7.5t-38 -15.5q-19 -10 -36 -22h-10l-24 60q22 15 49 27q23 11 55 19.5t70 8.5q43 0 76.5 -14t55 -39.5t29.5 -60.5t1 -76l-56 -320h-70v60h-5q-17 -20 -41 -35q-20 -14 -49 -24.5t-67 -10.5q-79 0 -115 41.5t-23 113.5
q6 34 23 61.5t46 47t72 30.5t101 11h80zM354 225h-80q-60 0 -91.5 -23t-37.5 -57q-7 -38 12 -59t64 -21q23 0 43 9.5t37 20.5q18 13 36 30zM352 700q-15 0 -29 -11t-19 -34q-4 -23 7 -34t26 -11t29 11t18 34q5 23 -6 34t-26 11zM361 750q45 0 68 -26.5t15 -68.5
q-7 -42 -39 -68.5t-77 -26.5t-68 26.5t-16 68.5q8 42 40 68.5t77 26.5z" />
    <glyph glyph-name="ae" unicode="&#xe6;" horiz-adv-x="785" 
d="M604 510q43 0 77 -16t55 -48.5t27.5 -81t-4.5 -114.5l-3 -15l-24 -20h-280q-7 -39 -3 -68.5t16.5 -48.5t33 -28.5t46.5 -9.5q23 0 43.5 7t37.5 15q19 10 37 23h10l24 -60q-23 -16 -50 -28q-23 -11 -54.5 -19t-69.5 -8q-49 0 -88.5 19.5t-60.5 60.5q-24 -22 -54 -40
q-26 -15 -60.5 -27.5t-76.5 -12.5q-79 0 -115 41.5t-23 113.5q6 34 23 61.5t46 47t72 30.5t101 11h80l4 25q11 60 -12 90t-72 30q-23 0 -44 -7.5t-38 -15.5q-19 -10 -36 -22h-10l-24 60q22 15 49 27q23 11 55 19.5t70 8.5q57 0 90.5 -20.5t46.5 -54.5q32 34 72.5 54.5
t85.5 20.5zM592 440q-41 0 -77 -36.5t-50 -118.5h200q7 41 4.5 70.5t-13 48t-27 27.5t-37.5 9zM354 225h-80q-60 0 -91.5 -23t-37.5 -57q-7 -38 12 -59t64 -21q23 0 43 9.5t37 20.5q18 13 36 30z" />
    <glyph glyph-name="ccedilla" unicode="&#xe7;" horiz-adv-x="455" 
d="M46 0zM322 440q-26 0 -50 -10t-44 -32.5t-35 -59t-24 -88.5q-9 -53 -6.5 -89t15 -58.5t35 -32.5t52.5 -10q23 0 43.5 7t37.5 15q19 10 37 23h10l24 -60q-23 -16 -50 -28q-23 -11 -54.5 -19t-69.5 -8q-102 0 -149.5 64t-24.5 196t92 196t163 64q38 0 66.5 -8.5t48.5 -19.5
q23 -12 41 -27l-46 -60h-10q-13 12 -29 22q-14 8 -32 15.5t-41 7.5zM246 -30q42 0 62 -23t14 -57t-35 -57t-74 -23q-19 0 -33 3t-23 7q-11 4 -19 10l22 40h9q-1 0 11 -7.5t31 -7.5t31.5 10t14.5 25q3 15 -6.5 25t-32.5 10h-40l17 95h60z" />
    <glyph glyph-name="egrave" unicode="&#xe8;" horiz-adv-x="505" 
d="M46 0zM319 510q45 0 80 -16t56.5 -48.5t28 -81t-4.5 -114.5l-3 -15l-24 -20h-290q-14 -79 14.5 -117t88.5 -38q23 0 43.5 7t37.5 15q19 10 37 23h10l24 -60q-23 -16 -50 -28q-23 -11 -54.5 -19t-69.5 -8q-102 0 -149.5 64t-24.5 196q11 66 34.5 114.5t56.5 81t73.5 48.5
t85.5 16zM307 440q-45 0 -81.5 -36.5t-50.5 -118.5h210q14 83 -9.5 119t-68.5 36zM343 700l18 -150h-65l-63 150h110z" />
    <glyph glyph-name="eacute" unicode="&#xe9;" horiz-adv-x="505" 
d="M46 0zM319 510q45 0 80 -16t56.5 -48.5t28 -81t-4.5 -114.5l-3 -15l-24 -20h-290q-14 -79 14.5 -117t88.5 -38q23 0 43.5 7t37.5 15q19 10 37 23h10l24 -60q-23 -16 -50 -28q-23 -11 -54.5 -19t-69.5 -8q-102 0 -149.5 64t-24.5 196q11 66 34.5 114.5t56.5 81t73.5 48.5
t85.5 16zM307 440q-45 0 -81.5 -36.5t-50.5 -118.5h210q14 83 -9.5 119t-68.5 36zM468 700l-117 -150h-65l72 150h110z" />
    <glyph glyph-name="ecircumflex" unicode="&#xea;" horiz-adv-x="505" 
d="M46 0zM319 510q45 0 80 -16t56.5 -48.5t28 -81t-4.5 -114.5l-3 -15l-24 -20h-290q-14 -79 14.5 -117t88.5 -38q23 0 43.5 7t37.5 15q19 10 37 23h10l24 -60q-23 -16 -50 -28q-23 -11 -54.5 -19t-69.5 -8q-102 0 -149.5 64t-24.5 196q11 66 34.5 114.5t56.5 81t73.5 48.5
t85.5 16zM307 440q-45 0 -81.5 -36.5t-50.5 -118.5h210q14 83 -9.5 119t-68.5 36zM383 690l82 -130h-65l-63 65l-87 -65h-65l128 130h70z" />
    <glyph glyph-name="edieresis" unicode="&#xeb;" horiz-adv-x="505" 
d="M46 0zM319 510q45 0 80 -16t56.5 -48.5t28 -81t-4.5 -114.5l-3 -15l-24 -20h-290q-14 -79 14.5 -117t88.5 -38q23 0 43.5 7t37.5 15q19 10 37 23h10l24 -60q-23 -16 -50 -28q-23 -11 -54.5 -19t-69.5 -8q-102 0 -149.5 64t-24.5 196q11 66 34.5 114.5t56.5 81t73.5 48.5
t85.5 16zM307 440q-45 0 -81.5 -36.5t-50.5 -118.5h210q14 83 -9.5 119t-68.5 36zM301 620q-5 -24 -23 -39.5t-42 -15.5t-37 15.5t-8 39.5q4 24 22.5 39.5t42.5 15.5t36.5 -15.5t8.5 -39.5zM476 620q-5 -24 -23 -39.5t-42 -15.5t-37 15.5t-8 39.5q4 24 22.5 39.5t42.5 15.5
t36.5 -15.5t8.5 -39.5z" />
    <glyph glyph-name="igrave" unicode="&#xec;" horiz-adv-x="258" 
d="M246 500l-88 -500h-100l88 500h100zM223 700l18 -150h-65l-63 150h110z" />
    <glyph glyph-name="iacute" unicode="&#xed;" horiz-adv-x="257" 
d="M238 500l-88 -500h-100l88 500h100zM340 700l-117 -150h-65l72 150h110z" />
    <glyph glyph-name="icircumflex" unicode="&#xee;" horiz-adv-x="260" 
d="M243 500l-88 -500h-100l88 500h100zM261 690l82 -130h-65l-63 65l-87 -65h-65l128 130h70z" />
    <glyph glyph-name="idieresis" unicode="&#xef;" horiz-adv-x="260" 
d="M243 500l-88 -500h-100l88 500h100zM179 620q-5 -24 -23 -39.5t-42 -15.5t-37 15.5t-8 39.5q4 24 22.5 39.5t42.5 15.5t36.5 -15.5t8.5 -39.5zM354 620q-5 -24 -23 -39.5t-42 -15.5t-37 15.5t-8 39.5q4 24 22.5 39.5t42.5 15.5t36.5 -15.5t8.5 -39.5z" />
    <glyph glyph-name="eth" unicode="&#xf0;" horiz-adv-x="515" 
d="M315 587q-20 7 -50 13l-53 10l22 70l59 -10q17 -3 33.5 -7t31.5 -9l38 59l59 -29l-38 -59q57 -38 76 -110t-1 -190l-18 -100q-10 -56 -32.5 -100t-55.5 -74t-74.5 -45.5t-88.5 -15.5t-83 15.5t-58.5 45.5t-30 74t2.5 100t32.5 100t53.5 74t67 45.5t74 15.5q53 0 87 -16
t50 -54q11 58 0.5 99.5t-45.5 67.5l-41 -63l-58 30zM292 385q-45 0 -84 -38.5t-54 -121.5q-8 -43 -4.5 -74t15 -51.5t29.5 -30t41 -9.5q45 0 84.5 39.5t54.5 125.5q7 41 4 71.5t-15 50t-30.5 29t-40.5 9.5z" />
    <glyph glyph-name="ntilde" unicode="&#xf1;" horiz-adv-x="545" 
d="M50 0zM331 435q-23 0 -43.5 -9.5t-36.5 -20.5q-18 -13 -35 -30l-66 -375h-100l88 500h70l-1 -60h5q17 19 41 35q20 13 49 24t67 11q37 0 66.5 -12.5t48 -35t25.5 -54t0 -68.5l-59 -340h-100l59 340q8 42 -14 68.5t-64 26.5zM467 681l36 -25q-17 -34 -42 -59.5t-63 -25.5
q-19 0 -30 7t-18.5 15.5t-15 15.5t-18.5 7t-21 -6.5t-17 -14t-11 -13.5l-4 -6h-9l-36 25q17 34 42 59.5t63 25.5q19 0 30 -7t18.5 -15.5t15 -15.5t18.5 -7t21 6t17 13.5t11 14l4 6.5h9z" />
    <glyph glyph-name="ograve" unicode="&#xf2;" horiz-adv-x="530" 
d="M46 0zM499 250q-12 -66 -36 -114.5t-57.5 -81t-76 -48.5t-91.5 -16q-98 0 -145 64.5t-24 195.5q23 132 92.5 196t167.5 64q49 0 85.5 -16t59 -48.5t29.5 -81t-4 -114.5zM399 250q9 52 6.5 88.5t-14 59t-31 32.5t-43.5 10t-47 -10t-42.5 -32.5t-34.5 -59t-24 -88.5
q-9 -53 -7 -89t13.5 -58.5t31 -32.5t43.5 -10t47 10t42.5 32.5t35 58.5t24.5 89zM355 700l18 -150h-65l-63 150h110z" />
    <glyph glyph-name="oacute" unicode="&#xf3;" horiz-adv-x="530" 
d="M46 0zM499 250q-12 -66 -36 -114.5t-57.5 -81t-76 -48.5t-91.5 -16q-98 0 -145 64.5t-24 195.5q23 132 92.5 196t167.5 64q49 0 85.5 -16t59 -48.5t29.5 -81t-4 -114.5zM399 250q9 52 6.5 88.5t-14 59t-31 32.5t-43.5 10t-47 -10t-42.5 -32.5t-34.5 -59t-24 -88.5
q-9 -53 -7 -89t13.5 -58.5t31 -32.5t43.5 -10t47 10t42.5 32.5t35 58.5t24.5 89zM480 700l-117 -150h-65l72 150h110z" />
    <glyph glyph-name="ocircumflex" unicode="&#xf4;" horiz-adv-x="530" 
d="M46 0zM499 250q-12 -66 -36 -114.5t-57.5 -81t-76 -48.5t-91.5 -16q-98 0 -145 64.5t-24 195.5q23 132 92.5 196t167.5 64q49 0 85.5 -16t59 -48.5t29.5 -81t-4 -114.5zM399 250q9 52 6.5 88.5t-14 59t-31 32.5t-43.5 10t-47 -10t-42.5 -32.5t-34.5 -59t-24 -88.5
q-9 -53 -7 -89t13.5 -58.5t31 -32.5t43.5 -10t47 10t42.5 32.5t35 58.5t24.5 89zM396 690l82 -130h-65l-63 65l-87 -65h-65l128 130h70z" />
    <glyph glyph-name="otilde" unicode="&#xf5;" horiz-adv-x="530" 
d="M46 0zM499 250q-12 -66 -36 -114.5t-57.5 -81t-76 -48.5t-91.5 -16q-98 0 -145 64.5t-24 195.5q23 132 92.5 196t167.5 64q49 0 85.5 -16t59 -48.5t29.5 -81t-4 -114.5zM399 250q9 52 6.5 88.5t-14 59t-31 32.5t-43.5 10t-47 -10t-42.5 -32.5t-34.5 -59t-24 -88.5
q-9 -53 -7 -89t13.5 -58.5t31 -32.5t43.5 -10t47 10t42.5 32.5t35 58.5t24.5 89zM448 671l36 -25q-17 -34 -42 -59.5t-63 -25.5q-19 0 -30 7t-18.5 15.5t-15 15.5t-18.5 7t-21 -6.5t-17 -14t-11 -13.5l-4 -6h-9l-36 25q17 34 42 59.5t63 25.5q19 0 30 -7t18.5 -15.5
t15 -15.5t18.5 -7t21 6t17 13.5t11 14l4 6.5h9z" />
    <glyph glyph-name="odieresis" unicode="&#xf6;" horiz-adv-x="530" 
d="M46 0zM499 250q-12 -66 -36 -114.5t-57.5 -81t-76 -48.5t-91.5 -16q-98 0 -145 64.5t-24 195.5q23 132 92.5 196t167.5 64q49 0 85.5 -16t59 -48.5t29.5 -81t-4 -114.5zM399 250q9 52 6.5 88.5t-14 59t-31 32.5t-43.5 10t-47 -10t-42.5 -32.5t-34.5 -59t-24 -88.5
q-9 -53 -7 -89t13.5 -58.5t31 -32.5t43.5 -10t47 10t42.5 32.5t35 58.5t24.5 89zM314 620q-5 -24 -23 -39.5t-42 -15.5t-37 15.5t-8 39.5q4 24 22.5 39.5t42.5 15.5t36.5 -15.5t8.5 -39.5zM489 620q-5 -24 -23 -39.5t-42 -15.5t-37 15.5t-8 39.5q4 24 22.5 39.5t42.5 15.5
t36.5 -15.5t8.5 -39.5z" />
    <glyph glyph-name="divide" unicode="&#xf7;" horiz-adv-x="470" 
d="M56 290l14 80h410l-14 -80h-410zM178 160q5 26 24.5 43t45.5 17t40.5 -17t9.5 -43t-25 -43t-46 -17t-40 17t-9 43zM238 500q5 26 24.5 43t45.5 17t40.5 -17t9.5 -43t-25 -43t-46 -17t-40 17t-9 43z" />
    <glyph glyph-name="oslash" unicode="&#xf8;" horiz-adv-x="530" 
d="M499 250q-12 -66 -36 -114.5t-57.5 -81t-76 -48.5t-91.5 -16q-63 0 -108 28l-15 -18h-80l52 63q-40 66 -18 187q23 132 92.5 196t167.5 64q67 0 108 -28l16 18h80l-53 -63q19 -32 24.5 -78.5t-5.5 -108.5zM399 250q9 58 6 97l-219 -261q11 -14 27.5 -20t36.5 -6
q24 0 47 10t42.5 32.5t35 58.5t24.5 89zM169 250q-10 -56 -7 -97l218 261q-22 26 -63 26q-24 0 -47 -10t-42.5 -32.5t-34.5 -59t-24 -88.5z" />
    <glyph glyph-name="ugrave" unicode="&#xf9;" horiz-adv-x="550" 
d="M71 0zM256 65q23 0 43 9.5t37 20.5q18 13 36 30l66 375h100l-88 -500h-70v60h-5q-17 -20 -41 -35q-20 -14 -49 -24.5t-67 -10.5t-67 12.5t-47.5 35t-25.5 53.5t0 69l60 340h100l-60 -340q-8 -42 14 -68.5t64 -26.5zM373 691l18 -150h-65l-63 150h110z" />
    <glyph glyph-name="uacute" unicode="&#xfa;" horiz-adv-x="550" 
d="M71 0zM256 65q23 0 43 9.5t37 20.5q18 13 36 30l66 375h100l-88 -500h-70v60h-5q-17 -20 -41 -35q-20 -14 -49 -24.5t-67 -10.5t-67 12.5t-47.5 35t-25.5 53.5t0 69l60 340h100l-60 -340q-8 -42 14 -68.5t64 -26.5zM488 691l-117 -150h-65l72 150h110z" />
    <glyph glyph-name="ucircumflex" unicode="&#xfb;" horiz-adv-x="550" 
d="M71 0zM256 65q23 0 43 9.5t37 20.5q18 13 36 30l66 375h100l-88 -500h-70v60h-5q-17 -20 -41 -35q-20 -14 -49 -24.5t-67 -10.5t-67 12.5t-47.5 35t-25.5 53.5t0 69l60 340h100l-60 -340q-8 -42 14 -68.5t64 -26.5zM406 690l82 -130h-65l-63 65l-87 -65h-65l128 130h70z
" />
    <glyph glyph-name="udieresis" unicode="&#xfc;" horiz-adv-x="550" 
d="M71 0zM256 65q23 0 43 9.5t37 20.5q18 13 36 30l66 375h100l-88 -500h-70v60h-5q-17 -20 -41 -35q-20 -14 -49 -24.5t-67 -10.5t-67 12.5t-47.5 35t-25.5 53.5t0 69l60 340h100l-60 -340q-8 -42 14 -68.5t64 -26.5zM324 620q-5 -24 -23 -39.5t-42 -15.5t-37 15.5t-8 39.5
q4 24 22.5 39.5t42.5 15.5t36.5 -15.5t8.5 -39.5zM499 620q-5 -24 -23 -39.5t-42 -15.5t-37 15.5t-8 39.5q4 24 22.5 39.5t42.5 15.5t36.5 -15.5t8.5 -39.5z" />
    <glyph glyph-name="yacute" unicode="&#xfd;" horiz-adv-x="475" 
d="M0 0zM75 -140q26 0 49.5 20t37.5 50l33 70h-40l-77 500h100l51 -330q2 -11 3 -25t2 -26q1 -14 2 -29h4q6 15 12 29q5 12 10.5 26t10.5 25l150 330h100l-261 -570q-27 -60 -76.5 -100t-113.5 -40q-23 0 -40.5 4.5t-29.5 10.5q-14 6 -24 15l36 65h10q6 -8 14 -13
q7 -5 16.5 -8.5t20.5 -3.5zM451 691l-117 -150h-65l72 150h110z" />
    <glyph glyph-name="thorn" unicode="&#xfe;" horiz-adv-x="540" 
d="M409 250q9 52 6.5 88.5t-14 59t-31 32.5t-43.5 10q-21 0 -38.5 -3t-31.5 -7q-16 -4 -28 -10l-60 -340q11 -6 25 -10q12 -4 28.5 -7t37.5 -3q24 0 47 10t42.5 32.5t35 58.5t24.5 89zM239 480q17 8 35 15q16 5 36.5 10t43.5 5q43 0 77 -16t55 -48.5t27.5 -81t-4.5 -114.5
q-12 -66 -35.5 -114.5t-56 -81t-72 -48.5t-82.5 -16q-23 0 -42 4.5t-33 10.5q-17 6 -30 15l-39 -220h-100l154 870l35 30h70z" />
    <glyph glyph-name="ydieresis" unicode="&#xff;" horiz-adv-x="475" 
d="M0 0zM75 -140q26 0 49.5 20t37.5 50l33 70h-40l-77 500h100l51 -330q2 -11 3 -25t2 -26q1 -14 2 -29h4q6 15 12 29q5 12 10.5 26t10.5 25l150 330h100l-261 -570q-27 -60 -76.5 -100t-113.5 -40q-23 0 -40.5 4.5t-29.5 10.5q-14 6 -24 15l36 65h10q6 -8 14 -13
q7 -5 16.5 -8.5t20.5 -3.5zM286 620q-5 -24 -23 -39.5t-42 -15.5t-37 15.5t-8 39.5q4 24 22.5 39.5t42.5 15.5t36.5 -15.5t8.5 -39.5zM461 620q-5 -24 -23 -39.5t-42 -15.5t-37 15.5t-8 39.5q4 24 22.5 39.5t42.5 15.5t36.5 -15.5t8.5 -39.5z" />
    <glyph glyph-name="Amacron" unicode="&#x100;" horiz-adv-x="570" 
d="M0 0zM430 0l-24 180h-230l-86 -180h-100l328 700h130l82 -700h-100zM209 250h190l-32 275q-2 11 -2 23.5v23.5q0 12 1 23h-4q-3 -12 -7 -24q-4 -11 -8.5 -23t-9.5 -23zM544 850l-12 -70h-270l12 70h270z" />
    <glyph glyph-name="amacron" unicode="&#x101;" 
d="M32 0zM371 320q11 60 -12 90t-72 30q-23 0 -44 -7.5t-38 -15.5q-19 -10 -36 -22h-10l-24 60q22 15 49 27q23 11 55 19.5t70 8.5q43 0 76.5 -14t55 -39.5t29.5 -60.5t1 -76l-56 -320h-70v60h-5q-17 -20 -41 -35q-20 -14 -49 -24.5t-67 -10.5q-79 0 -115 41.5t-23 113.5
q6 34 23 61.5t46 47t72 30.5t101 11h80zM354 225h-80q-60 0 -91.5 -23t-37.5 -57q-7 -38 12 -59t64 -21q23 0 43 9.5t37 20.5q18 13 36 30zM491 660l-12 -70h-270l12 70h270z" />
    <glyph glyph-name="Abreve" unicode="&#x102;" horiz-adv-x="570" 
d="M0 0zM430 0l-24 180h-230l-86 -180h-100l328 700h130l82 -700h-100zM209 250h190l-32 275q-2 11 -2 23.5v23.5q0 12 1 23h-4q-3 -12 -7 -24q-4 -11 -8.5 -23t-9.5 -23zM404 820q30 0 47.5 16t24.5 54h90q-11 -60 -54.5 -95t-118.5 -35t-106.5 35t-20.5 95h90
q-7 -38 5.5 -54t42.5 -16z" />
    <glyph glyph-name="abreve" unicode="&#x103;" 
d="M32 0zM371 320q11 60 -12 90t-72 30q-23 0 -44 -7.5t-38 -15.5q-19 -10 -36 -22h-10l-24 60q22 15 49 27q23 11 55 19.5t70 8.5q43 0 76.5 -14t55 -39.5t29.5 -60.5t1 -76l-56 -320h-70v60h-5q-17 -20 -41 -35q-20 -14 -49 -24.5t-67 -10.5q-79 0 -115 41.5t-23 113.5
q6 34 23 61.5t46 47t72 30.5t101 11h80zM354 225h-80q-60 0 -91.5 -23t-37.5 -57q-7 -38 12 -59t64 -21q23 0 43 9.5t37 20.5q18 13 36 30zM337 611q30 0 47.5 16t24.5 54h90q-11 -60 -54.5 -95t-118.5 -35t-106.5 35t-20.5 95h90q-7 -38 5.5 -54t42.5 -16z" />
    <glyph glyph-name="Aogonek" unicode="&#x104;" horiz-adv-x="575" 
d="M0 0zM430 0l-24 180h-230l-86 -180h-100l328 700h130l82 -700h-100zM209 250h190l-32 275q-2 11 -2 23.5v23.5q0 12 1 23h-4q-3 -12 -7 -24q-4 -11 -8.5 -23t-9.5 -23zM497 -100q11 0 22 3.5t19.5 7.5t13.5 7.5l5 3.5h9l-9 -52q-11 -8 -24 -13q-11 -5 -26.5 -8.5
t-34.5 -3.5q-45 0 -63.5 20.5t-12.5 54.5q2 17 13 31.5t22 25.5q13 12 29 23h70q-16 -8 -29 -19q-11 -9 -21 -21t-12 -25q-2 -15 6 -25t23 -10z" />
    <glyph glyph-name="aogonek" unicode="&#x105;" horiz-adv-x="505" 
d="M32 0zM371 320q11 60 -12 90t-72 30q-23 0 -44 -7.5t-38 -15.5q-19 -10 -36 -22h-10l-24 60q22 15 49 27q23 11 55 19.5t70 8.5q43 0 76.5 -14t55 -39.5t29.5 -60.5t1 -76l-56 -320h-70v60h-5q-17 -20 -41 -35q-20 -14 -49 -24.5t-67 -10.5q-79 0 -115 41.5t-23 113.5
q6 34 23 61.5t46 47t72 30.5t101 11h80zM354 225h-80q-60 0 -91.5 -23t-37.5 -57q-7 -38 12 -59t64 -21q23 0 43 9.5t37 20.5q18 13 36 30zM387 -100q11 0 22 3.5t19.5 7.5t13.5 7.5l5 3.5h9l-9 -52q-11 -8 -24 -13q-11 -5 -26.5 -8.5t-34.5 -3.5q-45 0 -63.5 20.5
t-12.5 54.5q2 17 13 31.5t22 25.5q13 12 29 23h70q-16 -8 -29 -19q-11 -9 -21 -21t-12 -25q-2 -15 6 -25t23 -10z" />
    <glyph glyph-name="Cacute" unicode="&#x106;" horiz-adv-x="515" 
d="M74 0zM91 350q17 97 47 165.5t70.5 112t90.5 63t106 19.5q42 0 72.5 -8.5t51.5 -19.5q24 -12 41 -27l-46 -60h-10q-13 12 -30 22q-14 8 -35 15.5t-47 7.5q-34 0 -65.5 -14.5t-59 -48t-49.5 -89.5t-37 -138q-15 -83 -12 -138.5t19.5 -89t45 -48t66.5 -14.5q26 0 49.5 7
t40.5 15q20 10 38 23h10l24 -60q-23 -16 -51 -28q-24 -11 -57.5 -19t-75.5 -8q-60 0 -105 19.5t-71 63t-32 111.5t11 166zM558 900l-117 -150h-65l72 150h110z" />
    <glyph glyph-name="cacute" unicode="&#x107;" horiz-adv-x="455" 
d="M46 0zM322 440q-26 0 -50 -10t-44 -32.5t-35 -59t-24 -88.5q-9 -53 -6.5 -89t15 -58.5t35 -32.5t52.5 -10q23 0 43.5 7t37.5 15q19 10 37 23h10l24 -60q-23 -16 -50 -28q-23 -11 -54.5 -19t-69.5 -8q-102 0 -149.5 64t-24.5 196t92 196t163 64q38 0 66.5 -8.5t48.5 -19.5
q23 -12 41 -27l-46 -60h-10q-13 12 -29 22q-14 8 -32 15.5t-41 7.5zM465 700l-117 -150h-65l72 150h110z" />
    <glyph glyph-name="Ccaron" unicode="&#x10c;" horiz-adv-x="515" 
d="M74 0zM91 350q17 97 47 165.5t70.5 112t90.5 63t106 19.5q42 0 72.5 -8.5t51.5 -19.5q24 -12 41 -27l-46 -60h-10q-13 12 -30 22q-14 8 -35 15.5t-47 7.5q-34 0 -65.5 -14.5t-59 -48t-49.5 -89.5t-37 -138q-15 -83 -12 -138.5t19.5 -89t45 -48t66.5 -14.5q26 0 49.5 7
t40.5 15q20 10 38 23h10l24 -60q-23 -16 -51 -28q-24 -11 -57.5 -19t-75.5 -8q-60 0 -105 19.5t-71 63t-32 111.5t11 166zM380 760l-82 130h65l64 -65l86 65h65l-128 -130h-70z" />
    <glyph glyph-name="ccaron" unicode="&#x10d;" horiz-adv-x="455" 
d="M46 0zM322 440q-26 0 -50 -10t-44 -32.5t-35 -59t-24 -88.5q-9 -53 -6.5 -89t15 -58.5t35 -32.5t52.5 -10q23 0 43.5 7t37.5 15q19 10 37 23h10l24 -60q-23 -16 -50 -28q-23 -11 -54.5 -19t-69.5 -8q-102 0 -149.5 64t-24.5 196t92 196t163 64q38 0 66.5 -8.5t48.5 -19.5
q23 -12 41 -27l-46 -60h-10q-13 12 -29 22q-14 8 -32 15.5t-41 7.5zM288 560l-82 130h65l64 -65l86 65h65l-128 -130h-70z" />
    <glyph glyph-name="Dcaron" unicode="&#x10e;" horiz-adv-x="585" 
d="M65 0zM65 0l123 700h150q71 0 122 -19.5t80 -61.5t35.5 -108.5t-9.5 -160.5q-17 -94 -47 -160.5t-74 -108.5t-101.5 -61.5t-128.5 -19.5h-150zM227 70q45 0 83 14t68 47t52 86.5t36 132.5t10.5 132.5t-22 86.5t-51 47t-77.5 14h-50l-99 -560h50zM340 760l-82 130h65
l64 -65l86 65h65l-128 -130h-70z" />
    <glyph glyph-name="dcaron" unicode="&#x10f;" horiz-adv-x="645" 
d="M613 645q5 23 23 39t37 16q26 0 40 -17.5t9 -46.5q-8 -40 -25.5 -68.5t-35.5 -47.5q-21 -22 -46 -36l-25 31q16 10 29 22q11 11 21.5 24.5t13.5 28.5q-19 0 -32 16t-9 39zM409 420q-11 6 -25 10q-12 4 -29.5 7t-37.5 3q-24 0 -47 -10t-42.5 -32.5t-34.5 -59t-24 -88.5
q-9 -51 -6.5 -86t13 -57t27.5 -32t38 -10q23 0 43 9.5t37 20.5q18 13 36 30zM488 700h70l-123 -700h-70v60h-5q-17 -20 -41 -35q-20 -14 -49 -24.5t-67 -10.5q-36 0 -65.5 16t-48.5 48.5t-25.5 81t5.5 114.5q11 66 34.5 114.5t56 81t72 48.5t82.5 16q23 0 42 -5t33 -10
q17 -7 30 -15l34 190z" />
    <glyph glyph-name="Dcroat" unicode="&#x110;" horiz-adv-x="585" 
d="M65 0l56 320h-55l14 80h55l53 300h150q71 0 122 -19.5t80 -61.5t35.5 -108.5t-9.5 -160.5q-17 -94 -47 -160.5t-74 -108.5t-101.5 -61.5t-128.5 -19.5h-150zM227 70q45 0 83 14t68 47t52 86.5t36 132.5t10.5 132.5t-22 86.5t-51 47t-77.5 14h-50l-41 -230h115l-14 -80
h-115l-44 -250h50z" />
    <glyph glyph-name="dcroat" unicode="&#x111;" horiz-adv-x="545" 
d="M488 700h70l-18 -100h65l-12 -70h-65l-93 -530h-70v60h-5q-17 -20 -41 -35q-20 -14 -49 -24.5t-67 -10.5q-36 0 -65.5 15.5t-49 46t-26.5 75.5t3 103t33 103t55 75.5t71.5 46t82.5 15.5q23 0 42 -5t33 -10q17 -7 30 -15l16 90h-105l12 70h105l13 70zM402 380
q-11 6 -25 10q-12 4 -29.5 7t-37.5 3q-49 0 -89 -40t-56 -130q-8 -43 -4.5 -74t14.5 -51.5t28 -30t38 -9.5q23 0 43 9.5t37 20.5q18 13 36 30z" />
    <glyph glyph-name="Emacron" unicode="&#x112;" 
d="M65 0zM65 0l123 700h390l-12 -70h-290l-41 -230h230l-12 -70h-230l-46 -260h290l-12 -70h-390zM548 860l-12 -70h-270l12 70h270z" />
    <glyph glyph-name="emacron" unicode="&#x113;" horiz-adv-x="505" 
d="M46 0zM319 510q45 0 80 -16t56.5 -48.5t28 -81t-4.5 -114.5l-3 -15l-24 -20h-290q-14 -79 14.5 -117t88.5 -38q23 0 43.5 7t37.5 15q19 10 37 23h10l24 -60q-23 -16 -50 -28q-23 -11 -54.5 -19t-69.5 -8q-102 0 -149.5 64t-24.5 196q11 66 34.5 114.5t56.5 81t73.5 48.5
t85.5 16zM307 440q-45 0 -81.5 -36.5t-50.5 -118.5h210q14 83 -9.5 119t-68.5 36zM488 660l-12 -70h-270l12 70h270z" />
    <glyph glyph-name="Edotaccent" unicode="&#x116;" 
d="M65 0zM65 0l123 700h390l-12 -70h-290l-41 -230h230l-12 -70h-230l-46 -260h290l-12 -70h-390zM476 820q-5 -26 -25 -43t-46 -17t-40 17t-9 43t24.5 43t45.5 17t40.5 -17t9.5 -43z" />
    <glyph glyph-name="edotaccent" unicode="&#x117;" horiz-adv-x="505" 
d="M46 0zM319 510q45 0 80 -16t56.5 -48.5t28 -81t-4.5 -114.5l-3 -15l-24 -20h-290q-14 -79 14.5 -117t88.5 -38q23 0 43.5 7t37.5 15q19 10 37 23h10l24 -60q-23 -16 -50 -28q-23 -11 -54.5 -19t-69.5 -8q-102 0 -149.5 64t-24.5 196q11 66 34.5 114.5t56.5 81t73.5 48.5
t85.5 16zM307 440q-45 0 -81.5 -36.5t-50.5 -118.5h210q14 83 -9.5 119t-68.5 36zM396 620q-5 -26 -25 -43t-46 -17t-40 17t-9 43t24.5 43t45.5 17t40.5 -17t9.5 -43z" />
    <glyph glyph-name="Eogonek" unicode="&#x118;" 
d="M65 0zM65 0l123 700h390l-12 -70h-290l-41 -230h230l-12 -70h-230l-46 -260h290l-12 -70h-390zM282 -100q11 0 22 3.5t19.5 7.5t13.5 7.5l5 3.5h9l-9 -52q-11 -8 -24 -13q-11 -5 -26.5 -8.5t-34.5 -3.5q-45 0 -63.5 20.5t-12.5 54.5q2 17 13 31.5t22 25.5q13 12 29 23h70
q-16 -8 -29 -19q-11 -9 -21 -21t-12 -25q-2 -15 6 -25t23 -10z" />
    <glyph glyph-name="eogonek" unicode="&#x119;" horiz-adv-x="505" 
d="M46 0zM319 510q45 0 80 -16t56.5 -48.5t28 -81t-4.5 -114.5l-3 -15l-24 -20h-290q-14 -79 14.5 -117t88.5 -38q23 0 43.5 7t37.5 15q19 10 37 23h10l24 -60q-23 -16 -50 -28q-23 -11 -54.5 -19t-69.5 -8q-102 0 -149.5 64t-24.5 196q11 66 34.5 114.5t56.5 81t73.5 48.5
t85.5 16zM307 440q-45 0 -81.5 -36.5t-50.5 -118.5h210q14 83 -9.5 119t-68.5 36zM252 -100q11 0 22 3.5t19.5 7.5t13.5 7.5l5 3.5h9l-9 -52q-11 -8 -24 -13q-11 -5 -26.5 -8.5t-34.5 -3.5q-45 0 -63.5 20.5t-12.5 54.5q2 17 13 31.5t22 25.5q13 12 29 23h70q-16 -8 -29 -19
q-11 -9 -21 -21t-12 -25q-2 -15 6 -25t23 -10z" />
    <glyph glyph-name="Ecaron" unicode="&#x11a;" 
d="M65 0zM65 0l123 700h390l-12 -70h-290l-41 -230h230l-12 -70h-230l-46 -260h290l-12 -70h-390zM370 760l-82 130h65l64 -65l86 65h65l-128 -130h-70z" />
    <glyph glyph-name="ecaron" unicode="&#x11b;" horiz-adv-x="505" 
d="M46 0zM319 510q45 0 80 -16t56.5 -48.5t28 -81t-4.5 -114.5l-3 -15l-24 -20h-290q-14 -79 14.5 -117t88.5 -38q23 0 43.5 7t37.5 15q19 10 37 23h10l24 -60q-23 -16 -50 -28q-23 -11 -54.5 -19t-69.5 -8q-102 0 -149.5 64t-24.5 196q11 66 34.5 114.5t56.5 81t73.5 48.5
t85.5 16zM307 440q-45 0 -81.5 -36.5t-50.5 -118.5h210q14 83 -9.5 119t-68.5 36zM290 560l-82 130h65l64 -65l86 65h65l-128 -130h-70z" />
    <glyph glyph-name="Gbreve" unicode="&#x11e;" horiz-adv-x="565" 
d="M74 0zM482 45q-24 -16 -54 -28q-26 -11 -61.5 -19t-78.5 -8q-56 0 -100 21t-71 65t-35 112t9 162q16 94 47.5 162t73.5 112t91 65t102 21q42 0 72.5 -8.5t51.5 -19.5q24 -12 41 -27l-46 -60h-10q-13 12 -30 22q-14 8 -35 15.5t-47 7.5q-34 0 -65.5 -14.5t-59 -48
t-49.5 -89.5t-37 -138q-15 -83 -12 -138.5t19.5 -89t45 -48t66.5 -14.5q15 0 29 3.5t25.5 7t18 6.5l6.5 3l40 230h-115l13 70h185l24 -30zM414 810q30 0 47.5 16t24.5 54h90q-11 -60 -54.5 -95t-118.5 -35t-106.5 35t-20.5 95h90q-7 -38 5.5 -54t42.5 -16z" />
    <glyph glyph-name="gbreve" unicode="&#x11f;" horiz-adv-x="535" 
d="M27 0zM401 375q-11 17 -25 30q-12 11 -29.5 20.5t-40.5 9.5q-21 0 -41.5 -10t-39 -32t-33 -57t-23.5 -86q-9 -53 -7 -89t13.5 -58.5t31 -32.5t43.5 -10q20 0 38 3t32 7q16 4 29 10zM433 -10q-8 -45 -29 -82t-53.5 -63t-75 -40.5t-93.5 -14.5q-38 0 -66.5 8t-48.5 19
q-23 12 -40 28l46 60h10q12 -13 28 -23q14 -8 32.5 -15t41.5 -7q64 0 100 31t48 99l5 30q-17 -9 -35 -15q-16 -6 -36.5 -10.5t-43.5 -4.5q-43 0 -77 16t-55 48.5t-27.5 81t5.5 114.5q11 66 34.5 114.5t54 81t65.5 48.5t71 16q38 0 63 -11t41 -24q18 -16 29 -35h5l21 60h70z
M351 620q30 0 47.5 16t24.5 54h90q-11 -60 -54.5 -95t-118.5 -35t-106.5 35t-20.5 95h90q-7 -38 5.5 -54t42.5 -16z" />
    <glyph glyph-name="Gcommaaccent" unicode="&#x122;" horiz-adv-x="565" 
d="M74 0zM482 45q-24 -16 -54 -28q-26 -11 -61.5 -19t-78.5 -8q-56 0 -100 21t-71 65t-35 112t9 162q16 94 47.5 162t73.5 112t91 65t102 21q42 0 72.5 -8.5t51.5 -19.5q24 -12 41 -27l-46 -60h-10q-13 12 -30 22q-14 8 -35 15.5t-47 7.5q-34 0 -65.5 -14.5t-59 -48
t-49.5 -89.5t-37 -138q-15 -83 -12 -138.5t19.5 -89t45 -48t66.5 -14.5q15 0 29 3.5t25.5 7t18 6.5l6.5 3l40 230h-115l13 70h185l24 -30zM208 -104q4 23 22 39t37 16q26 0 40 -17.5t9 -46.5q-8 -40 -25 -68.5t-35 -47.5q-21 -22 -46 -36l-25 31q16 10 29 22q11 11 21 24.5
t13 28.5q-19 0 -31.5 16t-8.5 39z" />
    <glyph glyph-name="gcommaaccent" unicode="&#x123;" horiz-adv-x="535" 
d="M27 0zM401 375q-11 17 -25 30q-12 11 -29.5 20.5t-40.5 9.5q-21 0 -41.5 -10t-39 -32t-33 -57t-23.5 -86q-9 -53 -7 -89t13.5 -58.5t31 -32.5t43.5 -10q20 0 38 3t32 7q16 4 29 10zM433 -10q-8 -45 -29 -82t-53.5 -63t-75 -40.5t-93.5 -14.5q-38 0 -66.5 8t-48.5 19
q-23 12 -40 28l46 60h10q12 -13 28 -23q14 -8 32.5 -15t41.5 -7q64 0 100 31t48 99l5 30q-17 -9 -35 -15q-16 -6 -36.5 -10.5t-43.5 -4.5q-43 0 -77 16t-55 48.5t-27.5 81t5.5 114.5q11 66 34.5 114.5t54 81t65.5 48.5t71 16q38 0 63 -11t41 -24q18 -16 29 -35h5l21 60h70z
M443.998 624.995q-4 -22.998 -21.998 -38.9971q-17.999 -15.999 -36.998 -15.999q-25.998 0 -39.998 17.499q-13.999 17.499 -8.99902 46.4971q7.99902 39.9971 24.998 68.4951q16.999 28.499 34.998 47.498q20.999 21.998 45.9971 35.9971l24.999 -30.998
q-15.999 -9.99902 -28.998 -21.998q-11 -11 -20.999 -24.499t-12.999 -28.498q18.999 0 31.498 -15.999t8.49902 -38.998z" />
    <glyph glyph-name="hbar" unicode="&#x127;" horiz-adv-x="560" 
d="M169 590l14 80l35 30h70l-19 -110h135l-13 -70h-135l-21 -120q17 14 38 25q18 9 43.5 17t57.5 8q37 0 66.5 -12.5t48 -35t25.5 -54t0 -68.5l-49 -280h-100l49 280q8 42 -14 68.5t-64 26.5q-23 0 -44 -9.5t-37 -20.5q-19 -13 -35 -30l-55 -315h-100l91 520h-65l13 70h65z
" />
    <glyph glyph-name="Itilde" unicode="&#x128;" horiz-adv-x="250" 
d="M51 0zM174 700h100l-123 -700h-100zM347 890l36 -25q-17 -34 -42 -59.5t-63 -25.5q-19 0 -30 7t-18.5 15.5t-15 15.5t-18.5 7t-21 -6.5t-17 -14t-11 -13.5l-4 -6h-9l-36 25q17 34 42 59.5t63 25.5q19 0 30 -7t18.5 -15.5t15 -15.5t18.5 -7t21 6t17 13.5t11 14l4 6.5h9z
" />
    <glyph glyph-name="itilde" unicode="&#x129;" horiz-adv-x="240" 
d="M46 0zM234 500l-88 -500h-100l88 500h100zM308 690l36 -25q-17 -34 -42 -59.5t-63 -25.5q-19 0 -30 7t-18.5 15.5t-15 15.5t-18.5 7t-21 -6.5t-17 -14t-11 -13.5l-4 -6h-9l-36 25q17 34 42 59.5t63 25.5q19 0 30 -7t18.5 -15.5t15 -15.5t18.5 -7t21 6t17 13.5t11 14
l4 6.5h9z" />
    <glyph glyph-name="Imacron" unicode="&#x12a;" horiz-adv-x="260" 
d="M56 0zM179 700h100l-123 -700h-100zM389 850l-12 -70h-270l12 70h270z" />
    <glyph glyph-name="imacron" unicode="&#x12b;" horiz-adv-x="250" 
d="M238 500l-88 -500h-100l88 500h100zM350 650l-12 -70h-270l12 70h270z" />
    <glyph glyph-name="Iogonek" unicode="&#x12e;" horiz-adv-x="270" 
d="M20 0zM184 700h100l-123 -700h-100zM127 -100q11 0 22 3.5t19.5 7.5t13.5 7.5l5 3.5h9l-9 -52q-11 -8 -24 -13q-11 -5 -26.5 -8.5t-34.5 -3.5q-45 0 -63.5 20.5t-12.5 54.5q2 17 13 31.5t22 25.5q13 12 29 23h70q-16 -8 -29 -19q-11 -9 -21 -21t-12 -25q-2 -15 6 -25
t23 -10z" />
    <glyph glyph-name="iogonek" unicode="&#x12f;" horiz-adv-x="245" 
d="M10 0zM238 500l-88 -500h-100l88 500h100zM272 640q-5 -26 -24.5 -43t-45.5 -17t-40.5 17t-9.5 43t25 43t46 17t40 -17t9 -43zM117 -100q11 0 22 3.5t19.5 7.5t13.5 7.5l5 3.5h9l-9 -52q-11 -8 -24 -13q-11 -5 -26.5 -8.5t-34.5 -3.5q-45 0 -63.5 20.5t-12.5 54.5
q2 17 13 31.5t22 25.5q13 12 29 23h70q-16 -8 -29 -19q-11 -9 -21 -21t-12 -25q-2 -15 6 -25t23 -10z" />
    <glyph glyph-name="Idotaccent" unicode="&#x130;" horiz-adv-x="260" 
d="M56 0zM179 700h100l-123 -700h-100zM309 820q-5 -26 -25 -43t-46 -17t-40 17t-9 43t24.5 43t45.5 17t40.5 -17t9.5 -43z" />
    <glyph glyph-name="dotlessi" unicode="&#x131;" horiz-adv-x="250" 
d="M238 500l-88 -500h-100l88 500h100z" />
    <glyph glyph-name="ij" unicode="&#x133;" horiz-adv-x="505" 
d="M207 -130q34 0 58 22.5t32 67.5l83 470h-155l-75 -430h-100l88 500h355l-96 -540q-6 -36 -23 -65.5t-42 -50.5t-58 -32.5t-70 -11.5q-23 0 -40.5 4.5t-29.5 10.5q-14 6 -24 15l36 65h10q6 -8 14 -13q7 -5 16.5 -8.5t20.5 -3.5zM527 640q-5 -26 -24.5 -43t-45.5 -17
t-40.5 17t-9.5 43t25 43t46 17t40 -17t9 -43zM272 640q-5 -26 -24.5 -43t-45.5 -17t-40.5 17t-9.5 43t25 43t46 17t40 -17t9 -43z" />
    <glyph glyph-name="Jcircumflex" unicode="&#x134;" horiz-adv-x="410" 
d="M0 0zM110 60q57 0 91.5 31t46.5 99l90 510h100l-90 -510q-17 -98 -77.5 -149t-162.5 -51q-30 0 -53.5 7t-40.5 15q-19 10 -33 23l41 65h10q10 -11 22 -20q11 -8 25 -14t31 -6zM447 870l82 -130h-65l-63 65l-87 -65h-65l128 130h70z" />
    <glyph glyph-name="jcircumflex" unicode="&#x135;" horiz-adv-x="268" 
d="M-27 -130q33 0 57 22.5t32 67.5l96 540h100l-96 -540q-6 -36 -23 -65.5t-42 -50.5t-57.5 -32.5t-69.5 -11.5q-23 0 -40.5 4.5t-29.5 10.5q-14 6 -24 15l36 65h10q6 -8 14 -13q7 -5 16.5 -8.5t20.5 -3.5zM268 680l82 -130h-65l-63 65l-87 -65h-65l128 130h70z" />
    <glyph glyph-name="Kcommaaccent" unicode="&#x136;" horiz-adv-x="555" 
d="M65 0zM515 0h-115l-174 350l-61 -350h-100l123 700h100l-58 -330l283 330h115l-290 -340zM200 -65q4 23 22 39t37 16q26 0 40 -17.5t9 -46.5q-8 -40 -25 -68.5t-35 -47.5q-21 -22 -46 -36l-25 31q16 10 29 22q11 11 21 24.5t13 28.5q-19 0 -31.5 16t-8.5 39z" />
    <glyph glyph-name="kcommaaccent" unicode="&#x137;" horiz-adv-x="480" 
d="M50 0zM273 700l-76 -430l211 230h115l-223 -240l145 -260h-115l-136 250l-44 -250h-100l118 670l35 30h70zM160 -65q4 23 22 39t37 16q26 0 40 -17.5t9 -46.5q-8 -40 -25 -68.5t-35 -47.5q-21 -22 -46 -36l-25 31q16 10 29 22q11 11 21 24.5t13 28.5q-19 0 -31.5 16
t-8.5 39z" />
    <glyph glyph-name="kgreenlandic" unicode="&#x138;" horiz-adv-x="480" 
d="M238 500l-41 -230l211 230h115l-223 -240l145 -260h-115l-136 250l-44 -250h-100l82 470l36 30h70z" />
    <glyph glyph-name="Lacute" unicode="&#x139;" horiz-adv-x="490" 
d="M65 0zM288 700l-111 -630h290l-12 -70h-390l123 700h100zM408 900l-117 -150h-65l72 150h110z" />
    <glyph glyph-name="lacute" unicode="&#x13a;" horiz-adv-x="252" 
d="M50 0zM168 670l35 30h70l-123 -700h-100zM385 900l-117 -150h-65l72 150h110z" />
    <glyph glyph-name="Lcommaaccent" unicode="&#x13b;" horiz-adv-x="490" 
d="M65 0zM288 700l-111 -630h290l-12 -70h-390l123 700h100zM188 -104q4 23 22 39t37 16q26 0 40 -17.5t9 -46.5q-8 -40 -25 -68.5t-35 -47.5q-21 -22 -46 -36l-25 31q16 10 29 22q11 11 21 24.5t13 28.5q-19 0 -31.5 16t-8.5 39z" />
    <glyph glyph-name="lcommaaccent" unicode="&#x13c;" horiz-adv-x="250" 
d="M3 0zM168 670l35 30h70l-123 -700h-100zM26 -104q4 23 22 39t37 16q26 0 40 -17.5t9 -46.5q-8 -40 -25 -68.5t-35 -47.5q-21 -22 -46 -36l-25 31q16 10 29 22q11 11 21 24.5t13 28.5q-19 0 -31.5 16t-8.5 39z" />
    <glyph glyph-name="Lcaron" unicode="&#x13d;" horiz-adv-x="490" 
d="M353 645q5 23 23 39t37 16q26 0 40 -17.5t9 -46.5q-8 -40 -25.5 -68.5t-35.5 -47.5q-21 -22 -46 -36l-25 31q16 10 29 22q11 11 21.5 24.5t13.5 28.5q-19 0 -32 16t-9 39zM288 700l-111 -630h290l-12 -70h-390l123 700h100z" />
    <glyph glyph-name="lcaron" unicode="&#x13e;" horiz-adv-x="365" 
d="M333 645q5 23 23 39t37 16q26 0 40 -17.5t9 -46.5q-8 -40 -25.5 -68.5t-35.5 -47.5q-21 -22 -46 -36l-25 31q16 10 29 22q11 11 21.5 24.5t13.5 28.5q-19 0 -32 16t-9 39zM168 670l35 30h70l-123 -700h-100z" />
    <glyph glyph-name="ldot" unicode="&#x140;" horiz-adv-x="360" 
d="M50 0zM168 670l35 30h70l-123 -700h-100zM266 350q5 26 25 43t46 17t40 -17t9 -43t-24.5 -43t-45.5 -17t-40.5 17t-9.5 43z" />
    <glyph glyph-name="Lslash" unicode="&#x141;" horiz-adv-x="472" 
d="M280 700l-43 -245l128 85l-20 -110l-128 -85l-48 -275h280l-12 -70h-380l47 270l-76 -50l20 110l76 50l56 320h100z" />
    <glyph glyph-name="lslash" unicode="&#x142;" horiz-adv-x="290" 
d="M107 269l-69 -49l20 110l68 49l52 291l35 30h70l-43 -241l93 71l-19 -110l-93 -71l-61 -349h-100z" />
    <glyph glyph-name="Nacute" unicode="&#x143;" horiz-adv-x="630" 
d="M65 0zM273 445q-4 11 -6.5 25.5t-4.5 28.5q-3 15 -4 31h-4q-2 -16 -4 -31q-2 -14 -3.5 -28.5t-3.5 -25.5l-78 -445h-100l123 700h110l131 -445q3 -11 6 -26t5 -28q3 -16 4 -31h4q2 15 4 31q2 13 3.5 28t3.5 26l79 445h100l-123 -700h-110zM553 890l-117 -150h-65l72 150
h110z" />
    <glyph glyph-name="nacute" unicode="&#x144;" horiz-adv-x="545" 
d="M50 0zM331 435q-23 0 -43.5 -9.5t-36.5 -20.5q-18 -13 -35 -30l-66 -375h-100l88 500h70l-1 -60h5q17 19 41 35q20 13 49 24t67 11q37 0 66.5 -12.5t48 -35t25.5 -54t0 -68.5l-59 -340h-100l59 340q8 42 -14 68.5t-64 26.5zM488 700l-117 -150h-65l72 150h110z" />
    <glyph glyph-name="Ncommaaccent" unicode="&#x145;" horiz-adv-x="630" 
d="M65 0zM273 445q-4 11 -6.5 25.5t-4.5 28.5q-3 15 -4 31h-4q-2 -16 -4 -31q-2 -14 -3.5 -28.5t-3.5 -25.5l-78 -445h-100l123 700h110l131 -445q3 -11 6 -26t5 -28q3 -16 4 -31h4q2 15 4 31q2 13 3.5 28t3.5 26l79 445h100l-123 -700h-110zM223 -65q4 23 22 39t37 16
q26 0 40 -17.5t9 -46.5q-8 -40 -25 -68.5t-35 -47.5q-21 -22 -46 -36l-25 31q16 10 29 22q11 11 21 24.5t13 28.5q-19 0 -31.5 16t-8.5 39z" />
    <glyph glyph-name="ncommaaccent" unicode="&#x146;" horiz-adv-x="545" 
d="M50 0zM331 435q-23 0 -43.5 -9.5t-36.5 -20.5q-18 -13 -35 -30l-66 -375h-100l88 500h70l-1 -60h5q17 19 41 35q20 13 49 24t67 11q37 0 66.5 -12.5t48 -35t25.5 -54t0 -68.5l-59 -340h-100l59 340q8 42 -14 68.5t-64 26.5zM185 -65q4 23 22 39t37 16q26 0 40 -17.5
t9 -46.5q-8 -40 -25 -68.5t-35 -47.5q-21 -22 -46 -36l-25 31q16 10 29 22q11 11 21 24.5t13 28.5q-19 0 -31.5 16t-8.5 39z" />
    <glyph glyph-name="Ncaron" unicode="&#x147;" horiz-adv-x="630" 
d="M65 0zM273 445q-4 11 -6.5 25.5t-4.5 28.5q-3 15 -4 31h-4q-2 -16 -4 -31q-2 -14 -3.5 -28.5t-3.5 -25.5l-78 -445h-100l123 700h110l131 -445q3 -11 6 -26t5 -28q3 -16 4 -31h4q2 15 4 31q2 13 3.5 28t3.5 26l79 445h100l-123 -700h-110zM386 750l-82 130h65l64 -65
l86 65h65l-128 -130h-70z" />
    <glyph glyph-name="ncaron" unicode="&#x148;" horiz-adv-x="545" 
d="M50 0zM331 435q-23 0 -43.5 -9.5t-36.5 -20.5q-18 -13 -35 -30l-66 -375h-100l88 500h70l-1 -60h5q17 19 41 35q20 13 49 24t67 11q37 0 66.5 -12.5t48 -35t25.5 -54t0 -68.5l-59 -340h-100l59 340q8 42 -14 68.5t-64 26.5zM310 560l-82 130h65l64 -65l86 65h65
l-128 -130h-70z" />
    <glyph glyph-name="Omacron" unicode="&#x14c;" horiz-adv-x="600" 
d="M74 0zM191 350q-15 -83 -12.5 -138.5t16.5 -89t38 -48t52 -14.5t56.5 14.5t55 48t48 89t36.5 138.5q15 82 12.5 138t-17 89.5t-38 48t-51.5 14.5t-56.5 -14.5t-55 -48t-48 -89.5t-36.5 -138zM581 350q-17 -98 -47 -166t-70 -111.5t-88.5 -63t-102.5 -19.5t-96 19.5
t-66.5 63t-30.5 111.5t11 166q17 97 47 165.5t70 112t89 63t103 19.5t95.5 -19.5t66.5 -63t30.5 -112t-11.5 -165.5zM561 860l-12 -70h-270l12 70h270z" />
    <glyph glyph-name="omacron" unicode="&#x14d;" horiz-adv-x="530" 
d="M46 0zM499 250q-12 -66 -36 -114.5t-57.5 -81t-76 -48.5t-91.5 -16q-98 0 -145 64.5t-24 195.5q23 132 92.5 196t167.5 64q49 0 85.5 -16t59 -48.5t29.5 -81t-4 -114.5zM399 250q9 52 6.5 88.5t-14 59t-31 32.5t-43.5 10t-47 -10t-42.5 -32.5t-34.5 -59t-24 -88.5
q-9 -53 -7 -89t13.5 -58.5t31 -32.5t43.5 -10t47 10t42.5 32.5t35 58.5t24.5 89zM491 660l-12 -70h-270l12 70h270z" />
    <glyph glyph-name="Ohungarumlaut" unicode="&#x150;" horiz-adv-x="600" 
d="M74 0zM191 350q-15 -83 -12.5 -138.5t16.5 -89t38 -48t52 -14.5t56.5 14.5t55 48t48 89t36.5 138.5q15 82 12.5 138t-17 89.5t-38 48t-51.5 14.5t-56.5 -14.5t-55 -48t-48 -89.5t-36.5 -138zM581 350q-17 -98 -47 -166t-70 -111.5t-88.5 -63t-102.5 -19.5t-96 19.5
t-66.5 63t-30.5 111.5t11 166q17 97 47 165.5t70 112t89 63t103 19.5t95.5 -19.5t66.5 -63t30.5 -112t-11.5 -165.5zM475 900l-112 -150h-55l72 150h95zM610 900l-112 -150h-55l72 150h95z" />
    <glyph glyph-name="ohungarumlaut" unicode="&#x151;" horiz-adv-x="530" 
d="M46 0zM499 250q-12 -66 -36 -114.5t-57.5 -81t-76 -48.5t-91.5 -16q-98 0 -145 64.5t-24 195.5q23 132 92.5 196t167.5 64q49 0 85.5 -16t59 -48.5t29.5 -81t-4 -114.5zM399 250q9 52 6.5 88.5t-14 59t-31 32.5t-43.5 10t-47 -10t-42.5 -32.5t-34.5 -59t-24 -88.5
q-9 -53 -7 -89t13.5 -58.5t31 -32.5t43.5 -10t47 10t42.5 32.5t35 58.5t24.5 89zM395 700l-112 -150h-55l72 150h95zM530 700l-112 -150h-55l72 150h95z" />
    <glyph glyph-name="OE" unicode="&#x152;" horiz-adv-x="815" 
d="M320 0q-71 0 -122 19.5t-80.5 61.5t-36.5 108.5t10 160.5q16 94 46.5 160.5t74.5 108.5t102 61.5t129 19.5h440l-12 -70h-290l-41 -230h230l-12 -70h-230l-46 -260h290l-12 -70h-440zM382 70l99 560h-50q-45 0 -83 -14t-68 -47t-52.5 -86.5t-36.5 -132.5t-10.5 -132.5
t22 -86.5t51.5 -47t78 -14h50z" />
    <glyph glyph-name="oe" unicode="&#x153;" horiz-adv-x="820" 
d="M470 430q32 34 74.5 57t94.5 23q43 0 77 -16t55 -48.5t27.5 -81t-4.5 -114.5l-3 -15l-24 -20h-280q-7 -39 -3 -68.5t16.5 -48.5t33 -28.5t46.5 -9.5q23 0 43.5 7t37.5 15q19 10 37 23h10l24 -60q-23 -16 -50 -28q-23 -11 -54.5 -19t-69.5 -8q-49 0 -89 19.5t-61 60.5
q-35 -41 -76.5 -60.5t-98.5 -19.5q-94 0 -140.5 64.5t-23.5 195.5q23 132 92 196t163 64q57 0 91.5 -23t54.5 -57zM245 60q22 0 43 9.5t39.5 30.5t34 55t25.5 84l2 11l1 10q8 49 5 83.5t-14.5 56t-29 31t-39.5 9.5q-23 0 -44.5 -10t-40.5 -32.5t-34 -59t-24 -88.5
q-9 -53 -7 -89t13 -58.5t29 -32.5t41 -10zM627 440q-41 0 -77 -36.5t-50 -118.5h200q7 41 4.5 70.5t-13 48t-27 27.5t-37.5 9z" />
    <glyph glyph-name="Racute" unicode="&#x154;" horiz-adv-x="575" 
d="M65 0zM210 260l-45 -260h-100l123 700h170q128 0 179 -57t32 -163q-27 -160 -173 -205l119 -275h-115l-110 260h-80zM293 330q150 0 176 150q27 150 -123 150h-70l-53 -300h70zM523 900l-117 -150h-65l72 150h110z" />
    <glyph glyph-name="racute" unicode="&#x155;" horiz-adv-x="365" 
d="M50 0zM325 430q-21 0 -40.5 -9.5t-35.5 -20.5q-18 -13 -34 -30l-65 -370h-100l88 500h70l-1 -60h5q17 19 40 35q20 13 48 24t64 11q13 0 24.5 -1.5t20.5 -3.5q11 -3 19 -5l-29 -80h-10q-10 2 -21 5q-9 2 -20.5 3.5t-22.5 1.5zM425 700l-117 -150h-65l72 150h110z" />
    <glyph glyph-name="Rcommaaccent" unicode="&#x156;" horiz-adv-x="575" 
d="M65 0zM210 260l-45 -260h-100l123 700h170q128 0 179 -57t32 -163q-27 -160 -173 -205l119 -275h-115l-110 260h-80zM293 330q150 0 176 150q27 150 -123 150h-70l-53 -300h70zM200 -65q4 23 22 39t37 16q26 0 40 -17.5t9 -46.5q-8 -40 -25 -68.5t-35 -47.5
q-21 -22 -46 -36l-25 31q16 10 29 22q11 11 21 24.5t13 28.5q-19 0 -31.5 16t-8.5 39z" />
    <glyph glyph-name="rcommaaccent" unicode="&#x157;" horiz-adv-x="365" 
d="M3 0zM325 430q-21 0 -40.5 -9.5t-35.5 -20.5q-18 -13 -34 -30l-65 -370h-100l88 500h70l-1 -60h5q17 19 40 35q20 13 48 24t64 11q13 0 24.5 -1.5t20.5 -3.5q11 -3 19 -5l-29 -80h-10q-10 2 -21 5q-9 2 -20.5 3.5t-22.5 1.5zM26 -104q4 23 22 39t37 16q26 0 40 -17.5
t9 -46.5q-8 -40 -25 -68.5t-35 -47.5q-21 -22 -46 -36l-25 31q16 10 29 22q11 11 21 24.5t13 28.5q-19 0 -31.5 16t-8.5 39z" />
    <glyph glyph-name="Rcaron" unicode="&#x158;" horiz-adv-x="575" 
d="M65 0zM210 260l-45 -260h-100l123 700h170q128 0 179 -57t32 -163q-27 -160 -173 -205l119 -275h-115l-110 260h-80zM293 330q150 0 176 150q27 150 -123 150h-70l-53 -300h70zM345 760l-82 130h65l64 -65l86 65h65l-128 -130h-70z" />
    <glyph glyph-name="rcaron" unicode="&#x159;" horiz-adv-x="380" 
d="M50 0zM325 430q-21 0 -40.5 -9.5t-35.5 -20.5q-18 -13 -34 -30l-65 -370h-100l88 500h70l-1 -60h5q17 19 40 35q20 13 48 24t64 11q13 0 24.5 -1.5t20.5 -3.5q11 -3 19 -5l-29 -80h-10q-10 2 -21 5q-9 2 -20.5 3.5t-22.5 1.5zM268 560l-82 130h65l64 -65l86 65h65
l-128 -130h-70z" />
    <glyph glyph-name="Sacute" unicode="&#x15a;" horiz-adv-x="505" 
d="M17 0zM355 710q49 0 83.5 -8.5t57.5 -19.5q26 -12 44 -27l-46 -60h-10q-13 12 -32 22q-17 8 -41.5 15.5t-58.5 7.5q-26 0 -49.5 -9t-42 -24t-31 -35t-16.5 -42q-7 -40 12.5 -65.5t52.5 -45t72 -37t70.5 -42t49.5 -60t8 -90.5q-8 -45 -29 -82t-55 -63t-79.5 -40.5
t-101.5 -14.5q-49 0 -85.5 8t-61.5 19q-29 12 -49 28l46 60h10q16 -13 37 -23q18 -8 44.5 -15t60.5 -7q68 0 110 33.5t51 86.5q7 40 -12.5 65.5t-52.5 45t-72 37t-70.5 42t-49.5 60t-8 90.5q7 41 28 76t52.5 60.5t73 39.5t90.5 14zM503 900l-117 -150h-65l72 150h110z" />
    <glyph glyph-name="sacute" unicode="&#x15b;" horiz-adv-x="460" 
d="M17 0zM193 -10q-45 0 -78 8t-55 19q-26 12 -43 28l46 60h10q13 -13 31 -23q15 -8 38 -15t53 -7q64 0 93 20t34 50q5 27 -13 43.5t-46.5 28.5t-63 23t-62.5 28t-44.5 43t-8.5 69q11 64 64 104.5t151 40.5q42 0 72.5 -8.5t51.5 -19.5q25 -12 42 -27l-46 -60h-10
q-13 12 -30 22q-14 8 -35 15.5t-47 7.5q-53 0 -79.5 -19.5t-31.5 -45.5q-5 -27 13 -43.5t46.5 -28.5t63 -23t62.5 -28t44 -43.5t9 -68.5q-12 -68 -67 -109t-164 -41zM435 700l-117 -150h-65l72 150h110z" />
    <glyph glyph-name="Scedilla" unicode="&#x15e;" horiz-adv-x="505" 
d="M17 0zM355 710q49 0 83.5 -8.5t57.5 -19.5q26 -12 44 -27l-46 -60h-10q-13 12 -32 22q-17 8 -41.5 15.5t-58.5 7.5q-26 0 -49.5 -9t-42 -24t-31 -35t-16.5 -42q-7 -40 12.5 -65.5t52.5 -45t72 -37t70.5 -42t49.5 -60t8 -90.5q-8 -45 -29 -82t-55 -63t-79.5 -40.5
t-101.5 -14.5q-49 0 -85.5 8t-61.5 19q-29 12 -49 28l46 60h10q16 -13 37 -23q18 -8 44.5 -15t60.5 -7q68 0 110 33.5t51 86.5q7 40 -12.5 65.5t-52.5 45t-72 37t-70.5 42t-49.5 60t-8 90.5q7 41 28 76t52.5 60.5t73 39.5t90.5 14zM229 -30q42 0 62 -23t14 -57t-35 -57
t-74 -23q-19 0 -33 3t-23 7q-11 4 -19 10l22 40h9q-1 0 11 -7.5t31 -7.5t31.5 10t14.5 25q3 15 -6.5 25t-32.5 10h-40l17 95h60z" />
    <glyph glyph-name="scedilla" unicode="&#x15f;" horiz-adv-x="460" 
d="M17 0zM193 -10q-45 0 -78 8t-55 19q-26 12 -43 28l46 60h10q13 -13 31 -23q15 -8 38 -15t53 -7q64 0 93 20t34 50q5 27 -13 43.5t-46.5 28.5t-63 23t-62.5 28t-44.5 43t-8.5 69q11 64 64 104.5t151 40.5q42 0 72.5 -8.5t51.5 -19.5q25 -12 42 -27l-46 -60h-10
q-13 12 -30 22q-14 8 -35 15.5t-47 7.5q-53 0 -79.5 -19.5t-31.5 -45.5q-5 -27 13 -43.5t46.5 -28.5t63 -23t62.5 -28t44 -43.5t9 -68.5q-12 -68 -67 -109t-164 -41zM216 -30q42 0 62 -23t14 -57t-35 -57t-74 -23q-19 0 -33 3t-23 7q-11 4 -19 10l22 40h9q-1 0 11 -7.5
t31 -7.5t31.5 10t14.5 25q3 15 -6.5 25t-32.5 10h-40l17 95h60z" />
    <glyph glyph-name="Scaron" unicode="&#x160;" horiz-adv-x="505" 
d="M17 0zM355 710q49 0 83.5 -8.5t57.5 -19.5q26 -12 44 -27l-46 -60h-10q-13 12 -32 22q-17 8 -41.5 15.5t-58.5 7.5q-26 0 -49.5 -9t-42 -24t-31 -35t-16.5 -42q-7 -40 12.5 -65.5t52.5 -45t72 -37t70.5 -42t49.5 -60t8 -90.5q-8 -45 -29 -82t-55 -63t-79.5 -40.5
t-101.5 -14.5q-49 0 -85.5 8t-61.5 19q-29 12 -49 28l46 60h10q16 -13 37 -23q18 -8 44.5 -15t60.5 -7q68 0 110 33.5t51 86.5q7 40 -12.5 65.5t-52.5 45t-72 37t-70.5 42t-49.5 60t-8 90.5q7 41 28 76t52.5 60.5t73 39.5t90.5 14zM325 760l-82 130h65l64 -65l86 65h65
l-128 -130h-70z" />
    <glyph glyph-name="scaron" unicode="&#x161;" horiz-adv-x="460" 
d="M17 0zM193 -10q-45 0 -78 8t-55 19q-26 12 -43 28l46 60h10q13 -13 31 -23q15 -8 38 -15t53 -7q64 0 93 20t34 50q5 27 -13 43.5t-46.5 28.5t-63 23t-62.5 28t-44.5 43t-8.5 69q11 64 64 104.5t151 40.5q42 0 72.5 -8.5t51.5 -19.5q25 -12 42 -27l-46 -60h-10
q-13 12 -30 22q-14 8 -35 15.5t-47 7.5q-53 0 -79.5 -19.5t-31.5 -45.5q-5 -27 13 -43.5t46.5 -28.5t63 -23t62.5 -28t44 -43.5t9 -68.5q-12 -68 -67 -109t-164 -41zM268 560l-82 130h65l64 -65l86 65h65l-128 -130h-70z" />
    <glyph glyph-name="Tcommaaccent" unicode="&#x162;" horiz-adv-x="480" 
d="M96 0zM165 0l111 630h-180l12 70h460l-12 -70h-180l-111 -630h-100zM139 -114q4 23 22 39t37 16q26 0 40 -17.5t9 -46.5q-8 -40 -25 -68.5t-35 -47.5q-21 -22 -46 -36l-25 31q16 10 29 22q11 11 21 24.5t13 28.5q-19 0 -31.5 16t-8.5 39z" />
    <glyph glyph-name="tcommaaccent" unicode="&#x163;" horiz-adv-x="400" 
d="M70 0zM196 150q-8 -45 8.5 -67.5t50.5 -22.5q17 0 33.5 6t29.5 14q15 9 29 20h10l25 -60q-21 -14 -45 -25q-20 -10 -47 -17.5t-57 -7.5q-38 0 -66 11.5t-46 32.5t-24.5 50.5t-0.5 65.5l49 280h-75l11 60l153 130h45l-21 -120h125l-13 -70h-125zM144 -114q4 23 22 39
t37 16q26 0 40 -17.5t9 -46.5q-8 -40 -25 -68.5t-35 -47.5q-21 -22 -46 -36l-25 31q16 10 29 22q11 11 21 24.5t13 28.5q-19 0 -31.5 16t-8.5 39z" />
    <glyph glyph-name="Tcaron" unicode="&#x164;" horiz-adv-x="480" 
d="M96 0zM165 0l111 630h-180l12 70h460l-12 -70h-180l-111 -630h-100zM313 760l-82 130h65l64 -65l86 65h65l-128 -130h-70z" />
    <glyph glyph-name="tcaron" unicode="&#x165;" horiz-adv-x="480" 
d="M434 565q4 23 22.5 39t37.5 16q26 0 40 -17.5t9 -46.5q-8 -40 -25.5 -68.5t-35.5 -47.5q-21 -22 -46 -36l-25 31q16 10 29 22q11 11 21 24.5t13 28.5q-19 0 -31.5 16t-8.5 39zM196 150q-8 -45 8.5 -67.5t50.5 -22.5q17 0 33.5 6t29.5 14q15 9 29 20h10l25 -60
q-21 -14 -45 -25q-20 -10 -47 -17.5t-57 -7.5q-38 0 -66 11.5t-46 32.5t-24.5 50.5t-0.5 65.5l49 280h-75l11 60l153 130h45l-21 -120h125l-13 -70h-125z" />
    <glyph glyph-name="Umacron" unicode="&#x16a;" horiz-adv-x="620" 
d="M78 0zM295 60q57 0 98 38.5t55 121.5l85 480h100l-85 -480q-20 -113 -88 -171.5t-177 -58.5t-157 58.5t-28 171.5l85 480h100l-85 -480q-14 -83 13 -121.5t84 -38.5zM569 850l-12 -70h-270l12 70h270z" />
    <glyph glyph-name="umacron" unicode="&#x16b;" horiz-adv-x="550" 
d="M71 0zM256 65q23 0 43 9.5t37 20.5q18 13 36 30l66 375h100l-88 -500h-70v60h-5q-17 -20 -41 -35q-20 -14 -49 -24.5t-67 -10.5t-67 12.5t-47.5 35t-25.5 53.5t0 69l60 340h100l-60 -340q-8 -42 14 -68.5t64 -26.5zM499 651l-12 -70h-270l12 70h270z" />
    <glyph glyph-name="Uring" unicode="&#x16e;" horiz-adv-x="620" 
d="M78 0zM295 60q57 0 98 38.5t55 121.5l85 480h100l-85 -480q-20 -113 -88 -171.5t-177 -58.5t-157 58.5t-28 171.5l85 480h100l-85 -480q-14 -83 13 -121.5t84 -38.5zM437 870q-15 0 -29 -11t-19 -34q-4 -23 7 -34t26 -11t29 11t18 34q5 23 -6 34t-26 11zM446 920
q45 0 68 -26.5t15 -68.5q-7 -42 -39 -68.5t-77 -26.5t-68 26.5t-16 68.5q8 42 40 68.5t77 26.5z" />
    <glyph glyph-name="uring" unicode="&#x16f;" horiz-adv-x="550" 
d="M71 0zM256 65q23 0 43 9.5t37 20.5q18 13 36 30l66 375h100l-88 -500h-70v60h-5q-17 -20 -41 -35q-20 -14 -49 -24.5t-67 -10.5t-67 12.5t-47.5 35t-25.5 53.5t0 69l60 340h100l-60 -340q-8 -42 14 -68.5t64 -26.5zM370 690q-15 0 -29 -11t-19 -34q-4 -23 7 -34t26 -11
t29 11t18 34q5 23 -6 34t-26 11zM379 740q45 0 68 -26.5t15 -68.5q-7 -42 -39 -68.5t-77 -26.5t-68 26.5t-16 68.5q8 42 40 68.5t77 26.5z" />
    <glyph glyph-name="Uhungarumlaut" unicode="&#x170;" horiz-adv-x="620" 
d="M78 0zM295 60q57 0 98 38.5t55 121.5l85 480h100l-85 -480q-20 -113 -88 -171.5t-177 -58.5t-157 58.5t-28 171.5l85 480h100l-85 -480q-14 -83 13 -121.5t84 -38.5zM483 890l-112 -150h-55l72 150h95zM618 890l-112 -150h-55l72 150h95z" />
    <glyph glyph-name="uhungarumlaut" unicode="&#x171;" horiz-adv-x="550" 
d="M71 0zM256 65q23 0 43 9.5t37 20.5q18 13 36 30l66 375h100l-88 -500h-70v60h-5q-17 -20 -41 -35q-20 -14 -49 -24.5t-67 -10.5t-67 12.5t-47.5 35t-25.5 53.5t0 69l60 340h100l-60 -340q-8 -42 14 -68.5t64 -26.5zM413 691l-112 -150h-55l72 150h95zM548 691l-112 -150
h-55l72 150h95z" />
    <glyph glyph-name="Uogonek" unicode="&#x172;" horiz-adv-x="620" 
d="M78 0zM295 60q57 0 98 38.5t55 121.5l85 480h100l-85 -480q-20 -113 -88 -171.5t-177 -58.5t-157 58.5t-28 171.5l85 480h100l-85 -480q-14 -83 13 -121.5t84 -38.5zM297 -100q11 0 22 3.5t19.5 7.5t13.5 7.5l5 3.5h9l-9 -52q-11 -8 -24 -13q-11 -5 -26.5 -8.5
t-34.5 -3.5q-45 0 -63.5 20.5t-12.5 54.5q2 17 13 31.5t22 25.5q13 12 29 23h70q-16 -8 -29 -19q-11 -9 -21 -21t-12 -25q-2 -15 6 -25t23 -10z" />
    <glyph glyph-name="uogonek" unicode="&#x173;" horiz-adv-x="545" 
d="M71 0zM256 65q23 0 43 9.5t37 20.5q18 13 36 30l66 375h100l-88 -500h-70v60h-5q-17 -20 -41 -35q-20 -14 -49 -24.5t-67 -10.5t-67 12.5t-47.5 35t-25.5 53.5t0 69l60 340h100l-60 -340q-8 -42 14 -68.5t64 -26.5zM422 -100q11 0 22 3.5t19.5 7.5t13.5 7.5l5 3.5h9
l-9 -52q-11 -8 -24 -13q-11 -5 -26.5 -8.5t-34.5 -3.5q-45 0 -63.5 20.5t-12.5 54.5q2 17 13 31.5t22 25.5q13 12 29 23h70q-16 -8 -29 -19q-11 -9 -21 -21t-12 -25q-2 -15 6 -25t23 -10z" />
    <glyph glyph-name="Ydieresis" unicode="&#x178;" horiz-adv-x="530" 
d="M98 0zM523 700h105l-298 -470l-40 -230h-100l40 230l-132 470h105l86 -305l4 -20t3 -19q1 -11 1 -21h4q4 10 8 21q8 20 20 39zM349 820q-5 -24 -23 -39.5t-42 -15.5t-37 15.5t-8 39.5q4 24 22.5 39.5t42.5 15.5t36.5 -15.5t8.5 -39.5zM524 820q-5 -24 -23 -39.5
t-42 -15.5t-37 15.5t-8 39.5q4 24 22.5 39.5t42.5 15.5t36.5 -15.5t8.5 -39.5z" />
    <glyph glyph-name="Zacute" unicode="&#x179;" horiz-adv-x="485" 
d="M0 0zM0 0l13 75l408 555h-310l12 70h430l-13 -75l-408 -555h315l-12 -70h-435zM483 900l-117 -150h-65l72 150h110z" />
    <glyph glyph-name="zacute" unicode="&#x17a;" horiz-adv-x="440" 
d="M10 0zM10 0l13 75l307 355h-245l13 70h365l-14 -75l-307 -355h250l-12 -70h-370zM425 700l-117 -150h-65l72 150h110z" />
    <glyph glyph-name="Zdotaccent" unicode="&#x17b;" horiz-adv-x="485" 
d="M0 0zM0 0l13 75l408 555h-310l12 70h430l-13 -75l-408 -555h315l-12 -70h-435zM421 820q-5 -26 -25 -43t-46 -17t-40 17t-9 43t24.5 43t45.5 17t40.5 -17t9.5 -43z" />
    <glyph glyph-name="zdotaccent" unicode="&#x17c;" horiz-adv-x="440" 
d="M10 0zM10 0l13 75l307 355h-245l13 70h365l-14 -75l-307 -355h250l-12 -70h-370zM364 620q-5 -26 -25 -43t-46 -17t-40 17t-9 43t24.5 43t45.5 17t40.5 -17t9.5 -43z" />
    <glyph glyph-name="Zcaron" unicode="&#x17d;" horiz-adv-x="485" 
d="M0 0zM0 0l13 75l408 555h-310l12 70h430l-13 -75l-408 -555h315l-12 -70h-435zM315 760l-82 130h65l64 -65l86 65h65l-128 -130h-70z" />
    <glyph glyph-name="zcaron" unicode="&#x17e;" horiz-adv-x="440" 
d="M10 0zM10 0l13 75l307 355h-245l13 70h365l-14 -75l-307 -355h250l-12 -70h-370zM258 560l-82 130h65l64 -65l86 65h65l-128 -130h-70z" />
    <glyph glyph-name="florin" unicode="&#x192;" horiz-adv-x="391" 
d="M177 430h-65l19 70h65l12 50q19 72 73 116t135 44q32 0 56 -8.5t41 -19.5q19 -12 33 -27l-52 -60h-10q-10 12 -22 22q-11 8 -24.5 15.5t-30.5 7.5q-34 0 -61 -22.5t-38 -67.5l-12 -50h135l-19 -70h-135l-126 -470q-19 -72 -73.5 -116t-131.5 -44q-23 0 -39.5 4.5
t-27.5 10.5q-13 6 -23 15l42 65h10q6 -8 13 -13q6 -5 14.5 -8.5t19.5 -3.5q35 0 60 22.5t36 67.5z" />
    <glyph glyph-name="Scommaaccent" unicode="&#x218;" horiz-adv-x="505" 
d="M17 0zM355 710q49 0 83.5 -8.5t57.5 -19.5q26 -12 44 -27l-46 -60h-10q-13 12 -32 22q-17 8 -41.5 15.5t-58.5 7.5q-26 0 -49.5 -9t-42 -24t-31 -35t-16.5 -42q-7 -40 12.5 -65.5t52.5 -45t72 -37t70.5 -42t49.5 -60t8 -90.5q-8 -45 -29 -82t-55 -63t-79.5 -40.5
t-101.5 -14.5q-49 0 -85.5 8t-61.5 19q-29 12 -49 28l46 60h10q16 -13 37 -23q18 -8 44.5 -15t60.5 -7q68 0 110 33.5t51 86.5q7 40 -12.5 65.5t-52.5 45t-72 37t-70.5 42t-49.5 60t-8 90.5q7 41 28 76t52.5 60.5t73 39.5t90.5 14zM160 -109q4 23 22 39t37 16q26 0 40 -17.5
t9 -46.5q-8 -40 -25 -68.5t-35 -47.5q-21 -22 -46 -36l-25 31q16 10 29 22q11 11 21 24.5t13 28.5q-19 0 -31.5 16t-8.5 39z" />
    <glyph glyph-name="scommaaccent" unicode="&#x219;" horiz-adv-x="460" 
d="M17 0zM193 -10q-45 0 -78 8t-55 19q-26 12 -43 28l46 60h10q13 -13 31 -23q15 -8 38 -15t53 -7q64 0 93 20t34 50q5 27 -13 43.5t-46.5 28.5t-63 23t-62.5 28t-44.5 43t-8.5 69q11 64 64 104.5t151 40.5q42 0 72.5 -8.5t51.5 -19.5q25 -12 42 -27l-46 -60h-10
q-13 12 -30 22q-14 8 -35 15.5t-47 7.5q-53 0 -79.5 -19.5t-31.5 -45.5q-5 -27 13 -43.5t46.5 -28.5t63 -23t62.5 -28t44 -43.5t9 -68.5q-12 -68 -67 -109t-164 -41zM140 -109q4 23 22 39t37 16q26 0 40 -17.5t9 -46.5q-8 -40 -25 -68.5t-35 -47.5q-21 -22 -46 -36l-25 31
q16 10 29 22q11 11 21 24.5t13 28.5q-19 0 -31.5 16t-8.5 39z" />
    <glyph glyph-name="circumflex" unicode="&#x2c6;" horiz-adv-x="320" 
d="M291 690l82 -130h-65l-63 65l-87 -65h-65l128 130h70z" />
    <glyph glyph-name="caron" unicode="&#x2c7;" horiz-adv-x="320" 
d="M198 560l-82 130h65l64 -65l86 65h65l-128 -130h-70z" />
    <glyph glyph-name="breve" unicode="&#x2d8;" horiz-adv-x="320" 
d="M244 620q30 0 47.5 16t24.5 54h90q-11 -60 -54.5 -95t-118.5 -35t-106.5 35t-20.5 95h90q-7 -38 5.5 -54t42.5 -16z" />
    <glyph glyph-name="dotaccent" unicode="&#x2d9;" horiz-adv-x="140" 
d="M214 620q-5 -26 -25 -43t-46 -17t-40 17t-9 43t24.5 43t45.5 17t40.5 -17t9.5 -43z" />
    <glyph glyph-name="ring" unicode="&#x2da;" horiz-adv-x="220" 
d="M204 680q-15 0 -29 -11t-19 -34q-4 -23 7 -34t26 -11t29 11t18 34q5 23 -6 34t-26 11zM213 730q45 0 68 -26.5t15 -68.5q-7 -42 -39 -68.5t-77 -26.5t-68 26.5t-16 68.5q8 42 40 68.5t77 26.5z" />
    <glyph glyph-name="ogonek" unicode="&#x2db;" horiz-adv-x="190" 
d="M72 -100q11 0 22 3.5t19.5 7.5t13.5 7.5l5 3.5h9l-9 -52q-11 -8 -24 -13q-11 -5 -26.5 -8.5t-34.5 -3.5q-45 0 -63.5 20.5t-12.5 54.5q2 17 13 31.5t22 25.5q13 12 29 23h70q-16 -8 -29 -19q-11 -9 -21 -21t-12 -25q-2 -15 6 -25t23 -10z" />
    <glyph glyph-name="tilde" unicode="&#x2dc;" horiz-adv-x="295" 
d="M341 690l36 -25q-17 -34 -42 -59.5t-63 -25.5q-19 0 -30 7t-18.5 15.5t-15 15.5t-18.5 7t-21 -6.5t-17 -14t-11 -13.5l-4 -6h-9l-36 25q17 34 42 59.5t63 25.5q19 0 30 -7t18.5 -15.5t15 -15.5t18.5 -7t21 6t17 13.5t11 14l4 6.5h9z" />
    <glyph glyph-name="hungarumlaut" unicode="&#x2dd;" horiz-adv-x="295" 
d="M248 700l-112 -150h-55l72 150h95zM383 700l-112 -150h-55l72 150h95z" />
    <glyph glyph-name="afii10023" unicode="&#x401;" 
d="M65 0l123 700h390l-12 -70h-290l-41 -230h230l-12 -70h-230l-46 -260h290l-12 -70h-390zM369 820q-5 -24 -23 -39.5t-42 -15.5t-37 15.5t-8 39.5t23 39.5t42 15.5t37 -15.5t8 -39.5zM554 820q-5 -24 -23 -39.5t-42 -15.5t-37 15.5t-8 39.5t23 39.5t42 15.5t37 -15.5
t8 -39.5z" />
    <glyph glyph-name="afii10051" unicode="&#x402;" horiz-adv-x="640" 
d="M587 130q-6 -36 -22.5 -65.5t-41 -50.5t-55 -32.5t-64.5 -11.5q-17 0 -32 2t-26 5q-13 4 -24 8l21 65h10q6 -3 14 -5q13 -5 30 -5q34 0 58 22.5t32 67.5l22 125q11 57 -18.5 91t-93.5 34q-25 0 -46 -2.5t-37 -5.5q-18 -4 -35 -7l-64 -365h-100l111 630h-140l12 70h420
l-12 -70h-180l-35 -195q18 3 41 7q20 3 46 5.5t56 2.5q49 0 85.5 -14.5t59 -40t30.5 -61.5t0 -79z" />
    <glyph glyph-name="afii10052" unicode="&#x403;" horiz-adv-x="490" 
d="M65 0l123 700h390l-12 -70h-290l-111 -630h-100zM538 900l-116 -150h-65l71 150h110z" />
    <glyph glyph-name="afii10053" unicode="&#x404;" horiz-adv-x="515" 
d="M91 350q17 97 47 165.5t70.5 112t90.5 63t106 19.5q42 0 72.5 -8.5t51.5 -19.5q24 -12 41 -27l-46 -60h-10q-13 12 -30 22q-14 8 -35 15.5t-47 7.5q-32 0 -61.5 -12.5t-55.5 -41.5t-48 -77t-38 -119h234l-12 -70h-235q-11 -73 -6.5 -123t22 -80.5t45 -43.5t63.5 -13
q26 0 49.5 7t40.5 15q20 10 38 23h10l24 -60q-23 -16 -51 -28q-24 -11 -57.5 -19t-75.5 -8q-60 0 -105 19.5t-71 63t-32 111.5t11 166z" />
    <glyph glyph-name="afii10054" unicode="&#x405;" horiz-adv-x="505" 
d="M355 710q49 0 83.5 -8.5t57.5 -19.5q26 -12 44 -27l-46 -60h-10q-13 12 -32 22q-17 8 -41.5 15.5t-58.5 7.5q-26 0 -49.5 -9t-42 -24t-31 -35t-16.5 -42q-7 -40 12.5 -65.5t52.5 -45t72 -37t70.5 -42t49.5 -60t8 -90.5q-8 -45 -29 -82t-55 -63t-79.5 -40.5t-101.5 -14.5
q-49 0 -85.5 8t-61.5 19q-29 12 -49 28l46 60h10q16 -13 37 -23q18 -8 44.5 -15t60.5 -7q68 0 110 33.5t51 86.5q7 40 -12.5 65.5t-52.5 45t-72 37t-70.5 42t-49.5 60t-8 90.5q7 41 28 76t52.5 60.5t73 39.5t90.5 14z" />
    <glyph glyph-name="afii10055" unicode="&#x406;" horiz-adv-x="280" 
d="M188 700h100l-123 -700h-100z" />
    <glyph glyph-name="afii10056" unicode="&#x407;" horiz-adv-x="250" 
d="M178 700h100l-123 -700h-100zM218 840q-5 -26 -25 -43t-46 -17t-40 17t-9 43t24.5 43t45.5 17t40.5 -17t9.5 -43zM398 840q-5 -26 -25 -43t-46 -17t-40 17t-9 43t24.5 43t45.5 17t40.5 -17t9.5 -43z" />
    <glyph glyph-name="afii10057" unicode="&#x408;" horiz-adv-x="425" 
d="M110 60q57 0 91.5 31t46.5 99l90 510h100l-90 -510q-17 -98 -77.5 -149t-162.5 -51q-30 0 -53.5 7t-40.5 15q-19 10 -33 23l41 65h10q10 -11 22 -20q11 -8 25 -14t31 -6z" />
    <glyph glyph-name="afii10058" unicode="&#x409;" horiz-adv-x="881" 
d="M653 440q124 0 174.5 -57.5t31.5 -162.5q-18 -106 -88 -163t-195 -57h-191l111 630h-185l-108 -470q-20 -87 -64 -128.5t-101 -41.5q-23 0 -38 5q-9 2 -15 5l16 65h10q2 -2 6 -3q6 -2 13 -2q19 0 39 21.5t34 78.5l125 540h381l-46 -260h90zM551 370l-53 -300h90
q145 0 171 150q27 150 -118 150h-90z" />
    <glyph glyph-name="afii10059" unicode="&#x40a;" horiz-adv-x="900" 
d="M669 420q62 0 105.5 -14.5t69 -41.5t33.5 -66t0 -88q-17 -98 -87.5 -154t-194.5 -56h-190l61 350h-240l-61 -350h-100l123 700h100l-49 -280h240l49 280h100l-49 -280h90zM566 350l-49 -280h90q72 0 115 36t55 104q11 68 -19 104t-102 36h-90z" />
    <glyph glyph-name="afii10060" unicode="&#x40b;" horiz-adv-x="650" 
d="M215 0h-100l111 630h-140l12 70h420l-12 -70h-180l-35 -195q18 3 41 7q20 3 46 5.5t56 2.5q49 0 85.5 -14.5t59 -40t30.5 -61.5t0 -79l-44 -255h-100l44 255q11 57 -18.5 91t-93.5 34q-25 0 -46 -2.5t-37 -5.5q-18 -4 -35 -7z" />
    <glyph glyph-name="afii10061" unicode="&#x40c;" horiz-adv-x="585" 
d="M536 890l-116 -150h-65l71 150h110zM389 365q21 -6 39 -18q15 -11 28 -30.5t15 -51.5l7 -160q3 -45 32 -45q6 0 14 2q4 1 7 3h5l-1 -65q-7 -3 -16 -5q-18 -5 -46 -5q-49 0 -72.5 27.5t-25.5 72.5l-6 160q-2 34 -20.5 54.5t-56.5 20.5h-70l-57 -325h-100l123 700h100
l-54 -305h60q42 0 69 20.5t39 54.5l50 140q17 45 50.5 72.5t82.5 27.5q15 0 25.5 -1.5t18.5 -3.5q8 -3 14 -5l-22 -65h-5l-6 2l-6 2t-7 1q-32 0 -48 -45l-49 -140q-11 -30 -29.5 -48t-36.5 -27q-21 -11 -45 -15z" />
    <glyph glyph-name="afii10062" unicode="&#x40e;" horiz-adv-x="536" 
d="M387 800q30 0 47.5 16t24.5 54h90q-11 -60 -54.5 -95t-118.5 -35t-106.5 35t-20.5 95h90q-7 -38 5.5 -54t42.5 -16zM295 335q2 -10 3.5 -22.5t2.5 -24.5l2 -28h4l12 28q5 11 10.5 24t10.5 23l184 365h100l-286 -575q-14 -28 -35 -53.5t-47 -44.5t-56 -30.5t-62 -11.5
q-25 0 -43 4.5t-31 10.5q-15 6 -26 15l37 65h10q6 -8 14 -13q7 -5 17 -8.5t24 -3.5q30 0 56 20t42 50l30 60h-45l-115 515h105z" />
    <glyph glyph-name="afii10145" unicode="&#x40f;" horiz-adv-x="630" 
d="M65 0l123 700h100l-111 -630h250l111 630h100l-123 -700h-175l-37 -150h-80l17 150h-175z" />
    <glyph glyph-name="afii10017" unicode="&#x410;" horiz-adv-x="570" 
d="M430 0l-24 180h-230l-86 -180h-100l328 700h130l82 -700h-100zM209 250h190l-32 275q-2 11 -2 23.5v23.5q0 12 1 23h-4q-3 -12 -7 -24q-4 -11 -8.5 -23t-9.5 -23z" />
    <glyph glyph-name="afii10018" unicode="&#x411;" horiz-adv-x="570" 
d="M329 420q62 0 105.5 -14.5t69 -41.5t33.5 -66t0 -88q-17 -98 -87.5 -154t-194.5 -56h-190l123 700h390l-12 -70h-290l-37 -210h90zM226 350l-49 -280h90q72 0 115 36t55 104q11 68 -19 104t-102 36h-90z" />
    <glyph glyph-name="afii10019" unicode="&#x412;" horiz-adv-x="575" 
d="M425 370q38 -9 64 -32q11 -10 21 -23.5t17 -31.5t9 -41t-3 -52q-15 -86 -83 -138t-195 -52h-190l123 700h190q54 0 93 -13.5t62.5 -36.5t32 -55.5t1.5 -69.5q-9 -49 -32 -79t-48 -47q-29 -20 -62 -29zM235 400h90q57 0 94 31t46 84q10 53 -16 84t-83 31h-90zM223 330
l-46 -260h90q75 0 116 33t52 97t-18 97t-104 33h-90z" />
    <glyph glyph-name="afii10020" unicode="&#x413;" horiz-adv-x="490" 
d="M65 0l123 700h390l-12 -70h-290l-111 -630h-100z" />
    <glyph glyph-name="afii10021" unicode="&#x414;" horiz-adv-x="620" 
d="M613 700l-111 -630h65l-39 -220h-80l12 150h-375l-42 -150h-84l38 220h50q17 17 33 43q14 22 28.5 55.5t25.5 81.5l104 450h375zM402 70l99 560h-180l-87 -380q-11 -48 -25.5 -81.5t-28.5 -55.5q-16 -26 -33 -43h255z" />
    <glyph glyph-name="afii10022" unicode="&#x415;" 
d="M65 0l123 700h390l-12 -70h-290l-41 -230h230l-12 -70h-230l-46 -260h290l-12 -70h-390z" />
    <glyph glyph-name="afii10024" unicode="&#x416;" horiz-adv-x="860" 
d="M524 395h45q42 0 69 20.5t39 54.5l50 140q17 45 50.5 72.5t82.5 27.5q15 0 25.5 -1.5t18.5 -3.5q8 -3 14 -5l-22 -65h-5l-6 2l-6 2t-7 1q-32 0 -48 -45l-49 -140q-11 -30 -30.5 -48t-38.5 -27q-23 -11 -47 -15q24 -6 42 -18q16 -11 29.5 -30.5t15.5 -51.5l7 -160
q3 -45 32 -45q6 0 14 2q4 1 7 3h5l-1 -65q-7 -3 -16 -5q-18 -5 -46 -5q-49 0 -72.5 27.5t-25.5 72.5l-6 160q-2 34 -20.5 54.5t-56.5 20.5h-55l-57 -325h-100l57 325h-55q-38 0 -63.5 -20.5t-39.5 -54.5l-64 -160q-17 -45 -50 -72.5t-82 -27.5q-29 0 -44 5q-9 2 -14 5l21 65
h5q2 -2 6 -3q6 -2 13 -2q30 0 48 45l63 160q13 32 33.5 51.5t40.5 30.5q23 12 49 18q-24 4 -42 15q-16 9 -29 27t-13 48l-1 140q1 23 -8 34t-24 11q-4 0 -7.5 -1t-6.5 -2q-4 -1 -7 -2h-5l2 65q6 2 16 5q8 2 19.5 3.5t26.5 1.5q49 0 73 -27.5t24 -72.5v-140q0 -34 20 -54.5
t62 -20.5h45l54 305h100z" />
    <glyph glyph-name="afii10025" unicode="&#x417;" horiz-adv-x="520" 
d="M302 640q-30 0 -55.5 -7.5t-43.5 -15.5q-22 -10 -39 -22h-10l-24 60q22 15 52 27q26 11 62 19.5t81 8.5q56 0 96.5 -14t65.5 -38.5t34 -57.5t2 -70q-9 -49 -34 -80t-51 -49q-31 -21 -68 -31q38 -10 64 -33q11 -10 21 -23.5t17 -32t8.5 -42.5t-3.5 -54q-8 -43 -29 -79
t-57 -61.5t-86.5 -40t-116.5 -14.5q-49 0 -84 8t-58 19q-26 12 -44 28l46 60h10q13 -13 32 -23q17 -8 41.5 -15t58.5 -7q87 0 132.5 35.5t56.5 99.5t-19 99.5t-102 35.5h-90l12 70h90q60 0 101 33.5t50 86.5q10 53 -20.5 86.5t-98.5 33.5z" />
    <glyph glyph-name="afii10026" unicode="&#x418;" horiz-adv-x="630" 
d="M165 0h-100l123 700h100l-79 -445q-2 -11 -5 -26t-6 -28q-4 -16 -8 -31h4q7 15 15 31q7 13 14.5 28t15.5 26l299 445h100l-123 -700h-100l78 445q2 11 5 25.5t6 28.5q4 15 8 31h-4q-7 -16 -15 -31q-7 -14 -14.5 -28.5t-15.5 -25.5z" />
    <glyph glyph-name="afii10027" unicode="&#x419;" horiz-adv-x="630" 
d="M165 0h-100l123 700h100l-79 -445q-2 -11 -5 -26t-6 -28q-4 -16 -8 -31h4q7 15 15 31q7 13 14.5 28t15.5 26l299 445h100l-123 -700h-100l78 445q2 11 5 25.5t6 28.5q4 15 8 31h-4q-7 -16 -15 -31q-7 -14 -14.5 -28.5t-15.5 -25.5zM432 810q30 0 48 16t25 54h90
q-11 -60 -54.5 -95t-118.5 -35t-106.5 35t-20.5 95h90q-7 -38 5 -54t42 -16z" />
    <glyph glyph-name="afii10028" unicode="&#x41a;" horiz-adv-x="585" 
d="M384 365q24 -6 42 -18q16 -11 29.5 -30.5t15.5 -51.5l7 -160q3 -45 32 -45q6 0 14 2q4 1 7 3h5l-1 -65q-7 -3 -16 -5q-18 -5 -46 -5q-49 0 -72.5 27.5t-25.5 72.5l-6 160q-2 34 -20.5 54.5t-56.5 20.5h-70l-57 -325h-100l123 700h100l-54 -305h60q42 0 69 20.5t39 54.5
l50 140q17 45 50.5 72.5t82.5 27.5q15 0 25.5 -1.5t18.5 -3.5q8 -3 14 -5l-22 -65h-5l-6 2l-6 2t-7 1q-32 0 -48 -45l-49 -140q-11 -30 -30.5 -48t-38.5 -27q-23 -11 -47 -15z" />
    <glyph glyph-name="afii10029" unicode="&#x41b;" horiz-adv-x="610" 
d="M30 60q19 0 39 21.5t34 78.5l125 540h390l-123 -700h-100l111 630h-195l-108 -470q-20 -87 -64 -128.5t-101 -41.5q-23 0 -38 5q-9 2 -15 5l16 65h10q2 -2 6 -3q6 -2 13 -2z" />
    <glyph glyph-name="afii10030" unicode="&#x41c;" horiz-adv-x="840" 
d="M423 275q5 -14 7 -31q1 -10 2 -19h4q5 9 9 19q4 8 8.5 16.5t9.5 14.5l285 425h100l-123 -700h-100l74 420q2 11 5 25.5t6 28.5q4 15 8 31h-4q-7 -16 -15 -31q-7 -14 -14.5 -28.5t-15.5 -25.5l-202 -295h-100l-98 295q-4 11 -6.5 25.5t-4.5 28.5q-3 15 -4 31h-4
q-2 -16 -4 -31q-2 -14 -3.5 -28.5t-3.5 -25.5l-74 -420h-100l123 700h100z" />
    <glyph glyph-name="afii10031" unicode="&#x41d;" horiz-adv-x="630" 
d="M638 700l-123 -700h-100l56 320h-250l-56 -320h-100l123 700h100l-55 -310h250l55 310h100z" />
    <glyph glyph-name="afii10032" unicode="&#x41e;" horiz-adv-x="600" 
d="M191 350q-15 -83 -12.5 -138.5t16.5 -89t38 -48t52 -14.5t56.5 14.5t55 48t48 89t36.5 138.5q15 82 12.5 138t-17 89.5t-38 48t-51.5 14.5t-56.5 -14.5t-55 -48t-48 -89.5t-36.5 -138zM581 350q-17 -98 -47 -166t-70 -111.5t-88.5 -63t-102.5 -19.5t-96 19.5t-66.5 63
t-30.5 111.5t11 166q17 97 47 165.5t70 112t89 63t103 19.5t95.5 -19.5t66.5 -63t30.5 -112t-11.5 -165.5z" />
    <glyph glyph-name="afii10033" unicode="&#x41f;" horiz-adv-x="630" 
d="M638 700l-123 -700h-100l111 630h-250l-111 -630h-100l123 700h450z" />
    <glyph glyph-name="afii10034" unicode="&#x420;" horiz-adv-x="565" 
d="M299 310q75 0 119.5 38.5t58.5 121.5q15 83 -15.5 121.5t-105.5 38.5h-80l-57 -320h80zM207 240l-42 -240h-100l123 700h180q128 0 178.5 -58.5t30.5 -171.5t-91 -171.5t-199 -58.5h-80z" />
    <glyph glyph-name="afii10035" unicode="&#x421;" horiz-adv-x="515" 
d="M91 350q17 97 47 165.5t70.5 112t90.5 63t106 19.5q42 0 72.5 -8.5t51.5 -19.5q24 -12 41 -27l-46 -60h-10q-13 12 -30 22q-14 8 -35 15.5t-47 7.5q-34 0 -65.5 -14.5t-59 -48t-49.5 -89.5t-37 -138q-15 -83 -12 -138.5t19.5 -89t45 -48t66.5 -14.5q26 0 49.5 7t40.5 15
q20 10 38 23h10l24 -60q-23 -16 -51 -28q-24 -11 -57.5 -19t-75.5 -8q-60 0 -105 19.5t-71 63t-32 111.5t11 166z" />
    <glyph glyph-name="afii10036" unicode="&#x422;" horiz-adv-x="480" 
d="M165 0l111 630h-180l12 70h460l-12 -70h-180l-111 -630h-100z" />
    <glyph glyph-name="afii10037" unicode="&#x423;" horiz-adv-x="536" 
d="M295 335q2 -10 3.5 -22.5t2.5 -24.5l2 -28h4l12 28q5 11 10.5 24t10.5 23l184 365h100l-286 -575q-14 -28 -35 -53.5t-47 -44.5t-56 -30.5t-62 -11.5q-25 0 -43 4.5t-31 10.5q-15 6 -26 15l37 65h10q6 -8 14 -13q7 -5 17 -8.5t24 -3.5q30 0 56 20t42 50l30 60h-45
l-115 515h105z" />
    <glyph glyph-name="afii10038" unicode="&#x424;" horiz-adv-x="770" 
d="M429 110q88 7 150 65.5t82 174.5q21 116 -20.5 174t-126.5 66zM438 730h100l-12 -70q138 -8 199.5 -85.5t35.5 -224.5t-115 -224.5t-229 -85.5l-13 -70h-100l13 70q-139 8 -200.5 85.5t-35.5 224.5t115 224.5t230 85.5zM414 590q-88 -8 -150 -65.5t-83 -174.5
q-20 -117 21.5 -174.5t126.5 -65.5z" />
    <glyph glyph-name="afii10039" unicode="&#x425;" horiz-adv-x="530" 
d="M303 475q2 -7 3.5 -14.5t3.5 -14.5q2 -8 3 -16h4l8 16q4 7 8.5 14.5t9.5 14.5l155 225h110l-241 -345l123 -355h-110l-79 235q-2 6 -3.5 14t-3.5 15q-2 8 -3 16h-4q-5 -8 -9 -16q-4 -7 -8 -15t-9 -14l-161 -235h-110l247 355l-119 345h110z" />
    <glyph glyph-name="afii10040" unicode="&#x426;" horiz-adv-x="635" 
d="M65 0l123 700h100l-111 -630h240l111 630h100l-111 -630h65l-39 -220h-80l12 150h-410z" />
    <glyph glyph-name="afii10041" unicode="&#x427;" horiz-adv-x="600" 
d="M508 700h100l-123 -700h-100l48 275q-19 -4 -42 -8q-20 -3 -45.5 -5t-55.5 -2q-49 0 -85.5 14.5t-59 40t-30.5 61.5t0 79l43 245h100l-43 -245q-10 -57 19.5 -91t93.5 -34q24 0 45.5 2t37.5 5q18 4 34 8z" />
    <glyph glyph-name="afii10042" unicode="&#x428;" horiz-adv-x="920" 
d="M805 0h-740l123 700h100l-111 -630h220l111 630h100l-111 -630h220l111 630h100z" />
    <glyph glyph-name="afii10043" unicode="&#x429;" horiz-adv-x="935" 
d="M65 0l123 700h100l-111 -630h220l111 630h100l-111 -630h220l111 630h100l-111 -630h65l-39 -220h-80l12 150h-710z" />
    <glyph glyph-name="afii10044" unicode="&#x42a;" horiz-adv-x="620" 
d="M108 700h240l-46 -260h90q124 0 174.5 -57.5t31.5 -162.5q-18 -106 -88 -163t-195 -57h-190l111 630h-140zM290 370l-53 -300h90q145 0 171 150q27 150 -118 150h-90z" />
    <glyph glyph-name="afii10045" unicode="&#x42b;" horiz-adv-x="800" 
d="M708 700h100l-123 -700h-100zM322 440q124 0 174.5 -57.5t31.5 -162.5q-18 -106 -88 -163t-195 -57h-180l123 700h100l-46 -260h80zM230 370l-53 -300h80q145 0 171 150q27 150 -118 150h-80z" />
    <glyph glyph-name="afii10046" unicode="&#x42c;" horiz-adv-x="560" 
d="M332 440q124 0 174.5 -57.5t31.5 -162.5q-18 -106 -88 -163t-195 -57h-190l123 700h100l-46 -260h90zM230 370l-53 -300h90q145 0 171 150q27 150 -118 150h-90z" />
    <glyph glyph-name="afii10047" unicode="&#x42d;" horiz-adv-x="515" 
d="M496 350q-17 -98 -47.5 -166t-71.5 -111.5t-92.5 -63t-111.5 -19.5q-42 0 -72.5 8t-51.5 19q-25 12 -42 28l46 60h10q13 -13 30 -23q14 -8 35 -15t47 -7q36 0 68.5 13t60.5 43.5t50 80.5t37 123h-235l12 70h234q9 71 4.5 119t-20.5 77t-41.5 41.5t-57.5 12.5
q-26 0 -49.5 -7.5t-40.5 -15.5q-20 -10 -38 -22h-10l-24 60q22 15 51 27q24 11 58 19.5t76 8.5q56 0 98.5 -19.5t68 -63t31 -112t-11.5 -165.5z" />
    <glyph glyph-name="afii10048" unicode="&#x42e;" horiz-adv-x="810" 
d="M620 710q51 0 90.5 -19.5t63 -63t29 -112t-11.5 -165.5q-17 -98 -47 -166t-69 -111.5t-85 -63t-97 -19.5q-49 0 -87 18t-62 57t-32 102t4 153h-95l-56 -320h-100l123 700h100l-55 -310h95q19 86 49 147t67.5 99.5t82 56t93.5 17.5zM505 60q24 0 51 14.5t52 48t46.5 89
t36.5 138.5q15 82 12.5 138t-15.5 89.5t-35 48t-46 14.5t-51 -14.5t-52 -48t-46.5 -89.5t-36.5 -138q-15 -83 -12.5 -138.5t15.5 -89t35 -48t46 -14.5z" />
    <glyph glyph-name="afii10049" unicode="&#x42f;" horiz-adv-x="570" 
d="M337 270q-34 0 -60.5 -20.5t-42.5 -54.5l-49 -105q-23 -49 -55 -74.5t-77 -25.5q-29 0 -44 5q-9 2 -14 5l21 65h5q2 -2 6 -3q6 -2 13 -2q11 0 24.5 11t23.5 34l49 105q12 26 28 42.5t31 26.5q18 11 36 16q-28 4 -52 19.5t-41 40t-24 58t0 72.5q18 102 89 158.5t199 56.5
h175l-123 -700h-100l47 270h-65zM414 340l52 290h-75q-150 0 -176 -145t124 -145h75z" />
    <glyph glyph-name="afii10065" unicode="&#x430;" 
d="M371 320q11 60 -12 90t-72 30q-23 0 -44 -7.5t-38 -15.5q-19 -10 -36 -22h-10l-24 60q22 15 49 27q23 11 55 19.5t70 8.5q43 0 76.5 -14t55 -39.5t29.5 -60.5t1 -76l-56 -320h-70v60h-5q-17 -20 -41 -35q-20 -14 -49 -24.5t-67 -10.5q-79 0 -115 41.5t-23 113.5
q6 34 23 61.5t46 47t72 30.5t101 11h80zM354 225h-80q-60 0 -91.5 -23t-37.5 -57q-7 -38 12 -59t64 -21q23 0 43 9.5t37 20.5q18 13 36 30z" />
    <glyph glyph-name="afii10066" unicode="&#x431;" horiz-adv-x="525" 
d="M411 605q-50 -9 -88 -24.5t-65 -41t-44 -62t-26 -87.5q29 38 69.5 59t89.5 21q37 0 68 -15.5t51 -46t27 -75.5t-3 -103t-33 -103t-56 -75.5t-74.5 -46t-88.5 -15.5q-94 0 -141 61.5t-27 178.5l17 95q17 96 43.5 160.5t66 106t92.5 64t122 34.5l145 25v-85zM309 395
q-45 0 -84.5 -39.5t-54.5 -125.5q-8 -45 -5 -77t14.5 -53t29.5 -30.5t41 -9.5q45 0 84.5 40t55.5 130q7 43 4 74t-14.5 51.5t-30 30t-40.5 9.5z" />
    <glyph glyph-name="afii10067" unicode="&#x432;" 
d="M370 260q31 -6 54 -21q10 -7 18.5 -16t14.5 -22t8 -29t-2 -37q-5 -28 -20.5 -52.5t-43 -43t-67.5 -29t-92 -10.5h-190l88 500h190q45 0 77 -10.5t51 -28.5t26 -41.5t3 -49.5q-6 -34 -25 -55.5t-39 -33.5q-24 -14 -51 -21zM225 430l-24 -140h90q38 0 62.5 20t29.5 50
t-12.5 50t-55.5 20h-90zM188 220l-26 -150h90q53 0 80 20.5t33 54.5t-14 54.5t-73 20.5h-90z" />
    <glyph glyph-name="afii10068" unicode="&#x433;" horiz-adv-x="415" 
d="M455 430h-230l-75 -430h-100l88 500h330z" />
    <glyph glyph-name="afii10069" unicode="&#x434;" horiz-adv-x="560" 
d="M523 500l-76 -430h65l-37 -210h-80l10 140h-325l-40 -140h-84l36 210h50q17 16 33 39q14 20 27 47.5t21 63.5l65 280h335zM347 70l63 360h-140l-47 -210q-8 -36 -21 -63.5t-27 -47.5q-16 -23 -33 -39h205z" />
    <glyph glyph-name="afii10070" unicode="&#x435;" horiz-adv-x="505" 
d="M319 510q45 0 80 -16t56.5 -48.5t28 -81t-4.5 -114.5l-3 -15l-24 -20h-290q-14 -79 14.5 -117t88.5 -38q23 0 43.5 7t37.5 15q19 10 37 23h10l24 -60q-23 -16 -50 -28q-23 -11 -54.5 -19t-69.5 -8q-102 0 -149.5 64t-24.5 196q11 66 34.5 114.5t56.5 81t73.5 48.5
t85.5 16zM307 440q-45 0 -81.5 -36.5t-50.5 -118.5h210q14 83 -9.5 119t-68.5 36z" />
    <glyph glyph-name="afii10072" unicode="&#x436;" horiz-adv-x="740" 
d="M647 325q-9 -21 -23 -33.5t-28.5 -19.5t-26 -9.5t-14.5 -2.5q2 0 13.5 -3.5t25 -11.5t25 -22.5t13.5 -37.5l8 -95q3 -30 25 -30q6 0 14 2q4 1 7 3h5l-1 -65q-8 -3 -18 -5q-18 -5 -44 -5q-42 0 -62 22t-23 63l-9 95q-2 23 -16 36.5t-40 13.5h-45l-38 -220h-100l38 220h-45
q-26 0 -44.5 -13.5t-29.5 -36.5l-41 -95q-18 -41 -45.5 -63t-69.5 -22q-25 0 -42 5q-9 2 -16 5l21 65h5q2 -2 6 -3q6 -2 13 -2q23 0 35 30l42 95q10 22 26 36.5t32 22.5t29 11.5t16 4.5q-2 0 -12.5 2t-22.5 9t-22 20t-11 34l-5 85q-3 30 -25 30q-4 0 -7.5 -1t-6.5 -2
q-4 -1 -7 -2h-5l2 65q7 2 17 5q8 2 19 3.5t25 1.5q43 0 63 -21.5t22 -63.5l5 -85q2 -23 15 -36.5t42 -13.5h35l37 210h100l-37 -210h35q29 0 46.5 13.5t26.5 36.5l35 85q17 42 44.5 63.5t70.5 21.5q13 0 24 -1.5t19 -3.5q9 -3 16 -5l-22 -65h-5l-6 2l-6 2t-7 1
q-23 0 -35 -30l-35 -85v0z" />
    <glyph glyph-name="afii10073" unicode="&#x437;" horiz-adv-x="450" 
d="M264 510q51 0 86 -10.5t55.5 -29t28 -43t2.5 -52.5q-6 -34 -26.5 -56t-42.5 -35q-26 -16 -57 -24q31 -6 54 -22q10 -7 18.5 -16.5t14 -23t7.5 -30.5t-2 -38q-5 -30 -21 -55.5t-44 -44.5t-69 -29.5t-95 -10.5q-45 0 -78 8t-55 19q-26 12 -43 28l46 60h10q13 -13 31 -23
q15 -8 38 -15t53 -7q64 0 93 21t36 59t-13 59t-73 21h-85l13 70h85q45 0 71 20.5t32 54.5t-14.5 54.5t-77.5 20.5q-26 0 -48.5 -7.5t-39.5 -15.5q-19 -10 -35 -22h-10l-24 60q21 15 48 27q23 11 56 19.5t75 8.5z" />
    <glyph glyph-name="afii10074" unicode="&#x438;" horiz-adv-x="550" 
d="M150 0h-100l88 500h100l-51 -285q-2 -11 -5 -23t-5 -23l-6 -24h4q5 12 12 24q6 11 13.5 23t16.5 23l221 285h100l-88 -500h-100l50 285q2 11 5 23t5 23l6 24h-4q-5 -12 -12 -24q-13 -23 -30 -46z" />
    <glyph glyph-name="afii10075" unicode="&#x439;" horiz-adv-x="550" 
d="M150 0h-100l88 500h100l-51 -285q-2 -11 -5 -23t-5 -23l-6 -24h4q5 12 12 24q6 11 13.5 23t16.5 23l221 285h100l-88 -500h-100l50 285q2 11 5 23t5 23l6 24h-4q-5 -12 -12 -24q-13 -23 -30 -46zM357 610q30 0 48 16t24 54h90q-11 -60 -54.5 -95t-118.5 -35t-106.5 35
t-20.5 95h90q-6 -38 6 -54t42 -16z" />
    <glyph glyph-name="afii10076" unicode="&#x43a;" 
d="M325 260q20 -3 37 -13q14 -8 26 -23t14 -39l8 -95q3 -30 25 -30q6 0 14 2q4 1 7 3h5l-1 -65q-8 -3 -18 -5q-18 -5 -44 -5q-42 0 -62 22t-23 63l-9 95q-2 23 -16 36.5t-40 13.5h-60l-38 -220h-100l88 500h100l-37 -210h50q29 0 46.5 13.5t26.5 36.5l35 85q17 42 44.5 63.5
t70.5 21.5q13 0 24 -1.5t19 -3.5q9 -3 16 -5l-22 -65h-5l-6 2l-6 2t-7 1q-23 0 -35 -30l-35 -85q-10 -23 -25 -35.5t-30 -19.5q-18 -8 -37 -10z" />
    <glyph glyph-name="afii10077" unicode="&#x43b;" horiz-adv-x="540" 
d="M30 60q19 0 36.5 20t31.5 80l80 340h350l-88 -500h-100l75 430h-155l-62 -270q-21 -90 -62.5 -130t-97.5 -40q-23 0 -38 5q-9 2 -15 5l16 65h10q2 -2 6 -3q6 -2 13 -2z" />
    <glyph glyph-name="afii10078" unicode="&#x43c;" horiz-adv-x="700" 
d="M289 85l-63 180q-4 11 -7 23.5t-5 23.5q-3 12 -5 23h-4l-2 -24q-2 -11 -3.5 -23t-3.5 -23l-46 -265h-100l88 500h105l100 -280q4 -12 8 -26q2 -7 3 -14h4l8 14q4 6 8 13t9 13l200 280h105l-88 -500h-100l46 265q5 25 11 46l6 24h-4q-6 -11 -13 -23q-6 -11 -14 -23.5
t-16 -23.5l-127 -180h-100z" />
    <glyph glyph-name="afii10079" unicode="&#x43d;" horiz-adv-x="550" 
d="M450 0h-100l38 220h-200l-38 -220h-100l88 500h100l-37 -210h200l37 210h100z" />
    <glyph glyph-name="afii10080" unicode="&#x43e;" horiz-adv-x="530" 
d="M499 250q-12 -66 -36 -114.5t-57.5 -81t-76 -48.5t-91.5 -16q-98 0 -145 64.5t-24 195.5q23 132 92.5 196t167.5 64q49 0 85.5 -16t59 -48.5t29.5 -81t-4 -114.5zM399 250q9 52 6.5 88.5t-14 59t-31 32.5t-43.5 10t-47 -10t-42.5 -32.5t-34.5 -59t-24 -88.5
q-9 -53 -7 -89t13.5 -58.5t31 -32.5t43.5 -10t47 10t42.5 32.5t35 58.5t24.5 89z" />
    <glyph glyph-name="afii10081" unicode="&#x43f;" horiz-adv-x="550" 
d="M450 0h-100l75 430h-200l-75 -430h-100l88 500h400z" />
    <glyph glyph-name="afii10082" unicode="&#x440;" horiz-adv-x="535" 
d="M164 80q11 -6 25 -10q12 -4 28.5 -7t37.5 -3q24 0 47 10t42.5 32.5t35 58.5t24.5 89q9 51 6 86t-13.5 57t-27.5 32t-38 10q-23 0 -43.5 -9.5t-36.5 -20.5q-18 -13 -35 -30zM84 -200h-70l124 700h70l-1 -60h5q17 19 41 35q20 13 49 24t67 11q36 0 65.5 -16t49 -48.5
t25.5 -81t-5 -114.5q-12 -66 -35.5 -114.5t-56 -81t-72 -48.5t-82.5 -16q-23 0 -42 4.5t-33 10.5q-17 6 -30 15l-33 -190z" />
    <glyph glyph-name="afii10083" unicode="&#x441;" horiz-adv-x="455" 
d="M322 440q-26 0 -50 -10t-44 -32.5t-35 -59t-24 -88.5q-9 -53 -6.5 -89t15 -58.5t35 -32.5t52.5 -10q23 0 43.5 7t37.5 15q19 10 37 23h10l24 -60q-23 -16 -50 -28q-23 -11 -54.5 -19t-69.5 -8q-102 0 -149.5 64t-24.5 196t92 196t163 64q38 0 66.5 -8.5t48.5 -19.5
q23 -12 41 -27l-46 -60h-10q-13 12 -29 22q-14 8 -32 15.5t-41 7.5z" />
    <glyph glyph-name="afii10084" unicode="&#x442;" horiz-adv-x="420" 
d="M460 430h-150l-75 -430h-100l75 430h-150l13 70h400z" />
    <glyph glyph-name="afii10085" unicode="&#x443;" horiz-adv-x="475" 
d="M75 -140q26 0 49.5 20t37.5 50l33 70h-40l-77 500h100l51 -330q2 -11 3 -25t2 -26q1 -14 2 -29h4q6 15 12 29q5 12 10.5 26t10.5 25l150 330h100l-261 -570q-27 -60 -76.5 -100t-113.5 -40q-23 0 -40.5 4.5t-29.5 10.5q-14 6 -24 15l36 65h10q6 -8 14 -13q7 -5 16.5 -8.5
t20.5 -3.5z" />
    <glyph glyph-name="afii10086" unicode="&#x444;" horiz-adv-x="680" 
d="M375 60q69 4 115.5 48t63.5 142t-14 142t-98 48zM383 670l35 30h70l-34 -190q117 -4 169.5 -69.5t30.5 -190.5q-23 -125 -98 -190.5t-193 -69.5l-34 -190h-100l34 190q-116 4 -169 70t-30 190q22 125 97.5 190.5t192.5 69.5zM342 440q-69 -4 -115 -48t-63 -142t13.5 -142
t97.5 -48z" />
    <glyph glyph-name="afii10087" unicode="&#x445;" horiz-adv-x="460" 
d="M235 185l-8 -14q-4 -6 -8 -13t-9 -13l-110 -145h-110l199 255l-106 245h110l55 -140q4 -12 8 -26q2 -7 3 -14h4l8 14q4 6 8 13t9 13l105 140h110l-194 -245l111 -255h-110l-60 145q-3 6 -4.5 13t-3.5 13q-2 7 -3 14h-4z" />
    <glyph glyph-name="afii10088" unicode="&#x446;" horiz-adv-x="565" 
d="M50 0l88 500h100l-76 -430h190l76 430h100l-76 -430h65l-37 -210h-80l10 140h-360z" />
    <glyph glyph-name="afii10089" unicode="&#x447;" horiz-adv-x="520" 
d="M234 170q-39 0 -69 12.5t-49 34.5t-26 52t-1 66l29 165h100l-29 -165q-8 -42 15 -68.5t68 -26.5q19 0 35.5 2t29.5 5q15 4 27 8l44 245h100l-88 -500h-100l32 185q-17 -4 -35 -8q-16 -3 -37.5 -5t-45.5 -2z" />
    <glyph glyph-name="afii10090" unicode="&#x448;" horiz-adv-x="790" 
d="M690 0h-640l88 500h100l-76 -430h170l76 430h100l-76 -430h170l76 430h100z" />
    <glyph glyph-name="afii10091" unicode="&#x449;" horiz-adv-x="815" 
d="M50 0l88 500h100l-76 -430h170l76 430h100l-76 -430h170l76 430h100l-76 -430h65l-37 -210h-80l10 140h-610z" />
    <glyph glyph-name="afii10092" unicode="&#x44a;" horiz-adv-x="555" 
d="M363 330q105 0 144.5 -43t26.5 -122q-14 -79 -69 -122t-160 -43h-190l75 430h-130l13 70h230l-30 -170h90zM260 260l-33 -190h90q53 0 80.5 23t36.5 72q8 49 -11.5 72t-72.5 23h-90z" />
    <glyph glyph-name="afii10093" unicode="&#x44b;" horiz-adv-x="710" 
d="M610 0h-100l88 500h100zM288 330q105 0 144.5 -43t26.5 -122q-14 -79 -69 -122t-160 -43h-180l88 500h100l-30 -170h80zM195 260l-33 -190h80q53 0 80.5 23t36.5 72q8 49 -11.5 72t-72.5 23h-80z" />
    <glyph glyph-name="afii10094" unicode="&#x44c;" horiz-adv-x="490" 
d="M298 330q105 0 144.5 -43t26.5 -122q-14 -79 -69 -122t-160 -43h-190l88 500h100l-30 -170h90zM195 260l-33 -190h90q53 0 80.5 23t36.5 72q8 49 -11.5 72t-72.5 23h-90z" />
    <glyph glyph-name="afii10095" unicode="&#x44d;" horiz-adv-x="455" 
d="M237 440q-23 0 -44 -7.5t-38 -15.5q-19 -10 -36 -22h-10l-24 60q22 15 49 27q23 11 55 19.5t70 8.5q94 0 140.5 -64.5t24.5 -195.5q-23 -131 -94 -195.5t-172 -64.5q-38 0 -67 8t-49 19q-24 12 -40 28l46 60h10q12 -13 28 -23q14 -8 32.5 -15t41.5 -7q55 0 96.5 37
t60.5 123h-180l13 70h180q7 82 -19 116t-74 34z" />
    <glyph glyph-name="afii10096" unicode="&#x44e;" horiz-adv-x="715" 
d="M684 250q-12 -66 -35.5 -114.5t-56.5 -81t-73.5 -48.5t-85.5 -16q-86 0 -132 57t-33 173h-80l-38 -220h-100l88 500h100l-37 -210h80q13 56 37.5 97.5t56.5 68.5t70 40.5t79 13.5q45 0 80 -16t56.5 -48.5t28 -81t-4.5 -114.5zM584 250q9 52 6.5 88.5t-13 59t-27.5 32.5
t-38 10t-41.5 -10t-39 -32.5t-33.5 -59t-24 -88.5q-9 -53 -7 -89t12.5 -58.5t27.5 -32.5t38 -10t41.5 10t39 32.5t34 58.5t24.5 89z" />
    <glyph glyph-name="afii10097" unicode="&#x44f;" 
d="M273 190q-23 0 -40.5 -13.5t-28.5 -36.5l-31 -65q-20 -42 -46.5 -63.5t-68.5 -21.5q-25 0 -42 5q-9 2 -16 5l21 65h5q2 -2 6 -3q6 -2 13 -2q21 0 35 30l32 65q8 17 20 28.5t23 18.5q13 8 27 13q-32 6 -56 22q-10 7 -19 16.5t-15 22.5t-8.5 30t1.5 39q13 71 68 113t160 42
h185l-88 -500h-100l33 190h-70zM355 260l30 170h-85q-53 0 -80 -21.5t-35 -63.5q-7 -42 12.5 -63.5t72.5 -21.5h85z" />
    <glyph glyph-name="afii10071" unicode="&#x451;" horiz-adv-x="505" 
d="M319 510q45 0 80 -16t56.5 -48.5t28 -81t-4.5 -114.5l-3 -15l-24 -20h-290q-14 -79 14.5 -117t88.5 -38q23 0 43.5 7t37.5 15q19 10 37 23h10l24 -60q-23 -16 -50 -28q-23 -11 -54.5 -19t-69.5 -8q-102 0 -149.5 64t-24.5 196q11 66 34.5 114.5t56.5 81t73.5 48.5
t85.5 16zM307 440q-45 0 -81.5 -36.5t-50.5 -118.5h210q14 83 -9.5 119t-68.5 36zM310 620q-5 -24 -23 -39.5t-42 -15.5t-37 15.5t-8 39.5q4 24 22.5 39.5t42.5 15.5t36.5 -15.5t8.5 -39.5zM484 620q-5 -24 -23 -39.5t-42 -15.5t-37 15.5t-8 39.5q4 24 22.5 39.5t42.5 15.5
t36.5 -15.5t8.5 -39.5z" />
    <glyph glyph-name="afii10099" unicode="&#x452;" horiz-adv-x="555" 
d="M277 -70q34 0 58.5 22.5t32.5 67.5l46 260q8 42 -14 68.5t-64 26.5q-23 0 -44 -9.5t-37 -20.5q-19 -13 -35 -30l-55 -315h-100l91 520h-65l13 70h65l14 80l35 30h70l-19 -110h135l-13 -70h-135l-21 -120q17 14 38 25q18 9 43.5 17t57.5 8q37 0 66.5 -12.5t48 -35
t25.5 -54t0 -68.5l-46 -260q-6 -36 -23 -65.5t-41 -50.5t-54.5 -32.5t-64.5 -11.5q-17 0 -31 2t-25 5q-12 4 -22 8l22 65h10q5 -3 11 -5q12 -5 27 -5z" />
    <glyph glyph-name="afii10100" unicode="&#x453;" horiz-adv-x="415" 
d="M455 430h-230l-75 -430h-100l88 500h330zM448 700l-117 -150h-65l72 150h110z" />
    <glyph glyph-name="afii10101" unicode="&#x454;" horiz-adv-x="455" 
d="M322 440q-48 0 -85.5 -33.5t-59.5 -116.5h180l-13 -70h-180q-11 -86 17 -123t84 -37q23 0 43.5 7t37.5 15q19 10 37 23h10l24 -60q-23 -16 -50 -28q-23 -11 -54.5 -19t-69.5 -8q-102 0 -149.5 64t-24.5 196t92 196t163 64q38 0 66.5 -8.5t48.5 -19.5q23 -12 41 -27
l-46 -60h-10q-13 12 -29 22q-14 8 -32 15.5t-41 7.5z" />
    <glyph glyph-name="afii10102" unicode="&#x455;" horiz-adv-x="460" 
d="M193 -10q-45 0 -78 8t-55 19q-26 12 -43 28l46 60h10q13 -13 31 -23q15 -8 38 -15t53 -7q64 0 93 20t34 50q5 27 -13 43.5t-46.5 28.5t-63 23t-62.5 28t-44.5 43t-8.5 69q11 64 64 104.5t151 40.5q42 0 72.5 -8.5t51.5 -19.5q25 -12 42 -27l-46 -60h-10q-13 12 -30 22
q-14 8 -35 15.5t-47 7.5q-53 0 -79.5 -19.5t-31.5 -45.5q-5 -27 13 -43.5t46.5 -28.5t63 -23t62.5 -28t44 -43.5t9 -68.5q-12 -68 -67 -109t-164 -41z" />
    <glyph glyph-name="afii10103" unicode="&#x456;" horiz-adv-x="250" 
d="M238 500l-88 -500h-100l88 500h100zM272 640q-5 -26 -24.5 -43t-45.5 -17t-40.5 17t-9.5 43t25 43t46 17t40 -17t9 -43z" />
    <glyph glyph-name="afii10104" unicode="&#x457;" horiz-adv-x="250" 
d="M238 500l-88 -500h-100l88 500h100zM182 640q-5 -26 -24.5 -43t-45.5 -17t-40.5 17t-9.5 43t25 43t46 17t40 -17t9 -43zM362 640q-5 -26 -24.5 -43t-45.5 -17t-40.5 17t-9.5 43t25 43t46 17t40 -17t9 -43z" />
    <glyph glyph-name="afii10105" unicode="&#x458;" horiz-adv-x="250" 
d="M272 640q-5 -26 -24.5 -43t-45.5 -17t-40.5 17t-9.5 43t25 43t46 17t40 -17t9 -43zM-47 -130q33 0 57 22.5t32 67.5l96 540h100l-96 -540q-6 -36 -23 -65.5t-42 -50.5t-57.5 -32.5t-69.5 -11.5q-23 0 -40.5 4.5t-29.5 10.5q-14 6 -24 15l36 65h10q6 -8 14 -13
q7 -5 16.5 -8.5t20.5 -3.5z" />
    <glyph glyph-name="afii10106" unicode="&#x459;" horiz-adv-x="760" 
d="M568 330q105 0 144.5 -43t26.5 -122q-14 -79 -69 -122t-160 -43h-190l75 430h-135l-62 -270q-21 -90 -62.5 -130t-97.5 -40q-23 0 -38 5q-9 2 -15 5l16 65h10q2 -2 6 -3q6 -2 13 -2q19 0 36.5 20t31.5 80l80 340h330l-30 -170h90zM465 260l-33 -190h90q53 0 80.5 23
t36.5 72q8 49 -11.5 72t-72.5 23h-90z" />
    <glyph glyph-name="afii10107" unicode="&#x45a;" horiz-adv-x="770" 
d="M574 310q105 0 145.5 -42t27.5 -113t-67.5 -113t-159.5 -42h-190l42 240h-180l-42 -240h-100l88 500h100l-34 -190h180l34 190h100l-34 -190h90zM472 240l-30 -170h90q53 0 80 21.5t35 63.5t-12 63.5t-73 21.5h-90z" />
    <glyph glyph-name="afii10108" unicode="&#x45b;" horiz-adv-x="560" 
d="M169 590l14 80l35 30h70l-19 -110h135l-13 -70h-135l-21 -120q17 14 38 25q18 9 43.5 17t57.5 8q37 0 66.5 -12.5t48 -35t25.5 -54t0 -68.5l-49 -280h-100l49 280q8 42 -14 68.5t-64 26.5q-23 0 -44 -9.5t-37 -20.5q-19 -13 -35 -30l-55 -315h-100l91 520h-65l13 70h65z
" />
    <glyph glyph-name="afii10109" unicode="&#x45c;" 
d="M330 260q19 -3 34 -13q13 -8 24.5 -23t13.5 -39l8 -95q3 -30 25 -30q6 0 14 2q4 1 7 3h5l-1 -65q-8 -3 -18 -5q-18 -5 -44 -5q-42 0 -62 22t-23 63l-9 95q-2 23 -16 36.5t-40 13.5h-60l-38 -220h-100l88 500h100l-37 -210h50q29 0 46.5 13.5t26.5 36.5l35 85
q17 42 44.5 63.5t70.5 21.5q13 0 24 -1.5t19 -3.5q9 -3 16 -5l-22 -65h-5l-6 2l-6 2t-7 1q-23 0 -35 -30l-35 -85q-10 -23 -24.5 -35.5t-28.5 -19.5q-17 -8 -34 -10zM466 690l-116 -150h-65l71 150h110z" />
    <glyph glyph-name="afii10110" unicode="&#x45e;" horiz-adv-x="475" 
d="M75 -140q26 0 49.5 20t37.5 50l33 70h-40l-77 500h100l51 -330q2 -11 3 -25t2 -26q1 -14 2 -29h4q6 15 12 29q5 12 10.5 26t10.5 25l150 330h100l-261 -570q-27 -60 -76.5 -100t-113.5 -40q-23 0 -40.5 4.5t-29.5 10.5q-14 6 -24 15l36 65h10q6 -8 14 -13q7 -5 16.5 -8.5
t20.5 -3.5zM320 600q30 0 48 16t25 54h90q-11 -60 -54.5 -95t-118.5 -35t-106.5 35t-20.5 95h90q-7 -38 5 -54t42 -16z" />
    <glyph glyph-name="afii10193" unicode="&#x45f;" horiz-adv-x="550" 
d="M50 0l88 500h100l-76 -430h200l76 430h100l-88 -500h-150l-35 -140h-80l15 140h-150z" />
    <glyph glyph-name="afii10050" unicode="&#x490;" horiz-adv-x="490" 
d="M596 800l-30 -170h-290l-111 -630h-100l123 700h300l28 100h80z" />
    <glyph glyph-name="afii10098" unicode="&#x491;" horiz-adv-x="415" 
d="M138 500h240l26 90h80l-29 -160h-230l-75 -430h-100z" />
    <glyph glyph-name="endash" unicode="&#x2013;" 
d="M49 250l14 80h450l-14 -80h-450z" />
    <glyph glyph-name="emdash" unicode="&#x2014;" horiz-adv-x="720" 
d="M49 250l14 80h660l-14 -80h-660z" />
    <glyph glyph-name="quoteleft" unicode="&#x2018;" horiz-adv-x="200" 
d="M228 530q-5 -26 -24 -43t-42 -17q-30 0 -44 18t-8 52q8 43 27 75t40 53q24 25 53 42l24 -35q-17 -12 -32 -26q-13 -12 -24.5 -27t-13.5 -32q23 0 36 -17t8 -43z" />
    <glyph glyph-name="quoteright" unicode="&#x2019;" horiz-adv-x="200" 
d="M129 650q5 26 24 43t42 17q30 0 44 -18t8 -52q-8 -44 -28 -75.5t-40 -52.5q-25 -25 -52 -42l-23 35q17 12 32 26q12 12 23.5 27t14.5 32q-23 0 -36.5 17t-8.5 43z" />
    <glyph glyph-name="quotesinglbase" unicode="&#x201a;" horiz-adv-x="200" 
d="M23 50q5 26 24 43t42 17q30 0 44 -18t9 -52q-8 -44 -28 -75.5t-40 -52.5q-24 -25 -52 -42l-24 35q17 12 32 26q12 12 23.5 27t14.5 32q-23 0 -36.5 17t-8.5 43z" />
    <glyph glyph-name="quotedblleft" unicode="&#x201c;" horiz-adv-x="360" 
d="M388 530q-5 -26 -24 -43t-42 -17q-30 0 -44 18t-8 52q8 43 27 75t40 53q24 25 53 42l24 -35q-17 -12 -32 -26q-13 -12 -24.5 -27t-13.5 -32q23 0 36 -17t8 -43zM228 530q-5 -26 -24 -43t-42 -17q-30 0 -44 18t-8 52q8 43 27 75t40 53q24 25 53 42l24 -35q-17 -12 -32 -26
q-13 -12 -24.5 -27t-13.5 -32q23 0 36 -17t8 -43z" />
    <glyph glyph-name="quotedblright" unicode="&#x201d;" horiz-adv-x="360" 
d="M129 650q5 26 24 43t42 17q30 0 44 -18t8 -52q-8 -44 -28 -75.5t-40 -52.5q-25 -25 -52 -42l-23 35q17 12 32 26q12 12 23.5 27t14.5 32q-23 0 -36.5 17t-8.5 43zM289 650q5 26 24 43t42 17q30 0 44 -18t8 -52q-8 -44 -28 -75.5t-40 -52.5q-25 -25 -52 -42l-23 35
q17 12 32 26q12 12 23.5 27t14.5 32q-23 0 -36.5 17t-8.5 43z" />
    <glyph glyph-name="quotedblbase" unicode="&#x201e;" horiz-adv-x="360" 
d="M23 50q5 26 24 43t42 17q30 0 44 -18t9 -52q-8 -44 -28 -75.5t-40 -52.5q-24 -25 -52 -42l-24 35q17 12 32 26q12 12 23.5 27t14.5 32q-23 0 -36.5 17t-8.5 43zM183 50q5 26 24 43t42 17q30 0 44 -18t9 -52q-8 -44 -28 -75.5t-40 -52.5q-24 -25 -52 -42l-24 35
q17 12 32 26q12 12 23.5 27t14.5 32q-23 0 -36.5 17t-8.5 43z" />
    <glyph glyph-name="dagger" unicode="&#x2020;" horiz-adv-x="460" 
d="M227 410h-160l12 70h160l39 220h100l-39 -220h160l-12 -70h-160l-108 -610h-100z" />
    <glyph glyph-name="daggerdbl" unicode="&#x2021;" horiz-adv-x="460" 
d="M227 410h-160l12 70h160l39 220h100l-39 -220h160l-12 -70h-160l-57 -320h160l-12 -70h-160l-39 -220h-100l39 220h-160l12 70h160z" />
    <glyph glyph-name="bullet" unicode="&#x2022;" horiz-adv-x="370" 
d="M334 310q-9 -53 -48.5 -86.5t-92.5 -33.5t-80.5 33.5t-18.5 86.5q10 53 49 86.5t92 33.5t81 -33.5t18 -86.5z" />
    <glyph glyph-name="ellipsis" unicode="&#x2026;" horiz-adv-x="580" 
d="M23 50q5 26 25 43t46 17t40 -17t9 -43t-24.5 -43t-45.5 -17t-40.5 17t-9.5 43zM213 50q5 26 25 43t46 17t40 -17t9 -43t-24.5 -43t-45.5 -17t-40.5 17t-9.5 43zM403 50q5 26 25 43t46 17t40 -17t9 -43t-24.5 -43t-45.5 -17t-40.5 17t-9.5 43z" />
    <glyph glyph-name="perthousand" unicode="&#x2030;" horiz-adv-x="1131" 
d="M668 700h110l-593 -700h-110zM626 290q-30 0 -55 -26t-37 -94q-6 -34 -4.5 -57t8.5 -37t18.5 -20t26.5 -6t29 6t26 20t21 37t15 57q12 67 -3 93.5t-45 26.5zM636 350q71 0 107.5 -47t20.5 -133q-15 -87 -67 -133.5t-124 -46.5t-108 46.5t-21 133.5q16 87 68 133.5
t124 46.5zM977 290q-30 0 -55 -26t-37 -94q-6 -34 -4.5 -57t8.5 -37t18.5 -20t26.5 -6t29 6t26 20t21 37t15 57q12 67 -3 93.5t-45 26.5zM987 350q71 0 107.5 -47t20.5 -133q-15 -87 -67 -133.5t-124 -46.5t-108 46.5t-21 133.5q16 87 68 133.5t124 46.5zM269 650
q-30 0 -54.5 -26t-36.5 -94q-6 -34 -4.5 -57t8 -37t18.5 -20t27 -6q30 0 54.5 26t36.5 94q12 67 -3.5 93.5t-45.5 26.5zM280 710q72 0 107.5 -46.5t20.5 -133.5t-67.5 -133.5t-124.5 -46.5t-107.5 46.5t-20.5 133.5t67.5 133.5t124.5 46.5z" />
    <glyph glyph-name="guilsinglleft" unicode="&#x2039;" horiz-adv-x="330" 
d="M257 470h120l-227 -210l153 -210h-120l-153 210z" />
    <glyph glyph-name="guilsinglright" unicode="&#x203a;" horiz-adv-x="340" 
d="M340 260l-227 -210h-120l227 210l-153 210h120z" />
    <glyph glyph-name="Euro" unicode="&#x20ac;" horiz-adv-x="545" 
d="M77 440h64q21 72 51 123.5t67.5 84t81.5 47.5t94 15q42 0 72.5 -8.5t51.5 -19.5q24 -12 41 -27l-46 -60h-10q-13 12 -30 22q-14 8 -35 15.5t-47 7.5q-29 0 -56.5 -10.5t-52 -34t-45.5 -61.5t-37 -94h220l-20 -60h-214l-11 -60h210l-21 -60h-196q-3 -56 5 -94.5t25.5 -62
t43 -33.5t57.5 -10q26 0 49.5 7t40.5 15q20 10 38 23h10l24 -60q-23 -16 -51 -28q-24 -11 -57.5 -19t-75.5 -8q-53 0 -93.5 15t-68 47.5t-40 83.5t-7.5 124h-79l21 60h65l11 60h-70z" />
    <glyph glyph-name="afii61352" unicode="&#x2116;" horiz-adv-x="956" 
d="M647 290h280l-13 -70h-280zM273 445q-4 11 -6.5 25.5t-4.5 28.5q-3 15 -4 31h-4q-2 -16 -4 -31q-2 -14 -3.5 -28.5t-3.5 -25.5l-78 -445h-100l123 700h110l131 -445q3 -11 6 -26t5 -28q3 -16 4 -31h4q2 15 4 31q2 13 3.5 28t3.5 26l79 445h100l-123 -700h-110zM850 650
q-30 0 -54.5 -26t-36.5 -94q-6 -34 -4.5 -57t8 -37t18.5 -20t27 -6q30 0 54.5 26t36.5 94q12 67 -3.5 93.5t-45.5 26.5zM861 710q72 0 107.5 -46.5t20.5 -133.5t-67.5 -133.5t-124.5 -46.5t-107.5 46.5t-20.5 133.5t67.5 133.5t124.5 46.5z" />
    <glyph glyph-name="trademark" unicode="&#x2122;" horiz-adv-x="850" 
d="M426 635h-120l-55 -315h-90l55 315h-120l12 65h330zM653 465q2 6 6 12q3 5 6 11t8 12l140 200h95l-67 -380h-90l32 180q2 9 3.5 19t3.5 18q2 10 5 18h-5q-5 -9 -10 -19q-9 -17 -22 -36l-81 -115h-80l-39 115q-4 9 -6 18.5t-4 17.5q-2 10 -4 19h-5q-1 -8 -2 -18
q-1 -8 -1.5 -18t-2.5 -19l-32 -180h-90l67 380h95l70 -200q2 -6 3 -12t2 -11q1 -6 1 -12h4z" />
    <glyph glyph-name="commaaccent" horiz-adv-x="130" 
d="M-28 -75q4 23 22 39t37 16q26 0 40 -17.5t9 -46.5q-8 -40 -25 -68.5t-35 -47.5q-21 -22 -46 -36l-25 31q16 10 29 22q11 11 21 24.5t13 28.5q-19 0 -31.5 16t-8.5 39z" />
    <glyph glyph-name="apple" horiz-adv-x="1285" 
d="M40 260l194 165l-29 -165h-165zM419 340q-3 -17 -12.5 -32.5t-23.5 -27t-30.5 -18.5t-33.5 -7q-34 0 -54.5 25.5t-15.5 59.5q3 17 12.5 32.5t23.5 27t30.5 18.5t33.5 7q34 0 55 -25.5t15 -59.5zM614 420l-120 -165l-60 165h180zM760 400l115 -140h-140zM540 260l119 165
l61 -165h-180zM899 280l-115 140h140zM956 400l115 -140h-140zM1095 280l-115 140h140zM1314 420l-120 -165l-60 165h180z" />
    <glyph glyph-name="kcedilla" horiz-adv-x="480" 
d="M50 0zM273 700l-76 -430l211 230h115l-223 -240l145 -260h-115l-136 250l-44 -250h-100l118 670l35 30h70zM209 -30q42 0 62 -23t14 -57t-35 -57t-74 -23q-19 0 -33 3t-23 7q-11 4 -19 10l22 40h9q-1 0 11 -7.5t31 -7.5t31.5 10t14.5 25q3 15 -6.5 25t-32.5 10h-40l17 95
h60z" />
    <glyph glyph-name=".ttfautohint" horiz-adv-x="360" 
d="M0 0z" />
    </font>
</defs>
</svg>
